<?xml version="1.0" encoding="UTF-8"?>
<svg version="1.1" viewBox="0 0 64 64" xmlns="http://www.w3.org/2000/svg" xmlns:cc="http://creativecommons.org/ns#" xmlns:dc="http://purl.org/dc/elements/1.1/" xmlns:rdf="http://www.w3.org/1999/02/22-rdf-syntax-ns#">
 <metadata>
  <rdf:RDF>
   <cc:Work rdf:about="">
    <dc:format>image/svg+xml</dc:format>
    <dc:type rdf:resource="http://purl.org/dc/dcmitype/StillImage"/>
    <dc:title/>
   </cc:Work>
  </rdf:RDF>
 </metadata>
 <g transform="matrix(.16443 0 0 .16443 -24.097 1.1759)" stroke="#000" stroke-width=".3415">
  <path d="m415.71 80.463v34.433l-73.4 50.57-76.525-48.311v-36.954l76.49 51.076z" fill="#afdde9"/>
  <path d="m415.41 140.04v34.432l-73.405 50.571-76.525-48.311v-36.955l76.49 51.078z" fill="#87cdde"/>
  <path d="m416.86 23.632v34.426l-73.399 50.581-76.524-48.311v-36.962l76.486 51.077z" fill="#d7eef4"/>
 </g>
 <g transform="matrix(1.2502 0 0 1.2502 -6.1982 -17.436)" clip-rule="evenodd" fill-rule="evenodd" stroke-width=".17182">
  <path d="m43.279 56.448c-0.4182 0-0.84345-0.13436-1.2639-0.3993-1.9711-1.2416-3.9796-2.4895-5.8677-3.6613-0.14931-0.09295-0.29415-0.16116-0.43092-0.20292-5.127-1.5738-9.8551-2.8276-14.427-3.8252 0.1213 0.30309 0.24209 0.59586 0.37061 0.88056 0.05223 0.01701 0.11735 0.03368 0.1555 0.04381 0.98503 0.25773 1.9709 0.51167 2.9566 0.76562 0.93091 0.23986 1.862 0.47954 2.7922 0.72266 1.1148 0.29106 1.7814 1.0983 1.7836 2.1587 1e-3 0.5828-0.2359 1.1548-0.64998 1.5696-0.40016 0.40102-0.92094 0.62164-1.4665 0.62181-0.15893 0-0.31906-0.01907-0.47593-0.05704-2.8845-0.69724-5.249-1.3146-7.4418-1.9434-0.61064-0.17543-1.1582-0.81905-1.3835-1.3641-0.97094-2.3486-1.8936-4.7585-2.786-7.0894l-0.04553-0.1189c-0.41786-1.091-0.1567-2.0847 0.11752-2.8285 0.71545-1.9402 1.3752-3.943 2.0134-5.8806-0.0076-0.03917-0.0323-0.11873-0.08299-0.21202-0.73366-1.3507-1.4922-2.7187-2.2259-4.0417l-0.4438-0.80067c-0.59913-1.0816-0.32113-2.2869 0.66132-2.8656 0.3469-0.20429 0.71046-0.30807 1.0804-0.30807 0.74861 0 1.4163 0.42782 1.8319 1.1735 0.5914 1.0618 1.1874 2.1436 1.7637 3.1896 0.4524 0.82112 0.90462 1.6424 1.3594 2.4625 0.36786 0.66304 0.42662 1.3665 0.17508 2.0902-0.31735 0.91132-0.61579 1.814-0.93194 2.7697-0.05979 0.18075-0.11976 0.36202-0.18006 0.54449l0.98829 0.24243c2.4692 0.60617 4.8026 1.179 7.1842 1.7451 0.03299-0.01392 0.07715-0.03935 0.09948-0.06031 1.419-1.3464 2.8532-2.7262 4.2401-4.0609l1.0414-1.0017c0.47336-0.45497 1.1254-0.9773 1.9728-0.9773 0.51872 0 1.0512 0.1835 1.7273 0.59518 1.0837 0.65944 2.1699 1.3146 3.2561 1.9699 1.3763 0.83022 2.7994 1.6886 4.1944 2.5424 0.74689 0.45686 1.2235 1.1795 1.308 1.9824 0.08075 0.76837-0.20996 1.5287-0.79775 2.086-0.47903 0.45428-1.0675 0.69414-1.702 0.69414-0.48813 0-0.99276-0.14828-1.4594-0.42886l-0.7541-0.45325c-1.7469-1.0501-3.5534-2.136-5.3186-3.2252-0.02216-0.01357-0.04055-0.0244-0.05601-0.03282-0.0096 0.0088-0.02062 0.0189-0.03299 0.03144-1.2457 1.2227-2.4829 2.4087-3.7929 3.6642-0.20326 0.19467-0.40704 0.3902-0.61167 0.58641 0.53281 0.15017 1.0658 0.29896 1.5989 0.44776 1.3905 0.38814 2.8281 0.78933 4.2368 1.2122 0.43418 0.13058 0.81527 0.37714 1.1512 0.59483 0.0823 0.05344 0.16443 0.10653 0.2469 0.15773 0.7328 0.45463 1.4632 0.91286 2.1936 1.3709 1.1068 0.69397 2.2515 1.4118 3.3833 2.1046 1.1634 0.71184 1.3056 1.6981 1.2202 2.4003-0.13127 1.077-0.74345 1.8838-1.7244 2.2719-0.24501 0.0969-0.49776 0.14604-0.75119 0.14622z" fill="#fff"/>
  <path d="m19.47 40.266c3.0084 0.73744 5.9363 1.4615 8.8708 2.1585 0.16821 0.03969 0.43556-0.08917 0.57748-0.22371 1.7699-1.6792 3.5253-3.3742 5.2842-5.0652 1.03-0.99036 1.7469-1.0532 2.9793-0.30309 2.4798 1.5091 4.9731 2.9962 7.4491 4.5116 1.206 0.73796 1.3833 2.2091 0.41167 3.1303-0.66614 0.6316-1.5814 0.70737-2.4463 0.18728-2.0262-1.2187-4.0549-2.4336-6.067-3.6748-0.33934-0.20944-0.52267-0.20944-0.81751 0.08024-1.6716 1.6405-3.3692 3.2546-5.13 4.9468 0.33848 0.10481 0.60462 0.19364 0.87438 0.26975 1.9786 0.55892 3.9635 1.0962 5.9323 1.6872 0.44741 0.13436 0.84946 0.43607 1.2558 0.68813 1.8618 1.156 3.7106 2.3336 5.5799 3.4776 0.70239 0.42954 1.0386 1.0144 0.94053 1.8216-0.10343 0.84775-0.54947 1.473-1.3531 1.7912-0.51648 0.20412-1.0074 0.09433-1.4799-0.20343-1.9517-1.2292-3.9111-2.4469-5.8712-3.6631-0.17714-0.11031-0.37095-0.20515-0.56992-0.26632-5.0178-1.5403-10.082-2.9042-15.217-3.9975-0.07182-0.01529-0.14501-0.0244-0.33968-0.05636 0.29673 0.73675 0.54535 1.4079 0.84568 2.0553 0.05996 0.12904 0.31047 0.19536 0.48624 0.24106 1.9149 0.50119 3.8336 0.98778 5.7488 1.4883 0.85462 0.22319 1.3379 0.80874 1.3395 1.5852 0.0017 0.98022-0.89414 1.7883-1.8582 1.5553-2.484-0.60016-4.9616-1.2326-7.4174-1.9369-0.40394-0.11598-0.8261-0.60394-0.99809-1.0199-0.98417-2.3805-1.9044-4.7875-2.8257-7.1938-0.30962-0.80823-0.18058-1.5946 0.1201-2.4103 0.72438-1.9647 1.3797-3.9552 2.0347-5.9444 0.0591-0.17972-0.03832-0.4505-0.13969-0.63744-0.88056-1.6213-1.7781-3.2331-2.6721-4.847-0.4426-0.79895-0.26168-1.6501 0.44312-2.0654 0.77558-0.45704 1.6166-0.20962 2.0915 0.64242 1.0472 1.88 2.0786 3.7688 3.1224 5.6509 0.28848 0.52009 0.33075 1.0393 0.13333 1.6068-0.44776 1.2855-0.86716 2.5809-1.318 3.9331z" fill="#161650"/>
  <path d="m16.077 44.236c-2.1329 0-3.8882-1.6671-3.9958-3.7954-0.05344-1.0524 0.31546-2.0676 1.0386-2.8587 0.73332-0.80222 1.7309-1.2672 2.8089-1.3092 0.05395-0.0021 0.1079-0.0031 0.16134-0.0031 2.1298 0 3.8719 1.6697 3.9659 3.8013 0.04759 1.0792-0.32542 2.1058-1.0503 2.8907-0.7218 0.78177-1.7098 1.2335-2.7817 1.2718-0.04914 0.0019-0.09828 0.0027-0.1469 0.0027z" fill="#fff"/>
  <path d="m19.462 40.097c0.0835 1.8969-1.3684 3.4748-3.2595 3.5424-1.8723 0.06684-3.4338-1.3622-3.5283-3.229-0.09416-1.8608 1.3945-3.4704 3.2774-3.5439 1.8752-0.07371 3.4278 1.3553 3.5104 3.2305z" fill="#161650"/>
  <path d="m22.348 56.324c1.1292-0.27456 9.0683 1.6488 9.7135 2.3414-0.75428 0.34226-1.5129 0.23711-2.262 0.18797-0.74534-0.04914-1.4893-0.11512-2.2341-0.17354-0.01186 0.06323-0.02354 0.12628-0.03522 0.18969 4.2432 0.82764 8.4862 1.6556 12.729 2.4833-0.0074 0.04261-0.0146 0.08505-0.02182 0.12783-3.1008-0.40635-6.2121-0.74723-9.2996-1.2373-3.0846-0.48985-6.2019-0.89087-9.1465-2.0012 0.0012-0.08333 0.0026-0.16718 4e-3 -0.25068 0.29879-0.05928 0.60067-0.18075 0.89603-0.16649 1.2843 0.0622 2.5666 0.16752 3.8501 0.2481 0.22061 0.01409 0.4438-0.01529 0.68126-0.09673-1.5343-0.8218-3.2745-1.0206-4.875-1.6524z" fill="#5fbcd3"/>
  <path d="m39.051 58.192c-3.6154-0.3957-7.306-0.24158-10.813-1.4304 0.95256-0.66236 2.0455-0.24639 3.0453-0.45618 0.01392-0.05893 0.02801-0.1177 0.04209-0.17646-0.96183-0.30257-1.9238-0.60497-2.9202-0.91819 0.74156-0.29157 5.1258 0.67868 5.8892 1.369-0.85101 0.12594-1.589 0.23505-2.5022 0.3701 2.5254 0.43212 4.8918 0.83709 7.2584 1.2421z" fill="#5fbcd3"/>
 </g>
</svg>
