<?xml version="1.0" encoding="UTF-8" standalone="no"?>
<svg
   xmlns:dc="http://purl.org/dc/elements/1.1/"
   xmlns:cc="http://creativecommons.org/ns#"
   xmlns:rdf="http://www.w3.org/1999/02/22-rdf-syntax-ns#"
   xmlns:svg="http://www.w3.org/2000/svg"
   xmlns="http://www.w3.org/2000/svg"
   xmlns:sodipodi="http://sodipodi.sourceforge.net/DTD/sodipodi-0.dtd"
   xmlns:inkscape="http://www.inkscape.org/namespaces/inkscape"
   viewBox="0 0 256 256"
   version="1.1"
   id="svg839"
   sodipodi:docname="set_martial_artist.svg"
   inkscape:version="0.92.4 (5da689c313, 2019-01-14)">
  <metadata
     id="metadata845">
    <rdf:RDF>
      <cc:Work
         rdf:about="">
        <dc:format>image/svg+xml</dc:format>
        <dc:type
           rdf:resource="http://purl.org/dc/dcmitype/StillImage" />
      </cc:Work>
    </rdf:RDF>
  </metadata>
  <defs
     id="defs843">
    <inkscape:path-effect
       interpolator_type="Linear"
       interpolator_beta="0.2"
       cusp_linecap_type="round"
       start_linecap_type="zerowidth"
       end_linecap_type="zerowidth"
       effect="powerstroke"
       id="path-effect4614"
       is_visible="true"
       offset_points="0.86644719,0.60384456"
       sort_points="true"
       linejoin_type="round"
       miter_limit="4" />
    <inkscape:path-effect
       interpolator_type="Linear"
       interpolator_beta="0.2"
       cusp_linecap_type="round"
       start_linecap_type="zerowidth"
       end_linecap_type="zerowidth"
       effect="powerstroke"
       id="path-effect4610"
       is_visible="true"
       offset_points="0.089858733,0.41937464"
       sort_points="true"
       linejoin_type="round"
       miter_limit="4" />
    <inkscape:path-effect
       interpolator_type="Linear"
       interpolator_beta="0.2"
       cusp_linecap_type="round"
       start_linecap_type="zerowidth"
       end_linecap_type="zerowidth"
       effect="powerstroke"
       id="path-effect4606"
       is_visible="true"
       offset_points="0.29328208,0.36028299"
       sort_points="true"
       linejoin_type="round"
       miter_limit="4" />
    <inkscape:path-effect
       interpolator_type="Linear"
       interpolator_beta="0.2"
       cusp_linecap_type="round"
       start_linecap_type="zerowidth"
       end_linecap_type="zerowidth"
       effect="powerstroke"
       id="path-effect4584"
       is_visible="true"
       offset_points="0.52899141,0.61650821"
       sort_points="true"
       linejoin_type="round"
       miter_limit="4" />
    <inkscape:path-effect
       interpolator_type="Linear"
       interpolator_beta="0.2"
       cusp_linecap_type="round"
       start_linecap_type="zerowidth"
       end_linecap_type="zerowidth"
       effect="powerstroke"
       id="path-effect4580"
       is_visible="true"
       offset_points="0.13749695,-0.46515609"
       sort_points="true"
       linejoin_type="round"
       miter_limit="4" />
    <inkscape:path-effect
       interpolator_type="Linear"
       interpolator_beta="0.2"
       cusp_linecap_type="round"
       start_linecap_type="zerowidth"
       end_linecap_type="zerowidth"
       effect="powerstroke"
       id="path-effect4576"
       is_visible="true"
       offset_points="0.41874474,0.215021"
       sort_points="true"
       linejoin_type="round"
       miter_limit="4" />
    <inkscape:path-effect
       interpolator_type="Linear"
       interpolator_beta="0.2"
       cusp_linecap_type="round"
       start_linecap_type="zerowidth"
       end_linecap_type="zerowidth"
       effect="powerstroke"
       id="path-effect4572"
       is_visible="true"
       offset_points="0.73015703,-0.53296366"
       sort_points="true"
       linejoin_type="round"
       miter_limit="4" />
    <inkscape:path-effect
       interpolator_type="Linear"
       interpolator_beta="0.2"
       cusp_linecap_type="round"
       start_linecap_type="zerowidth"
       end_linecap_type="zerowidth"
       effect="powerstroke"
       id="path-effect4568"
       is_visible="true"
       offset_points="0.55601668,0.4410637"
       sort_points="true"
       linejoin_type="round"
       miter_limit="4" />
    <inkscape:path-effect
       interpolator_type="Linear"
       interpolator_beta="0.2"
       cusp_linecap_type="round"
       start_linecap_type="zerowidth"
       end_linecap_type="zerowidth"
       effect="powerstroke"
       id="path-effect4242"
       is_visible="true"
       offset_points="0.22358219,-0.72791312"
       sort_points="true"
       linejoin_type="round"
       miter_limit="4" />
    <inkscape:path-effect
       interpolator_type="Linear"
       interpolator_beta="0.2"
       cusp_linecap_type="round"
       start_linecap_type="zerowidth"
       end_linecap_type="zerowidth"
       effect="powerstroke"
       id="path-effect4238"
       is_visible="true"
       offset_points="0.14544937,2.3549562"
       sort_points="true"
       linejoin_type="round"
       miter_limit="4" />
    <inkscape:path-effect
       interpolator_type="Linear"
       interpolator_beta="0.2"
       cusp_linecap_type="round"
       start_linecap_type="zerowidth"
       end_linecap_type="zerowidth"
       effect="powerstroke"
       id="path-effect4255"
       is_visible="true"
       offset_points="0.088828796,0.39810203"
       sort_points="true"
       linejoin_type="round"
       miter_limit="4" />
    <inkscape:path-effect
       interpolator_type="Linear"
       interpolator_beta="0.2"
       cusp_linecap_type="round"
       start_linecap_type="zerowidth"
       end_linecap_type="zerowidth"
       effect="powerstroke"
       id="path-effect4203"
       is_visible="true"
       offset_points="0.81276062,-1.286815"
       sort_points="true"
       linejoin_type="round"
       miter_limit="4" />
    <inkscape:path-effect
       interpolator_type="Linear"
       interpolator_beta="0.2"
       cusp_linecap_type="round"
       start_linecap_type="zerowidth"
       end_linecap_type="zerowidth"
       effect="powerstroke"
       id="path-effect4199"
       is_visible="true"
       offset_points="0.28308433,1.1604326"
       sort_points="true"
       linejoin_type="round"
       miter_limit="4" />
    <inkscape:path-effect
       interpolator_type="Linear"
       interpolator_beta="0.2"
       cusp_linecap_type="round"
       start_linecap_type="zerowidth"
       end_linecap_type="zerowidth"
       effect="powerstroke"
       id="path-effect4203-4"
       is_visible="true"
       offset_points="0.45408377,-0.95413935"
       sort_points="true"
       linejoin_type="round"
       miter_limit="4" />
    <inkscape:path-effect
       interpolator_type="Linear"
       interpolator_beta="0.2"
       cusp_linecap_type="round"
       start_linecap_type="zerowidth"
       end_linecap_type="zerowidth"
       effect="powerstroke"
       id="path-effect4199-7"
       is_visible="true"
       offset_points="0.88158867,1.1916301"
       sort_points="true"
       linejoin_type="round"
       miter_limit="4" />
    <inkscape:path-effect
       interpolator_type="Linear"
       interpolator_beta="0.2"
       cusp_linecap_type="round"
       start_linecap_type="zerowidth"
       end_linecap_type="zerowidth"
       effect="powerstroke"
       id="path-effect4584-7"
       is_visible="true"
       offset_points="0.52899141,0.61650821"
       sort_points="true"
       linejoin_type="round"
       miter_limit="4" />
    <inkscape:path-effect
       interpolator_type="Linear"
       interpolator_beta="0.2"
       cusp_linecap_type="round"
       start_linecap_type="zerowidth"
       end_linecap_type="zerowidth"
       effect="powerstroke"
       id="path-effect4614-6"
       is_visible="true"
       offset_points="0.86644719,0.60384456"
       sort_points="true"
       linejoin_type="round"
       miter_limit="4" />
    <inkscape:path-effect
       interpolator_type="Linear"
       interpolator_beta="0.2"
       cusp_linecap_type="round"
       start_linecap_type="zerowidth"
       end_linecap_type="zerowidth"
       effect="powerstroke"
       id="path-effect5095"
       is_visible="true"
       offset_points="0.00093846051,0.34348752"
       sort_points="true"
       linejoin_type="round"
       miter_limit="4" />
    <inkscape:path-effect
       interpolator_type="Linear"
       interpolator_beta="0.2"
       cusp_linecap_type="round"
       start_linecap_type="zerowidth"
       end_linecap_type="zerowidth"
       effect="powerstroke"
       id="path-effect5103"
       is_visible="true"
       offset_points="0.0081263154,0.22963839"
       sort_points="true"
       linejoin_type="round"
       miter_limit="4" />
    <inkscape:path-effect
       interpolator_type="Linear"
       interpolator_beta="0.2"
       cusp_linecap_type="round"
       start_linecap_type="zerowidth"
       end_linecap_type="zerowidth"
       effect="powerstroke"
       id="path-effect5107"
       is_visible="true"
       offset_points="0.069819396,0.20837084"
       sort_points="true"
       linejoin_type="round"
       miter_limit="4" />
    <inkscape:path-effect
       interpolator_type="Linear"
       interpolator_beta="0.2"
       cusp_linecap_type="round"
       start_linecap_type="zerowidth"
       end_linecap_type="zerowidth"
       effect="powerstroke"
       id="path-effect5111"
       is_visible="true"
       offset_points="0.010437427,0.24891486"
       sort_points="true"
       linejoin_type="round"
       miter_limit="4" />
    <inkscape:path-effect
       interpolator_type="Linear"
       interpolator_beta="0.2"
       cusp_linecap_type="round"
       start_linecap_type="zerowidth"
       end_linecap_type="zerowidth"
       effect="powerstroke"
       id="path-effect5119"
       is_visible="true"
       offset_points="0,0.25273774"
       sort_points="true"
       linejoin_type="round"
       miter_limit="4" />
    <inkscape:path-effect
       interpolator_type="Linear"
       interpolator_beta="0.2"
       cusp_linecap_type="round"
       start_linecap_type="zerowidth"
       end_linecap_type="zerowidth"
       effect="powerstroke"
       id="path-effect5123"
       is_visible="true"
       offset_points="0.0147415,0.28590937"
       sort_points="true"
       linejoin_type="round"
       miter_limit="4" />
    <inkscape:path-effect
       interpolator_type="Linear"
       interpolator_beta="0.2"
       cusp_linecap_type="round"
       start_linecap_type="zerowidth"
       end_linecap_type="zerowidth"
       effect="powerstroke"
       id="path-effect5127"
       is_visible="true"
       offset_points="0.014514022,0.2541775"
       sort_points="true"
       linejoin_type="round"
       miter_limit="4" />
    <inkscape:path-effect
       interpolator_type="Linear"
       interpolator_beta="0.2"
       cusp_linecap_type="round"
       start_linecap_type="zerowidth"
       end_linecap_type="zerowidth"
       effect="powerstroke"
       id="path-effect5131"
       is_visible="true"
       offset_points="0.015500384,0.23731623"
       sort_points="true"
       linejoin_type="round"
       miter_limit="4" />
    <inkscape:path-effect
       interpolator_type="Linear"
       interpolator_beta="0.2"
       cusp_linecap_type="round"
       start_linecap_type="zerowidth"
       end_linecap_type="zerowidth"
       effect="powerstroke"
       id="path-effect5135"
       is_visible="true"
       offset_points="0.0022581045,0.20973053"
       sort_points="true"
       linejoin_type="round"
       miter_limit="4" />
    <inkscape:path-effect
       interpolator_type="Linear"
       interpolator_beta="0.2"
       cusp_linecap_type="round"
       start_linecap_type="zerowidth"
       end_linecap_type="zerowidth"
       effect="powerstroke"
       id="path-effect5139"
       is_visible="true"
       offset_points="0,0.22014346"
       sort_points="true"
       linejoin_type="round"
       miter_limit="4" />
    <inkscape:path-effect
       interpolator_type="Linear"
       interpolator_beta="0.2"
       cusp_linecap_type="round"
       start_linecap_type="zerowidth"
       end_linecap_type="zerowidth"
       effect="powerstroke"
       id="path-effect5143"
       is_visible="true"
       offset_points="0,0.26077474"
       sort_points="true"
       linejoin_type="round"
       miter_limit="4" />
    <inkscape:path-effect
       interpolator_type="Linear"
       interpolator_beta="0.2"
       cusp_linecap_type="round"
       start_linecap_type="zerowidth"
       end_linecap_type="zerowidth"
       effect="powerstroke"
       id="path-effect5147"
       is_visible="true"
       offset_points="0.097798287,0.24458835"
       sort_points="true"
       linejoin_type="round"
       miter_limit="4" />
    <inkscape:path-effect
       interpolator_type="Linear"
       interpolator_beta="0.2"
       cusp_linecap_type="round"
       start_linecap_type="zerowidth"
       end_linecap_type="zerowidth"
       effect="powerstroke"
       id="path-effect5151"
       is_visible="true"
       offset_points="0.061267207,0.22254603"
       sort_points="true"
       linejoin_type="round"
       miter_limit="4" />
    <inkscape:path-effect
       interpolator_type="Linear"
       interpolator_beta="0.2"
       cusp_linecap_type="round"
       start_linecap_type="zerowidth"
       end_linecap_type="zerowidth"
       effect="powerstroke"
       id="path-effect5155"
       is_visible="true"
       offset_points="0,0.22651192"
       sort_points="true"
       linejoin_type="round"
       miter_limit="4" />
    <inkscape:path-effect
       interpolator_type="Linear"
       interpolator_beta="0.2"
       cusp_linecap_type="round"
       start_linecap_type="zerowidth"
       end_linecap_type="zerowidth"
       effect="powerstroke"
       id="path-effect5159"
       is_visible="true"
       offset_points="0.010900883,0.18771784"
       sort_points="true"
       linejoin_type="round"
       miter_limit="4" />
  </defs>
  <sodipodi:namedview
     pagecolor="#ffffff"
     bordercolor="#666666"
     borderopacity="1"
     objecttolerance="10"
     gridtolerance="10"
     guidetolerance="10"
     inkscape:pageopacity="0"
     inkscape:pageshadow="2"
     inkscape:window-width="1920"
     inkscape:window-height="1057"
     id="namedview841"
     showgrid="false"
     inkscape:zoom="1.2263883"
     inkscape:cx="193.2322"
     inkscape:cy="131.957"
     inkscape:window-x="-8"
     inkscape:window-y="-8"
     inkscape:window-maximized="1"
     inkscape:current-layer="svg839" />
  <ellipse
     style="fill:#ff7f00;stroke:#000000;stroke-width:6.65500021;stroke-linecap:round;stroke-linejoin:round;fill-opacity:1"
     id="ellipse831"
     ry="104.094"
     rx="104.857"
     cy="130.146"
     cx="131.272" />
  <text
     id="text833"
     style="font-weight:400;font-size:40px;line-height:125%;font-family:sans-serif;letter-spacing:0;word-spacing:0"
     word-spacing="0"
     letter-spacing="0"
     font-weight="400"
     font-size="40"
     y="36.796997"
     x="51.264999" />
  <g
     id="layer2"
     inkscape:label="Layer 2"
     transform="matrix(0.94779339,0,0,0.94779339,-260.31111,-52.100046)" />
  <g
     id="g892"
     transform="matrix(0.76425887,0,0,0.76425887,-170.90506,-9.46793)">
    <path
       inkscape:connector-curvature="0"
       d="m 532.792,189.025 c -13.103,0 -25.011,-5.826 -35.395,-17.318 l -0.09,-0.101 c -10.536,-12.125 -19.534,-28.315 -26.916,-48.381 -3.525,8.18 -8.478,15.812 -14.796,22.786 l -0.327,0.362 -0.375,0.313 c -10.698,8.916 -22.631,17.304 -35.488,24.95 -2.843,4.34 -7.068,9.246 -12.954,9.246 -2.883,0 -8.313,-0.976 -12.286,-7.508 l -0.109,-0.181 -0.099,-0.187 c -2.816,-5.335 -4.244,-11.605 -4.244,-18.637 0,-2.429 0.426,-5.185 1.302,-8.422 1.894,-7.899 3.523,-16.091 4.855,-24.391 -2.888,-4.349 -4.348,-8.644 -4.348,-12.8 0,-2.13 0.37,-4.132 1.09,-5.949 -2.455,-0.64 -4.885,-1.67 -7.269,-3.082 l -0.186,-0.11 -0.178,-0.121 c -8.935,-6.07 -12.101,-9.804 -12.101,-14.269 0,-4.575 3.312,-9.498 10.584,-9.498 1.683,0 3.556,0.382 5.882,1.214 l 11.191,-3.489 c -0.142,-0.215 -0.271,-0.439 -0.392,-0.672 -0.771,-1.508 -1.655,-4.603 1.083,-8.396 l 0.634,-0.878 6.02,-4.455 c -3.992,-3 -8.576,-7.396 -8.576,-13.104 0,-6.126 4.204,-10.404 10.223,-10.404 h 0.369 l 7.779,0.828 c 6.119,-1.314 11.947,-2.987 17.343,-4.979 2.056,-0.982 3.904,-1.46 5.642,-1.46 2.548,0 4.953,0.244 7.196,0.729 -3.156,-3.387 -4.567,-6.396 -4.567,-9.512 0,-3.436 1.479,-11.605 15.185,-13.25 l 0.414,-0.05 h 0.416 c 5.906,0 12.384,3.173 19.804,9.7 l 0.106,0.094 0.103,0.098 c 1.068,1.02 2.044,1.992 2.929,2.922 5.018,-5.115 15.671,-5.979 21.566,-6.456 l 0.28,-0.022 h 0.281 c 4.917,0 9.745,1.448 14.35,4.304 l 0.285,0.177 0.267,0.203 c 6.864,5.232 10.345,11.42 10.345,18.389 0,4.255 -1.233,8.059 -3.665,11.312 -0.832,1.189 -2.06,2.467 -3.849,3.441 1.014,2.229 1.541,4.695 1.541,7.33 0,7.733 -4.784,13.204 -12.798,14.638 -7.654,1.384 -15.124,2.934 -22.277,4.624 3.124,25.842 11.898,46.111 26.158,60.45 1.602,-6.402 2.409,-12.966 2.409,-19.618 0,-6.076 -0.424,-12.874 -1.26,-20.206 l -0.396,-3.475 2.55,-2.393 c 1.347,-1.264 3.119,-1.958 4.991,-1.958 2.397,0 5.723,1.06 7.947,6.112 8.037,18.248 13.136,39.627 15.161,63.565 2.405,4.757 3.578,8.97 3.578,12.838 0.002,7.303 -4.442,15.107 -16.918,15.107 z M 419.437,107.312 c 0.075,-1.98 0.12,-3.91 0.136,-5.788 l -0.868,-1.961 c -2.063,0.734 -4.053,1.366 -5.973,1.897 z m 22.856,-16.377 c 0.554,0.692 1.082,1.386 1.585,2.083 3.493,-2.893 6.665,-4.26 9.815,-4.26 h 1.079 l 1.029,0.327 c 1.64,0.522 3.289,1.088 4.878,1.725 -0.41,-1.692 -0.811,-3.403 -1.204,-5.133 -5.668,1.57 -11.41,3.326 -17.182,5.258 z M 488.208,42.39 c 1.182,-0.978 2.274,-1.693 3.33,-2.184 -0.973,-0.474 -1.9,-0.95 -2.778,-1.432 z"
       id="path884" />
    <path
       style="fill:#ffffff"
       inkscape:connector-curvature="0"
       d="m 389.074,84.319 72.583,-22.626 -4.163,-31.676 c -4.828,-3.861 -7.24,-6.815 -7.24,-8.869 0,-3.5 3.015,-5.611 9.051,-6.335 4.1,0 9.168,2.654 15.204,7.964 5.308,5.067 7.964,8.75 7.964,11.041 l -2.353,15.385 v 7.602 l 6.697,-2.896 c 4.222,-5.067 7.059,-7.602 8.507,-7.602 14.237,0.724 21.358,5.068 21.358,13.033 0,4.344 -2.354,6.941 -7.059,7.783 -10.019,1.81 -19.549,3.864 -28.599,6.154 3.014,35.358 15.385,61.36 37.105,78.013 3.982,-10.255 5.974,-20.876 5.974,-31.857 0,-6.37 -0.436,-13.369 -1.305,-20.995 0,0 0.688,-0.645 1.8,1.881 7.906,17.951 12.818,38.86 14.708,62.736 2.291,4.223 3.44,7.844 3.44,10.861 0,5.43 -3.322,8.144 -9.956,8.144 -11.104,0 -21.178,-5.007 -30.228,-15.022 -16.774,-19.305 -29.386,-49.294 -37.83,-89.959 -11.466,2.896 -23.109,6.516 -34.935,10.86 5.432,4.827 9.351,9.714 11.767,14.662 l 4.524,-2.172 c 3.137,-3.137 5.67,-4.706 7.603,-4.706 7.603,2.416 11.462,4.827 11.584,7.239 0,6.275 -8.145,10.499 -24.436,12.671 l -2.715,18.461 c 11.145,-5.628 20.66,-13.988 28.551,-25.079 0.567,-0.796 0.986,0.666 0.568,2.187 -3.038,11.073 -8.643,21.116 -16.812,30.132 -10.859,9.051 -22.869,17.439 -36.019,25.16 -3.019,4.947 -5.675,7.422 -7.965,7.422 -2.534,0 -4.647,-1.388 -6.335,-4.163 -2.294,-4.345 -3.439,-9.473 -3.439,-15.385 0,-1.811 0.362,-4.042 1.086,-6.698 2.173,-9.05 3.982,-18.342 5.431,-27.874 -3.14,-3.982 -4.707,-7.663 -4.707,-11.042 0,-2.29 0.662,-4.163 1.991,-5.611 1.204,-1.328 2.109,-1.991 2.716,-1.991 1.326,0 2.172,1.148 2.533,3.438 l 9.956,8.688 c 2.05,1.931 3.077,3.922 3.077,5.974 0,1.692 -2.656,10.679 -7.965,26.97 4.946,-1.689 9.893,-3.557 14.842,-5.611 -0.967,-3.015 -1.447,-5.548 -1.447,-7.603 1.566,-12.188 2.353,-23.168 2.353,-32.942 l -4.163,-9.413 c -9.412,3.981 -17.316,5.973 -23.711,5.973 -3.259,0 -6.517,-0.965 -9.774,-2.896 -6.036,-4.101 -9.05,-6.938 -9.05,-8.508 0,-1.689 1.203,-2.534 3.62,-2.534 1.207,0.002 3.08,0.545 5.613,1.631 z m 33.305,-27.332 c -4.226,-0.842 -7.303,-1.747 -9.231,-2.715 -4.587,-3.258 -6.877,-6.033 -6.877,-8.326 0,-2.291 1.086,-3.439 3.258,-3.439 l 8.507,0.905 c 6.996,-1.448 13.575,-3.318 19.729,-5.611 1.204,-0.604 2.172,-0.905 2.896,-0.905 3.859,0 7.177,0.663 9.955,1.991 3.376,2.054 5.067,4.525 5.067,7.421 0,2.535 -1.569,4.465 -4.705,5.792 l -15.205,5.611 c -9.717,4.802 -19.435,8.778 -29.151,11.927 -0.78,0.253 0.253,-1.179 0.253,-1.179 z m 81.995,-35.839 c 3.62,0 7.178,1.086 10.68,3.258 5.068,3.864 7.602,8.146 7.602,12.851 0,2.778 -0.786,5.189 -2.353,7.24 -0.968,1.449 -2.715,2.172 -5.249,2.172 -2.534,0 -5.131,-1.086 -7.783,-3.258 -3.258,-3.376 -6.94,-6.271 -11.041,-8.688 -6.517,-3.015 -9.774,-5.43 -9.774,-7.24 -0.001,-3.257 5.972,-5.367 17.918,-6.335 z"
       id="path886" />
    <path
       inkscape:connector-curvature="0"
       d="m 514.329,352.15 c -2.729,0 -7.708,-0.774 -23.937,-6.515 -29.892,-9.489 -53.08,-14.3 -68.919,-14.3 -5.813,0 -11.881,0.725 -18.046,2.156 -3.021,1.471 -5.829,2.188 -8.561,2.188 -4.233,0 -14.212,-1.829 -15.453,-18.764 l -0.019,-0.254 v -0.256 c 0,-9.415 5.994,-12.756 11.127,-12.756 h 0.473 l 7.334,1 c 3.874,-0.821 5.295,-2.598 5.889,-5.152 -0.442,-0.934 -1.595,-3.021 -4.512,-7.088 -2.777,-3.813 -4.201,-7.994 -4.201,-12.386 v -5.581 c -3.446,-0.686 -6.065,-1.971 -8.03,-3.908 -6.442,-6.156 -9.709,-13.255 -9.709,-21.1 l 0.004,-0.214 c 0.214,-6.981 2.686,-10.122 5.178,-11.504 l -1.756,-2.677 c -2.173,-3.36 -0.634,-6.781 -0.129,-7.906 l 0.371,-0.824 6.267,-7.729 c -2.019,-2.354 -3.769,-4.884 -5.234,-7.573 -3,-3.283 -4.519,-6.793 -4.519,-10.444 0,-5.179 3.44,-10.404 11.127,-10.404 h 0.877 l 7.799,1.996 c 7.765,0.07 12.79,1.079 16.219,3.242 l 0.451,0.285 0.403,0.351 c 7.213,6.274 10.72,12.196 10.72,18.104 0,3.052 -0.421,5.566 -1.109,7.639 1.563,0.185 3.114,0.58 4.645,1.186 7.252,-2.286 14.028,-4.592 20.259,-6.892 -0.898,-0.667 -1.791,-1.401 -2.676,-2.204 l -0.13,-0.121 c -4.193,-4.002 -6.318,-8.438 -6.318,-13.182 0,-3.568 1.316,-7.932 4.143,-13.73 1.486,-3.061 4.976,-10.249 11.691,-10.249 2.074,0 8.601,0.816 9.263,10.87 0.023,0.039 0.049,0.078 0.074,0.117 3.374,-1.443 6.761,-3.297 10.11,-5.541 1.217,-0.815 2.626,-1.248 4.07,-1.248 0.239,0 0.478,0.012 0.713,0.036 0.754,-3.405 3.709,-8.578 14.685,-8.578 4.844,0 9.696,2.482 14.422,7.376 l 0.073,0.076 c 4.92,5.252 7.312,10.006 7.312,14.535 0,1.321 -0.218,2.574 -0.612,3.762 14.092,3.225 16.359,11.404 16.359,16.33 0,4.203 -1.802,14.091 -18.49,15.097 -1.669,0.097 -3.298,0.207 -4.89,0.331 1.43,0.811 2.832,1.783 4.202,2.917 5.756,4.743 8.68,9.779 8.68,14.96 0,2.344 -0.578,5.023 -1.811,8.354 -0.026,31.683 -1.017,40.319 -1.764,44.055 -0.774,3.825 -1.807,6.913 -3.007,9.397 7.949,-1.225 10.489,-1.438 11.744,-1.438 6.187,0 12.407,2.031 18.49,6.035 l 0.299,0.196 0.275,0.225 c 6.352,5.183 9.439,10.382 9.439,15.894 0,6.764 -6.11,10.914 -8.119,12.277 l -0.262,0.179 -0.276,0.153 c -11.021,6.106 -22.021,9.199 -32.698,9.199 z m -32.583,-42.847 c 2.564,0.352 4.833,0.654 6.841,0.912 -0.371,-0.59 -0.713,-1.176 -1.028,-1.751 -1.843,0.327 -3.779,0.606 -5.813,0.839 z m -49.115,-4.709 c 3.639,0.131 7.398,0.319 11.269,0.566 -1.657,-3.592 -2.857,-8.424 -3.308,-14.876 l -0.058,-0.819 3.115,-18.689 c -0.025,-2.803 -0.243,-5.564 -0.649,-8.24 -2.187,-2.819 -3.33,-6.238 -3.33,-10.023 0,-0.72 0.081,-1.413 0.233,-2.082 -1.349,0.295 -2.269,0.359 -3.044,0.359 -3.605,0 -7.409,-1.104 -11.558,-3.365 2.563,3.482 3.861,7.193 3.861,11.063 0,3.085 -0.986,7.4 -5.347,11.392 -1.114,4.165 -1.641,6.341 -1.89,7.458 0.403,0.716 1.231,2.035 2.878,4.213 5.734,7.219 8.521,13.352 8.521,18.748 0.002,1.353 -0.226,2.777 -0.693,4.295 z m -41.644,-67.135 c 1.478,0.605 2.915,1.57 4.33,2.9 7.13,-2.139 9.86,-2.594 11.677,-2.594 2.994,0 5.837,0.586 8.511,1.748 -1.625,-2.316 -2.443,-4.809 -2.443,-7.455 0,-0.278 0.008,-0.552 0.022,-0.818 H 409.6 c -6.255,2.469 -12.5,4.557 -18.613,6.219 z"
       id="path888" />
    <path
       style="fill:#ffffff"
       inkscape:connector-curvature="0"
       d="m 391.608,246.539 c 1.205,0.605 2.652,0.904 4.345,0.904 5.91,-1.809 9.593,-2.714 11.041,-2.714 4.222,0 8.023,1.749 11.402,5.249 2.535,2.777 3.802,5.611 3.802,8.508 0,2.777 -1.511,5.248 -4.524,7.42 -1.933,7.123 -2.896,11.104 -2.896,11.946 0,1.33 1.507,3.982 4.524,7.964 4.707,5.913 7.06,10.743 7.06,14.48 0,2.534 -1.811,6.217 -5.43,11.043 13.15,0 28.115,0.904 44.889,2.714 20.391,3.017 32.64,4.524 36.744,4.524 14.358,-2.412 22.563,-3.619 24.616,-3.619 4.824,0 9.712,1.629 14.662,4.887 4.584,3.741 6.877,7.24 6.877,10.498 0,2.052 -1.691,4.224 -5.067,6.517 -10.018,5.548 -19.793,8.326 -29.323,8.326 -2.896,0 -10.136,-2.054 -21.72,-6.154 -30.771,-9.774 -54.482,-14.661 -71.136,-14.661 -6.637,0 -13.456,0.846 -20.452,2.533 -2.295,1.207 -4.345,1.811 -6.154,1.811 -5.068,0 -7.905,-4.1 -8.508,-12.309 0,-3.861 1.386,-5.791 4.163,-5.791 l 7.964,1.086 c 7.603,-1.205 11.884,-5.367 12.853,-12.49 0,-1.689 -1.991,-5.31 -5.974,-10.86 -1.933,-2.651 -2.896,-5.43 -2.896,-8.326 v -11.946 c -5.068,0 -8.448,-0.842 -10.137,-2.533 -5.067,-4.824 -7.602,-10.197 -7.602,-16.109 0.118,-3.861 0.905,-5.792 2.353,-5.792 1.326,-0.001 2.833,0.966 4.524,2.894 z m -2.534,-49.414 7.784,1.991 c 6.634,0 11.1,0.724 13.394,2.172 5.549,4.827 8.327,9.112 8.327,12.851 0,5.675 -1.752,9.051 -5.25,10.137 h -5.067 c -7.164,2.889 -14.213,5.222 -21.152,7.004 -0.311,0.08 0.305,-1.287 0.305,-1.287 l 9.625,-11.871 c -3.742,-3.258 -6.697,-6.996 -8.87,-11.223 -2.172,-2.172 -3.258,-4.28 -3.258,-6.334 -10e-4,-2.292 1.385,-3.44 4.162,-3.44 z m 39.459,33.305 c 12.064,-3.738 22.744,-7.482 32.038,-11.223 l 10.498,-5.973 c 7.721,-8.567 14.236,-16.834 19.549,-24.797 -2.416,-2.053 -3.62,-3.861 -3.62,-5.432 0,-2.533 2.651,-3.8 7.964,-3.8 2.896,0 6.033,1.75 9.412,5.25 3.62,3.863 5.431,7.121 5.431,9.773 0,3.74 -4.525,7.783 -13.575,12.128 l -11.946,8.507 15.204,-3.619 c 5.187,-4.825 8.688,-7.24 10.498,-7.24 10.376,1.205 15.566,4.646 15.566,10.316 0,4.95 -3.982,7.665 -11.946,8.145 -14.602,0.846 -26.367,2.716 -35.296,5.612 l 0.905,3.62 c 0,1.931 -0.362,4.283 -1.086,7.059 l 14.48,-2.896 c 1.928,-1.447 3.738,-2.172 5.43,-2.172 3.738,0 7.359,1.448 10.86,4.344 4.101,3.379 6.154,6.58 6.154,9.594 0,1.691 -0.606,4.045 -1.811,7.059 0,23.893 -0.542,38.555 -1.629,43.984 -1.81,8.932 -5.009,13.395 -9.593,13.395 -3.863,0 -7.362,-3.861 -10.498,-11.584 -6.879,1.811 -15.811,2.715 -26.789,2.715 -1.447,3.141 -3.683,4.706 -6.697,4.706 -6.153,0 -9.656,-6.033 -10.498,-18.101 l 3.077,-18.463 c 0,-4.1 -0.362,-8.081 -1.086,-11.945 -1.933,-1.811 -2.896,-4.101 -2.896,-6.879 0,-1.928 2.833,-4.524 8.507,-7.782 4.222,-4.101 7.48,-8.206 9.773,-12.309 -15.688,7.603 -25.041,11.403 -28.056,11.403 -3.018,0 -6.578,-1.328 -10.679,-3.982 -4.104,-2.533 -6.154,-5.128 -6.154,-7.783 0,-2.289 0.783,-3.439 2.353,-3.439 2.053,-0.002 4.102,0.605 6.156,1.809 z m 35.115,-34.752 c 5.29,-1.762 10.528,-4.384 15.72,-7.858 0.492,-0.33 0.604,0.534 0.155,1.308 -2.572,4.433 -5.452,8.909 -8.635,13.428 -0.968,7.602 -3.683,11.404 -8.146,11.404 -3.742,0 -7.543,-1.748 -11.403,-5.25 -2.777,-2.652 -4.163,-5.367 -4.163,-8.145 0,-2.414 1.146,-5.973 3.439,-10.68 2.05,-4.223 3.86,-6.335 5.431,-6.335 1.565,0 2.353,1.872 2.353,5.61 0.964,2.416 2.715,4.588 5.249,6.518 z m -0.361,60.273 c 6.634,-0.24 13.213,-1.086 19.729,-2.533 l 2.534,-1.086 c 4.706,1.086 7.06,2.777 7.06,5.067 0,2.896 -2.295,4.706 -6.879,5.431 -10.136,5.674 -15.204,9.293 -15.204,10.859 l 17.738,-3.439 c 1.327,0 3.195,1.207 5.611,3.621 l 0.182,-28.236 c -10.259,1.93 -15.992,2.895 -17.195,2.895 -1.811,0 -4.951,-0.842 -9.412,-2.533 l -7.604,4.163 z m 11.222,26.789 -10.317,-1.991 -0.362,10.136 z m -1.448,-16.834 -8.869,-1.267 v 9.413 z m 9.231,25.16 c 1.688,-1.928 3.194,-2.896 4.525,-2.896 1.688,0 3.679,0.363 5.973,1.086 l 0.905,-10.859 -3.258,0.904 c -9.172,4.465 -17.44,9.171 -24.798,14.118 5.43,-0.117 10.979,-0.905 16.653,-2.353 z"
       id="path890" />
  </g>
</svg>
