<?xml version="1.0" encoding="UTF-8"?>
<svg cursor="default" version="1.1" viewBox="0 0 256 256" xmlns="http://www.w3.org/2000/svg" xmlns:cc="http://creativecommons.org/ns#" xmlns:dc="http://purl.org/dc/elements/1.1/" xmlns:rdf="http://www.w3.org/1999/02/22-rdf-syntax-ns#" xmlns:xlink="http://www.w3.org/1999/xlink">
 <metadata>
  <rdf:RDF>
   <cc:Work rdf:about="">
    <dc:format>image/svg+xml</dc:format>
    <dc:type rdf:resource="http://purl.org/dc/dcmitype/StillImage"/>
    <dc:title/>
   </cc:Work>
  </rdf:RDF>
 </metadata>
 <defs>
  <radialGradient id="radialGradient1025" cx="204.73" cy="263.46" r="280.26" gradientTransform="matrix(0 -.7747 .88369 1.1709e-7 -100.52 396.89)" gradientUnits="userSpaceOnUse">
   <stop stop-color="#ff2a2a" offset="0"/>
   <stop stop-color="#ff2a2a" offset=".7012"/>
   <stop stop-color="#f55" offset="1"/>
  </radialGradient>
  <radialGradient id="radialGradient1038" cx="389.52" cy="46.794" r="97.746" gradientTransform="matrix(0 1.9823 -2.2466 0 234.7 -728.69)" gradientUnits="userSpaceOnUse">
   <stop stop-color="#faa" offset="0"/>
   <stop stop-color="#ff8080" offset=".45614"/>
   <stop stop-color="#ff2a2a" offset=".869"/>
   <stop stop-color="#ff2a2a" offset="1"/>
  </radialGradient>
 </defs>
 <path d="m113.3 239.12-11.776-1.3625-29.578-6.2742 0.32292-5.0563-5.0908-0.31069 0.20094-0.70146s2.8437-9.9383 5.7047-19.876c1.4307-4.9692 2.8659-9.9391 3.9526-13.666 0.54352-1.8649 0.99991-3.4191 1.3247-4.5068 0.24951-0.8353 0.40115-1.3425 0.5209-1.6502 0.109-1.05 1.0196-9.6625 1.1108-10.524l-0.71518-5.394-0.6603-19.54c-0.17388-0.71147-1.8738-7.6675-3.164-12.892-1.721 5.4667-5.6706 19.108-6.9909 24.566-0.27101 1.12-0.0727 3.5618 0.0267 4.4082l8e-3 0.0675-3.7012 32.495-39.97-0.27658 3.3701-32.888 12.604-54.086 21.789-50.996 34.944-24.28 7.9637-8.954 0.0756-0.0456c0.23913-0.14496 5.9505-3.5625 14.03-5.116 2.3795-0.45714 5.5994-0.70925 9.0667-0.70925 3.7386 0 7.6271 0.29141 10.949 0.82084 6.6913 1.0659 15.156 4.9121 15.513 5.0752l0.19057 0.08713 4.6077 9.4289 29.321 16.789 0.0771 0.18241c0.27695 0.65697 27.747 65.795 31.285 74.837 5.3636 13.707 11.686 62.495 11.952 64.565l0.073 0.56836-36.431 5.5027-0.0578-0.61693c-0.0226-0.23988-2.2842-24.116-5.6332-35.532-2.4859-8.4705-8.8661-26.794-11.222-32.446-0.62509 3.9474-1.6784 12.226-1.6584 14.998 0.0571 7.8232 1.6495 32.278 1.6654 32.524l3e-3 0.0419-0.45751 5.7615 14.415 40.902-5.0678 0.0608 3.4068 9.4753-34.29 7.0094z" clip-rule="evenodd" fill="url(#radialGradient1025)" fill-rule="evenodd" stroke="#000" stroke-width="1.162"/>
 <path d="m220.07 128.99c-3.5759-9.1398-31.279-74.823-31.279-74.823l-29.305-16.78-4.5947-9.4022s-10.101-4.323-15.362-5.0296c-6.5056-0.87201-13.272-0.81899-19.813-0.11493-6.7354 0.72445-13.838 5.0418-13.838 5.0418l-7.9511 8.9399-34.862 24.224-21.703 50.794-12.584 53.999-3.3004 32.21 38.799 0.26917 3.6341-31.905s-0.36928-3.147-0.0141-4.614c1.5479-6.3999 6.5864-23.633 7.6401-26.545 1.3714 5.5286 3.6678 14.928 3.6678 14.928l0.66142 19.572 0.72037 5.4348s-0.73965 7.1025-1.1237 10.654c-0.0897 0.82418-6.5675 40.04-6.5675 40.04l-0.32811 5.1368 29.056 6.1641 11.714 1.3558s29.218 3.0201 43.934 2.464c14.715-0.55613 33.553-6.8589 33.553-6.8589l-3.4561-9.6128-9.1116-40.31 0.46419-5.8434s-1.6091-24.627-1.6669-32.558c-0.0245-3.402 1.499-14.68 1.9869-16.914 1.2628 1.8804 9.2028 24.523 12.041 34.193 3.4042 11.604 5.6547 35.642 5.6547 35.642l35.252-5.324c0 3.7e-4 -6.5178-50.629-11.917-64.427zm-90.74-42.218s-21.302-53.685-22.287-57.483c2.9497-2.7109 12.01-4.8335 12.622-4.9421 6.3895-1.1356 12.76-1.0937 19.046 0.04449 2.609 0.47234 11.307 3.0783 12.842 3.9578-2.2979 6.2705-17.598 46.551-22.223 58.423z" clip-rule="evenodd" fill="url(#radialGradient1038)" fill-rule="evenodd" stroke="#000" stroke-miterlimit="10" stroke-width=".988"/>
 <g transform="matrix(.37075 0 0 .37075 -23.28 64.837)">
  <g id="ellipse831_6_">
   <ellipse cx="483.77" cy="79.173" rx="22.742" ry="22.576" fill="#ff7f00"/>
   <path d="m483.77 102.26c-12.82 0-23.254-10.358-23.254-23.089s10.434-23.09 23.254-23.09c12.822 0 23.256 10.359 23.256 23.09s-10.434 23.089-23.256 23.089zm0-45.151c-12.256 0-22.227 9.896-22.227 22.063 0 12.165 9.971 22.062 22.227 22.062 12.258 0 22.229-9.896 22.229-22.062-1e-3 -12.167-9.972-22.063-22.229-22.063z"/>
  </g>
  <g id="g892_6_" transform="matrix(.76426 0 0 .76426 -170.91 -9.4679)">
   <path id="path884_6_" d="m886.42 117.36c-2.842 0-5.426-1.262-7.677-3.755l-0.018-0.022c-2.285-2.63-4.237-6.141-5.837-10.492-0.764 1.774-1.84 3.428-3.21 4.941l-0.072 0.079-0.082 0.068c-2.318 1.933-4.907 3.753-7.695 5.41-0.616 0.942-1.533 2.006-2.811 2.006-0.624 0-1.802-0.211-2.663-1.629l-0.023-0.038-0.023-0.041c-0.611-1.158-0.92-2.517-0.92-4.042 0-0.528 0.092-1.126 0.281-1.826 0.411-1.715 0.764-3.49 1.053-5.29-0.624-0.944-0.943-1.876-0.943-2.777 0-0.461 0.082-0.896 0.238-1.291-0.532-0.139-1.061-0.362-1.577-0.668l-0.041-0.023-0.038-0.028c-1.937-1.315-2.625-2.125-2.625-3.094 0-0.993 0.718-2.06 2.295-2.06 0.365 0 0.772 0.083 1.278 0.263l2.428-0.758c-0.033-0.045-0.061-0.095-0.087-0.143-0.166-0.327-0.36-0.999 0.235-1.822l0.138-0.192 1.306-0.965c-0.866-0.652-1.86-1.604-1.86-2.843 0-1.328 0.91-2.257 2.218-2.257h0.079l1.687 0.181c1.326-0.286 2.591-0.649 3.762-1.081 0.445-0.212 0.846-0.317 1.222-0.317 0.555 0 1.076 0.054 1.561 0.158-0.685-0.735-0.989-1.388-0.989-2.062 0-0.746 0.319-2.517 3.292-2.874l0.089-0.012h0.092c1.28 0 2.686 0.69 4.296 2.106l0.02 0.019 0.023 0.02c0.233 0.221 0.442 0.433 0.636 0.635 1.086-1.11 3.396-1.298 4.677-1.401l0.061-5e-3h0.059c1.068 0 2.113 0.314 3.113 0.933l0.061 0.04 0.059 0.045c1.49 1.132 2.244 2.475 2.244 3.987 0 0.923-0.268 1.748-0.795 2.453-0.181 0.258-0.447 0.534-0.836 0.745 0.22 0.484 0.335 1.02 0.335 1.591 0 1.676-1.038 2.864-2.775 3.174-1.661 0.3-3.279 0.636-4.833 1.004 0.68 5.604 2.581 10 5.676 13.109 0.345-1.388 0.521-2.812 0.521-4.254 0-1.319-0.092-2.793-0.273-4.383l-0.087-0.754 0.555-0.519c0.291-0.273 0.675-0.424 1.081-0.424 0.521 0 1.242 0.23 1.725 1.326 1.743 3.956 2.847 8.592 3.286 13.784 0.521 1.034 0.777 1.946 0.777 2.786 0 1.587-0.963 3.279-3.669 3.279zm-24.583-17.721c0.015-0.429 0.026-0.847 0.028-1.255l-0.187-0.427c-0.45 0.161-0.882 0.296-1.296 0.413zm4.956-3.552c0.12 0.151 0.235 0.302 0.345 0.452 0.756-0.627 1.444-0.925 2.129-0.925h0.233l0.225 0.072c0.355 0.114 0.713 0.236 1.055 0.373-0.087-0.365-0.174-0.736-0.261-1.112-1.229 0.34-2.474 0.721-3.726 1.14zm9.956-10.529c0.258-0.212 0.493-0.365 0.723-0.473-0.21-0.102-0.411-0.206-0.603-0.309z"/>
   <path id="path886_6_" d="m855.25 94.652 15.742-4.908-0.905-6.869c-1.048-0.837-1.569-1.477-1.569-1.923 0-0.759 0.654-1.216 1.963-1.375 0.889 0 1.988 0.578 3.297 1.728 1.153 1.099 1.728 1.898 1.728 2.395l-0.511 3.338v1.648l1.452-0.629c0.917-1.099 1.533-1.648 1.845-1.648 3.09 0.157 4.633 1.099 4.633 2.826 0 0.94-0.511 1.505-1.531 1.688-2.172 0.392-4.24 0.837-6.205 1.334 0.657 7.668 3.34 13.308 8.05 16.919 0.864-2.223 1.296-4.527 1.296-6.908 0-1.383-0.095-2.901-0.284-4.554 0 0 0.148-0.141 0.391 0.408 1.715 3.893 2.781 8.427 3.189 13.606 0.496 0.916 0.746 1.701 0.746 2.355 0 1.178-0.721 1.766-2.159 1.766-2.407 0-4.592-1.085-6.555-3.258-3.639-4.186-6.374-10.69-8.206-19.508-2.487 0.627-5.011 1.412-7.575 2.355 1.178 1.047 2.027 2.106 2.55 3.179l0.981-0.47c0.68-0.68 1.229-1.022 1.648-1.022 1.651 0.526 2.487 1.048 2.512 1.572 0 1.36-1.766 2.277-5.298 2.747l-0.588 4.005c2.415-1.222 4.48-3.035 6.19-5.44 0.123-0.173 0.215 0.144 0.123 0.474-0.657 2.402-1.873 4.58-3.644 6.536-2.356 1.963-4.96 3.781-7.812 5.455-0.657 1.073-1.229 1.61-1.728 1.61-0.549 0-1.007-0.302-1.375-0.902-0.496-0.943-0.744-2.055-0.744-3.338 0-0.391 0.077-0.877 0.235-1.452 0.47-1.963 0.864-3.979 1.178-6.047-0.682-0.862-1.022-1.661-1.022-2.393 0-0.497 0.143-0.903 0.432-1.218 0.261-0.289 0.457-0.432 0.59-0.432 0.286 0 0.47 0.249 0.549 0.746l2.159 1.883c0.442 0.419 0.667 0.851 0.667 1.296 0 0.368-0.578 2.317-1.728 5.85 1.073-0.365 2.147-0.772 3.217-1.216-0.21-0.654-0.312-1.204-0.312-1.65 0.337-2.644 0.509-5.026 0.509-7.144l-0.902-2.042c-2.042 0.864-3.757 1.296-5.142 1.296-0.708 0-1.413-0.21-2.121-0.627-1.308-0.891-1.963-1.505-1.963-1.845 0-0.367 0.261-0.549 0.785-0.549 0.266-2e-3 0.672 0.115 1.222 0.352zm7.222-5.929c-0.915-0.181-1.582-0.378-2.001-0.588-0.994-0.708-1.492-1.308-1.492-1.807 0-0.497 0.235-0.746 0.708-0.746l1.845 0.197c1.516-0.313 2.944-0.718 4.278-1.215 0.261-0.132 0.47-0.198 0.629-0.198 0.836 0 1.556 0.146 2.157 0.432 0.733 0.446 1.099 0.981 1.099 1.61 0 0.549-0.337 0.969-1.02 1.256l-3.297 1.218c-2.108 1.04-4.217 1.903-6.323 2.586-0.169 0.055 0.056-0.256 0.056-0.256zm17.782-7.772c0.787 0 1.559 0.235 2.318 0.705 1.099 0.839 1.648 1.767 1.648 2.788 0 0.603-0.171 1.124-0.509 1.569-0.212 0.314-0.59 0.471-1.14 0.471s-1.114-0.236-1.689-0.707c-0.705-0.731-1.505-1.36-2.395-1.883-1.413-0.654-2.119-1.178-2.119-1.572 1e-3 -0.704 1.297-1.161 3.886-1.371z" fill="#fff"/>
   <path id="path888_6_" d="m882.42 152.74c-0.59 0-1.671-0.169-5.19-1.413-6.484-2.057-11.51-3.102-14.948-3.102-1.26 0-2.576 0.158-3.913 0.468-0.657 0.319-1.265 0.474-1.858 0.474-0.917 0-3.082-0.396-3.35-4.068l-5e-3 -0.055v-0.056c0-2.041 1.301-2.765 2.415-2.765h0.102l1.59 0.217c0.841-0.179 1.147-0.565 1.278-1.119-0.097-0.202-0.345-0.654-0.979-1.536-0.603-0.828-0.91-1.734-0.91-2.686v-1.211c-0.749-0.148-1.316-0.427-1.743-0.848-1.395-1.334-2.106-2.874-2.106-4.574v-0.046c0.046-1.515 0.583-2.195 1.124-2.496l-0.381-0.58c-0.47-0.73-0.138-1.471-0.028-1.715l0.079-0.18 1.36-1.675c-0.437-0.51-0.818-1.059-1.135-1.642-0.652-0.713-0.979-1.475-0.979-2.266 0-1.123 0.744-2.255 2.412-2.255h0.189l1.692 0.432c1.684 0.015 2.775 0.234 3.516 0.703l0.1 0.063 0.087 0.075c1.564 1.361 2.323 2.645 2.323 3.928 0 0.659-0.089 1.206-0.24 1.656 0.34 0.04 0.677 0.124 1.009 0.256 1.572-0.495 3.041-0.994 4.393-1.492-0.194-0.146-0.388-0.305-0.58-0.479l-0.028-0.027c-0.91-0.866-1.37-1.83-1.37-2.858 0-0.774 0.284-1.721 0.9-2.979 0.319-0.662 1.076-2.222 2.533-2.222 0.45 0 1.866 0.178 2.011 2.357 0 0 0.01 0.018 0.015 0.026 0.731-0.314 1.467-0.716 2.193-1.201 0.263-0.176 0.57-0.271 0.882-0.271 0.051 0 0.105 3e-3 0.156 8e-3 0.164-0.739 0.802-1.86 3.184-1.86 1.05 0 2.103 0.538 3.128 1.6l0.015 0.017c1.066 1.138 1.584 2.168 1.584 3.152 0 0.286-0.046 0.557-0.13 0.815 3.056 0.699 3.547 2.474 3.547 3.542 0 0.912-0.391 3.056-4.01 3.274-0.363 0.022-0.716 0.045-1.061 0.072 0.309 0.176 0.613 0.387 0.912 0.633 1.247 1.029 1.881 2.121 1.881 3.244 0 0.509-0.125 1.089-0.394 1.812-5e-3 6.872-0.22 8.745-0.383 9.555-0.166 0.829-0.391 1.499-0.652 2.038 1.725-0.267 2.274-0.313 2.548-0.313 1.342 0 2.691 0.441 4.01 1.31l0.064 0.042 0.061 0.049c1.377 1.124 2.047 2.253 2.047 3.447 0 1.467-1.326 2.368-1.761 2.663l-0.056 0.038-0.061 0.033c-2.387 1.319-4.774 1.991-7.089 1.991zm-7.066-9.293c0.557 0.077 1.05 0.142 1.485 0.198-0.082-0.128-0.156-0.256-0.225-0.381-0.399 0.072-0.818 0.133-1.26 0.183zm-10.649-1.021c0.787 0.028 1.602 0.069 2.441 0.123-0.358-0.779-0.618-1.827-0.716-3.228l-0.013-0.176 0.675-4.053c-5e-3 -0.608-0.051-1.206-0.141-1.786-0.473-0.612-0.721-1.353-0.721-2.175 0-0.156 0.015-0.305 0.049-0.451-0.291 0.065-0.493 0.078-0.659 0.078-0.782 0-1.607-0.24-2.507-0.73 0.557 0.755 0.838 1.56 0.838 2.398 0 0.67-0.215 1.605-1.16 2.471-0.24 0.903-0.355 1.375-0.409 1.618 0.087 0.156 0.266 0.442 0.624 0.914 1.245 1.565 1.848 2.894 1.848 4.065-1e-3 0.293-0.05 0.602-0.149 0.932zm-9.034-14.56c0.322 0.132 0.634 0.341 0.94 0.629 1.544-0.464 2.136-0.561 2.53-0.561 0.652 0 1.268 0.125 1.848 0.378-0.353-0.503-0.529-1.043-0.529-1.618 0-0.059 0-0.12 3e-3 -0.176h-0.754c-1.357 0.536-2.712 0.986-4.038 1.348z"/>
   <path id="path890_6_" d="m855.8 129.83c0.261 0.132 0.575 0.197 0.943 0.197 1.28-0.392 2.08-0.59 2.392-0.59 0.917 0 1.74 0.382 2.474 1.14 0.549 0.603 0.825 1.216 0.825 1.845 0 0.603-0.327 1.139-0.981 1.61-0.419 1.544-0.629 2.407-0.629 2.59 0 0.288 0.327 0.864 0.981 1.726 1.02 1.283 1.531 2.331 1.531 3.141 0 0.551-0.394 1.348-1.178 2.396 2.852 0 6.098 0.196 9.737 0.588 4.421 0.654 7.079 0.983 7.968 0.983 3.115-0.524 4.894-0.787 5.339-0.787 1.045 0 2.106 0.355 3.182 1.062 0.992 0.81 1.49 1.57 1.49 2.276 0 0.445-0.368 0.917-1.099 1.413-2.172 1.204-4.293 1.807-6.358 1.807-0.629 0-2.2-0.447-4.712-1.337-6.673-2.119-11.814-3.179-15.425-3.179-1.441 0-2.921 0.184-4.437 0.549-0.498 0.263-0.943 0.394-1.334 0.394-1.101 0-1.715-0.889-1.848-2.669 0-0.837 0.302-1.256 0.905-1.256l1.725 0.235c1.651-0.261 2.579-1.163 2.791-2.709 0-0.367-0.434-1.151-1.296-2.354-0.422-0.576-0.629-1.178-0.629-1.807v-2.591c-1.101 0-1.832-0.184-2.2-0.549-1.096-1.045-1.648-2.211-1.648-3.493 0.026-0.838 0.197-1.256 0.511-1.256 0.285-3e-3 0.612 0.208 0.98 0.625zm-0.549-10.716 1.689 0.432c1.436 0 2.405 0.156 2.903 0.47 1.204 1.048 1.807 1.975 1.807 2.788 0 1.229-0.381 1.963-1.14 2.198h-1.099c-1.554 0.626-3.082 1.132-4.587 1.518-0.066 0.018 0.066-0.279 0.066-0.279l2.088-2.575c-0.813-0.707-1.452-1.517-1.924-2.433-0.47-0.471-0.705-0.929-0.705-1.374 0-0.497 0.299-0.745 0.902-0.745zm8.558 7.223c2.614-0.811 4.93-1.623 6.946-2.435l2.277-1.294c1.674-1.858 3.087-3.652 4.24-5.379-0.524-0.445-0.785-0.837-0.785-1.177 0-0.548 0.575-0.824 1.728-0.824 0.629 0 1.308 0.38 2.039 1.14 0.787 0.837 1.181 1.544 1.181 2.119 0 0.81-0.984 1.687-2.947 2.63l-2.591 1.845 3.299-0.785c1.124-1.047 1.883-1.57 2.277-1.57 2.249 0.261 3.376 1.007 3.376 2.237 0 1.073-0.864 1.662-2.591 1.766-3.166 0.184-5.717 0.589-7.656 1.218l0.197 0.786c0 0.417-0.077 0.928-0.235 1.531l3.141-0.629c0.419-0.314 0.81-0.472 1.178-0.472 0.81 0 1.595 0.313 2.356 0.942 0.887 0.733 1.334 1.429 1.334 2.08 0 0.368-0.133 0.879-0.394 1.532 0 5.183-0.118 8.362-0.353 9.539-0.394 1.937-1.089 2.906-2.08 2.906-0.838 0-1.597-0.838-2.277-2.512-1.492 0.392-3.43 0.588-5.811 0.588-0.314 0.682-0.797 1.021-1.452 1.021-1.334 0-2.093-1.307-2.277-3.925l0.667-4.003c0-0.892-0.077-1.753-0.235-2.591-0.419-0.394-0.626-0.889-0.626-1.492 0-0.418 0.613-0.981 1.845-1.687 0.912-0.889 1.62-1.781 2.119-2.671-3.404 1.65-5.431 2.474-6.085 2.474s-1.426-0.289-2.315-0.864c-0.892-0.549-1.337-1.112-1.337-1.687 0-0.497 0.171-0.747 0.511-0.747 0.444-3e-3 0.889 0.128 1.336 0.39zm7.613-7.537c1.147-0.382 2.285-0.951 3.412-1.705 0.105-0.072 0.13 0.116 0.033 0.284-0.56 0.962-1.183 1.932-1.873 2.913-0.21 1.648-0.8 2.473-1.766 2.473-0.813 0-1.636-0.379-2.476-1.138-0.601-0.575-0.902-1.164-0.902-1.766 0-0.524 0.25-1.296 0.746-2.315 0.445-0.917 0.838-1.375 1.178-1.375s0.511 0.405 0.511 1.216c0.21 0.523 0.588 0.994 1.137 1.413zm-0.079 13.072c1.441-0.052 2.867-0.235 4.281-0.549l0.549-0.235c1.02 0.235 1.531 0.603 1.531 1.099 0 0.627-0.496 1.02-1.492 1.178-2.198 1.231-3.297 2.014-3.297 2.354l3.849-0.746c0.286 0 0.693 0.263 1.216 0.787l0.038-6.124c-2.223 0.419-3.468 0.627-3.729 0.627-0.394 0-1.073-0.183-2.042-0.549l-1.648 0.902zm2.436 5.808-2.239-0.431-0.077 2.198zm-0.315-3.649-1.924-0.276v2.042zm2.004 5.456c0.365-0.418 0.693-0.629 0.979-0.629 0.368 0 0.8 0.079 1.296 0.235l0.199-2.354-0.708 0.197c-1.991 0.966-3.782 1.987-5.38 3.06 1.178-0.023 2.382-0.194 3.614-0.509z" fill="#fff"/>
  </g>
 </g>
 <g clip-rule="evenodd">
  <g fill="#ff2a2a" fill-rule="evenodd">
   <polygon transform="matrix(.37075 0 0 .37075 -23.28 64.837)" points="265.86 182.67 263.86 162.66 256.86 141.92 261.61 130.92 251.61 120.66 245.11 108.92 246.86 98.915 238.86 76.665 246.86 59.165 252.36 93.665 271.36 134.16 266.36 161.16 268.53 185.67"/>
   <polygon transform="matrix(.37075 0 0 .37075 -23.28 64.837)" points="567.62 60.335 558.3 62.173 552.94 68.581 556.47 67.12 560.1 66.15 564.9 68.516 555.07 80.698 553.56 92.411 550.58 108.29 544.67 118.37 545.16 171.28 553.2 151.34 553.05 118.25 574.88 58.394 570.55 45.488 568.53 50.728 569.59 56.123"/>
   <path d="m209.43 109.66 1.5408 3.7991s-0.13309 28.584-15.515 57.381l-0.72927-1.0362-1.2049-12.372-3.7958-5.701-2.4951-4.7234 0.44527-2.405 2.3112 3.2036 4.4954-0.8112 4.6229 1.2135 6.1348-10.788c0 3.7e-4 4.7845-13.293 4.1899-27.76z" stroke-width=".37075"/>
  </g>
  <path d="m154.89 27.985s-10.101-4.323-15.362-5.0296c-6.5056-0.872-13.272-0.81899-19.813-0.11493-6.7354 0.72445-13.838 5.0418-13.838 5.0418l-7.9511 8.9399c3.0913 7.2426 26.138 64.456 26.138 64.456l-11.099 31.895-11.343 104.01c0.28807 0.0964 11.425 1.2598 11.714 1.3562 0.48791-0.97693 12.188-106.64 12.188-106.64s30.407-85.761 33.961-94.507zm-25.561 58.788s-21.301-53.685-22.287-57.483c2.9497-2.7109 12.01-4.8335 12.622-4.9421 6.3895-1.1356 12.76-1.0937 19.046 0.04449 2.609 0.47234 11.307 3.0783 12.842 3.9578-2.2979 6.2705-17.598 46.551-22.223 58.423z" fill="#f95" fill-rule="evenodd" stroke="#000" stroke-miterlimit="10" stroke-width=".816"/>
  <g fill="#ff2a2a" fill-rule="evenodd">
   <polygon transform="matrix(.37075 0 0 .37075 -23.28 64.837)" points="200.98 187.47 236.48 207.71 226.89 193.13 223.25 166.01 225.34 159.14 247.71 194.07 251.34 236.89 229.5 318.69 222.2 319.31 218.58 308.24 215.38 238.93 227.61 233.21 226.76 223.25 191.02 188.31"/>
   <polygon transform="matrix(.37075 0 0 .37075 -23.28 64.837)" points="528.98 265.22 532.48 262.22 537.48 224.22 537.48 218.72 534.48 218.72 533.98 229.22 530.98 231.22 531.48 239.22 510.48 276.22 492.48 286.72 509.48 232.22 507.48 229.72 498.66 231.22 494.83 243.22 481.26 252.22 472.09 252.22 468.36 257.22 468.36 265.22 481.26 284.22 481.26 300.22 468.36 323.22 472.09 327.22 513.98 279.22 524.98 291.22 528.98 279.22"/>
   <polygon transform="matrix(.37075 0 0 .37075 -23.28 64.837)" points="305 315.89 309.67 327.22 296.67 318.88 284.67 295.55 290.67 283.55 290.67 255.55 284.67 241.55 287.33 235.55 288.67 241.89 294 245.22 294.33 252.22 296.67 255.22 296.67 281.22 300.67 283.89 303 295.89 317.67 300.55 315.33 302.55 305.67 303.55 299 305.22 297.67 311.22"/>
  </g>
  <line x1="124.06" x2="129.33" y1="101.28" y2="86.773" fill="none" stroke="#000" stroke-miterlimit="10" stroke-width=".816"/>
 </g>
</svg>
