<?xml version="1.0" encoding="UTF-8"?>
<svg cursor="default" version="1.1" viewBox="0 0 256 256" xmlns="http://www.w3.org/2000/svg" xmlns:cc="http://creativecommons.org/ns#" xmlns:dc="http://purl.org/dc/elements/1.1/" xmlns:rdf="http://www.w3.org/1999/02/22-rdf-syntax-ns#">
 <metadata>
  <rdf:RDF>
   <cc:Work rdf:about="">
    <dc:format>image/svg+xml</dc:format>
    <dc:type rdf:resource="http://purl.org/dc/dcmitype/StillImage"/>
    <dc:title/>
   </cc:Work>
  </rdf:RDF>
 </metadata>
 <defs>
  <linearGradient id="linearGradient3185" x1="711.41" x2="711.41" y1="1517" y2="1297.4" gradientTransform="matrix(.12403 0 0 .12403 25.815 -40.727)" gradientUnits="userSpaceOnUse">
   <stop stop-color="#e6e6e6" offset="0"/>
   <stop stop-color="#1a1a1a" offset=".070705"/>
   <stop stop-color="#1a1a1a" offset=".22253"/>
   <stop stop-color="#333" offset=".34327"/>
   <stop stop-color="#1a1a1a" offset=".82624"/>
   <stop stop-color="#ccc" offset=".88962"/>
   <stop stop-color="#e6e6e6" offset="1"/>
  </linearGradient>
  <radialGradient id="radialGradient3379" cx="1514" cy="984.74" r="41.807" gradientTransform="matrix(.42525 -.0025303 .0030277 .5087 -435.68 -410.41)" gradientUnits="userSpaceOnUse">
   <stop stop-color="#b3b3b3" offset="0"/>
   <stop stop-color="#ccc" offset=".36919"/>
   <stop stop-color="#333" offset=".60334"/>
   <stop stop-color="#1a1a1a" offset="1"/>
  </radialGradient>
  <radialGradient id="radialGradient3367" cx="226.84" cy="943.65" r="53.828" gradientTransform="matrix(-.33814 0 0 -.40915 130.66 471.86)" gradientUnits="userSpaceOnUse">
   <stop stop-color="#ccc" offset="0"/>
   <stop stop-color="#999" offset=".40016"/>
   <stop stop-color="#333" offset=".59984"/>
   <stop stop-color="#1a1a1a" offset="1"/>
  </radialGradient>
  <linearGradient id="linearGradient3195" x1="998.58" x2="998.58" y1="1514.6" y2="1302.2" gradientTransform="matrix(.12403 0 0 .12403 25.815 -40.727)" gradientUnits="userSpaceOnUse">
   <stop stop-color="#e6e6e6" offset="0"/>
   <stop stop-color="#1a1a1a" offset=".070705"/>
   <stop stop-color="#1a1a1a" offset=".22253"/>
   <stop stop-color="#333" offset=".34327"/>
   <stop stop-color="#1a1a1a" offset=".85035"/>
   <stop stop-color="#ccc" offset=".91372"/>
   <stop stop-color="#e6e6e6" offset="1"/>
  </linearGradient>
  <linearGradient id="linearGradient3233" x1="726.81" x2="431.61" y1="799.67" y2="509.58" gradientUnits="userSpaceOnUse">
   <stop offset="0"/>
   <stop offset=".22682"/>
   <stop stop-color="#666" offset=".31631"/>
   <stop stop-color="#b3b3b3" offset=".56281"/>
   <stop stop-color="#1a1a1a" offset=".69759"/>
   <stop stop-color="#1a1a1a" offset=".80707"/>
   <stop stop-color="#333" offset=".83695"/>
   <stop stop-color="#fff" offset=".85401"/>
   <stop stop-color="#fff" offset="1"/>
  </linearGradient>
  <linearGradient id="linearGradient1166" x1="702.27" x2="1017.5" y1="523.63" y2="523.63" gradientUnits="userSpaceOnUse">
   <stop stop-color="#ccc" offset="0"/>
   <stop stop-color="#b3b3b3" offset=".19511"/>
   <stop stop-color="#4d4d4d" offset=".32711"/>
   <stop stop-color="#1a1a1a" offset=".48311"/>
   <stop stop-color="#1a1a1a" offset=".52973"/>
   <stop stop-color="#4d4d4d" offset=".69186"/>
   <stop stop-color="#b3b3b3" offset=".80652"/>
   <stop stop-color="#ccc" offset="1"/>
  </linearGradient>
  <linearGradient id="linearGradient3259" x1="1002.4" x2="1293.3" y1="818.44" y2="504.46" gradientUnits="userSpaceOnUse">
   <stop stop-color="#b3b3b3" offset="0"/>
   <stop offset=".21101"/>
   <stop stop-color="#4d4d4d" offset=".36044"/>
   <stop stop-color="#b3b3b3" offset=".57308"/>
   <stop stop-color="#1a1a1a" offset=".71022"/>
   <stop stop-color="#1a1a1a" offset=".82664"/>
   <stop stop-color="#333" offset=".83695"/>
   <stop stop-color="#fff" offset=".85401"/>
   <stop stop-color="#fff" offset="1"/>
  </linearGradient>
  <radialGradient id="radialGradient3221" cx="855.2" cy="1704.4" r="765.05" gradientTransform="matrix(.00051226 -.18314 .14069 .00038947 -108.35 301.92)" gradientUnits="userSpaceOnUse">
   <stop stop-color="#ff2a2a" offset="0"/>
   <stop stop-color="#ff2a2a" offset=".24974"/>
   <stop stop-color="#f55" offset=".47158"/>
   <stop stop-color="#ff8080" offset=".52953"/>
   <stop stop-color="#ffd5d5" offset=".66238"/>
   <stop stop-color="#ffd5d5" offset=".70871"/>
   <stop stop-color="#ff8080" offset=".81834"/>
   <stop stop-color="#f55" offset=".84938"/>
   <stop stop-color="#ff2a2a" offset=".88629"/>
   <stop stop-color="#ffd5d5" offset=".94632"/>
   <stop stop-color="#ffd5d5" offset="1"/>
  </radialGradient>
  <linearGradient id="linearGradient3231" x1="855.2" x2="855.2" y1="1505.1" y2="392.46" gradientUnits="userSpaceOnUse">
   <stop stop-color="#ff8080" offset="0"/>
   <stop stop-color="#ff2a2a" offset=".34217"/>
   <stop stop-color="#f55" offset=".38134"/>
   <stop stop-color="#ffd5d5" offset=".41853"/>
   <stop stop-color="#ffd5d5" offset=".70606"/>
   <stop stop-color="#f55" offset=".80861"/>
   <stop stop-color="#ff2a2a" offset=".94556"/>
   <stop stop-color="#ff8080" offset=".96957"/>
   <stop stop-color="#ffd5d5" offset=".99358"/>
   <stop stop-color="#ffd5d5" offset="1"/>
  </linearGradient>
 </defs>
 <g id="buckles" transform="matrix(.12403 0 0 .12403 25.815 -40.727)" stroke="#000" stroke-linejoin="round" stroke-miterlimit="10" stroke-width="3.362">
  <path d="m737.5 2257.5-9.5 21.5s-3.5 5 0 7.5 169 88.833 251.5 39c2.063-1.246 1.785-1.244 2-4.75 0.214-3.493 1.25-26.5 1.25-26.5s-0.412-5.102-2-7c-1.778-2.126-6.75-9-6.75-9s-145 8.084-201.75-29.75c-2.403-1.603-3.505-0.263-5.25 0-1.993 0.3-23 4.5-23 4.5s-4.51 0-6.5 4.5z" fill="#ffd42a"/>
  <path d="m553.34 2215.1c7.577-4.736 42.839-47.1 44-49.334s2.333-7.999 0-14.166-17.346-21.471-28.667-22.334c-5.391-0.411-11.436 3.514-13.966 4.469-9.87 3.726-39.459 42.168-41.201 46.198-0.902 2.086-2.667 9.167 0 13.667s11.667 18.334 23.5 21.5 15.106 0.767 16.334 0z" fill="#ffd42a"/>
  <path d="m1317.4 1745h-12.375s-3.25-0.25-6.25 3.5-25.012 56.943-25.012 56.943-1.488 9.432-1.988 17.307c-0.262 4.124-0.625 11.25 0.375 15.875s5.699 5.849 12.449 3.099 39.973-69.009 39.973-69.009 2.345-2.89 1.689-7.465c-0.244-1.705-3.197-15.75-3.197-15.75s-0.539-4-5.664-4.5z" fill="#f93"/>
  <path d="m1350 1794.1s5.723 28.522 1.428 103.96c-0.596 10.464-18.484 54.827-23.317 64.29-2.366 4.634-17.111 6.516-20.11-25.995-3.402-36.885 7.059-97.674 7.059-97.674l16.607-44.581c-1e-3 0 9.667-19.915 18.333 0z" fill="#ffd42a"/>
  <path d="m456.75 1836.8v-19.25s-0.179-4.953-0.676-6.258c-2.155-5.659-24.324-61.992-24.324-61.992s-0.77-2.409-4.5-3.25c-3.812-0.859-15.762-4.585-22.347 2-2.451 2.451-1.653 4-1.903 6s-0.25 15-0.25 15 0.057 5.5 2.153 10.5 34.347 65.5 34.347 65.5 11.669 1.481 15.25-3c2.207-2.762 2.25-2.75 2.25-5.25z" fill="#f93"/>
  <path d="m375.67 1790.7s13-21 23 13 25.333 69.333 25.333 69.333l-1.667 37.043-4 36.957s-2.814 25.956-20 14.667c-6.243-4.101-22.052-55.655-22.678-61.823-5.541-54.611 0.012-109.18 0.012-109.18z" fill="#ffd42a"/>
 </g>
 <g fill="#f95" stroke="#000" stroke-miterlimit="10" stroke-width=".417">
  <path d="m174.41 136.32c-2.87-3.5687-13.231 0-13.231 0s23.839 35.633 24.724 56.799c0.0842 2.0126 1.716 2.0681 2.5222 1.386 0.80622-0.68219 2.6047-7.6281 2.6047-7.6281s0.43412-0.80623 0-2.8528c0 0-2.0291-8.702-2.5836-11.204-0.0243-0.10989-0.06-0.28044-0.26865-0.39269-0.3922-0.21111-0.66718-0.1089-0.66718-0.1089s-0.17154 0.12602-0.12292 0.25563c0.0811 0.21644 2.3418 9.7323 2.5674 10.704 0.26878 1.1577 0.51722 2.1315 0.0418 1.3666s-6.4709-36.988-15.587-48.325z"/>
  <path d="m198.1 131.16s-1.3644 37.241-7.8345 58.339c-1.0421 3.3982-2.1192 6.3137-0.94092 6.0656 1.8874-0.39728 2.6357-1.4264 2.6357-1.4264s2.6667-20.032 5.5195-30.574c2.8528-10.543 6.1268-34.539 4.3658-37.983-1.761-3.4444-3.7456 5.5794-3.7456 5.5794z"/>
  <path d="m187.71 203.09c-0.18146-2.3817 0.31009-2.2326 1.3334-2.2326s0.88957-0.25576 0.83723-1.0233l-0.3411-3.597s-0.1027-0.0491-0.40311 0c-0.48385 0.079-2.4497 0.21706-3.1319 2.0776s-0.62017 31.164-42.44 40.404c-5.9304 1.3103-5.9641 5.9846-5.4679 9.3026 0.59623 3.9872 6.7909 4.3102 6.6048-0.40311-0.15305-3.8784 0.7741-6.3568 5.2404-6.6048 6.1397-0.34109 22.2-9.344 22.915-10.388 0.69335-1.0121-0.23913-1.3182-0.7442-0.80622-3.4472 3.4948-17.613 10.481-22.512 10.667-3.6874 0.14003-5.8916 1.3954-5.7676 7.101 0.0616 2.8368-3.3003 2.9368-4.2172 1.0233-0.71319-1.4884-1.8779-3.7261-0.7442-5.2094 2.7805-3.6383 15.194-0.15504 34.73-15.039 0.89007-0.67822 15.207-10.853 14.109-25.272z"/>
  <path d="m103.63 138.05s-12.494 12.062-23.566 54.245c-0.74383 2.8339-1.3752 3.2353-2.9566 1.8709-1.1117-0.95916-2.9143-6.667-2.9143-6.667s-0.13048-1.015 0-1.8191c0.74371-4.584 3.612-8.8632 3.9764-12.809 0.0098-0.10617 0.15591-0.21706 0.2735-0.25315 0.23008-0.0706 0.4402 4e-3 0.64349 0.17836 0.10853 0.093 0.14078 0.17973 0.10084 0.39542-0.62798 3.3799-3.3863 9.7911-3.3863 9.7911s-0.97255 2.532-0.02679 1.9429c1.0421-0.64919 11.566-46.296 15.701-48.281 4.1344-1.9846 12.155 1.4057 12.155 1.4057z"/>
  <path d="m67.691 130.39s-0.88275 22.13 7.8617 57.976c1.0344 4.2406 0.25402 6.7225-0.86824 5.5815-0.28168-0.28652-1.1163-5.5815-1.1163-5.5815s-1.7282-9.6397-3.1629-15.628c-0.54166-2.261-8.0002-39.071-7.8142-43.35 0.18605-4.2792 5.0999 1.0027 5.0999 1.0027z"/>
  <path d="m75.553 200.52 0.3721-4.2585s2.7701-0.70278 3.9278 2.1293c1.1577 2.8321 1.4496 17.982 15.421 28.115 12.937 9.382 16.402 8.8064 23.597 9.1165 2.8999 0.12503 2.4936 3.337 2.0667 3.9216-5.1985 7.1174-32.858-10.899-34.563-14.682-0.5197-1.153 0.47121-0.88176 0.96126-0.3721 11.06 11.504 28.417 17.352 31.536 15.566 2.3284-1.3334 0-2.1396-2.2636-1.0543-5.7415 2.7527-26.897-9.6443-32.249-18.202-2.9996-4.7964-6.2017-8.0622-5.8916-15.566 0.0841-2.0363-0.49614-5.5815-2.9144-4.7133z"/>
 </g>
 <path d="m192.08 187.04s-1.7155 5.0643-1.4261 5.7672 1.0989 0.64163 1.6319-1.0692c0.20788-0.66731-0.2023-4.2426-0.20578-4.698z" fill="#ff6" stroke="#000" stroke-miterlimit="10" stroke-width=".40137"/>
 <g fill="#fd5" stroke="#000" stroke-miterlimit="10" stroke-width=".236">
  <path d="m74.052 180.75c-0.80945-0.61546-1.6415 0.63022-1.6415 0.63022s-0.68876 6.768-0.0014 13.542c0.07765 0.76505 2.0385 7.1596 2.8128 7.6682 0.95444 0.62699 1.5514 0.32782 1.9199-0.19387 0 0-0.41477-0.67599-0.94588-1.6523 0 0 0.39902-6.555 0.65304-6.861l-0.74086-1.3118s-0.3726 4.4072-0.33849 5.1608c0.0155 0.33985-0.28119 0.40373-0.34109 0.18605-0.44193-1.6048-0.29346-3.6547-0.1739-3.6919l-0.33613-0.0886s-0.17204 0.385-0.14103 1.4858c0.01104 0.39021-1.054-0.70141-1.054-6.2999-1.24e-4 -3.6854 0.32844-8.5735 0.32844-8.5735z"/>
  <path d="m75.77 178.69s0-1.6124 0.03101-1.8605c0.03101-0.24806-0.06797-0.44019 0.23604-0.7442 0.81676-0.81677 2.299-0.35461 2.7718-0.24807 0.46265 0.10431 0.55815 0.40311 0.55815 0.40311s2.7497 6.9872 3.017 7.6891c0.06164 0.16186 0.08385 0.7762 0.08385 0.7762v2.3877c0 0.24546-0.0033 0.2957-0.14065 0.47617 0 0-0.097-0.30041-0.22103-0.54848-0.12403-0.24807-3.2249-8.3309-3.2249-8.3309s-0.08273-0.31021-0.80622-0.35151c-1.24e-4 0-1.5919-0.37223-2.305 0.35139z"/>
  <path d="m191.85 180.8c-0.0316-0.1543 1.1054 0.042 1.4156 1.0037 0 0 0.70985 3.5377 0.17712 12.895-0.0739 1.2979-2.2926 6.8004-2.8921 7.9742-0.18084 0.35399-1.0854 0.58444-1.5906-0.24361-0.32509-0.53285 2.266-6.4132 2.266-6.4132s0.16559-1.1964 0-1.9432c-0.83053-3.7462 0.73069-12.752 0.62402-13.273z" stroke-linejoin="round"/>
  <path d="m189.96 179.43 0.14239-0.28218s0.29086-0.35845 0.2095-0.92591c-0.0303-0.21148-0.39654-1.9535-0.39654-1.9535s-0.0669-0.49614-0.70253-0.55815h-1.5348s-0.40311-0.031-0.77521 0.43412c-0.37211 0.46513-3.1023 7.0629-3.1023 7.0629s-0.18457 1.1699-0.24658 2.1467c-0.0325 0.51152-0.0775 1.3954 0.0465 1.969 0.12403 0.57366 0.70687 0.72548 1.5441 0.38439l-0.31232-2.0555 2.8974-6.8576s0.0723-0.32856 0.57887-0.32038c0.50655 8e-3 1.3639 0.13061 1.4726 0.18407z"/>
  <path d="m97.824 230.45c-1.3072 1.6673-2.8613 3.2601-3.3762 3.582-0.15231 0.0953-0.55815 0.39269-2.0258 0-1.4677-0.3927-2.584-2.1086-2.9148-2.6667s-0.11188-1.4364 0-1.6952c0.13272-0.30711 2.7505-3.5566 2.9402-3.7649 0.32596-0.35833 1.5426-1.0186 2.6705-0.55195 1.0735 0.44404 1.7277 1.4546 2.3539 1.9638 1.105 0.89888 0.52132 2.9173 0.35226 3.133z"/>
  <path d="m133.71 244.01c0.0233-0.0313 0.0454-0.0666 0.15368-0.0778 0.53471-0.0549 11.671 0.92778 13.54-0.20676 0.15244-0.0925 0.1285-0.0254 0.30202 0.11125 0 0-0.1285 2.8537-0.15504 3.2869-0.0267 0.43486 8e-3 0.43461-0.24807 0.58916-10.233 6.181-30.76-4.5272-31.195-4.8373s0-0.93026 0-0.93026l1.1783-2.6667c0.24683-0.55865 0.80622-0.55815 0.80622-0.55815s2.076 1.2495 5.3792 2.5887c0 0 0.14028 0.016 0.48137 0.48113 0.20615 0.28106 0.57366 0.75971 0.57366 0.75971s6.5665 2.2171 8.4462 2.3256c0 0 0.0773 0.0349 0.11994-0.0388 0.0427-0.0737 0.61744-0.82669 0.61744-0.82669z"/>
 </g>
 <g stroke="#000" stroke-miterlimit="10">
  <g>
   <g stroke-width=".816">
    <path d="m183.18 68.439c-2.0049 8.7898-24.621 36.139-25.633 32.812-0.21322-0.69992-2.15-23.072-0.3308-27.412 1.8192-4.34-14.223 7.5666-14.223 7.5666l-7.7727 26.708-12.102-26.941-12.457-4.4264s-1.8523 19.564-2.0674 24.504c-0.0801 1.8383-11.607-8.0524-12.349-12.155-0.6838-3.7824-35.94-23.196-35.94-23.196l-7.6074 23.444 11.163 33.158 50.193 8.517h60.859l35.474-25.633 0.62017-43.783z" fill="#1a1a1a"/>
    <path d="m177.82 58.624c-7.318-6.8839-22.14-0.80622-24.167 7.4009-0.49205 1.993-13.258 43.349-7.442 39.443 7.0496-4.734 28.197-30.595 28.197-30.595s8.4242-11.533 3.4113-16.248zm-6.7984 6.9605c-3.385 4.4322-5.9277 7.7456-7.7885 9.9937-1.8598 2.2469 1.1689-14.457 1.1689-14.457 2.6672-0.62029 5.9601-0.0068 6.9082 0.48162 0.59301 0.30525 0.3597 3.1326-0.28863 3.9815z" fill="#ffd42a"/>
    <path d="m109.54 61.973c-12.031-13.148-24.579-2.8169-23.939 0.24869 2.6667 12.776 32.662 43.164 32.662 43.164s5.2779-28.112-8.7237-43.412zm-6.3568 13.548c-0.35002 0.73937-1.1215 0-1.1215 0-3.7188-4.2098-8.5623-10.453-8.088-12.968 0.31654-1.6786 5.5195-1.5705 7.5139-1.0796 0.15616 0.03857 2.2228 12.934 1.6957 14.048z" fill="#ffd42a"/>
   </g>
   <g transform="matrix(.12403 0 0 .12403 25.815 -40.727)" fill="#fd5" stroke-linejoin="round" stroke-width="3.362">
    <path d="m564.44 872.16c0.079 0.126 0.156 0.251 0.236 0.377-0.08-0.125-0.157-0.251-0.236-0.377z"/>
    <path d="m562.87 869.61c0.121 0.199 0.244 0.398 0.366 0.598-0.123-0.199-0.245-0.398-0.366-0.598z"/>
    <path d="m559.88 864.55c0.11 0.193 0.221 0.386 0.332 0.581-0.111-0.194-0.222-0.388-0.332-0.581z"/>
    <path d="m561.4 867.17c0.041 0.068 0.08 0.137 0.121 0.205-0.041-0.068-0.08-0.137-0.121-0.205z"/>
    <path d="m557.2 859.66c0.097 0.185 0.194 0.37 0.293 0.556-0.099-0.186-0.196-0.371-0.293-0.556z"/>
    <path d="m552.11 848.54c0.048 0.127 0.099 0.256 0.148 0.383-0.049-0.127-0.1-0.256-0.148-0.383z"/>
    <path d="m552.89 850.52c0.064 0.156 0.126 0.311 0.192 0.467-0.065-0.157-0.128-0.312-0.192-0.467z"/>
    <path d="m553.92 852.92c0.048 0.107 0.099 0.215 0.146 0.323-0.047-0.107-0.098-0.216-0.146-0.323z"/>
    <path d="m556.11 857.54c0.036 0.072 0.075 0.146 0.111 0.219-0.036-0.073-0.075-0.147-0.111-0.219z"/>
    <path d="m554.86 854.98c0.081 0.17 0.16 0.34 0.242 0.511-0.082-0.171-0.161-0.341-0.242-0.511z"/>
    <path d="m573.36 885.54c0.13 0.185 0.261 0.37 0.392 0.556-0.13-0.186-0.262-0.371-0.392-0.556z"/>
    <path d="m579.08 893.47c0.17 0.23 0.339 0.461 0.51 0.691-0.171-0.23-0.34-0.461-0.51-0.691z"/>
    <path d="m566.13 874.81c0.129 0.2 0.259 0.401 0.389 0.601-0.13-0.2-0.26-0.401-0.389-0.601z"/>
    <path d="m581.34 896.51c0.102 0.135 0.204 0.27 0.305 0.405-0.101-0.135-0.203-0.27-0.305-0.405z"/>
    <path d="m609.98 823.95c-24.816-6.993-56.813-4.861-60.314 8.052 3.795-12.8 44.439-11.923 60.314-8.052z"/>
    <path d="m583.17 898.94 0.561 0.738z"/>
    <path d="m577.27 891.01c0.118 0.161 0.236 0.323 0.354 0.484-0.117-0.162-0.236-0.323-0.354-0.484z"/>
    <path d="m569.64 880.13c0.131 0.195 0.265 0.39 0.396 0.585-0.131-0.195-0.264-0.39-0.396-0.585z"/>
    <path d="m567.77 877.33c0.107 0.163 0.213 0.326 0.321 0.489-0.109-0.163-0.214-0.326-0.321-0.489z"/>
    <path d="m575.12 888.02c0.15 0.211 0.301 0.422 0.453 0.634-0.152-0.211-0.303-0.422-0.453-0.634z"/>
    <path d="m551.32 846.31c0.046 0.136 0.09 0.271 0.137 0.409-0.047-0.137-0.091-0.273-0.137-0.409z"/>
    <path d="m571.34 882.64c0.129 0.188 0.257 0.375 0.387 0.563-0.13-0.188-0.258-0.376-0.387-0.563z"/>
    <path d="m558.65 862.36c9e-3 0.015 0.018 0.031 0.026 0.047-9e-3 -0.015-0.017-0.032-0.026-0.047z"/>
    <path d="m601.06 921.33c-0.224-0.269-0.448-0.536-0.672-0.806 0.224 0.27 0.448 0.537 0.672 0.806z"/>
    <path d="m550.72 844.43c0.04 0.134 0.083 0.27 0.124 0.405-0.041-0.135-0.084-0.272-0.124-0.405z"/>
    <path d="m605.44 926.53c-0.239-0.282-0.479-0.563-0.719-0.846 0.241 0.284 0.48 0.564 0.719 0.846z"/>
    <path d="m598.61 918.39c-0.195-0.236-0.39-0.475-0.585-0.711 0.195 0.236 0.39 0.474 0.585 0.711z"/>
    <path d="m594.22 913.02c-0.151-0.188-0.302-0.375-0.453-0.563 0.151 0.188 0.302 0.375 0.453 0.563z"/>
    <path d="m596.68 916.04c-0.219-0.268-0.438-0.535-0.657-0.803 0.219 0.268 0.438 0.536 0.657 0.803z"/>
    <path d="m663 971.33c-0.222-6.676-21.155-121.42-25.333-129.67-4.121-8.135-14.908-14.103-27.584-17.691 1.288 0.507 17.913 104.28 13.667 113.25-2.785 5.882-8.874 0.159-9.034 7e-3 14.006 15.855 26.035 28.136 30.784 32.094 19 15.835 17.627 5.835 17.5 2.007z"/>
    <path d="m607.37 928.79c-0.246-0.287-0.493-0.575-0.739-0.863 0.246 0.288 0.493 0.576 0.739 0.863z"/>
    <path d="m614.01 936.43c-0.309-0.351-0.619-0.702-0.929-1.057 0.311 0.355 0.62 0.706 0.929 1.057z"/>
    <path d="m609.76 931.57c-0.244-0.281-0.486-0.561-0.73-0.843 0.244 0.283 0.486 0.562 0.73 0.843z"/>
    <path d="m611.68 933.77c-0.266-0.305-0.534-0.612-0.801-0.92 0.268 0.308 0.535 0.615 0.801 0.92z"/>
    <path d="m603.01 923.67c-0.229-0.271-0.457-0.544-0.686-0.816 0.229 0.272 0.457 0.545 0.686 0.816z"/>
    <path d="m592.3 910.64c-0.209-0.261-0.418-0.523-0.627-0.785 0.208 0.262 0.418 0.524 0.627 0.785z"/>
    <path d="m549.3 834.3c9e-3 -0.116 0.019-0.231 0.03-0.345-0.012 0.113-0.021 0.229-0.03 0.345z"/>
    <path d="m549.24 835.54c0 0.045-3e-3 0.089-3e-3 0.134 0-0.045 3e-3 -0.089 3e-3 -0.134z"/>
    <path d="m549.77 840.61c0.025 0.132 0.055 0.266 0.082 0.398-0.027-0.132-0.056-0.266-0.082-0.398z"/>
    <path d="m550.17 842.4c0.027 0.11 0.051 0.217 0.08 0.328-0.029-0.111-0.053-0.218-0.08-0.328z"/>
    <path d="m549.5 839.04c-0.012-0.081-0.02-0.159-0.03-0.24 0.011 0.081 0.019 0.159 0.03 0.24z"/>
    <path d="m549.3 837.11c9e-3 0.125 0.02 0.251 0.03 0.377-0.01-0.126-0.021-0.252-0.03-0.377z"/>
    <path d="m587.98 905.17c-0.198-0.252-0.395-0.505-0.593-0.759 0.198 0.254 0.395 0.506 0.593 0.759z"/>
    <path d="m589.86 907.57c-0.103-0.129-0.204-0.26-0.307-0.389 0.103 0.13 0.205 0.259 0.307 0.389z"/>
    <path d="m585.73 902.28c-0.078-0.101-0.155-0.201-0.233-0.301 0.078 0.101 0.155 0.201 0.233 0.301z"/>
   </g>
   <g transform="matrix(.12403 0 0 .12403 25.815 -40.727)" fill="#fd5" stroke-linejoin="round" stroke-width="3.362">
    <path d="m1161.1 821.37c0.484 0.099 0.958 0.2 1.423 0.303-0.465-0.103-0.939-0.203-1.423-0.303z"/>
    <path d="m1159.6 821.08c0.431 0.081 0.855 0.164 1.273 0.249-0.418-0.085-0.843-0.168-1.273-0.249z"/>
    <path d="m1162.9 821.76c0.344 0.078 0.683 0.156 1.015 0.235-0.332-0.079-0.671-0.157-1.015-0.235z"/>
    <path d="m1148.6 819.54c0.601 0.056 1.197 0.115 1.787 0.178-0.59-0.063-1.187-0.122-1.787-0.178z"/>
    <path d="m1152.6 819.98c0.428 0.054 0.852 0.109 1.271 0.167-0.419-0.058-0.843-0.113-1.271-0.167z"/>
    <path d="m1150.5 819.74c0.532 0.058 1.06 0.119 1.582 0.182-0.522-0.064-1.05-0.125-1.582-0.182z"/>
    <path d="m1154.3 820.21c1.112 0.156 2.196 0.324 3.249 0.502-1.053-0.178-2.137-0.346-3.249-0.502z"/>
    <path d="m1164.3 822.1c0.339 0.083 0.67 0.166 0.996 0.25-0.327-0.084-0.658-0.167-0.996-0.25z"/>
    <path d="m1158 820.79c0.385 0.067 0.766 0.135 1.142 0.205-0.376-0.07-0.757-0.138-1.142-0.205z"/>
    <path d="m1165.6 822.42c0.414 0.109 0.818 0.218 1.21 0.329-0.391-0.11-0.796-0.22-1.21-0.329z"/>
    <path d="m1172.3 824.68c0.245 0.112 0.48 0.224 0.696 0.335-0.215-0.111-0.451-0.223-0.696-0.335z"/>
    <path d="m1170.5 823.94c0.258 0.096 0.506 0.191 0.744 0.287-0.238-0.095-0.486-0.191-0.744-0.287z"/>
    <path d="m1171.5 824.33c0.199 0.082 0.391 0.164 0.574 0.246-0.184-0.081-0.375-0.163-0.574-0.246z"/>
    <path d="m1167.1 822.83c0.302 0.086 0.598 0.173 0.885 0.261-0.287-0.088-0.583-0.174-0.885-0.261z"/>
    <path d="m1169.4 823.54c0.335 0.113 0.659 0.226 0.968 0.339-0.309-0.113-0.633-0.226-0.968-0.339z"/>
    <path d="m1168.3 823.2c0.265 0.083 0.521 0.165 0.772 0.248-0.25-0.083-0.507-0.166-0.772-0.248z"/>
    <path d="m1138.1 819.03c-0.642-3e-3 -1.283-2e-3 -1.928 5e-3 0.644-7e-3 1.287-8e-3 1.928-5e-3z"/>
    <path d="m1125.9 819.67c0.476-0.055 0.951-0.106 1.428-0.154-0.477 0.048-0.952 0.099-1.428 0.154z"/>
    <path d="m1123.6 819.96c0.58-0.083 1.162-0.16 1.745-0.231-0.583 0.071-1.165 0.147-1.745 0.231z"/>
    <path d="m1127.9 819.46c0.632-0.059 1.264-0.114 1.897-0.16-0.634 0.046-1.265 0.101-1.897 0.16z"/>
    <path d="m1119.7 820.63c0.461-0.09 0.922-0.177 1.386-0.259-0.464 0.083-0.925 0.169-1.386 0.259z"/>
    <path d="m1121.6 820.28c0.627-0.107 1.256-0.208 1.888-0.3-0.632 0.092-1.261 0.193-1.888 0.3z"/>
    <path d="m1117.6 821.07c0.492-0.112 0.987-0.22 1.484-0.321-0.496 0.102-0.992 0.209-1.484 0.321z"/>
    <path d="m1129.8 819.3c0.65-0.048 1.301-0.088 1.951-0.123-0.65 0.035-1.301 0.075-1.951 0.123z"/>
    <path d="m1146.7 819.39c0.469 0.037 0.935 0.076 1.397 0.117-0.463-0.041-0.929-0.08-1.397-0.117z"/>
    <path d="m1142.5 819.13c0.628 0.027 1.252 0.058 1.872 0.094-0.62-0.036-1.244-0.067-1.872-0.094z"/>
    <path d="m1144.7 819.25c0.509 0.031 1.016 0.065 1.519 0.102-0.504-0.037-1.01-0.072-1.519-0.102z"/>
    <path d="m1140.6 819.07c0.505 0.014 1.008 0.03 1.51 0.05-0.502-0.019-1.005-0.036-1.51-0.05z"/>
    <path d="m1132.2 819.15c0.489-0.024 0.979-0.044 1.468-0.062-0.489 0.018-0.979 0.038-1.468 0.062z"/>
    <path d="m1138.5 819.03c0.499 4e-3 0.997 0.013 1.493 0.023-0.496-0.01-0.994-0.018-1.493-0.023z"/>
    <path d="m1134.3 819.07c0.554-0.016 1.106-0.028 1.658-0.036-0.552 7e-3 -1.105 0.02-1.658 0.036z"/>
    <path d="m1117.3 821.14c-11.359 2.643-21.313 8.059-26.326 17.869-10.214 19.983-25.128 126.14-25.538 130.46-1.435 15.067 0.742 19.75 42.438-31.768-14.984 18.09 9.411-116.47 9.426-116.56z"/>
   </g>
  </g>
  <path d="m145.63 90.786c-1.835 0.45409-23.105 0.71332-26.915 0.20676-1.7509-0.23281-5.7056-58.915-5.7056-58.915l37.551-1.3644s-3.8912 59.815-4.9301 60.072z" fill="#333" stroke-width="1.0121"/>
  <path d="m145.63 90.786c-1.835 0.45409-23.105 0.71332-26.915 0.20676l4.9201-10.997s2.4135-1.1111 6.6978-1.655c0.35387-0.0449 0.35139-0.43412 0.3721-0.7029 0.0207-0.26878-0.12565-10.582-0.12404-24.373 0-0.5264 0.43412-0.62017 0.68219-0.62017s3.11-0.03411 3.4522 0c0.62997 0.06276 0.68542 0.29012 0.68219 0.64088-0.14983 16.129-0.11634 24.281-0.062 24.58 0.0248 0.13644-0.0463 0.38178 0.24806 0.41341 4.3333 0.46624 7.9377 1.4884 8.7232 2.2533 0.78551 0.76492 1.3236 10.253 1.3236 10.253z" fill="#1a1a1a" stroke-width=".417"/>
  <path d="m221.29 70.035c-0.23119-0.19163-4.5043-9.9176-4.5043-9.9176s1.4008-1.5746 1.0314-2.6098c-0.71741-2.0097-7.7013-8.9853-8.6824-9.1785-1.8594-0.36627-3.2238 0.70861-3.2249 0.3721-2e-3 -0.66792-4.0931-3.3489-4.0931-3.3489s1.9034-2.2881 1.8605-3.473c-0.10481-2.8937-5.795-3.8975-5.9536-4.3412-2.3405-6.5444-20.592-15.497-20.592-15.497s-1.0336-0.57887-4.7104-0.37917c-0.27027 0.01464-1.4201-0.05433-1.8222-0.48907-6.7126-7.2575-18.923-8.3353-19.389-8.6411-7.8564-5.1487-10.171-6.7391-13.301-3.5747-0.50953 0.51499-10.356 0.20652-10.636-0.18357-3.2662-4.5519-10.666 3.5103-12.857 3.7584-7.4041 0.83822-18.522 7.318-20.125 8.9814-0.60243 0.62526-3.3575-0.09228-5.5911 0.76901-5.4208 2.0901-17.377 8.7968-20.292 14.594-0.58556 1.1648-5.4638 1.9917-6.211 4.4064-0.44491 1.4376 1.4475 3.6981 1.4475 3.6981-1.0364 0.90408-3.4705 3.6022-3.4705 3.6022s-2.4832-0.74941-3.5995-0.25328c-1.1163 0.49614-8.2717 6.7393-8.5311 8.5983-0.23145 1.6593 0.24422 2.0843 0.24422 2.0843l0.8376 1.4975c-1.6918 1.0739-4.1341 9.4055-4.541 9.6953-5.7458 4.0895-5.8674 24.184-5.8681 26.045-0.0016 4.2172 3.5557 13.479 3.5557 13.479l-1.3647 1.0323s-0.78551 0.7029-0.90954 1.8192c-0.12403 1.1163 4.3412 12.692 8.0187 17.985 1.6463 2.3692 20.949 6.1676 21.706 6.8219 1.1636 1.0067 4.6717 3.1536 5.523 3.2229 9.651 0.78749 32.442 3.0615 32.442 3.0615s1.2527 0.77162 2.5104 1.447c2.7859 1.4961 44.18 0.21681 44.983 0.0827 1.1908-0.19895 2.5849-1.599 2.9768-1.6124 0.74606-0.0257 26.024-2.1482 29.808-2.6047 4.7986-0.57886 8.2983-3.8732 8.7667-3.9691 1.5761-0.32286 19.476-4.5893 20.964-6.0767 1.4273-1.4259 8.0104-17.989 8.0594-18.482 0.12689-1.2799-2.0984-2.4567-2.1086-3.2249-0.0331-2.4928 2.3562-5.5384 3.744-12.784 0.55357-2.8919-1.5086-22.604-6.1007-26.411zm-145.08 47.174s-10.422-8.8732-12.362-13.272c-2.9355-6.6556-8.4353-36.424-3.5567-36.92 4.8786-0.49614 27.204 44.073 27.204 44.073s-2.1597 6.035-11.286 6.118zm30.071-6.2483s-25.276-57.794-15.229-66.228c10.047-8.4343 16.497 6.5738 16.497 6.5738s1.3644 28.28 8.2398 60.197c0.39282 1.8238-3.5886 2.7493-9.5081-0.54364zm29.733-17.886c-0.6157 2.7831-4.4703 4.4474-6.1962-0.22227-1.9693-5.3281-7.8933-59.825-5.7728-62.962 2.1205-3.1368 18.44 1.819 18.44 1.819s-3.0598 45.947-6.4707 61.365zm14.543 17.52c10.202-52.674 6.243-67.832 6.243-67.832s20.497-26.765 21.654-0.93236c1.158 25.849-18.921 69.185-18.921 69.185-5.224 2.7214-9.7718 3.6869-8.9762-0.42048zm51.795-7.7314c-1.0743 2.9214-10.399 14.186-12.239 14.181-5.0283-0.0149-12.9-2.7288-11.494-5.1267 1.4058-2.398 29.52-44.817 29.52-44.817s-0.5579 21.541-5.7877 35.764z" fill="#4d4d4d" stroke-width="1.618"/>
 </g>
 <g fill="#333" stroke="#000" stroke-miterlimit="10" stroke-width=".417">
  <path d="m152.45 39.973s-20.962 91.211-13.024 85.629c7.9382-5.5815 11.132-15.008 11.132-15.008 6.2363-32.199 7.1811-50.378 6.9733-59.647z"/>
  <path d="m196.65 51.802c-2.3153-9.0132-7.8645-25.809-20.342-29.664-9.5872-2.9623-14.057 11.224-14.14 12.133-0.0831 0.90954 16.289 7.5578 16.289 7.5578 1.158 25.849-18.921 69.185-18.921 69.185s2.135 13.223 6.6002 12.892c4.4652-0.33117 32.828-63.091 30.512-72.105z"/>
  <path d="m91.057 44.732s10.791-12.217 10.729-12.776c-0.062-0.55815-3.0388-11.163-8.0622-9.6747-1.1933 0.35362-5.4899 0.18543-9.9847 3.2249-8.5426 5.7765-17.241 36.838-17.241 36.838s36.482 75.447 35.722 67.909c-0.76033-7.5388 4.0652-19.294 4.0652-19.294s-25.276-57.794-15.229-66.228z"/>
  <path d="m63.852 103.93c-2.9355-6.6556-8.4353-36.424-3.5567-36.92 0 0-8.3109-14.896-9.4802-7.9316-1.1693 6.9649-8.8139 14.673-8.8139 14.673l-2.0307 18.677 30.372 37.818c1.2403-9.0545 5.8709-13.045 5.8709-13.045s-10.422-8.873-12.362-13.272z"/>
  <path d="m107.55 51.306s1.3644 28.28 8.2398 60.197c0 0 5.5303 9.9927 7.6378 13.287 2.1075 3.2938-11.784-76.585-11.784-76.585z"/>
  <path d="m213.44 56.351c-7.194-1.7365-5.2914 10.749-5.2914 10.749s-0.5579 21.541-5.7877 35.764c-1.0743 2.9214-10.399 14.186-12.239 14.181 0 0 5.5397 0.91017 4.8781 10.585-0.66159 9.6745 26.295-20.838 26.874-25.551 0.57924-4.7133-1.2403-43.991-8.4343-45.728z"/>
 </g>
 <g stroke="#000" stroke-miterlimit="10">
  <path d="m119.19 122.14-14.595 0.84752s-2.3359 0.20677-1.7785 1.9765c0.61893 1.9648 7.147 16.681 7.6702 18.161 0.82904 2.3439 4.4291 3.2295 4.5065 3.2347 13.21 0.88251 13.021-0.32124 13.021-0.32124s1.0037-1.2328 0.81255-2.376c-0.14388-0.86018-6.208-19.048-6.8695-20.288-0.64187-1.2039-1.1871-1.3567-2.7678-1.2338z" fill="url(#linearGradient3185)" stroke-width=".816"/>
  <path d="m146.5 122.14 15.914 0.89875s2.3359 0.20677 1.7785 1.9765c-0.61893 1.9648-7.147 16.681-7.6701 18.161-0.82917 2.3439-4.4293 3.2295-4.5065 3.2347-13.21 0.8825-14.34-0.37247-14.34-0.37247s-1.0037-1.2328-0.81255-2.376c0.14388-0.86018 6.208-19.048 6.8695-20.288 0.64212-1.2039 1.1872-1.3567 2.7678-1.2338z" fill="none" stroke-width=".20069"/>
  <path d="m142.66 21.125c-2.4187 1.5291-15.349 2.378-20.218 0-4.8683-2.378-15.225 1.4671-17.902 4.548-0.69025 0.79456-3.3908 0.4748-3.6802 0.64014-0.28937 0.16534-11.101-3.628-14.594-0.55753-0.98123 0.86266-6.1597 7.2767-6.9039 11.411-0.7442 4.1344 8.6325 12.164 10.459 11.825 3.5657-0.6621 18.357 9.3848 24.187 14.181 5.8296 4.796 6.4912-21.284 6.4912-21.284s2.4386-6.0443 6.3664-6.9538c3.9278-0.90954 7.7728-1.2403 10.005-0.66147 2.2326 0.57887 6.6152 2.274 8.8064 10.254 2.1912 7.9795 8.847 19.637 8.847 19.637s10.632-14.395 20.92-14.966c5.2125-0.28962 10.254-8.7646 10.626-10.253 0.3721-1.4884-3.0359-9.7908-6.4054-12.859-3.6438-3.3174-12.694-0.17613-13.593-0.05209-0.89925 0.12403-2.2326 1.0233-3.814 0.09303-1.5814-0.93026-11.155-10.34-19.597-5.0023z" fill="#4d4d4d" stroke-width=".76653"/>
  <g>
   <g stroke-width=".816">
    <path d="m224.52 82.935s-6.0362 15.669-8.4343 17.158c0 0 7.5524-22.082-0.7442-40.766l1.4493 0.79059 4.5043 9.9178 3.2249 8.7444z" fill="url(#radialGradient3379)"/>
    <path d="m40.947 79.462s4.7133 15.132 8.4343 19.845c0 0-8.4343-25.861 2.2946-38.857 5.3474-6.4776-2.6278 0-2.6278 0s-1.556 1.8271-4.4632 9.7548c-0.65267 1.7801-2.7697 5.1023-2.7697 5.1023z" fill="url(#radialGradient3367)"/>
    <path d="m146.5 122.14 15.914 0.89875s2.3359 0.20677 1.7785 1.9765c-0.61893 1.9648-7.147 16.681-7.6701 18.161-0.82917 2.3439-4.4293 3.2295-4.5065 3.2347-13.21 0.8825-14.34-0.37247-14.34-0.37247s-1.0037-1.2328-0.81255-2.376c0.14388-0.86018 6.208-19.048 6.8695-20.288 0.64212-1.2039 1.1872-1.3567 2.7678-1.2338z" fill="url(#linearGradient3195)"/>
   </g>
   <g id="detail_highlights" transform="matrix(.12403 0 0 .12403 25.815 -40.727)" stroke-width="6.5788">
    <path d="m659.16 517.32c-10.716 5.849-19.356 12.108-24.491 18.018-5.565 6.406-27.338 3.828-29.671 5.161s-89.5-29.25-117.66-4.495c-7.911 6.955-49.661 58.667-55.661 92-1.001 5.563 0.27 12 3.15 18.851 0 0-6.832-69.356 245.17 146.64l40.027-153.97z" fill="url(#linearGradient3233)"/>
    <path d="m748.5 530s10.75-5.5 105.5 30c6.884 2.58 12.222 1.626 13.5 1 3.62-1.772 103.5-40.5 121.5-34l23.67-38.107c-22.629-5.763-47.191-5.065-70.67 9.779-19.5 12.328-123.75 19.172-163 0-17.613-8.604-44.139-7.104-69.98-0.591z" fill="url(#linearGradient1166)"/>
    <path d="m1006.3 607.37c13.882 100.74 29.842 253.52 50.229 195.63 28-79.5 214.24-203.67 234.38-160.88 4 8.503-8.375-68.125-50.537-103.46-30.451-25.516-102.34-1.42-109.59-0.42s-18 8.25-30.75 0.75c-4.989-2.935-19.844-16.337-40.156-28.986z" fill="url(#linearGradient3259)"/>
   </g>
   <path d="m221.29 70.035 0.16547 1.4471c11.99 20.879-25.799 55.402-26.832 55.236-2.2582-0.36144-13.884-0.46724-16.248 0.12403-0.82681 0.20677-1.4084-1.7376-0.49614-3.2249 31.532-51.41 40.476-64.539 39.939-66.11-0.69074-2.019-7.6937-9.0281-8.6824-9.1785-2.1396-0.32559-4.9727 1.5193-5.2715 1.3644-1.6746-0.86824-6.1397-12.155-6.1397-12.155-2.3405-6.5444-20.592-15.497-20.592-15.497s-1.0336-0.57886-4.7104-0.37917c-0.27027 0.0146-1.4201-0.0543-1.8222-0.48906-6.7126-7.2575-18.923-8.3354-19.389-8.6411-7.8564-5.1487-10.171-6.7392-13.301-3.5747-0.50953 0.51499-10.356 0.20651-10.636-0.18358-3.2662-4.5519-10.666 3.5103-12.857 3.7584-7.4041 0.83823-18.522 7.318-20.125 8.9814-0.60243 0.62526-3.3575-0.0923-5.5911 0.76901-5.4208 2.0901-17 8.9788-20.177 14.636-0.3855 0.68665-2.7697 4.0518-5.9326 12.197-0.38103 0.98123-4.0931-1.7158-6.0157-0.78551-1.0997 0.53211-8.2717 6.7393-8.5311 8.5983-0.23145 1.6593 0.24422 2.0843 0.24422 2.0843s2.9533 6.5579 39.956 65.308c0.31294 0.49688 0.93906 1.9408-0.7442 2.3981-0.73428 0.19944-11.568-0.79221-16.289 0-0.63865 0.10716-38.823-35.846-26.874-54.906l0.2477-1.608c-5.7458 4.0895-5.8674 24.184-5.8681 26.045-0.0016 4.2172 3.5557 13.479 3.5557 13.479l-1.3647 1.0323s-0.78551 0.7029-0.90954 1.8192c-0.12403 1.1163 4.3412 12.692 8.0187 17.985 1.6463 2.3692 20.949 6.1676 21.706 6.8219 1.1636 1.0067 4.6717 3.1536 5.523 3.2229 9.651 0.78749 32.442 3.0615 32.442 3.0615s1.2528 0.77161 2.5104 1.447c0 0 2.6254-0.53744 1.5091-3.2042-1.1163-2.6667-60.095-104.75-22.667-118.64 1.4197-0.5269 4.9346-0.30116 5.3025-0.55816 2.322-1.6225 15.566-10.047 13.83-6.4366-13.335 27.718 19.281 125.24 19.982 127.88 0.25154 0.94774 0.37533 1.5837 1.291 1.8508 0.95618 0.27908 5.2714 0.12404 6.4498 0 1.1783-0.12403 1.2403-0.62017 1.7365-1.2403 0.49614-0.62017 31.639-102.93 19.535-129.68 0 0 10.719 3.6619 12.341 6.2637 0.24831 0.39815 1.9847 1.0954 2.4807 1.1783 0.38562 0.0646 3.3925 0.12428 3.8244 0.20701 0.31789 0.0609 41.269 4.584-21.251 118.99-0.77199 1.4128-0.94254 3.1939 0.62017 3.473 0.76454 0.13656 2.5849-1.599 2.9768-1.6124 0.74606-0.0257 26.024-2.1481 29.808-2.6047 4.7986-0.57887 8.2983-3.8732 8.7667-3.9691 1.5761-0.32286 19.476-4.5893 20.964-6.0767 1.4273-1.4259 8.0104-17.989 8.0594-18.482 0.12689-1.2799-2.0984-2.4568-2.1086-3.2249-0.0331-2.4928 2.3562-5.5384 3.744-12.784 0.55369-2.8916-1.5085-22.604-6.1006-26.411zm-84.839 31.133c-0.6327 4.0911-5.4904 4.4485-6.9459 0-0.57515-1.7578-17.324-106.79-1.4884-91.351 0.39021 0.38054 8.8374 0.55816 9.7367 0 2.1241-1.3184 15.442-16.931-1.3024 91.351z" fill="url(#radialGradient3221)" stroke-width=".988"/>
  </g>
 </g>
 <g id="front_panel" transform="matrix(.12403 0 0 .12403 25.815 -40.727)">
  <path d="m855.2 1505.1c-9.767 0-16.602-0.425-19.245-1.195-6.142-1.793-7.159-5.659-9.005-12.679l-0.292-1.105c-0.419-1.58-2.172-7.113-5.075-16.28-54.621-172.46-98.082-331.64-129.17-473.1-26.611-121.07-43.317-225.92-49.654-311.65-7.723-104.47-0.085-181.46 22.702-228.83 1.587-3.299 1.841-5.726 0.775-7.42-0.867-1.38-2.471-2.08-4.766-2.08-17.596 0-88.06 44.542-107.48 57.707l-0.265-6.073c13.85-13.395 102.2-64.811 160.79-71.444 5.73-0.648 14.72-6.871 26.102-14.75 17.217-11.917 38.645-26.75 56.027-26.75 7.668 0 13.8 2.874 18.68 8.772-4.997-3.272-9.618-4.879-13.969-4.879-5.872 0-11.04 3.022-15.362 8.983-13.647 18.825-19.728 69.018-18.071 149.19 1.331 64.409 7.574 147.86 18.556 248.05 19.449 177.42 46.079 339.07 47.985 344.89 6.5 19.867 20.42 26.945 31.279 26.945 11.772 0 24.952-8.411 27.857-27.201 39.236-253.73 61.52-446.27 66.231-572.29 3.538-94.638-2.863-152.18-19.026-171.04-4.104-4.789-8.905-7.217-14.27-7.217-8.494 0-16.339 6.004-21.53 9.978-1.344 1.029-2.505 1.917-3.357 2.447-1.947 1.208-12.247 2.619-34.867 2.619-21.303 0-39.488-1.301-41.722-2.474-1.868-1.817-3.686-3.44-5.456-4.868 2.622 0.588 7.783 1.233 18.272 1.869 11.37 0.689 25.331 1.101 37.345 1.101 27.037 0 28.953-1.937 29.675-2.665 8.645-8.738 16.346-12.635 24.97-12.635 16.662 0 38.314 14.193 77.622 39.958l2.612 1.712c0.84 0.551 2.729 0.914 9.152 2.087 24.796 4.531 99.482 18.181 144.79 65.123l-4.772 0.782c-14.986-21.124-96.243-49.07-99.743-50.266l-3.539-1.209 1.541 3.407c22.08 48.789 27.833 133.41 17.1 251.51-8.646 95.129-27.907 211.67-57.252 346.4-50.695 232.75-113.78 438.81-117.22 446.02-0.813 1.024-1.493 2.017-2.097 2.896-2.347 3.423-3.897 5.684-10.729 6.402-5.741 0.606-20.023 1.253-32.129 1.253z" fill="url(#linearGradient3231)"/>
 </g>
</svg>
