<?xml version="1.0" encoding="UTF-8"?>
<svg cursor="default" version="1.1" viewBox="0 0 256 256" xmlns="http://www.w3.org/2000/svg" xmlns:cc="http://creativecommons.org/ns#" xmlns:dc="http://purl.org/dc/elements/1.1/" xmlns:rdf="http://www.w3.org/1999/02/22-rdf-syntax-ns#">
 <metadata>
  <rdf:RDF>
   <cc:Work rdf:about="">
    <dc:format>image/svg+xml</dc:format>
    <dc:type rdf:resource="http://purl.org/dc/dcmitype/StillImage"/>
    <dc:title/>
   </cc:Work>
  </rdf:RDF>
 </metadata>
 <defs>
  <radialGradient id="radialGradient873" cx="861.94" cy="206.66" r="30.931" fx="862.02" fy="199.22" gradientTransform="matrix(0 -2.5307 2.4428 0 -306.56 2284.1)" gradientUnits="userSpaceOnUse">
   <stop stop-color="#ff7f2a" offset="0"/>
   <stop stop-color="#f95" offset=".5"/>
   <stop stop-color="#ffe6d5" offset="1"/>
  </radialGradient>
  <radialGradient id="radialGradient883" cx="946.07" cy="302.25" r="78.716" gradientTransform="matrix(0 -1.9889 2.0171 0 -415.19 2021.8)" gradientUnits="userSpaceOnUse">
   <stop stop-color="#ffd5d5" offset="0"/>
   <stop stop-color="#ff8080" offset=".45"/>
   <stop stop-color="#f55" offset=".56"/>
   <stop stop-color="#ff2a2a" offset="1"/>
  </radialGradient>
  <radialGradient id="radialGradient895" cx="698.35" cy="168.51" r="110.21" gradientTransform="matrix(0 1.3133 -1.209 0 244.91 -865.8)" gradientUnits="userSpaceOnUse">
   <stop stop-color="#ffd5d5" offset="0"/>
   <stop stop-color="#ffd5d5" offset=".45"/>
   <stop stop-color="#faa" offset=".675"/>
   <stop stop-color="#f55" offset=".9025"/>
   <stop stop-color="#f55" offset="1"/>
  </radialGradient>
 </defs>
 <path d="m164.96 59.71c1.5446-4.0028 2.992-5.824-1.2543-6.9265-8.0228-2.0826-32.064-1.8508-38.871 3.1051-6.8072 4.9559-7.7111 4.2764-4.657 13.912 16.872 53.243-47.866 95.994-47.866 95.994-7.4842 4.1405-15.445 3.9813-22.929 12.102-7.4836 8.1206-9.7131 7.9607-7.3249 9.236 2.3882 1.2722 7.8039-0.79626 7.8039-0.79626-23.151 13.932 35.826 7.6441 35.826 7.6441 9.6215 0.56568 36.304-4.2992 41.718-17.039 5.4139-12.738 25.636-19.425 30.413-19.585 4.7775-0.15987 14.172-3.0252 17.357-14.172 3.1838-11.146-15.928-68.669-10.215-83.475z" fill="url(#radialGradient895)" stroke="#000" stroke-width="1.618"/>
 <g transform="matrix(.61487 0 0 .61487 -387.24 -48.513)">
  <path d="m711.1 381.52c0.795-1.034 1.558-2.092 2.381-3.107 0.822-1.018 1.646-2.037 2.502-3.025 0.839-1.007 1.728-1.972 2.601-2.951 0.897-0.957 1.804-1.91 2.757-2.818 0.936-0.928 1.915-1.813 2.912-2.68 0.995-0.871 2.036-1.691 3.101-2.485 1.066-0.789 2.16-1.551 3.292-2.252 1.12-0.722 2.292-1.362 3.476-1.976 2.372-1.219 4.831-2.228 7.271-3.179 2.448-0.934 4.881-1.813 7.251-2.805 1.183-0.499 2.357-1.013 3.51-1.563 1.157-0.546 2.308-1.104 3.434-1.711 1.132-0.595 2.242-1.23 3.342-1.888 1.109-0.642 2.192-1.328 3.276-2.015l-0.101 0.074c3.064-2.517 6.143-5.135 9.113-7.828 2.98-2.692 5.91-5.45 8.775-8.275 2.862-2.826 5.635-5.747 8.308-8.756 2.688-2.996 5.252-6.102 7.745-9.26 4.969-6.33 9.505-12.991 13.634-19.871 2.048-3.45 4.032-6.932 5.882-10.48 1.842-3.552 3.564-7.161 5.154-10.821 3.176-7.323 5.652-14.929 7.295-22.689 0.823-3.88 1.38-7.808 1.725-11.749 0.346-3.948 0.336-7.896 0.139-11.862-0.232-3.985-0.565-8.003-0.952-11.998-0.396-3.997-0.849-7.989-1.366-11.966-0.551-3.978-1.174-7.916-2.264-11.771-0.513-1.96-0.916-4-1.09-6.033-0.147-2.032-0.184-4.137 0.625-6.097l0.27 0.134c-0.308 0.901-0.363 1.928-0.354 2.907 9e-3 0.99 0.119 1.979 0.273 2.958 0.323 1.969 0.85 3.868 1.501 5.765 1.363 3.834 2.201 7.853 2.986 11.82 0.78 3.981 1.366 7.988 1.894 12 0.527 4.016 0.998 8.022 1.373 12.078 0.374 4.076 0.372 8.211 0.102 12.304-0.264 4.1-0.875 8.168-1.733 12.174-1.711 8.02-4.505 15.748-7.854 23.164-1.676 3.712-3.537 7.333-5.539 10.869-1.992 3.54-4.11 7.004-6.377 10.366-2.256 3.368-4.612 6.662-7.041 9.898-2.436 3.229-4.955 6.392-7.508 9.522-2.549 3.135-5.17 6.205-7.812 9.262-2.664 3.035-5.34 6.061-8.072 9.04-2.721 2.989-5.506 5.924-8.363 8.792-2.875 2.856-5.743 5.691-8.851 8.365l-0.037 0.032-0.063 0.042c-1.097 0.74-2.192 1.481-3.32 2.178-1.13 0.689-2.28 1.354-3.451 1.979-2.331 1.27-4.752 2.375-7.207 3.355-4.909 1.987-9.907 3.416-14.503 5.603-1.144 0.56-2.282 1.13-3.385 1.769-1.112 0.621-2.191 1.305-3.25 2.019-1.062 0.714-2.091 1.478-3.109 2.26-1.017 0.784-2.021 1.591-2.991 2.443-0.984 0.832-1.922 1.723-2.888 2.586-0.935 0.895-1.888 1.776-2.794 2.705-1.843 1.827-3.602 3.741-5.393 5.646z"/>
 </g>
 <g stroke="#000">
  <path d="m178.69 47.039c0.28099-0.02214 1.0207-0.16909 2.6747-1.0471 4.9632-2.6359-0.18323 0.17278 9.3897-4.0895 9.5723-4.2623 7.5641-5.1176 18.674 1.0053 11.11 6.1229-6.8822 12.554-13.689 17.063-6.8054 4.5088-11.857 5.92-14.933 3.2754-3.0762-2.6446-1.78-5.7859-4.7007-10.902-1.5525-2.7196 0.37016-3.8823 2.615-4.3859 6.1e-4 -0.0012-0.39352-0.89033-0.0301-0.91862z" fill="url(#radialGradient873)" stroke-width=".417"/>
  <path d="m198.62 66.296s1.2291-26.222-1.2931-23.768" fill="none" stroke-width=".61487"/>
  <path d="m195.16 43.164s4.1879-2.0641 0.97949 0.8891-12.714 4.004-13.405 4.0809c-0.69173 0.07686-9.6326-0.20475-6.6351 4.2088 3.3098 4.8741 1.6245 8.2583 4.7007 10.902 3.0756 2.6446 8.128 1.2328 14.933-3.2754 6.806-4.5088 24.8-10.94 13.689-17.063-11.109-6.1229-9.1013-5.2676-18.674-1.0053-9.5723 4.2623-4.4258 1.4536-9.3897 4.0895-4.6244 2.4564-2.1459-0.13773-2.1459-0.13773s2.9096-1.8956 4.1239-2.3131c1.1547-0.39721 6.6726-2.7669 9.0312-3.9635 2.0709-1.0502 6.0079-3.1832 9.5828-1.531 3.5742 1.6522 9.4413 4.4123 9.9394 5.0665 0.49743 0.65422 2.0684 1.2217 2.216 4.7394 0.14019 3.3418 2.4952 5.4631 2.6249 15.221 0.13036 9.758 4.2297 23.179 2.5388 40.601-1.6915 17.421-2.8339 5.567-3.9032 27.635-1.0674 22.068-7.3053 39.059-11.36 61.616-4.0557 22.556-23.944 32.02-32.549 36.51-8.6033 4.4916-20.987 1.8059-21.661-7.6127 0 0 0.26562-2.5062 0-5.3955-0.26439-2.8886-6.4211 11.796-14.719 7.1682-8.2958-4.625-14.444-11.191-9.0613-24.362 5.3826-13.171 8.6617-8.8474 11.839-22.03 3.1764-13.182 11.746-9.3712 17.963-28.074 6.2163-18.702 15.227-31.82 15.641-38.378 0.41442-6.5588-0.9881-6.7445 2.5978-14.245 2.8997-6.0638 4.1332-8.5067 1.5661-14.398-2.5665-5.8911 2.9434-12.163 0.82701-15.227-2.1158-3.0639-1.8643-10.856-2.2209-13.02-0.35601-2.1643-3.1752-6.394 6.1942-6.9585 9.3694-0.56445 13.892-3.1229 14.738-3.7378z" fill="url(#radialGradient883)" stroke-width="1.162"/>
 </g>
 <g transform="matrix(.61487 0 0 .61487 -387.24 -48.513)">
  <path d="m930.09 184.1c-9e-3 3e-3 -0.049 4e-3 -0.146 0.045s-0.246 0.109-0.384 0.265c-0.297 0.289-0.483 0.953-0.319 1.844 0.144 0.887 0.526 1.977 1.129 3.193 0.305 0.618 0.637 1.305 0.937 2.083 0.305 0.756 0.588 1.566 0.877 2.424 0.588 1.714 1.13 3.638 1.675 5.741 0.549 2.103 1.087 4.391 1.579 6.854 0.981 4.931 1.944 10.514 2.112 16.837 5e-3 1.589-0.038 3.222-0.346 4.973-0.194 0.887-0.376 1.792-0.965 2.804-0.035 0.064 0.121-0.213 0.04-0.064l-0.032 0.069-0.063 0.138-0.13 0.277-0.26 0.556c-0.151 0.36-0.168 0.633-0.271 0.95-0.096 0.278-0.162 0.658-0.225 1.047-0.06 0.384-0.144 0.754-0.195 1.15-0.082 0.803-0.211 1.59-0.255 2.429-0.14 1.653-0.187 3.364-0.264 5.112-0.144 3.493-0.253 7.131-0.656 10.861-0.401 3.715-0.952 7.602-2.634 11.309-0.766 1.753-1.688 3.485-2.384 5.268-0.651 1.787-1.343 3.58-1.808 5.49-0.252 0.945-0.531 1.886-0.765 2.843-0.189 0.967-0.381 1.938-0.571 2.909-0.428 1.937-0.644 3.923-0.909 5.906-0.244 1.986-0.341 3.997-0.509 6.004-0.013 2.016-0.121 4.036-0.057 6.058l0.137 3.033 0.06 1.56c0.03 0.491-5e-3 1.051-0.054 1.617-0.193 2.202-1.008 4.256-2.002 6.139-2.056 3.744-4.761 6.89-7.188 10.123-2.489 3.188-4.804 6.432-6.714 9.856-1.938 3.407-3.496 6.97-4.671 10.611-0.563 1.829-1.07 3.664-1.453 5.517-0.196 0.926-0.391 1.848-0.527 2.778-0.156 0.952-0.313 1.899-0.47 2.844-0.317 1.892-0.604 3.771-0.938 5.624-0.16 0.928-0.321 1.852-0.481 2.77-0.167 0.92-0.389 1.841-0.578 2.752-0.396 1.828-0.788 3.635-1.175 5.42-0.385 1.787-0.926 3.504-1.371 5.224-0.877 3.438-1.977 6.726-3.014 9.902-1.16 3.139-2.269 6.177-3.508 9.017-0.589 1.436-1.22 2.811-1.841 4.149-0.62 1.335-1.226 2.64-1.815 3.911-0.297 0.632-0.592 1.256-0.88 1.871-0.366 0.704-0.604 1.209-0.979 1.852-0.723 1.279-1.675 2.439-2.72 3.308-1.042 0.831-1.688 1.438-2.271 2.354-0.555 0.904-1.006 1.885-1.404 2.851-0.372 0.985-0.742 1.927-1.027 2.865-0.304 0.928-0.609 1.812-0.853 2.668-1.041 3.404-1.729 6.135-2.209 7.988-0.491 1.854-0.754 2.844-0.754 2.844l-0.354-0.07s0.15-1.014 0.438-2.913c0.142-0.95 0.329-2.121 0.584-3.491 0.241-1.374 0.524-2.953 0.904-4.716 0.352-1.77 0.839-3.711 1.51-5.819 0.358-1.054 0.771-2.149 1.363-3.273 0.33-0.556 0.682-1.118 1.141-1.643 0.22-0.266 0.465-0.488 0.7-0.736 0.224-0.211 0.446-0.424 0.673-0.638 0.824-0.785 1.459-1.694 1.98-2.752 0.268-0.516 0.56-1.248 0.797-1.765 0.261-0.629 0.525-1.268 0.793-1.913 0.527-1.291 1.068-2.614 1.622-3.971 0.555-1.351 1.103-2.738 1.625-4.162 1.121-2.824 2.101-5.83 3.13-8.931 0.901-3.146 1.957-6.354 2.741-9.748 0.904-3.363 1.614-6.854 2.399-10.41 0.188-0.894 0.405-1.776 0.573-2.69 0.163-0.918 0.326-1.84 0.49-2.769 0.32-1.854 0.689-3.721 1.037-5.606 0.177-0.942 0.354-1.892 0.534-2.842 0.169-0.979 0.395-1.951 0.624-2.926 0.448-1.951 1.03-3.889 1.673-5.816 1.344-3.834 3.054-7.607 5.229-11.125 2.154-3.53 4.704-6.814 7.353-9.945 2.648-3.123 5.485-6.072 7.571-9.405 0.998-1.671 1.808-3.469 2.067-5.342 0.063-0.449 0.128-0.906 0.123-1.438l0.017-0.729 6e-3 -0.771 0.017-3.082c-7e-3 -2.052 0.162-4.095 0.235-6.13 0.206-2.028 0.312-4.06 0.581-6.066 0.311-2 0.465-4.015 0.881-5.981 0.181-0.988 0.36-1.973 0.541-2.956 0.206-0.978 0.446-1.946 0.668-2.917 0.39-1.948 1.055-3.843 1.603-5.76 0.604-1.886 1.397-3.633 2.054-5.439 1.288-3.395 1.616-7.124 1.774-10.739 0.075-1.816 0.089-3.621 0.096-5.414 0.017-1.802 0.03-3.583 0.046-5.338 0.015-1.766 0.087-3.521 0.211-5.272 0.133-1.771 0.29-3.449 0.814-5.329 0.15-0.468 0.294-1.012 0.472-1.401 0.203-0.413 0.405-0.824 0.607-1.233 0.25-0.393 0.446-1.08 0.593-1.744 0.271-1.391 0.349-2.902 0.363-4.376 0.037-2.965-0.173-5.869-0.447-8.614-0.291-2.747-0.598-5.362-0.971-7.808-0.74-4.892-1.534-9.146-2.343-12.597-0.204-0.86-0.406-1.674-0.628-2.422-0.205-0.733-0.46-1.422-0.71-2.078-0.504-1.33-0.83-2.523-0.87-3.548-0.067-1.013 0.255-1.883 0.73-2.243 0.453-0.364 0.818-0.322 0.8-0.334z" fill="#ff2a2a"/>
 </g>
</svg>
