<?xml version="1.0" encoding="UTF-8"?>
<svg cursor="default" version="1.1" viewBox="0 0 256 256" xmlns="http://www.w3.org/2000/svg" xmlns:cc="http://creativecommons.org/ns#" xmlns:dc="http://purl.org/dc/elements/1.1/" xmlns:rdf="http://www.w3.org/1999/02/22-rdf-syntax-ns#">
 <metadata>
  <rdf:RDF>
   <cc:Work rdf:about="">
    <dc:format>image/svg+xml</dc:format>
    <dc:type rdf:resource="http://purl.org/dc/dcmitype/StillImage"/>
    <dc:title/>
   </cc:Work>
  </rdf:RDF>
 </metadata>
 <path d="m129.84 193.94c-11.861 0-20.594-2.3061-20.96-2.405l-0.3191-0.0859-0.22367-0.2148c-4.3541-4.2016-11.981-21.799-18.708-37.326-1.5766-3.6362-3.0657-7.0705-4.4246-10.13-7.1534-16.098-5.2557-23.953-3.2069-28.462 2.1074-4.6398 5.5867-8.7004 13.097-16.62 4.2815-4.5178 7.9158-6.6246 11.121-8.4839 2.7417-1.5896 5.1096-2.9626 7.6067-5.5574 7.4446-7.7373 14.144-8.3387 16.018-8.3387 1.8758 0 8.5719 0.60146 16.019 8.3387 2.4981 2.5957 4.865 3.9687 7.6067 5.5574 3.2059 1.8585 6.8393 3.9653 11.122 8.4839 7.5093 7.9194 10.988 11.98 13.096 16.62 2.0498 4.5083 3.9455 12.363-3.2079 28.462-1.3589 3.0597-2.847 6.494-4.4236 10.13-6.7289 15.527-14.355 33.126-18.708 37.326l-0.22367 0.2148-0.31811 0.0859c-0.3688 0.0997-9.0988 2.405-20.962 2.405z" fill="#f55" stroke="#000" stroke-miterlimit="10" stroke-width="1.618"/>
 <g clip-rule="evenodd" fill-rule="evenodd" stroke="#000" stroke-miterlimit="10">
  <g stroke-width=".417">
   <path d="m97.514 109.15c3.8839-4.1818 7.2359-6.1872 10.234-7.9426 2.5399-1.4839 4.7696-2.7555 7.1057-5.1132 6.876-6.9399 13.063-7.5319 14.99-7.5311s8.1127 0.592 14.988 7.5319c2.3351 2.3568 4.5638 3.6268 7.1037 5.1089 3.0021 1.7554 6.3561 3.7617 10.241 7.9461 6.7727 7.2441 10.001 11.176 12.026 15.682 1.9792 4.4095 3.699 11.818-2.3589 26.64-1.177 2.8792-2.4305 6.1048-3.7666 9.5073-4.6622 11.872-9.8175 24.919-13.746 31.552-0.92051 1.5775-1.7714 2.795-2.5309 3.5469-9e-3 0.0128-0.21373 0.21652-0.22168 0.22854-9e-3 0.0125-0.29823 0.0988-0.30618 0.1108-0.35986 0.3033-3.0598 1.0534-7.3761 1.6153-0.0101 1e-3 -0.0239 4e-3 -0.0338 5e-3 -4e-3 0-9e-3 8.6e-4 -0.0115 1e-3 -0.88174 0.14951-1.8341 0.21653-2.8301 0.31534-3.2735 0.31533-7.0609 0.5542-11.176 0.5542-4.0966 0-7.8701-0.23543-11.136-0.54991-0.99506-0.098-1.9365-0.21651-2.8282-0.31447-9e-3 -8.6e-4 -0.0179-1e-3 -0.0258-4e-3 -0.0199-2e-3 -0.0438-5e-3 -0.0636-7e-3 -4.3163-0.56278-7.0112-1.3129-7.3711-1.6162-9e-3 -0.0112-0.30119-0.0988-0.30815-0.11079-9e-3 -0.0125-0.21373-0.21566-0.22168-0.22854-0.76048-0.75182-1.6114-1.9685-2.5319-3.5469-3.9286-6.6332-9.0839-19.679-13.746-31.552-1.336-3.4008-2.5906-6.6254-3.7685-9.5047-6.0639-14.822-4.3372-22.232-2.356-26.643 2.0229-4.5066 5.2537-8.4384 12.027-15.682z" fill="#ff8080"/>
   <path d="m99.928 117.12c3.5001-3.8356 6.5569-5.7499 9.3473-7.4022 2.3391-1.3782 4.4306-2.5484 6.6066-4.669 6.3035-6.1434 11.985-6.7251 13.962-6.7234 1.9762 0.0012 7.6544 0.5817 13.957 6.7243 2.174 2.118 4.2616 3.2857 6.5997 4.6604 2.7973 1.6531 5.8571 3.5701 9.3602 7.4099 6.0102 6.5859 9.0143 10.371 10.956 14.744 1.9116 4.3116 3.4713 11.285-1.51 24.819-0.99408 2.7023-2.012 5.7181-3.1095 8.8852-3.8739 11.178-8.1524 23.34-11.599 29.528-0.80322 1.4907-1.5577 2.6395-2.2496 3.3441-0.0148 0.0249-0.20278 0.21653-0.21868 0.24058-0.015 0.0232-0.27735 0.11341-0.29327 0.13577-0.51791 0.55247-3.1999 1.3352-7.4655 1.8215-7e-3 1e-3 -0.0258 2e-3 -0.0339 4e-3 -4e-3 8.6e-4 -9e-3 8.6e-4 -0.0144 1e-3 -0.91754 0.12544-1.8937 0.19075-2.9077 0.27323-3.4276 0.28097-7.3075 0.47859-11.474 0.47859-4.1493 0-8.0163-0.19677-11.437-0.47515-1.015-0.0833-1.9852-0.18043-2.9077-0.27152-9e-3 -8.6e-4 -0.0168-2e-3 -0.0239-4e-3 -0.0179-2e-3 -0.0458-4e-3 -0.0626-7e-3 -4.2626-0.48717-6.9407-1.2708-7.4596-1.8216-0.0169-0.0223-0.27933-0.11253-0.29523-0.13662-0.0158-0.0231-0.2038-0.21566-0.2187-0.24058-0.69287-0.70369-1.4474-1.8525-2.2506-3.3441-3.4475-6.1881-7.725-18.348-11.599-29.527-1.0975-3.1645-2.1174-6.1778-3.1125-8.8792-4.9843-13.534-3.4186-20.51-1.507-24.824 1.9444-4.3743 4.9485-8.1609 10.96-14.746z" fill="#f55"/>
   <path d="m107.17 138.53c2.3252-2.8157 4.5171-4.4362 6.6892-5.78 1.7327-1.0629 3.4017-1.929 5.1026-3.3355 4.5569-3.7677 8.7459-4.3047 10.878-4.3004 2.1273 4e-3 6.3104 0.53958 10.864 4.303 1.6949 1.4005 3.36 2.258 5.0867 3.3157 2.19 1.3404 4.3898 2.9695 6.722 5.7972 3.7725 4.5736 6.053 7.959 7.7439 11.933 1.7038 4.0168 2.9206 9.771 1.0388 19.351-0.43043 2.1884-0.74456 4.5668-1.1382 7.0172-1.4653 9.1284-3.1552 18.6-5.1573 23.458-0.44933 1.2313-0.91555 2.173-1.4026 2.734-0.0359 0.0627-0.17198 0.21911-0.20976 0.27839-0.0377 0.0593-0.21769 0.15552-0.25845 0.21137-0.9921 1.2991-3.6194 2.179-7.726 2.4419-4e-3 8.5e-4 -0.0359 8.5e-4 -0.0418 1e-3 -4e-3 0-0.0101 8.6e-4 -0.0158 1e-3 -1.0199 0.061-2.0707 0.1022-3.1453 0.14519-3.8938 0.15381-8.0461 0.25176-12.361 0.25091-4.3054 8.5e-4 -8.4517-0.0954-12.34-0.24833-1.0746-0.043-2.1234-0.0962-3.1443-0.1452-9e-3 -8.6e-4 -0.0158-1e-3 -0.0229-2e-3 -0.0101-8.7e-4 -0.0467-1e-3 -0.0566-4e-3 -4.1045-0.26292-6.7299-1.1419-7.723-2.4393-0.0408-0.0568-0.22268-0.1538-0.25946-0.21309-0.0387-0.0593-0.17496-0.21652-0.21175-0.27925-0.48708-0.56021-0.95332-1.5028-1.4026-2.734-2.0021-4.8555-3.689-14.327-5.1573-23.454-0.39366-2.4462-0.71375-4.8185-1.1432-7.0035-1.8878-9.5837-0.66405-15.343 1.0428-19.363 1.6929-3.9765 3.9743-7.3644 7.7498-11.938z" fill="#ff8080"/>
   <path d="m109.59 143.81c1.9305-2.4797 3.8352-4.0014 5.8054-5.2387 1.5289-0.96061 3.0538-1.7244 4.6016-2.8904 3.9594-2.9841 7.6663-3.4979 9.8503-3.4927 2.177 5e-3 5.877 0.51811 9.8324 3.4953 1.5418 1.1608 3.0588 1.9161 4.5837 2.8672 1.9862 1.2373 3.9028 2.7676 5.8412 5.2593 3.0339 3.8991 5.0658 7.1547 6.6732 10.995 1.6363 3.9198 2.8212 9.2993 1.8878 17.53-0.22963 2.0243-0.31314 4.1853-0.47915 6.3934-0.63622 8.4556-1.4901 17.023-3.0101 21.433-0.33102 1.1445-0.70082 2.0183-1.1203 2.5313-0.0428 0.0748-0.16104 0.21995-0.20677 0.29127-0.0448 0.0713-0.19683 0.16928-0.24553 0.23629-1.1502 1.5483-3.7606 2.4599-7.8145 2.6472-4e-3 8.6e-4 -0.0387 1e-3 -0.0428 1e-3 -4e-3 8.6e-4 -0.0101 8.6e-4 -0.0169 8.6e-4 -1.0537 0.0498-2.1313 0.0739-3.2248 0.10307-4.0489 0.1083-8.2916 0.17614-12.657 0.17528-4.358 8.6e-4 -8.5948-0.0661-12.643-0.17356-1.0935-0.0284-2.1711-0.0352-3.2228-0.1022-9e-3 -8.6e-4 -0.0158-8.6e-4 -0.0219-1e-3 -6e-3 -8.6e-4 -0.0477-1e-3 -0.0547-2e-3 -4.0519-0.18817-6.6593-1.0989-7.8105-2.6447-0.0487-0.0687-0.2008-0.16668-0.24752-0.23886-0.0457-0.0722-0.16502-0.21738-0.20776-0.29213-0.41951-0.51381-0.7893-1.3859-1.1213-2.5313-1.519-4.4104-2.3699-12.975-3.0091-21.429-0.167-2.203-0.25845-4.358-0.48809-6.3771-0.93841-8.2348 0.25547-13.622 1.8927-17.545 1.6064-3.8424 3.6383-7.1023 6.6752-11.001z" fill="#f55"/>
  </g>
  <path d="m141.83 162.24c-1.9292-4.0642-6.9784-5.738-11.991-5.7538-5.0126-0.0167-10.061 1.6896-11.991 5.7538-3.2767 6.9011-11.988 29.921-11.816 36.984-0.0193 0.81474 0.055 1.4299 0.25192 1.7704 1.4657 2.5321 3.9115 3.639 7.8203 3.6018l0.0448-8e-4c6e-3 0 0.0101 8e-4 0.0183 8e-4 1.0626-0.01 2.127-0.0151 3.1897-0.0222 4.1607-0.0285 8.3213-0.0476 12.482-0.0483 4.1607 7.9e-4 8.3213 0.019 12.482 0.0483 1.0626 7e-3 2.127 0.0126 3.1897 0.0222 9e-3 0 0.013-8e-4 0.0183-8e-4l0.0449 8e-4c3.9097 0.0372 6.3555-1.0697 7.8203-3.6018 0.19784-0.34127 0.27205-0.95567 0.2519-1.7704 0.17222-7.0634-8.5394-30.083-11.816-36.984z" fill="#ff2a2a" stroke-width=".816"/>
 </g>
 <g transform="matrix(.85922 0 0 .85922 -222.44 -21.936)">
  <path d="m410 223.63c-10.306 0-18.689 8.385-18.689 18.691s8.384 18.69 18.689 18.69 18.69-8.385 18.69-18.69c0-10.306-8.384-18.691-18.69-18.691z" fill="#232323"/>
 </g>
 <g stroke="#000">
  <path d="m129.84 202.47c-8.9299 0-16.195-7.2656-16.195-16.195 0-8.9307 7.2647-16.196 16.195-16.196s16.195 7.2656 16.195 16.196c0 8.9299-7.2656 16.195-16.195 16.195zm-10.067-4.9268c2.5527 2.2847 5.8161 3.6388 9.2186 3.8278v-1.1574c-3.1001-0.18817-6.0738-1.4229-8.3997-3.4884zm10.916 3.8278c3.4016-0.18902 6.665-1.5432 9.2177-3.8278l-0.81798-0.81712c-2.3268 2.0647-5.2997 3.3003-8.3989 3.4884v1.1565zm-9.2091-5.5342c2.0939 1.8336 4.7506 2.9368 7.5122 3.1198v-1.1565c-2.4909-0.18388-4.7996-1.1428-6.6933-2.7813zm9.2091 3.1198c2.7632-0.18302 5.42-1.2863 7.5113-3.1198l-0.81884-0.81798c-1.8929 1.6385-4.2024 2.5974-6.6925 2.7813zm0-2.5957c2.1034-0.17098 4.0615-0.9838 5.6777-2.356l-0.82055-0.82141c-1.3894 1.1556-3.0631 1.8499-4.8572 2.0174zm-7.3764-2.3568c1.6179 1.373 3.5761 2.185 5.6786 2.356v-1.1608c-1.7949-0.16669-3.4687-0.8618-4.8554-2.0174zm17.796 2.3371c2.2838-2.5442 3.6379-5.8066 3.8261-9.2168h-1.1556c-0.18989 3.0966-1.4246 6.0695-3.4893 8.3989zm-26.363-9.216c0.18903 3.412 1.5432 6.6744 3.8278 9.2168l0.81712-0.81712c-2.0647-2.3328-3.3003-5.3057-3.4893-8.3989h-1.1556zm24.657 7.5104c1.8336-2.0888 2.9377-4.7446 3.1207-7.5104h-1.1574c-0.18301 2.4909-1.1419 4.7996-2.7813 6.6925zm-22.243-7.5104c0.18301 2.7658 1.2871 5.4225 3.1198 7.5104l0.81626-0.81798c-1.6385-1.892-2.5974-4.2016-2.7796-6.6925zm20.41 5.6777c1.373-1.6205 2.185-3.5778 2.356-5.6777h-1.1608c-0.16669 1.7958-0.86266 3.4695-2.0174 4.8563zm-17.815-5.6777c0.17098 2.0991 0.98295 4.0572 2.356 5.6777l0.82227-0.82142c-1.1548-1.3868-1.8499-3.0614-2.0166-4.8563zm25.18-1.7004c-0.18817-3.4068-1.5414-6.6701-3.8235-9.2194l-0.82056 0.82227c2.0638 2.3276 3.2994 5.2997 3.4893 8.3972zm-2.4118 0c-0.18387-2.7667-1.2871-5.4234-3.1207-7.5087l-0.81454 0.81454c1.6162 1.8705 2.5991 4.2385 2.7778 6.6942zm-2.5974 0c-0.17184-2.0991-0.98466-4.0564-2.356-5.6769l-0.82141 0.82227c1.1548 1.3868 1.8499 3.0605 2.0174 4.8546zm-19.009 0c0.16582-1.7949 0.86093-3.4678 2.0166-4.8546l-0.82227-0.82227c-1.3722 1.6222-2.1841 3.5786-2.356 5.6769zm-2.6009 0c0.17786-2.4548 1.1599-4.8228 2.7761-6.6942l-0.81197-0.81454c-1.8327 2.087-2.936 4.7429-3.1198 7.5087zm-2.4153 0c0.18989-3.0949 1.4246-6.0678 3.4893-8.3972l-0.82141-0.82227c-2.2821 2.5493-3.6354 5.8126-3.8235 9.2194zm8.2356-6.0566c1.3885-1.1565 3.0623-1.8525 4.8554-2.0192v-1.1591c-2.1042 0.17013-4.0615 0.98209-5.6786 2.3551zm6.5533-2.0183c1.7923 0.16583 3.4661 0.8618 4.8572 2.0183l0.82055-0.82142c-1.6162-1.3739-3.5735-2.185-5.6777-2.3551zm-8.3937 0.17872c1.8946-1.636 4.2042-2.5948 6.6959-2.7779v-1.1556c-2.7607 0.18215-5.4182 1.2854-7.5122 3.1181zm8.3937-2.7787c2.4926 0.18387 4.803 1.1419 6.6968 2.7779l0.81454-0.8154c-2.0931-1.8327-4.7489-2.936-7.5113-3.1181zm-10.098 1.0757c2.3259-2.0656 5.2988-3.302 8.3997-3.491v-1.1556c-3.4025 0.18903-6.6675 1.5432-9.2211 3.8235zm10.098-3.4902c3.1001 0.18903 6.073 1.4246 8.3989 3.491l0.82142-0.82227c-2.5545-2.2804-5.8178-3.6336-9.2203-3.8235z" fill="#f95" stroke-width=".236"/>
  <path d="m222.24 90.772c-17.467-22.53-61.481-36.602-107.04-34.232-36.706 1.9128-66.822 16.039-78.456 34.79 0 0-2.431-7.1889-1.638-8.2636 13.887-18.82 42.645-30.616 79.78-32.551 22.029-1.1483 44.985 1.5242 64.635 7.5246 19.069 5.8228 34.181 14.423 44.081 25.036 1.216 1.3033-1.3573 7.6963-1.3573 7.6963z" fill="#ffd42a" stroke-miterlimit="10" stroke-width=".816"/>
  <path d="m204.7 120.33c-0.86758-0.72724-8.401-4.0651-8.9329-4.1563-0.1217-0.0206-0.24536-0.0315-0.37-0.0315-1.1934 0-2.0767 0.95395-2.4683 1.375l-7.9093 8.5198c-0.68602 0.67227-1.6154 2.2514-0.74198 3.9012 0.22083 0.41711 0.80674 1.5251 8.9457 5.1809l0.1031 0.0461 0.10988 0.0314c0.0893 0.0254 0.56137 0.15213 1.1394 0.15213 1.1581 0 1.8402-0.48973 2.2102-0.89996l0.0657-0.0795c1.849-2.3485 7.923-10.076 8.4393-10.943 0.51622-0.86365 0.63301-2.1287-0.59082-3.0964zm-0.77434 1.3024c-0.50348 0.84499-8.3215 10.773-8.3215 10.773-0.55647 0.61927-1.7322 0.28264-1.7322 0.28264s-7.6404-3.433-8.1929-4.4753c-0.55255-1.0423 0.44948-2.0247 0.44948-2.0247s7.7209-8.3146 7.9613-8.5737c0.24045-0.25909 0.87053-0.95099 1.4044-0.85874 0.25026 0.0432 7.5089 3.2446 8.1811 3.8089 0.15801 0.13251 0.634 0.42396 0.25027 1.0678z" fill="#ffb380" stroke-miterlimit="10" stroke-width=".417"/>
 </g>
 <path d="m160.22 203.51-0.0618-0.14329c-0.0962-0.21984-9.4923-22.23 3e-3 -42.938 9.4639-20.637 17.924-27.198 18.279-27.468 0.86268-0.52212 1.794-0.77533 2.8039-0.77533 3.3172 0 6.8798 2.7342 9.0085 4.3683 0.53978 0.41416 1.006 0.77238 1.3436 0.99026 2.2534 1.4574 1.109 7.0839 0.97063 7.7209l-0.0285 0.13641-0.10698 0.0893c-0.0697 0.0579-7.0878 5.9945-16.453 26.417-6.5225 14.223-6.2939 28.003-3.9051 36.157l0.24339 0.83029z" fill="#b3b3b3" stroke-width=".98142"/>
 <path d="m181.25 132.59c4.0042 0 8.4265 4.1897 10.134 5.2948 2.0855 1.3494 0.7979 7.2998 0.7979 7.2998s-7.0309 5.7757-16.562 26.56c-6.8013 14.83-6.1476 28.852-3.9257 36.435l-11.164-4.969s-9.5306-21.827 0-42.611c9.5306-20.784 18.156-27.316 18.156-27.316 0.81066-0.48973 1.6753-0.69387 2.5625-0.69387m0-0.80084c-1.0835 0-2.0855 0.27186-2.9757 0.80869l-0.0363 0.0216-0.0334 0.0255c-0.3592 0.27186-8.8956 6.8916-18.402 27.62-9.5689 20.869-0.10207 43.043-6e-3 43.265l0.12464 0.2856 0.28363 0.12562 11.164 4.969 1.5801 0.70368-0.48581-1.6596c-2.3682-8.083-2.5919-21.753 3.8855-35.877 9.3068-20.299 16.274-26.219 16.343-26.275l0.21297-0.17764 0.0609-0.27087c0.23358-1.0835 1.2827-6.5706-1.1453-8.1419-0.32387-0.21002-0.78416-0.56334-1.3181-0.97161-2.1689-1.6655-5.7992-4.4517-9.2519-4.4517z" stroke="#000" stroke-width=".417"/>
 <path d="m191.38 137.88c1.9923 1.4829 0.79788 7.2998 0.79788 7.2998s-7.0309 5.7757-16.562 26.56c-6.8013 14.83-6.1476 28.852-3.9257 36.435 0 0-12.099-3.3319 0.49071-40.484 6.8788-20.304 19.199-29.812 19.199-29.812z" fill="#666" stroke-width=".98142"/>
 <g stroke="#000">
  <path d="m166.21 164.29c2.6037 1.742 6.4882 0.49856 8.6758-2.7755 2.1876-3.274 1.85-7.3401-0.75471-9.0801l-2.7166-2.7166c-2.6037-1.74-6.4892-0.49661-8.6758 2.7774-2.1876 3.274-1.851 7.3381 0.7547 9.0782z" fill="#f95" stroke-width=".618"/>
  <g stroke-miterlimit="10">
   <ellipse transform="rotate(33.75)" cx="225.72" cy="36.396" rx="5.6709" ry="7.1294" fill="#fca" stroke-width=".236"/>
   <path d="m183.86 142.73-6.87-3.5164s-0.0824-0.73608 0-1.0629c0.0815-0.32681 7.1968-8.9143 8.7504-9.8957 1.5546-0.98141 1.8814 0 1.8814 0l7.1153 3.5164v0.89998s-0.28264-0.24536-0.95983 0.0815c-0.67718 0.32682-7.9544 9.4864-9.9173 9.9772z" fill="#ffe680" stroke-width=".618"/>
   <path d="m226.33 92.004-0.2964-5.0298s-3.1896-6.87-2.5154-2.3927c1.0668 7.08-36.377 40.164-36.225 41.996 0.15213 1.8313 1.1326 1.5016 1.1326 1.5016l7.0937 3.5616 0.71841-0.54174s-0.36705-0.0775-0.51229-0.81558c-0.1462-0.73703 31.395-36.417 30.605-38.279z" fill="#ffe680" stroke-width=".618"/>
  </g>
 </g>
 <path d="m170.69 153.37c-4.0817-0.99124-5.3497 0.18647-6.9357 5.9072-1.2484-2.9629-0.18451-6.5049 2.4006-7.7483 1.9128-0.91962 3.3516-0.30817 4.5352 1.8411z" clip-rule="evenodd" fill-rule="evenodd" stroke-width=".98142"/>
 <path d="m53.628 123.42c0.51525 0.8666 6.5903 8.5953 8.4393 10.943l0.06575 0.0794c0.37 0.41023 1.0521 0.89997 2.2102 0.89997 0.57806 0 1.0501-0.12658 1.1394-0.15213l0.10991-0.0315 0.10304-0.0461c8.1389-3.6568 8.7258-4.7638 8.9457-5.1809 0.87445-1.6498-0.05594-3.2289-0.74196-3.9012l-7.9093-8.5197c-0.39061-0.42103-1.2749-1.375-2.4683-1.375-0.12464 0-0.2483 0.0103-0.37 0.0315-0.53193 0.0913-8.0653 3.4301-8.9329 4.1563-1.2209 0.96767-1.1041 2.2327-0.59082 3.0964zm1.6184-2.8608c0.67228-0.56432 7.9309-3.7657 8.1811-3.8089 0.5339-0.0923 1.164 0.59965 1.4044 0.85875 0.24045 0.25909 7.9613 8.5737 7.9613 8.5737s1.002 0.98141 0.44949 2.0247-8.1929 4.4753-8.1929 4.4753-1.1748 0.33664-1.7322-0.28266c0 0-7.819-9.9281-8.3215-10.773-0.38374-0.6448 0.09225-0.93627 0.25026-1.0678z" fill="#ffb380" stroke="#000" stroke-miterlimit="10" stroke-width=".417"/>
 <path d="m86.844 208.07c2.3888-8.1537 2.6174-21.934-3.9051-36.157-9.3834-20.464-16.382-26.36-16.452-26.417l-0.10796-0.0883-0.02944-0.1374c-0.1374-0.63597-1.2817-6.2625 0.97161-7.7209 0.33761-0.21788 0.80379-0.5761 1.3436-0.99026 2.1287-1.6341 5.6913-4.3683 9.0085-4.3683 1.0099 0 1.9422 0.25321 2.7696 0.75177 0.39061 0.29345 8.8505 6.8543 18.314 27.492 9.4953 20.708 0.0991 42.718 3e-3 42.938l-0.0618 0.14329-12.096 5.3831z" fill="#b3b3b3" stroke-width=".98142"/>
 <path d="m77.673 132.59c0.88623 0 1.7518 0.20414 2.5625 0.69387 0 0 8.6257 6.5324 18.156 27.316 9.5306 20.785 0 42.611 0 42.611l-11.164 4.969c2.2219-7.5835 2.8756-21.605-3.9257-36.435-9.5306-20.785-16.562-26.56-16.562-26.56s-1.2886-5.9504 0.7979-7.2998c1.7077-1.1061 6.13-5.2948 10.134-5.2948m9.81e-4 -0.80084c-3.4536 0-7.0839 2.7863-9.2529 4.4508-0.53291 0.40925-0.9932 0.76257-1.3171 0.97161-2.4271 1.5713-1.3799 7.0574-1.1453 8.1419l0.05889 0.27185 0.21493 0.17764c0.06772 0.0559 7.0339 5.9759 16.342 26.274 6.4764 14.124 6.2536 27.793 3.8845 35.877l-0.48679 1.6596 12.745-5.6726 0.28363-0.12562 0.12464-0.2856c0.09618-0.2218 9.563-22.396-0.0059-43.265-9.5051-20.729-18.042-27.348-18.401-27.62l-0.03435-0.0255-0.03631-0.0216c-0.88917-0.53585-1.8902-0.80771-2.9737-0.80771z" stroke="#000" stroke-width=".417"/>
 <path d="m67.538 137.88c-1.9923 1.4829-0.7979 7.2998-0.7979 7.2998s7.0309 5.7757 16.562 26.56c6.8012 14.83 6.1476 28.852 3.9257 36.435 0 0 12.099-3.3319-0.49071-40.484-6.8788-20.304-19.199-29.812-19.199-29.812z" fill="#666" stroke-width=".98142"/>
 <g stroke="#000">
  <path d="m92.704 164.29c-2.6037 1.742-6.4882 0.49856-8.6758-2.7755-2.1876-3.274-1.85-7.3401 0.75472-9.0801l2.7166-2.7166c2.6037-1.74 6.4892-0.49661 8.6758 2.7774 2.1876 3.274 1.851 7.3381-0.75472 9.0782z" fill="#f95" stroke-width=".618"/>
  <g stroke-miterlimit="10">
   <ellipse transform="rotate(146.25)" cx="10.448" cy="-180.23" rx="5.6709" ry="7.1294" fill="#fca" stroke-width=".236"/>
   <path d="m75.061 142.73 6.87-3.5164s0.08246-0.73608 0-1.0629c-0.08139-0.32681-7.1968-8.9143-8.7504-9.8957-1.5546-0.98141-1.8814 0-1.8814 0l-7.1153 3.5164v0.89998s0.28265-0.24536 0.95983 0.0815c0.67718 0.32682 7.9544 9.4864 9.9173 9.9772z" fill="#ffe680" stroke-width=".618"/>
   <path d="m32.587 92.004 0.29639-5.0298s3.1896-6.87 2.5154-2.3927c-1.0668 7.08 36.377 40.164 36.225 41.996-0.15212 1.8313-1.1326 1.5016-1.1326 1.5016l-7.0937 3.5616-0.7184-0.54174s0.36705-0.0775 0.5123-0.81558c0.14623-0.73703-31.395-36.417-30.605-38.279z" fill="#ffe680" stroke-width=".618"/>
  </g>
 </g>
 <path d="m94.846 159.2c-1.1031-5.2742-2.5752-6.6962-6.2664-6.0524 0.93431-2.0708 2.3171-2.5821 4.1769-1.5428 2.5762 1.4378 3.5881 5.1152 2.0894 7.5952z" clip-rule="evenodd" fill-rule="evenodd" stroke-width=".98142"/>
 <g stroke="#000" stroke-miterlimit="10">
  <path d="m186.68 221.25c-0.72037 0-2.7313-0.64577-8.2754-2.6587-0.71348-0.26007-1.2464-0.45244-1.4496-0.52014-9.7e-4 0-9.7e-4 0-3e-3 -9.9e-4 -9.9614-3.3162-12.45-21.892-5.6638-42.286 2.2465-6.7493 5.334-13.035 8.927-18.178 0.25711-0.369 0.52112-0.73408 0.78905-1.0904 0.71056-0.96963 1.4702-1.9305 2.2543-2.8442 0.27969-0.32583 0.55547-0.63596 0.83616-0.94314 1.1345-1.2405 2.2798-2.3476 3.4085-3.2878 0.17274-0.1433 0.34645-0.28855 0.52409-0.42496 1.9324-1.5516 3.8913-2.6969 5.8051-3.3898 0.12749-0.0509 0.2915-0.10401 0.4544-0.15702 0.21299-0.0706 0.41712-0.13449 0.62126-0.18745 0.36312-0.10206 0.76648-0.1953 1.1826-0.26892 0.20218-0.0382 0.40827-0.0667 0.61241-0.0913 0.26597-0.0362 0.54665-0.062 0.845-0.0755l0.0707-1e-3c1.2504-0.0354 2.431 0.11669 3.5469 0.48973 0.2061 0.0667 0.72528 0.22278 1.4172 0.42986 3.0807 0.92353 6.4676 1.9579 7.7376 2.5468 0.0246 0.0103 0.0512 0.0226 0.0686 0.0315 0.19725 0.0982 0.35723 0.18646 0.49953 0.30032 0.40927 0.32583 0.52408 0.89899 0.27383 1.3602-0.24732 0.46225-0.79201 0.67523-1.2886 0.51133-0.39452-0.13052-0.7979-0.22671-1.1983-0.29246-0.2169-0.0344-0.44361-0.0598-0.68797-0.0756l-0.11866-5e-3c-0.24141-0.0137-0.44655-0.0166-0.63792-0.0103-0.0103 9.7e-4 -0.0362 9.7e-4 -0.047 9.7e-4 -0.87347 0.0226-1.8166 0.19041-2.7745 0.50151-8.0653 2.5831-16.775 14.221-21.68 28.959-3.0944 9.2912-4.2937 18.578-3.3712 26.15 0.88622 7.291 3.6087 12.048 7.663 13.401 0.50345 0.16782 0.80967 0.67522 0.72623 1.2003-0.0842 0.52311-0.53781 0.90682-1.0678 0.90682z" fill="#4d4d4d" stroke-width=".988"/>
  <g stroke-width=".417">
   <path d="m187.98 220.17 4.5744 1.2425 26.236-69.396-7.2763-2.5272c-0.44557-0.14722-0.90585-0.26106-1.3681-0.33369-0.54175-0.0873-1.0904-0.12071-1.6488-0.10305h-0.0147c-1.2415 0.0687-3.0532 0.57021-3.0532 0.57021l-0.052-0.0177c-8.1488 2.6096-17.23 14.184-22.375 29.647-6.501 19.518-4.2682 37.834 4.9778 40.918z" fill="#ffb380"/>
   <path d="m202.55 228.55h4e-3c9.8967 3.3025 23.569-10.955 30.531-31.844 6.9602-20.889 4.5852-40.494-5.3144-43.795-9.8996-3.3005-23.569 10.956-30.53 31.845-6.9642 20.885-4.5852 40.49 5.3095 43.794z" fill="#333"/>
   <path d="m192.51 225.2c0.9775 0.32584 8.9908 3.3486 10.041 3.3486-9.8947-3.3044-12.275-22.909-5.3095-43.794 6.9622-20.89 20.631-35.147 30.53-31.845-0.86562-0.67915-9.0173-3.0071-10.048-3.3496-9.8947-3.2996-23.566 10.957-30.527 31.845-6.9632 20.89-4.5872 40.495 5.3134 43.795z" fill="#4d4d4d"/>
   <path d="m204.49 187.17c1.9256-5.759 4.597-11.305 8.24-16.228 1.8255-2.4516 3.8914-4.7638 6.3773-6.6639 1.2474-0.93922 2.6008-1.7803 4.1161-2.3642 0.75962-0.28661 1.5644-0.49563 2.3996-0.60557 0.83714-0.0952 1.7126-0.0569 2.5625 0.14818 0.84792 0.19925 1.6704 0.58592 2.3593 1.1228 0.69288 0.53095 1.266 1.1816 1.7352 1.8736 0.4593 0.69877 0.8077 1.4407 1.108 2.1905 0.2689 0.75569 0.51131 1.5183 0.66835 2.2887 0.67031 3.0836 0.67521 6.1859 0.46126 9.2313-0.47404 6.0986-1.9079 12.035-3.7981 17.787-0.96867 2.8716-2.0718 5.7021-3.3447 8.4608-1.2768 2.7558-2.7107 5.4488-4.3889 8.0064-1.6822 2.5498-3.5783 5.0053-5.9779 7.0476-1.1964 1.0158-2.5488 1.9167-4.1132 2.4938-0.78709 0.27185-1.6292 0.4544-2.4997 0.47404-0.87053 0.0324-1.7577-0.1541-2.5644-0.48286-0.80773-0.33466-1.5497-0.81655-2.1592-1.4024-0.60748-0.5869-1.1345-1.2356-1.5634-1.9265-0.86562-1.3809-1.424-2.8775-1.8451-4.3811-0.82145-3.0198-1.0482-6.1123-1.0099-9.1675 0.0443-3.0591 0.38766-6.0976 0.9402-9.089 0.55647-2.9904 1.3367-5.9337 2.2965-8.8142z" fill="#1a1a1a"/>
  </g>
 </g>
 <path d="m206.13 187.72c-1.8402 5.6177-3.0041 11.495-3.0738 17.38-0.0254 2.9305 0.21297 5.8817 0.98043 8.6552 0.39258 1.375 0.9088 2.7156 1.6449 3.8756 0.73214 1.1512 1.694 2.1277 2.856 2.5841 0.57805 0.22967 1.1904 0.36413 1.8225 0.3386 0.62909-0.0177 1.269-0.15408 1.8961-0.36901 1.2543-0.46716 2.4457-1.2415 3.5253-2.167 2.1729-1.8559 3.9895-4.1946 5.5951-6.6462 1.6095-2.4624 2.9973-5.0808 4.2339-7.767 1.2327-2.6911 2.3063-5.4587 3.2465-8.2705 1.8647-5.6265 3.277-11.438 3.7441-17.309 0.21592-2.9236 0.2012-5.8895-0.40237-8.6787-0.13935-0.70073-0.35331-1.3701-0.58493-2.0257-0.25517-0.64185-0.54764-1.2621-0.91078-1.8196-0.739-1.0953-1.7381-1.9432-2.9688-2.2151-0.60653-0.1462-1.2484-0.1845-1.902-0.1139-0.65363 0.0854-1.3092 0.24831-1.953 0.48875-1.2886 0.48776-2.5144 1.2346-3.6617 2.0914-2.2946 1.7352-4.2849 3.9277-6.0416 6.2733-3.5204 4.7138-6.1476 10.099-8.0457 15.695z" fill="#232323" stroke-width=".98142"/>
 <g stroke="#000" stroke-miterlimit="10">
  <path d="m226.46 181.44c-0.15997-0.0785-0.34252-0.11777-0.54567-0.11777-0.25125 0-0.53095 0.0618-0.84207 0.18451-1.8892 0.74392-4.8158 3.91-6.7748 9.1056-2.6047 6.9024-1.8814 12.488-0.24143 13.299 0.30522 0.15114 0.65755 0.14328 1.0805-0.0245 2.0021-0.78906 4.5872-4.6039 6.4283-9.4904 2.6292-6.976 2.5144-12.157 0.89506-12.957z" fill="#f95" stroke-width=".236"/>
  <path d="m228.43 162.33c-6.5235-2.4192-16.592 8.5031-22.488 24.396-5.8974 15.893-4.2878 32.107 2.2357 34.527 6.5235 2.4192 15.49-9.8702 21.387-25.763 5.8974-15.894 5.387-30.74-1.1345-33.16zm0.40238 4.5401c0.51132 0.317 0.96082 0.71742 1.3328 1.16 0.43379 0.5231 0.76551 1.0953 1.0423 1.6753 0.54665 1.1718 0.82734 2.3957 0.99713 3.6087 0.0569 0.39159 0.1001 0.79103 0.12856 1.1846l-1.2022 1.481c-0.0618-0.82342-0.15899-1.636-0.31602-2.4369-0.21984-1.107-0.53193-2.1935-1.0207-3.1494-0.24634-0.47108-0.52703-0.9137-0.86562-1.2896-0.14721-0.15899-0.30718-0.30719-0.47108-0.44066zm1.3995 13.617c-5e-3 -0.21297-0.01-0.42005-0.0177-0.63204l0.81654-1.004c-0.0137 0.55647-0.0461 1.112-0.1001 1.6606-0.18451 1.7793-0.49268 3.5312-0.93236 5.2447 0.15016-1.7607 0.27578-3.5214 0.23358-5.2693zm-2.1994-9.8182c0.75668 0.41514 1.3593 1.0648 1.7518 1.7469 0.50249 0.86169 0.78711 1.7744 0.97358 2.6822 0.0687 0.37686 0.12562 0.75471 0.1688 1.1296l-0.9245 1.1424c-0.0972-0.67914-0.22573-1.3465-0.40336-1.9942-0.24144-0.80084-0.53586-1.5742-0.97848-2.2161-0.2591-0.38079-0.57119-0.69681-0.91764-0.9245zm-0.15997 3.6911c0.687 0.46323 1.0776 1.1512 1.3318 1.7999 0.22082 0.55745 0.33761 1.1247 0.40729 1.6871l-0.65461 0.80968c-0.0294-0.1217-0.0589-0.24339-0.0893-0.36411-0.16095-0.59572-0.36803-1.1718-0.63988-1.6782-0.27775-0.50642-0.64186-0.92156-1.057-1.1384-0.0432-0.0245-0.0913-0.0471-0.13838-0.0648l0.2856-1.3534c0.19628 0.0815 0.38471 0.18156 0.5545 0.30228zm-9.7691-4.2928c0.88622-0.84697 1.851-1.6311 2.907-2.3024 1.0599-0.67031 2.2288-1.2287 3.5223-1.5261 0.65264-0.13641 1.3367-0.19039 2.0276-0.13641 0.21787 0.0226 0.43477 0.0569 0.64577 0.10501l-0.35822 1.7077c-0.14328-0.0294-0.29148-0.052-0.43771-0.0648-0.48482-0.0294-0.98731 0.0196-1.4849 0.13151-1.003 0.25027-1.9903 0.73018-2.9109 1.3357-0.91763 0.61535-1.7823 1.3416-2.6106 2.116-0.73018 0.6919-1.4172 1.4319-2.0708 2.2112l-0.71055-2.0512c0.47108-0.52506 0.96474-1.0315 1.481-1.5261zm6.7316 1.9305c-0.72036 0.24241-1.4358 0.63204-2.1022 1.1031-1.3465 0.94805-2.5321 2.1768-3.6303 3.4742-0.18157 0.21689-0.35822 0.43183-0.53193 0.65363l-0.71743-2.0865c1.1286-1.3063 2.38-2.5389 3.8806-3.5214 0.78711-0.51525 1.6527-0.96964 2.6184-1.2327 0.47894-0.14623 0.99615-0.21198 1.5143-0.23456 0.16292 0 0.3327 6e-3 0.50151 0.0265l-0.33467 1.584c-0.0373 0-0.0716 0-0.1109 4e-3 -0.36116 0.0393-0.72331 0.0962-1.0874 0.22965zm0.75766 1.8382-0.35037 1.6753c-0.31209 0.12071-0.6232 0.2905-0.92155 0.48384-0.96082 0.63302-1.8382 1.4888-2.6351 2.4104-0.66246 0.77041-1.2817 1.5889-1.8657 2.4349l-0.75668-2.1984c0.38864-0.50543 0.80575-0.99909 1.2415-1.4741 0.92745-0.96965 1.9226-1.9089 3.1729-2.5929 0.61732-0.33663 1.2974-0.63498 2.0757-0.73607 0.0127 9.8e-4 0.0255-3e-3 0.0392-3e-3zm-14.647 28.665 1.9599-1.2503c-0.0245 0.45538-0.0383 0.90978-0.0383 1.3632 0 1.2336 0.0716 2.4634 0.28461 3.6381 0.20905 1.1286 0.56236 2.2642 1.165 3.012l-0.86169 1.6537c-0.15113-0.12169-0.28952-0.24732-0.41416-0.38079-0.55254-0.58983-0.9137-1.2503-1.1875-1.9138-0.26498-0.66638-0.44949-1.3396-0.58787-2.0109-0.25419-1.3455-0.34154-2.6871-0.31995-4.0111zm-1.1326-2.1375c-0.0216 0.28069-0.0393 0.55843-0.0569 0.83814l-1.9265 1.2336c0.0216-0.7449 0.0648-1.4898 0.13544-2.2288 0.34154-3.5999 1.1198-7.1271 2.2318-10.535 0.0353-0.10796 0.0687-0.21788 0.10403-0.31994l1.6311 0.5918c-0.0304 0.0873-0.0608 0.17076-0.0873 0.25615-1.0501 3.3054-1.7724 6.7228-2.0316 10.164zm3.2838-1.4712c-0.01 0.0657-0.0127 0.12562-0.0177 0.18941h-5e-3l-2.007 1.2857c0.053-0.57512 0.12072-1.1463 0.19825-1.7126 0.36901-2.5968 0.95983-5.1495 1.7528-7.6374 0.0608-0.20413 0.12464-0.40631 0.19236-0.60946l1.637 0.59278c-0.0599 0.17665-0.12071 0.35822-0.17763 0.53684-0.73018 2.4045-1.2925 4.8679-1.5732 7.3548zm0.67522-10.124c0.61339-1.7136 1.3318-3.3928 2.1464-5.0278 0.57511-1.1473 1.2072-2.275 1.9157-3.3575l0.80084 2.3142c-0.37196 0.61928-0.72724 1.2494-1.0688 1.8912-0.81851 1.5398-1.5271 3.1415-2.1434 4.7815zm3.5567-9.8437c-0.41612 0.59965-0.8136 1.2189-1.1954 1.847-1.4505 2.376-2.6577 4.912-3.6342 7.5373l-1.6341-0.5918c0.98044-2.7303 2.2043-5.3792 3.6754-7.9014 0.62026-1.0521 1.2974-2.0767 2.0335-3.0679zm-3.8531-3.2544c0.58101-0.86954 1.1954-1.7165 1.848-2.539l0.73606 2.1238c-0.3592 0.476-0.69975 0.96082-1.0383 1.4496-2.2288 3.2622-4.0013 6.8494-5.3704 10.575l-1.639-0.59278c1.3887-3.855 3.1926-7.5707 5.4636-11.016zm-8.8063 27.081c0.0991-2.4094 0.41416-4.7972 0.86463-7.1516 0.45342-2.3564 1.0629-4.6775 1.8078-6.9534 0.0363-0.10599 0.0697-0.21591 0.10893-0.32485l1.6302 0.58886c-0.0294 0.0923-0.0599 0.18254-0.0893 0.27283-1.424 4.4184-2.3201 9.0262-2.4722 13.638-4e-3 0.15114-8e-3 0.30718-8e-3 0.45832l-1.8745 1.2003c-3e-3 -0.57707 0.01-1.1522 0.0324-1.7283zm5.3026 14.858c-0.51034-0.22082-0.98044-0.52212-1.4015-0.86463-1.055-0.88721-1.7577-2.0208-2.2887-3.168-0.52801-1.1551-0.88623-2.3544-1.1247-3.5616-0.2326-1.1718-0.37589-2.3495-0.45538-3.5262l1.8235-1.1581c0.0471 1.4554 0.18843 2.9011 0.47894 4.3134 0.22769 1.0972 0.51132 2.1876 0.951 3.1837 0.43378 0.99615 1.004 1.9157 1.7577 2.5654 0.32485 0.2797 0.68405 0.50641 1.0639 0.66638zm-0.73803-6.5373c-0.4122-0.87347-0.69387-1.7783-0.90095-2.6852-0.20315-0.90585-0.34644-1.8235-0.41514-2.7362-0.0304-0.38864-0.0589-0.77925-0.0697-1.1669l1.851-1.1856c5e-3 0.73509 0.0363 1.4712 0.0962 2.1925 0.14721 1.689 0.44752 3.3673 1.0707 4.8433 0.31013 0.73508 0.7292 1.3966 1.2454 1.8892 0.14721 0.14329 0.30326 0.26498 0.4701 0.36803l-0.76061 1.4682c-0.29933-0.16095-0.57904-0.35037-0.82537-0.56726-0.80673-0.68405-1.3514-1.5457-1.7617-2.4202zm10.24 2.4231c-0.19433 0.22573-0.39355 0.45538-0.59671 0.67522-0.82636 0.88623-1.7165 1.7469-2.7725 2.4438-1.0482 0.69386-2.2602 1.2827-3.6489 1.3936-0.24634 0.0216-0.49661 0.0216-0.74883 6e-3l0.87837-1.6841c0.90684-0.0873 1.8313-0.48482 2.6891-1.0069 1.6135-0.99614 3.0228-2.4064 4.2947-3.9296zm0.10305-2.3279c-0.19334 0.23063-0.3965 0.45832-0.61045 0.67914-0.63498 0.65755-1.3387 1.2768-2.1582 1.7823-0.80771 0.50249-1.7646 0.91763-2.8422 0.94314-0.15114 5e-3 -0.30719 0-0.45735-0.0127l0.80771-1.5536c0.59278-0.051 1.2121-0.26793 1.7999-0.58002 0.71349-0.37687 1.3809-0.89211 2.0217-1.4447 0.53193-0.47206 1.0334-0.97847 1.5143-1.5153zm0.0873-1.9472-5e-3 6e-3c-0.58003 0.69288-1.2503 1.3279-2.1032 1.8333-0.63203 0.36313-1.4132 0.64872-2.2828 0.58493-0.0785-3e-3 -0.15997-0.0118-0.23848-0.0216l0.86561-1.6566c0.30228-0.0304 0.62713-0.12169 0.95297-0.26793 0.5015-0.2218 1.002-0.53683 1.4692-0.91861 0.48089-0.36705 0.93922-0.78317 1.3799-1.2287 0.0128-0.0137 0.0226-0.0216 0.0353-0.0343zm4.9935-4.1063c-0.97456 2.0463-2.0639 4.0415-3.3457 5.9406l0.0923-2.0502c0.95296-1.3455 1.8274-2.7568 2.639-4.2005 0.57904-1.0207 1.1414-2.0561 1.6694-3.1072 0.52408-1.055 1.0295-2.1199 1.5281-3.1936-0.71841 2.2504-1.5958 4.4566-2.5831 6.6109zm-3.2112 0.56334c0.28167-0.31602 0.55745-0.63694 0.83519-0.95689-0.22475 0.57512-0.4809 1.1414-0.76551 1.692l0.0304-0.73215zm0.0353 1.5575v-5e-3c0.0304-0.0432 0.0609-0.0815 0.0913-0.1266 1.0521-1.3956 1.9854-2.8932 2.904-4.4076-0.84795 2.0679-1.8215 4.1151-3.0591 6.0191zm5.6982-12.223c-2.0659 5.4812-4.9091 9.5012-7.4147 10.489-0.42398 0.16684-0.84402 0.25026-1.2503 0.25026-0.42987 0-0.84501-0.0942-1.2297-0.2856-2.9933-1.48-3.2691-8.4157-0.61143-15.461 1.8971-5.0288 4.9434-8.9948 7.7601-10.106 1.0217-0.4014 1.9844-0.40238 2.7912-6e-3 3.2937 1.6302 2.3515 8.7661-0.0451 15.119zm2.2534-12.956c-0.0422-0.47893-0.0864-0.95983-0.14722-1.4358l0.18745 0.14721 0.15998-0.19923c-0.0432 0.50151-0.11287 0.99517-0.20021 1.4878zm0.94805 5.3743c0.19825-1.16 0.35037-2.327 0.48973-3.4919 0.20218-1.7705 0.33565-3.5488 0.34644-5.3174l1.1856-1.4633c-0.13543 4.7373-1.217 9.3382-2.6744 13.747 0.23162-1.1551 0.4544-2.3142 0.65265-3.4742z" fill="#f95" stroke-width=".236"/>
  <path d="m71.169 220.34c-0.08343-0.52407 0.22377-1.0325 0.72625-1.2003 4.0543-1.3534 6.7758-6.1113 7.663-13.401 0.92254-7.5717-0.27578-16.859-3.3712-26.15-4.9042-14.738-13.614-26.376-21.68-28.959-0.95885-0.31014-1.902-0.47797-2.7745-0.5015-0.0108 0-0.03534 0-0.04711-9.8e-4 -0.19138-5e-3 -0.3965-1e-3 -0.63792 0.0103l-0.11875 5e-3c-0.24438 0.0166-0.47108 0.0413-0.68798 0.0754-0.39944 0.0648-0.8028 0.16194-1.1983 0.29247-0.4966 0.16292-1.0413-0.0501-1.2886-0.51131-0.25026-0.46127-0.13544-1.0344 0.27382-1.3602 0.1423-0.11287 0.30228-0.20218 0.49954-0.30033 0.01863-9e-3 0.04416-0.0207 0.0687-0.0315 1.27-0.58885 4.6569-1.6223 7.7375-2.5468 0.6919-0.20806 1.2111-0.36311 1.4172-0.42986 1.1169-0.37294 2.2965-0.52506 3.5469-0.48972l0.07066 1e-3c0.29933 0.0152 0.58002 0.0393 0.845 0.0755 0.20414 0.0236 0.41024 0.0531 0.61241 0.0913 0.41612 0.0737 0.81949 0.16684 1.1826 0.2689 0.20414 0.054 0.40827 0.11668 0.62124 0.18745 0.16292 0.0531 0.32682 0.10608 0.4544 0.15704 1.9138 0.69288 3.8727 1.8382 5.8051 3.3898 0.17862 0.13631 0.35135 0.28068 0.52408 0.42495 1.1277 0.94021 2.273 2.0473 3.4085 3.2878 0.2797 0.3072 0.55548 0.61733 0.83617 0.94315 0.78416 0.91468 1.5438 1.8745 2.2543 2.8442 0.26695 0.35627 0.53193 0.72135 0.78906 1.0904 3.593 5.1427 6.6806 11.43 8.927 18.178 6.7856 20.394 4.2977 38.969-5.6638 42.286-0.0015 9.8e-4 -0.0015 9.8e-4 -3e-3 9.8e-4 -0.20316 0.0677-0.73606 0.26108-1.4496 0.52015-5.5431 2.0129-7.554 2.6587-8.2754 2.6587-0.52899 9.9e-4 -0.98241-0.38275-1.0678-0.90683z" fill="#4d4d4d" stroke-width=".988"/>
  <g stroke-width=".417">
   <path d="m70.941 220.17-4.5744 1.2425-26.236-69.396 7.2763-2.5272c0.44557-0.14722 0.90585-0.26106 1.3681-0.33369 0.54175-0.0873 1.0904-0.12071 1.6488-0.10305h0.01472c1.2415 0.0687 3.0532 0.57021 3.0532 0.57021l0.05202-0.0177c8.1488 2.6096 17.23 14.184 22.375 29.647 6.501 19.518 4.2682 37.834-4.9778 40.918z" fill="#ffb380"/>
   <path d="m56.364 228.55h-0.0039c-9.8967 3.3025-23.569-10.955-30.531-31.844-6.9603-20.889-4.5852-40.494 5.3144-43.795 9.8996-3.3005 23.569 10.956 30.53 31.845 6.9642 20.885 4.5852 40.49-5.3095 43.794z" fill="#333"/>
   <path d="m66.405 225.2c-0.9775 0.32584-8.9908 3.3486-10.041 3.3486 9.8947-3.3044 12.275-22.909 5.3095-43.794-6.9622-20.89-20.631-35.147-30.53-31.845 0.86562-0.67915 9.0173-3.0071 10.048-3.3496 9.8947-3.2996 23.566 10.957 30.527 31.845 6.9632 20.89 4.5872 40.495-5.3134 43.795z" fill="#4d4d4d"/>
   <path d="m56.729 195.99c0.55254 2.9914 0.89604 6.0299 0.9402 9.089 0.03827 3.0552-0.18843 6.1476-1.0099 9.1675-0.42103 1.5036-0.97946 3.0002-1.8451 4.3811-0.42888 0.69094-0.95591 1.3396-1.5634 1.9266-0.60946 0.58591-1.3514 1.0678-2.1591 1.4025-0.80673 0.32876-1.6949 0.51524-2.5645 0.48286-0.87052-0.0207-1.7126-0.20217-2.4997-0.47403-1.5654-0.57708-2.9178-1.478-4.1131-2.4938-2.3996-2.0424-4.2957-4.4979-5.9779-7.0476-1.6782-2.5576-3.1121-5.2516-4.3889-8.0065-1.2729-2.7598-2.376-5.5892-3.3447-8.4608-1.8902-5.7521-3.3241-11.689-3.7981-17.787-0.21493-3.0463-0.20904-6.1486 0.46127-9.2312 0.15604-0.77043 0.39846-1.534 0.66835-2.2887 0.30032-0.75078 0.64872-1.4927 1.108-2.1905 0.46912-0.6919 1.0423-1.3426 1.7352-1.8736 0.68896-0.53684 1.5114-0.92252 2.3593-1.1227 0.84991-0.20514 1.7263-0.24341 2.5625-0.14817 0.83617 0.10987 1.64 0.31895 2.3996 0.60554 1.5153 0.58395 2.8697 1.425 4.1161 2.3642 2.4859 1.9 4.5518 4.2123 6.3773 6.6639 3.643 4.9238 6.3145 10.469 8.24 16.228 0.95885 2.8795 1.7391 5.8228 2.2965 8.8142z" fill="#1a1a1a"/>
  </g>
 </g>
 <path d="m44.745 172.02c-1.7567-2.3456-3.7471-4.5381-6.0416-6.2732-1.1483-0.85679-2.3731-1.6036-3.6617-2.0914-0.64382-0.24046-1.2994-0.40338-1.953-0.48876-0.65265-0.0706-1.2945-0.0324-1.902 0.1139-1.2307 0.27087-2.2298 1.1198-2.9688 2.2151-0.36313 0.55646-0.65559 1.1767-0.91076 1.8196-0.23064 0.65558-0.44557 1.3259-0.58493 2.0257-0.60358 2.7892-0.6183 5.7551-0.40238 8.6787 0.46814 5.8699 1.8794 11.682 3.7441 17.309 0.9402 2.8118 2.0139 5.5794 3.2465 8.2704 1.2376 2.6862 2.6253 5.3046 4.2339 7.767 1.6056 2.4516 3.4222 4.7913 5.5951 6.6462 1.0796 0.92549 2.27 1.6998 3.5253 2.167 0.62713 0.21493 1.267 0.35135 1.8961 0.36902 0.63302 0.0255 1.2454-0.10793 1.8225-0.33861 1.163-0.45636 2.1238-1.4329 2.8559-2.5841 0.73607-1.161 1.2513-2.5006 1.6449-3.8756 0.76747-2.7735 1.006-5.7246 0.98044-8.6552-0.06969-5.8846-1.2336-11.762-3.0738-17.38-1.8981-5.5961-4.5253-10.981-8.0457-15.695z" fill="#232323" stroke-width=".98142"/>
 <path d="m32.458 181.44c0.15997-0.0785 0.34252-0.11777 0.54567-0.11777 0.25124 0 0.53095 0.0618 0.84206 0.18451 1.8892 0.74392 4.8158 3.91 6.7748 9.1056 2.6047 6.9024 1.8814 12.488 0.24143 13.299-0.30522 0.15114-0.65755 0.14328-1.0805-0.0245-2.0021-0.78906-4.5872-4.6039-6.4283-9.4904-2.6292-6.976-2.5144-12.157-0.89506-12.957z" fill="#f95" stroke="#000" stroke-miterlimit="10" stroke-width=".236"/>
 <path d="m29.351 195.49c5.8974 15.893 14.864 28.183 21.387 25.763 6.5235-2.4202 8.1331-18.633 2.2357-34.527-5.8964-15.893-15.965-26.815-22.488-24.396-6.5216 2.4202-7.0319 17.266-1.1345 33.16zm1.108-26.829c-0.1639 0.13445-0.32387 0.28167-0.47108 0.44066-0.33859 0.37686-0.61928 0.8185-0.86562 1.2896-0.48875 0.9559-0.80084 2.0423-1.0207 3.1494-0.15703 0.80084-0.25517 1.6144-0.31602 2.4369l-1.2022-1.481c0.02846-0.39355 0.07164-0.79299 0.12857-1.1846 0.16979-1.2121 0.45047-2.4359 0.99713-3.6087 0.27578-0.58002 0.6075-1.1522 1.0423-1.6753 0.37196-0.44164 0.82145-0.84206 1.3328-1.16zm-1.5418 17.095c-0.43968-1.7136-0.74784-3.4654-0.93235-5.2447-0.05398-0.5496-0.08637-1.1041-0.1001-1.6606l0.81654 1.004c-0.0079 0.21199-0.01276 0.41907-0.01767 0.63204-0.0422 1.7479 0.08342 3.5086 0.23358 5.2693zm2.2956-13.52c-0.34644 0.2277-0.65854 0.5447-0.91763 0.92451-0.44262 0.64087-0.73705 1.4142-0.97848 2.216-0.17764 0.64774-0.30719 1.3151-0.40337 1.9942l-0.9245-1.1424c0.04318-0.37589 0.1001-0.75374 0.1688-1.1296 0.18647-0.9088 0.47108-1.8205 0.97357-2.6822 0.39257-0.68209 0.99516-1.3318 1.7518-1.7469zm0.38374 1.8206 0.28559 1.3534c-0.04711 0.0186-0.0952 0.0402-0.13838 0.0648-0.41514 0.2169-0.77925 0.63302-1.057 1.1385-0.27185 0.50641-0.47894 1.0825-0.63989 1.6782-0.03042 0.12072-0.05987 0.24241-0.08931 0.36411l-0.65461-0.80968c0.06968-0.56137 0.18647-1.1286 0.40729-1.6871 0.25517-0.64873 0.6448-1.3367 1.3318-1.7999 0.17077-0.11973 0.3592-0.21983 0.5545-0.30227zm10.697-2.4614-0.71055 2.0512c-0.65363-0.77925-1.3406-1.5192-2.0708-2.2112-0.82832-0.77434-1.6939-1.5006-2.6106-2.116-0.92058-0.60554-1.9069-1.0854-2.9109-1.3357-0.49758-0.11189-1.0001-0.16096-1.4849-0.13152-0.14623 0.0137-0.29443 0.0353-0.43772 0.0648l-0.35822-1.7077c0.21101-0.0491 0.42888-0.0824 0.64578-0.10501 0.69092-0.055 1.375 0 2.0276 0.13642 1.2925 0.29737 2.4624 0.8558 3.5223 1.5261 1.056 0.67129 2.0208 1.4545 2.907 2.3024 0.51623 0.49268 1.0099 0.99909 1.481 1.5261zm-9.299 0.17273c-0.03926-4e-3 -0.07361-4e-3 -0.1109-4e-3l-0.33467-1.584c0.1688-0.0206 0.33859-0.0265 0.50151-0.0265 0.51819 0.0226 1.0354 0.0883 1.5143 0.23456 0.96572 0.26303 1.8313 0.71644 2.6184 1.2327 1.5006 0.98241 2.7519 2.2151 3.8806 3.5214l-0.71742 2.0865c-0.17371-0.2218-0.35037-0.43674-0.53193-0.65363-1.0982-1.2974-2.2838-2.5262-3.6303-3.4742-0.66639-0.47108-1.3809-0.86071-2.1022-1.1031-0.36509-0.13347-0.72724-0.1904-1.0874-0.22965zm0.36803 2.0718c0.77827 0.10109 1.4584 0.39944 2.0757 0.73607 1.2503 0.68307 2.2455 1.6223 3.1729 2.5929 0.43477 0.47501 0.85286 0.96867 1.2415 1.4741l-0.75668 2.1984c-0.58493-0.84599-1.2042-1.6645-1.8657-2.4349-0.79692-0.92156-1.6743-1.7783-2.6351-2.4104-0.29933-0.19334-0.60946-0.36313-0.92156-0.48384l-0.35037-1.6753c0.01374-9.8e-4 0.0265 3e-3 0.03926 3e-3zm14.608 28.761c0.02061 1.3239-0.06575 2.6655-0.31994 4.0111-0.13838 0.67129-0.32289 1.3446-0.58787 2.0109-0.27382 0.66345-0.634 1.3249-1.1875 1.9138-0.12464 0.13347-0.26302 0.2591-0.41416 0.38079l-0.86169-1.6537c0.60161-0.74882 0.95591-1.8834 1.165-3.012 0.21297-1.1748 0.28461-2.4045 0.28461-3.6381 0-0.45342-0.01374-0.90782-0.03828-1.3632l1.9599 1.2503zm-0.89997-12.4c-0.0265-0.0854-0.05692-0.16881-0.08735-0.25615l1.6311-0.5918c0.03533 0.10206 0.0687 0.21198 0.10403 0.31994 1.1129 3.4085 1.8912 6.9347 2.2318 10.535 0.06968 0.73902 0.11286 1.4839 0.13544 2.2288l-1.9265-1.2336c-0.01767-0.27971-0.03435-0.55745-0.05692-0.83814-0.25812-3.4409-0.98044-6.8582-2.0315-10.164zm-2.8255 1.3377c-0.05692-0.17862-0.11777-0.36019-0.17764-0.53684l1.637-0.59278c0.06772 0.20315 0.13249 0.40533 0.19236 0.60946 0.79397 2.4879 1.3838 5.0416 1.7528 7.6374 0.07753 0.56628 0.14525 1.1375 0.19825 1.7126l-2.007-1.2857h-0.0049c-0.0049-0.0638-0.0079-0.12366-0.01767-0.18941-0.27971-2.4869-0.84206-4.9503-1.5732-7.3548zm-0.75275-2.168c-0.61633-1.64-1.3249-3.2416-2.1434-4.7815-0.34154-0.64087-0.69681-1.2719-1.0688-1.8912l0.80084-2.3142c0.70859 1.0825 1.3406 2.2102 1.9157 3.3575 0.8136 1.635 1.533 3.3143 2.1464 5.0278zm-1.1512-12.621c0.73607 0.99124 1.4132 2.0158 2.0335 3.0679 1.4712 2.5213 2.695 5.1711 3.6754 7.9014l-1.6341 0.59179c-0.97652-2.6253-2.1846-5.1613-3.6342-7.5373-0.38177-0.62811-0.77925-1.2474-1.1954-1.847zm8.5619 9.9379-1.639 0.59278c-1.3691-3.7255-3.1415-7.3126-5.3704-10.575-0.33859-0.48875-0.67816-0.97259-1.0383-1.4496l0.73607-2.1238c0.65265 0.82244 1.267 1.6694 1.848 2.539 2.272 3.4458 4.0759 7.1614 5.4636 11.016zm3.3761 17.793-1.8745-1.2003c0-0.15114-0.0039-0.30718-0.0079-0.45832-0.15114-4.6117-1.0472-9.2205-2.4722-13.638-0.02944-0.0913-0.05987-0.18156-0.08931-0.27283l1.6301-0.58886c0.03926 0.10894 0.07263 0.21886 0.10894 0.32485 0.7449 2.2759 1.3544 4.597 1.8078 6.9534 0.45047 2.3544 0.76551 4.7422 0.86463 7.1516 0.02257 0.57609 0.03533 1.1512 0.03239 1.7283zm-6.1398 11.581c0.37981-0.15997 0.73901-0.38668 1.0639-0.66638 0.75373-0.6497 1.3239-1.5703 1.7577-2.5654 0.43968-0.99615 0.72233-2.0865 0.951-3.1837 0.2905-1.4113 0.43183-2.8569 0.47894-4.3134l1.8235 1.1581c-0.07949 1.1767-0.22278 2.3534-0.45538 3.5263-0.23849 1.2062-0.59671 2.4064-1.1247 3.5616-0.53095 1.1473-1.2336 2.2798-2.2887 3.168-0.42103 0.34252-0.89113 0.64381-1.4015 0.86463zm-0.21788-2.5694c-0.24634 0.21689-0.52604 0.40631-0.82538 0.56726l-0.7606-1.4682c0.16782-0.10305 0.32289-0.22475 0.4701-0.36803 0.51525-0.49268 0.93432-1.1542 1.2454-1.8892 0.6232-1.4761 0.92254-3.1543 1.0707-4.8433 0.05987-0.72135 0.09127-1.4574 0.09618-2.1925l1.851 1.1856c-0.01178 0.38864-0.03926 0.77925-0.06968 1.1669-0.0687 0.91272-0.21199 1.8304-0.41514 2.7362-0.20708 0.90782-0.48875 1.8127-0.90095 2.6852-0.41122 0.87543-0.95591 1.7371-1.7617 2.4202zm-8.5737-2.0993c1.2719 1.5232 2.6812 2.9335 4.2947 3.9296 0.85776 0.52212 1.7823 0.92058 2.6891 1.0069l0.87837 1.6841c-0.25223 0.0167-0.50249 0.0167-0.74883-6e-3 -1.3887-0.1109-2.5998-0.69976-3.6489-1.3936-1.056-0.69681-1.9462-1.5575-2.7725-2.4438-0.20316-0.21984-0.40238-0.44851-0.59671-0.67522zm-0.08342-1.9246c0.4809 0.53684 0.9824 1.0432 1.5143 1.5153 0.63989 0.55254 1.3082 1.0678 2.0217 1.4446 0.58787 0.31111 1.2062 0.52899 1.7999 0.58003l0.80771 1.5536c-0.15016 0.0128-0.3062 0.0177-0.45734 0.0128-1.0786-0.0255-2.0345-0.44066-2.8422-0.94315-0.81949-0.50642-1.5232-1.1247-2.1582-1.7823-0.21395-0.2218-0.4171-0.44851-0.61044-0.67914zm-0.08637-1.952c0.01276 0.0128 0.02257 0.0206 0.03533 0.0344 0.44066 0.44556 0.89898 0.86169 1.3799 1.2287 0.46716 0.38177 0.96768 0.69681 1.4692 0.91861 0.32583 0.14623 0.65068 0.23751 0.95296 0.26793l0.86562 1.6566c-0.07851 0.0108-0.15997 0.0196-0.23849 0.0216-0.86954 0.0638-1.6517-0.22181-2.2828-0.58493-0.85188-0.50642-1.5232-1.1404-2.1032-1.8333l-0.0049-6e-3zm-7.503-9.0124c0.49856 1.0737 1.003 2.1385 1.5281 3.1936 0.52801 1.0511 1.0904 2.0865 1.6694 3.1072 0.81164 1.4447 1.6871 2.855 2.639 4.2005l0.09225 2.0502c-1.2827-1.899-2.3711-3.8943-3.3457-5.9406-0.98731-2.1542-1.8647-4.3605-2.5831-6.6109zm5.6942 7.1772 0.03042 0.73215c-0.28461-0.55058-0.54175-1.1169-0.76551-1.692 0.27676 0.31897 0.55254 0.63989 0.83519 0.95689zm0.12955 3.0346c-1.2376-1.903-2.2111-3.9502-3.0591-6.0191 0.91861 1.5143 1.8519 3.012 2.904 4.4076 0.03042 0.0451 0.06085 0.0834 0.09127 0.1266v5e-3zm-5.8081-28.82c0.80575-0.3965 1.7695-0.39552 2.7912 6e-3 2.8167 1.111 5.864 5.0769 7.7601 10.106 2.6577 7.0456 2.3819 13.981-0.61143 15.461-0.38472 0.19137-0.79888 0.28559-1.2297 0.28559-0.40631 0-0.82734-0.0834-1.2503-0.25026-2.5056-0.98928-5.3478-5.0092-7.4147-10.489-2.3966-6.3537-3.3388-13.49-0.04515-15.119zm-2.4084 0.67423 0.15997 0.19923 0.18745-0.14721c-0.06183 0.47599-0.10501 0.95689-0.14721 1.4358-0.08735-0.49267-0.15703-0.98633-0.20021-1.4878zm-0.0952 10.336c-1.4564-4.4086-2.5389-9.0095-2.6744-13.747l1.1856 1.4633c0.0108 1.7685 0.14329 3.5469 0.34644 5.3174 0.13936 1.165 0.29148 2.3319 0.48973 3.4919 0.19825 1.16 0.42103 2.3191 0.65265 3.4742z" fill="#f95" stroke="#000" stroke-miterlimit="10" stroke-width=".236"/>
</svg>
