<?xml version="1.0" encoding="UTF-8"?>
<svg cursor="default" version="1.1" viewBox="0 0 256 256" xmlns="http://www.w3.org/2000/svg" xmlns:cc="http://creativecommons.org/ns#" xmlns:dc="http://purl.org/dc/elements/1.1/" xmlns:rdf="http://www.w3.org/1999/02/22-rdf-syntax-ns#">
 <metadata>
  <rdf:RDF>
   <cc:Work rdf:about="">
    <dc:format>image/svg+xml</dc:format>
    <dc:type rdf:resource="http://purl.org/dc/dcmitype/StillImage"/>
    <dc:title/>
   </cc:Work>
  </rdf:RDF>
 </metadata>
 <defs>
  <linearGradient id="SVGID_1_-2" x1="20.692" x2="804.05" y1="65.974" y2="53.904" gradientTransform="matrix(.26079 0 0 .26079 21.104 100.9)" gradientUnits="userSpaceOnUse">
   <stop stop-color="#ff2a2a" offset="0"/>
   <stop stop-color="#f55" offset=".1232"/>
   <stop stop-color="#f55" offset=".8406"/>
   <stop stop-color="#ff2a2a" offset="1"/>
  </linearGradient>
  <linearGradient id="SVGID_2_-8" x1="30.375" x2="789.29" y1="123.5" y2="123.5" gradientTransform="matrix(.26079 0 0 .26079 21.104 100.9)" gradientUnits="userSpaceOnUse">
   <stop stop-color="#ff8080" offset="0"/>
   <stop stop-color="#f55" offset=".51149"/>
   <stop stop-color="#ff8080" offset="1"/>
  </linearGradient>
  <linearGradient id="SVGID_3_-6" x1="497.95" x2="848.96" y1="161.82" y2="306.61" gradientTransform="matrix(.26079 0 0 .26079 21.104 100.9)" gradientUnits="userSpaceOnUse">
   <stop stop-color="#ff8080" offset="0"/>
   <stop stop-color="#faa" offset="1"/>
  </linearGradient>
  <linearGradient id="SVGID_4_-0" x1="-36.488" x2="358.92" y1="295.78" y2="127.23" gradientTransform="matrix(.26079 0 0 .26079 21.104 100.9)" gradientUnits="userSpaceOnUse">
   <stop stop-color="#faa" offset="0"/>
   <stop stop-color="#ff8080" offset="1"/>
  </linearGradient>
 </defs>
 <g stroke="#000">
  <path d="m39.744 127.72c-5.8911-2.6e-4 -9.3406-3.0542-10.853-9.6098 2.1862-6.8487 35.666-11.953 89.611-13.659 8.5045-0.26888 17.056-0.40501 25.417-0.40501 22.529 0 42.072 0.97641 56.517 2.8236 17.033 2.1784 26.421 5.4381 27.906 9.6896-3.0688 6.1222-8.5319 7.7649-13.816 9.3542-1.6967 0.51012-3.45 1.0374-5.1048 1.7056-8.1582-4.8171-45.461-6.5347-77.716-6.5347-37.766 0-80.898 2.2551-90.33 6.5655-0.56175 0.047-1.1097 0.0707-1.6294 0.0707-2.61e-4 -2.6e-4 -5.22e-4 -2.6e-4 -7.83e-4 -2.6e-4z" fill="url(#SVGID_1_-2)" stroke-width="1.618"/>
  <path d="m77.068 148.57c-28.995-1.074-44.745-4.084-48.139-9.2011l-0.54141-20.573c2.9864 6.3545 13.015 9.2186 59.932 10.239 11.247 0.24462 19.281 0.34451 27.727 0.34451 7.1565 0 14.795-0.073 24.038-0.23002 62.183-1.0974 81.594-3.7158 88.236-12.089l-1.2409 19.667c-3.7959 4.3973-14.052 9.2194-86.5 10.922z" fill="url(#SVGID_2_-8)" stroke-linejoin="round" stroke-width="1.618"/>
  <path d="m89.2 129.64c-15.15 0-27.715-0.55445-37.347-1.6482-12.116-1.3757-19.647-3.6117-22.383-6.6458-0.88305-0.97902-1.2709-2.0572-1.1522-3.2044 0.46004-4.4492 12.086-8.0028 34.555-10.562 20.546-2.3406 44.587-3.1843 57.088-3.479 7.5443-0.1776 15.217-0.26784 22.806-0.26784 15.839 0 38.489 0.41232 56.442 2.3766 18.892 2.0671 28.749 5.3849 29.297 9.8609 0.12726 1.0434-0.22298 2.0415-1.0416 2.966-8.0565 9.0999-58.797 9.5607-68.887 9.5607-1.4057 0-2.1907-8e-3 -2.1912-8e-3l-51.51 0.87366c-5.4556 0.11814-10.73 0.17786-15.676 0.17786zm49.166-25.238c-6.3522 0-12.735 0.0701-18.457 0.2029-14.365 0.33303-36.532 1.4863-55.665 3.7239-22.064 2.5803-33.729 5.7996-34.669 9.5683-0.2295 0.91878-0.02451 1.7969 0.61 2.6093 5.8269 7.4629 46.265 8.2685 63.381 8.2685 3.5176 0 7.073-0.0321 10.567-0.0952l51.776-0.77899c-3e-3 0 0.2681 2e-3 0.77717 2e-3 6.252 0 61.31-0.26653 69.246-9.5018 0.78317-0.91147 1.1006-1.896 0.94356-2.9266-1.5632-10.273-68.141-11.072-88.51-11.072z" fill="#faa" stroke-width=".417" style="paint-order:markers fill stroke"/>
  <path d="m237.55 191.8c-2.9498-1.2104-81.077-33.265-87.643-35.849-0.13483-0.0529-0.66242-0.87706 2.1946-11.922 1.36-5.2574 2.8875-10.517 3.1731-11.495 5.9821 2.4387 87.962 34.851 91.911 36.412l-8.6954 22.149z" fill="#ff8080" stroke-width="2.236" style="paint-order:markers stroke fill"/>
  <path d="m237.5 191.8c-3.4548-1.3671-77.084-30.503-88.644-35.051-0.19351-0.0762-0.60896-1.1632 2.181-11.949 1.3715-5.3027 2.9139-10.608 3.1804-11.52 5.7904 2.3633 88.289 34.98 91.955 36.43z" fill="url(#SVGID_3_-6)" stroke-width=".417"/>
  <path d="m8.8516 167.99c3.4407-1.485 80.212-34.619 89.141-38.438 0.94877 0.17656 18.313 7.9582 25.394 11.154l-110.9 44.774z" fill="#ff8080" stroke-width="2.236" style="paint-order:markers stroke fill"/>
  <path d="m123 163.87c-0.74274-0.21699-19.242-7.2404-29.314-11.074l28.572-11.514c4.8565 1.594 12.459 4.4852 12.345 5.5153-0.49838 4.5099-6.2588 16.72-11.603 17.073z" fill="#ff8080" stroke-width="1.162" style="paint-order:markers fill stroke"/>
  <path d="m10.461 168.66c3.1942-1.3955 79.655-34.798 88.572-38.612 0.87314 0.139 17.625 7.6092 24.411 10.657l-109.41 44.172z" fill="url(#SVGID_4_-0)" stroke-width=".417"/>
  <path d="m97.748 129.38c6.5107-4.3576 18.813-12.347 20.214-12.347 0.99754 0 16.388 5.249 16.83 6.1475 0.85776 6.0635-0.0498 21.61-0.17499 23.661z" fill="#ff8080" stroke-width="1.162" style="paint-order:markers fill stroke"/>
  <path d="m126.96 119.63c1.1699-1.0252 3.9578-3.3494 4.5994-3.3494 1.341 0 2.4528 4.4113 2.8132 6.3295z" fill="#ff2a2a" stroke-width=".162"/>
  <path d="m127.76 164.35c-1.8746 0-3.2936-0.22897-3.9581-0.36198 0.84863-0.44465 2.9378-1.692 5.0362-4.1159 2.4966-2.8836 5.5257-8.0742 5.7782-16.427 0.61391-20.315-1.4158-25.535-2.6802-26.838-0.11397-0.1171-0.22116-0.20264-0.31922-0.26445 0.18386-0.0326 0.42875-0.0584 0.74327-0.0584 1.6368 0 4.7512 0.6632 10.292 3.8238 4.0483 2.3091 8.0805 5.8097 10.75 8.3397 1.1066 1.0486 2.5214 2.743 2.0329 5.3406-0.0462 0.24515-0.13927 0.74692-0.26497 1.4234-0.58653 3.1588-1.807 9.7316-2.3555 12.383-0.16978 0.82046-0.70858 2.8408-1.184 4.6234-0.32312 1.2119-0.60243 2.2588-0.70388 2.6984-0.32182 1.3929-1.1574 2.3748-2.483 2.9191-0.0868 0.035-8.7904 3.5531-12.195 4.9063-2.6859 1.0672-5.5422 1.6083-8.4886 1.6083z" fill="#ff8080" stroke-linejoin="round" stroke-width="1.162" style="paint-order:markers fill stroke"/>
  <path d="m127.19 119.83s3.7948-3.2412 4.102-2.385c1.038 2.8906 3.2143 10.937 2.3813 26.003-0.88827 16.067-10.912 20.502-10.912 20.502l0.57713 0.10041s11.465-4.512 11.639-20.602c0.32678-30.148-3.8913-27.1-3.8913-27.1s-3.3267 2.0587-3.896 3.4827z" fill="#ff8080" stroke-width=".417"/>
 </g>
 <g transform="matrix(.26079 0 0 .26079 21.104 100.9)">
  <g id="ellipse831_17_">
   <ellipse transform="matrix(.3356 -.942 .942 .3356 251.97 921.52)" cx="779.23" cy="282.15" rx="22.577" ry="22.741" fill="#ff7f00"/>
   <path d="m771.48 303.9c-12.078-4.302-18.43-17.562-14.159-29.553 4.272-11.993 17.575-18.252 29.653-13.95 12.079 4.303 18.432 17.563 14.159 29.555-4.272 11.992-17.573 18.25-29.653 13.948zm15.149-42.535c-11.546-4.111-24.258 1.865-28.341 13.326-4.081 11.46 1.99 24.129 13.536 28.241 11.547 4.111 24.259-1.865 28.342-13.325s-1.991-24.129-13.537-28.242z"/>
  </g>
  <g id="g892_17_" transform="matrix(.76426 0 0 .76426 -170.91 -9.4679)">
   <path id="path884_17_" d="m1270.8 392.86c-2.676-0.953-4.686-3.009-5.97-6.113l-0.01-0.027c-1.269-3.243-1.932-7.207-1.978-11.84-1.315 1.413-2.883 2.612-4.683 3.577l-0.091 0.05-0.1 0.038c-2.834 1.043-5.883 1.886-9.066 2.513-0.896 0.681-2.119 1.375-3.321 0.946-0.588-0.21-1.627-0.801-1.963-2.428l-0.01-0.045v-0.046c-0.19-1.294-0.026-2.678 0.487-4.115 0.179-0.497 0.466-1.027 0.88-1.624 0.962-1.48 1.891-3.032 2.765-4.631-0.27-1.1-0.258-2.085 0.043-2.934 0.156-0.436 0.378-0.817 0.657-1.136-0.455-0.311-0.878-0.696-1.261-1.159l-0.029-0.034-0.028-0.038c-1.384-1.891-1.758-2.883-1.434-3.796 0.332-0.937 1.37-1.699 2.856-1.17 0.342 0.123 0.696 0.336 1.113 0.676l2.539 0.102c-0.013-0.054-0.023-0.11-0.032-0.164-0.047-0.365-0.01-1.063 0.833-1.639l0.194-0.134 1.552-0.47c-0.597-0.905-1.215-2.135-0.797-3.303 0.446-1.248 1.614-1.822 2.844-1.381l0.075 0.027 1.528 0.736c1.349 0.178 2.658 0.259 3.907 0.244 0.491-0.049 0.902-0.013 1.257 0.112 0.52 0.185 0.994 0.411 1.417 0.672-0.397-0.92-0.466-1.638-0.242-2.274 0.25-0.704 1.147-2.264 4.066-1.602l0.089 0.018 0.087 0.033c1.206 0.429 2.297 1.549 3.34 3.424l0.01 0.026 0.019 0.027c0.142 0.285 0.271 0.557 0.385 0.811 1.395-0.681 3.638-0.084 4.874 0.248l0.059 0.018 0.06 0.02c1.003 0.357 1.882 1.003 2.618 1.923l0.043 0.057 0.04 0.061c1.023 1.565 1.285 3.086 0.778 4.509-0.31 0.868-0.839 1.555-1.574 2.046-0.255 0.181-0.599 0.35-1.036 0.422 0.045 0.526-0.027 1.07-0.22 1.607-0.562 1.581-1.937 2.352-3.677 2.06-1.665-0.273-3.304-0.501-4.888-0.675-1.242 5.506-0.926 10.286 0.946 14.253 0.792-1.191 1.434-2.475 1.919-3.833 0.442-1.241 0.851-2.659 1.214-4.218l0.171-0.74 0.694-0.303c0.368-0.16 0.778-0.175 1.164-0.037 0.488 0.172 1.093 0.634 1.178 1.826 0.316 4.313-0.199 9.052-1.528 14.089 0.144 1.15 0.077 2.094-0.203 2.885-0.529 1.49-2.005 2.761-4.555 1.853zm-17.209-24.943c0.157-0.397 0.308-0.788 0.447-1.169l-0.035-0.466c-0.474 1e-3 -0.928-0.015-1.358-0.045zm5.86-1.684c0.063 0.187 0.12 0.365 0.171 0.543 0.922-0.335 1.671-0.386 2.317-0.156l0.221 0.078 0.187 0.143c0.295 0.225 0.592 0.461 0.87 0.705 0.04-0.373 0.083-0.753 0.126-1.135-1.272-0.092-2.574-0.15-3.892-0.178zm12.912-6.574c0.313-0.114 0.586-0.179 0.839-0.203-0.165-0.169-0.319-0.333-0.463-0.495z"/>
   <path id="path886_17_" d="m1249.1 361.02 16.476 0.658 1.454-6.775c-0.707-1.14-0.984-1.918-0.833-2.338 0.253-0.716 1.022-0.929 2.309-0.636 0.837 0.299 1.68 1.211 2.526 2.732 0.717 1.423 0.988 2.368 0.823 2.834l-1.6 2.976-0.552 1.553 1.578-0.106c1.23-0.727 1.995-1.036 2.29-0.933 2.86 1.185 3.994 2.59 3.414 4.217-0.313 0.885-0.986 1.246-2.005 1.075-2.18-0.358-4.277-0.631-6.294-0.822-1.954 7.443-1.321 13.656 1.906 18.638 1.561-1.804 2.74-3.828 3.537-6.073 0.465-1.302 0.886-2.763 1.261-4.385 0 0 0.189-0.082 0.231 0.516 0.309 4.242-0.207 8.872-1.559 13.886 0.158 1.031 0.13 1.853-0.087 2.471-0.396 1.108-1.27 1.42-2.628 0.938-2.266-0.808-3.961-2.563-5.08-5.268-2.025-5.164-2.418-12.209-1.185-21.128-2.552-0.244-5.195-0.354-7.927-0.325 0.76 1.38 1.205 2.663 1.338 3.85l1.081-0.115c0.87-0.413 1.501-0.549 1.896-0.41 1.379 1.053 1.99 1.822 1.841 2.324-0.457 1.282-2.428 1.554-5.914 0.81l-1.899 3.575c2.685-0.34 5.239-1.356 7.656-3.046 0.175-0.121 0.153 0.207-0.043 0.487-1.423 2.043-3.302 3.686-5.625 4.934-2.879 1.058-5.944 1.899-9.191 2.517-0.978 0.792-1.698 1.104-2.166 0.937-0.517-0.183-0.851-0.621-0.993-1.311-0.152-1.054-0.014-2.185 0.417-3.391 0.132-0.368 0.369-0.8 0.71-1.291 1.101-1.689 2.149-3.456 3.14-5.3-0.355-1.04-0.408-1.909-0.16-2.596 0.166-0.468 0.438-0.804 0.815-1.003 0.341-0.184 0.576-0.253 0.699-0.212 0.271 0.1 0.359 0.396 0.268 0.892l1.402 2.498c0.277 0.542 0.343 1.026 0.193 1.444-0.123 0.348-1.32 1.988-3.591 4.931 1.135 0.015 2.28-8e-3 3.44-0.068 0.022-0.685 0.112-1.236 0.261-1.657 1.206-2.377 2.165-4.563 2.876-6.559l-0.167-2.226c-2.211 0.128-3.97-0.041-5.277-0.505-0.666-0.238-1.262-0.672-1.786-1.303-0.934-1.275-1.344-2.075-1.229-2.395 0.124-0.348 0.429-0.432 0.925-0.254 0.247 0.083 0.588 0.329 1.028 0.738zm8.793-3.162c-0.802-0.479-1.365-0.885-1.689-1.225-0.699-1-0.967-1.734-0.8-2.203 0.169-0.468 0.473-0.622 0.917-0.465l1.67 0.805c1.535 0.212 3.017 0.309 4.44 0.29 0.287-0.037 0.507-0.028 0.658 0.024 0.788 0.281 1.418 0.659 1.887 1.131 0.541 0.667 0.705 1.293 0.495 1.885-0.185 0.517-0.644 0.8-1.381 0.842l-3.518 0.038c-2.332 0.275-4.606 0.379-6.821 0.316-0.178-4e-3 0.138-0.22 0.138-0.22zm19.358-1.352c0.74 0.261 1.389 0.741 1.947 1.44 0.753 1.158 0.957 2.218 0.616 3.179-0.202 0.567-0.538 1.002-1.004 1.308-0.304 0.225-0.715 0.245-1.234 0.061-0.515-0.185-0.969-0.598-1.351-1.233-0.422-0.925-0.963-1.786-1.625-2.577-1.113-1.091-1.6-1.82-1.467-2.19 0.235-0.667 1.609-0.662 4.118 0.012z" fill="#fff"/>
   <path id="path888_17_" d="m1255.2 424.85c-0.556-0.197-1.517-0.719-4.416-3.072-5.415-4.113-9.802-6.786-13.04-7.94-1.188-0.422-2.479-0.716-3.842-0.87-0.724 0.08-1.352 0.022-1.906-0.178-0.865-0.307-2.77-1.408-1.793-4.957l0.013-0.054 0.021-0.054c0.684-1.921 2.151-2.168 3.202-1.793l0.094 0.034 1.423 0.736c0.855 0.114 1.271-0.147 1.583-0.625-0.024-0.221-0.109-0.732-0.409-1.776-0.29-0.981-0.276-1.937 0.046-2.834l0.404-1.141c-0.654-0.392-1.095-0.846-1.358-1.384-0.866-1.725-1.018-3.417-0.45-5.017l0.019-0.043c0.552-1.411 1.284-1.873 1.897-1.973l-0.165-0.676c-0.199-0.845 0.364-1.431 0.548-1.625l0.135-0.142 1.843-1.123c-0.24-0.626-0.415-1.273-0.519-1.927-0.373-0.888-0.429-1.717-0.164-2.462 0.378-1.059 1.459-1.873 3.03-1.315l0.179 0.064 1.448 0.975c1.582 0.579 2.539 1.151 3.078 1.843l0.075 0.092 0.054 0.097c1.016 1.807 1.303 3.275 0.871 4.482-0.221 0.621-0.49 1.105-0.782 1.48 0.309 0.152 0.597 0.344 0.864 0.579 1.648 0.059 3.2 0.084 4.641 0.068-0.134-0.202-0.263-0.418-0.386-0.647l-0.018-0.035c-0.566-1.122-0.676-2.182-0.332-3.152 0.262-0.731 0.846-1.526 1.848-2.504 0.524-0.516 1.761-1.733 3.133-1.242 0.423 0.152 1.696 0.792 1.104 2.894v0.029c0.793-0.049 1.621-0.181 2.47-0.396 0.307-0.078 0.626-0.065 0.921 0.041 0.046 0.018 0.096 0.037 0.144 0.06 0.4-0.643 1.38-1.483 3.621-0.684 0.989 0.353 1.804 1.21 2.41 2.554l0.01 0.022c0.626 1.431 0.768 2.575 0.438 3.502-0.095 0.268-0.231 0.509-0.399 0.725 2.645 1.684 2.511 3.52 2.156 4.527-0.308 0.857-1.395 2.746-4.877 1.737-0.349-0.1-0.689-0.198-1.024-0.288 0.234 0.27 0.45 0.571 0.649 0.902 0.829 1.386 1.059 2.628 0.682 3.686-0.171 0.479-0.482 0.985-0.977 1.577-2.313 6.472-3.142 8.164-3.568 8.873-0.436 0.724-0.873 1.279-1.298 1.701 1.716 0.326 2.249 0.466 2.504 0.56 1.265 0.451 2.387 1.316 3.341 2.577l0.043 0.064 0.041 0.066c0.921 1.519 1.173 2.807 0.769 3.933-0.491 1.381-2.041 1.785-2.548 1.918l-0.069 0.019-0.068 8e-3c-2.694 0.451-5.165 0.282-7.346-0.496zm-3.54-11.124c0.501 0.257 0.943 0.483 1.333 0.682-0.032-0.146-0.061-0.293-0.083-0.432-0.398-0.066-0.817-0.151-1.25-0.25zm-9.688-4.536c0.732 0.29 1.486 0.602 2.259 0.935-0.077-0.856 0.029-1.929 0.408-3.281l0.049-0.17 1.995-3.593c0.198-0.576 0.356-1.153 0.466-1.73-0.241-0.733-0.225-1.515 0.051-2.29 0.051-0.146 0.116-0.282 0.198-0.409-0.298-0.036-0.491-0.091-0.649-0.147-0.736-0.262-1.435-0.765-2.117-1.528 0.273 0.897 0.267 1.751-0.014 2.54-0.224 0.631-0.739 1.44-1.923 1.938-0.526 0.769-0.796 1.176-0.928 1.386 0.029 0.176 0.102 0.507 0.281 1.071 0.646 1.892 0.769 3.345 0.378 4.449-0.098 0.277-0.251 0.551-0.454 0.829zm-3.623-16.748c0.257 0.234 0.478 0.534 0.672 0.91 1.61 0.081 2.203 0.187 2.573 0.321 0.612 0.216 1.15 0.54 1.611 0.975-0.164-0.593-0.148-1.161 0.045-1.701 0.022-0.055 0.043-0.114 0.066-0.167l-0.714-0.252c-1.459 0.05-2.885 0.02-4.253-0.086z"/>
   <path id="path890_17_" d="m1237.8 394.34c0.199 0.212 0.477 0.378 0.823 0.502 1.338 0.06 2.158 0.141 2.452 0.245 0.862 0.308 1.51 0.944 1.949 1.905 0.313 0.754 0.368 1.422 0.155 2.015-0.201 0.567-0.688 0.962-1.463 1.187-0.912 1.312-1.398 2.057-1.46 2.228-0.097 0.268 0.018 0.923 0.344 1.955 0.53 1.551 0.659 2.708 0.389 3.471-0.185 0.521-0.823 1.141-1.912 1.866 2.685 0.956 5.678 2.23 8.973 3.821 3.946 2.098 6.34 3.298 7.176 3.598 3.111 0.551 4.876 0.9 5.295 1.049 0.985 0.353 1.866 1.041 2.641 2.069 0.663 1.095 0.877 1.978 0.639 2.641-0.148 0.42-0.652 0.744-1.51 0.963-2.448 0.405-4.649 0.263-6.595-0.429-0.592-0.213-1.921-1.161-3.988-2.842-5.576-4.235-10.067-6.958-13.467-8.169-1.358-0.483-2.812-0.806-4.366-0.971-0.556 0.081-1.018 0.054-1.386-0.079-1.036-0.369-1.316-1.411-0.845-3.132 0.28-0.79 0.704-1.084 1.273-0.882l1.547 0.802c1.642 0.307 2.818-0.233 3.537-1.616 0.123-0.348-0.022-1.231-0.431-2.653-0.202-0.685-0.197-1.321 0.013-1.912l0.87-2.442c-1.035-0.371-1.665-0.788-1.889-1.257-0.681-1.352-0.811-2.635-0.379-3.844 0.304-0.781 0.606-1.118 0.902-1.011 0.268 0.095 0.507 0.404 0.713 0.922zm3.077-10.279 1.445 0.971c1.356 0.484 2.217 0.957 2.58 1.418 0.781 1.392 1.039 2.466 0.767 3.234-0.415 1.156-1.018 1.72-1.811 1.687l-1.036-0.368c-1.677 0.068-3.283 0.032-4.831-0.107-0.068-8e-3 0.157-0.243 0.157-0.243l2.832-1.724c-0.529-0.938-0.863-1.915-0.998-2.938-0.286-0.602-0.353-1.112-0.204-1.531 0.167-0.468 0.532-0.601 1.099-0.399zm5.639 9.676c2.734 0.111 5.19 0.127 7.363 0.036l2.578-0.455c2.2-1.188 4.134-2.404 5.797-3.644-0.341-0.594-0.459-1.053-0.341-1.372 0.182-0.517 0.815-0.585 1.903-0.195 0.592 0.211 1.103 0.795 1.537 1.758 0.46 1.052 0.595 1.85 0.401 2.389-0.271 0.762-1.49 1.259-3.658 1.49l-3.059 0.868 3.37 0.368c1.412-0.607 2.303-0.846 2.672-0.716 2.034 1.001 2.843 2.08 2.429 3.242-0.36 1.012-1.37 1.278-3.034 0.794-3.044-0.889-5.581-1.362-7.618-1.422l-0.079 0.806c-0.141 0.394-0.383 0.847-0.733 1.363l3.169 0.46c0.498-0.155 0.92-0.171 1.266-0.049 0.765 0.273 1.399 0.832 1.903 1.679 0.59 0.989 0.78 1.794 0.558 2.406-0.123 0.349-0.418 0.786-0.882 1.312-1.739 4.881-2.915 7.839-3.533 8.868-1.022 1.694-1.998 2.373-2.936 2.039-0.788-0.282-1.222-1.325-1.301-3.131-1.537-0.132-3.428-0.597-5.671-1.397-0.526 0.538-1.095 0.694-1.711 0.474-1.256-0.447-1.532-1.933-0.828-4.461l1.972-3.548c0.299-0.838 0.514-1.676 0.648-2.519-0.262-0.512-0.293-1.049-0.089-1.618 0.139-0.392 0.908-0.717 2.304-0.969 1.159-0.533 2.125-1.135 2.89-1.804-3.758 0.411-5.944 0.51-6.562 0.288-0.616-0.219-1.246-0.75-1.89-1.59-0.656-0.816-0.887-1.498-0.694-2.038 0.167-0.468 0.413-0.647 0.733-0.534 0.419 0.152 0.793 0.426 1.126 0.822zm9.701-4.545c1.21 0.026 2.471-0.13 3.787-0.461 0.123-0.032 0.084 0.153-0.065 0.277-0.85 0.718-1.763 1.423-2.742 2.116-0.75 1.482-1.582 2.061-2.494 1.737-0.765-0.272-1.411-0.906-1.947-1.904-0.374-0.742-0.461-1.398-0.259-1.965 0.176-0.492 0.67-1.137 1.482-1.931 0.726-0.714 1.248-1.015 1.569-0.9 0.319 0.112 0.345 0.552 0.072 1.317 0.022 0.564 0.219 1.134 0.597 1.714zm-4.46 12.286c1.374 0.436 2.778 0.741 4.217 0.92l0.595-0.037c0.882 0.562 1.239 1.082 1.073 1.549-0.208 0.592-0.809 0.794-1.799 0.608-2.483 0.423-3.784 0.791-3.899 1.11l3.877 0.59c0.271 0.095 0.566 0.479 0.882 1.149l2.092-5.758c-2.234-0.35-3.478-0.571-3.722-0.659-0.372-0.133-0.949-0.533-1.742-1.204l-1.854 0.299zm0.345 6.289-1.963-1.156-0.811 2.046zm0.928-3.543-1.72-0.906-0.685 1.924zm0.057 5.812c0.483-0.272 0.864-0.362 1.133-0.263 0.345 0.123 0.727 0.342 1.141 0.654l0.976-2.149-0.732-0.051c-2.2 0.24-4.229 0.602-6.094 1.076 1.12 0.373 2.31 0.614 3.576 0.733z" fill="#fff"/>
  </g>
 </g>
</svg>
