<?xml version="1.0" encoding="UTF-8"?>
<svg cursor="default" version="1.1" viewBox="0 0 256 256" xmlns="http://www.w3.org/2000/svg" xmlns:cc="http://creativecommons.org/ns#" xmlns:dc="http://purl.org/dc/elements/1.1/" xmlns:rdf="http://www.w3.org/1999/02/22-rdf-syntax-ns#">
 <metadata>
  <rdf:RDF>
   <cc:Work rdf:about="">
    <dc:format>image/svg+xml</dc:format>
    <dc:type rdf:resource="http://purl.org/dc/dcmitype/StillImage"/>
    <dc:title/>
   </cc:Work>
  </rdf:RDF>
 </metadata>
 <g clip-rule="evenodd" fill-rule="evenodd" stroke="#000" stroke-miterlimit="10">
  <path d="m180.34 127-97.105-37.77s-43.465-31.494-56.011-18.021c-7.796 8.3719-1.7448 30.955-1.7448 30.955 3.7093 12.432 46.777 15.725 46.777 15.725s21.808 15.82 100.53 34.721c25.494 6.1216 47.047 28.607 54.357 27.657 7.3097-0.95001 9.7353-5.1202 9.3572-10.309 0 0 6.9311-2.3617 5.6598-9.459 0 0 7.0762-6.0558 4.141-13.716-2.9352-7.6601-54.765-15.43-65.957-19.783z" fill="#ff2a2a" stroke-width="1.618"/>
  <path d="m180.34 127-97.105-37.77s-43.465-31.494-56.011-18.021c0 0-3.6035 8.6872 1.0022 13.104 7.2961 6.9965 39.329 18.849 42.38 18.9 10.639 0.17709 48.713 26.534 103.53 44.224 20.709 6.6834 53.006 32.83 53.006 32.83 7.3097-0.95 9.7353-5.1202 9.3572-10.309 0 0 6.9311-2.3617 5.6598-9.459 0 0 7.0762-6.0558 4.141-13.716-2.9352-7.6601-54.765-15.43-65.958-19.783z" fill="#ff8080" stroke-width=".988"/>
  <g fill="#ff2a2a" stroke-width=".816">
   <path d="m230.09 172.72c-0.2175 0.37672-0.77093 0.64301-1.6463 0.79322-1.7195-0.58232-7.6506-5.155-11.236-7.9188-1.2913-0.99547-28.425-15.29-29.808-16.343 10.911 4.1865 41.128 20.017 42.914 21.441 0.0937 0.83376 0.0154 1.6142-0.22332 2.0276z"/>
   <path d="m239.1 152.77c-0.13974 0.24203-0.35604 0.51029-0.88819 0.71488-0.49306-0.35383-1.407-1.1566-1.7905-1.4937-1.6481-1.4478-45.542-17.875-46.297-18.306 7.5279 2.0973 47.734 15.257 49.256 16.715 0.10583 0.53894 0.14472 1.634-0.28021 2.37z"/>
   <path d="m237.29 163.73c-0.28336 0.49082-0.70089 0.82959-1.2687 1.0268-2.4891-1.288-36.959-16.32-48.144-23.565 12.143 5.7397 47.371 19.609 49.77 21.011 0.0265 0.36127-0.0348 0.96842-0.35764 1.5277z"/>
  </g>
  <g>
   <path d="m175.46 143.33s-57.124-23.076-75.83-32.501c-14.561-7.3365-23.386-11.782-28.843-11.929-3.024-0.44306-33.156-11.549-39.576-17.705-1.615-1.5486-0.99031-5.2767-0.2655-7.5809 7.6613-6.1332 33.532 7.3413 49.765 19.098l0.44899 0.32481 97.621 37.971z" fill="#faa" stroke-width=".618"/>
   <path d="m176.78 139.23s-56.635-22.887-75.215-32.249c-4.9097-2.4743-9.1831-4.6272-12.935-6.4136l88.586 34.456z" fill="#ff2a2a" stroke-width=".816"/>
   <path d="m77.992 96.073c-2.5539-0.86062-4.7672-1.3594-6.7311-1.4606-3.9242-0.86256-30.652-10.956-36.751-16.23-0.02733-0.3236-0.02636-0.94524 0.13222-1.8326 2.3493-0.55198 7.659 0.16137 16.262 3.8665 8.3908 3.6137 18.501 9.4582 27.088 15.656z" fill="#ff2a2a" stroke-width=".816"/>
   <path d="m75.023 122.07s-11.255-0.13561-14.066-2.1558c0 0-4.7697-7.9265-3.0281-20.242 0 0 6.4926-14.345 14.739-19.329 0 0 8.4011 2.5626 10.806 6.239l-11.631 16.747s2.4953 9.5949 3.1807 18.74z" fill="#4d4d4d" stroke-width=".988"/>
   <path d="m181.53 125.59s-8.116 13.722-9.2854 26.885c0 0-0.5114 2.2073 0.45603 4.4063 0 0 10.829 3.6888 15.235 3.5762 0 0 4.9084-11.428 6.4139-29.75 0 0-6.4983-4.5255-12.82-5.1179z" fill="#4d4d4d" stroke-width=".988"/>
   <path d="m237.29 157.89s-39.842-15.46-41.933-17.263c-2.0911-1.8027 14.687 4.7133 17.262 6.0508 2.575 1.3375 24.671 11.212 24.671 11.212z" fill="#ff2a2a" stroke-width=".816"/>
  </g>
  <path d="m75.023 122.07s-11.256-0.13515-14.066-2.1557c0 0-4.7697-7.9264-3.0281-20.242l13.913 3.6584c2.6e-4 -4.5e-4 2.4955 9.5944 3.181 18.74z" fill="#1a1a1a" stroke-width=".8359"/>
  <path d="m172.24 152.48s-0.51165 2.2077 0.45579 4.4068c0 0 10.829 3.6888 15.235 3.5762 0 0 0.55649-1.2966 1.3531-3.7168z" fill="#1a1a1a" stroke-width=".8359"/>
 </g>
 <g transform="matrix(.25831 -.44741 .44741 .25831 -54.81 259.84)">
  <g id="ellipse831_18_">
   <ellipse cx="429.04" cy="285.36" rx="8.36" ry="8.3" fill="#ff7f00"/>
   <path d="m429.04 293.84c-4.713 0-8.549-3.808-8.549-8.488s3.836-8.488 8.549-8.488c4.714 0 8.55 3.809 8.55 8.488 0 4.681-3.836 8.488-8.55 8.488zm0-16.599c-4.506 0-8.171 3.639-8.171 8.111s3.665 8.111 8.171 8.111 8.172-3.639 8.172-8.111-3.666-8.111-8.172-8.111z"/>
  </g>
  <g id="g892_18_" transform="matrix(.76426 0 0 .76426 -170.91 -9.4679)">
   <path id="path884_18_" d="m795.96 386.27c-1.045 0-1.995-0.465-2.823-1.381l-6e-3 -6e-3c-0.839-0.967-1.558-2.259-2.145-3.859-0.281 0.653-0.677 1.26-1.181 1.817l-0.026 0.029-0.031 0.024c-0.852 0.71-1.804 1.38-2.829 1.991-0.226 0.345-0.564 0.736-1.032 0.736-0.23 0-0.663-0.077-0.98-0.598l-9e-3 -0.015-8e-3 -0.015c-0.225-0.426-0.339-0.925-0.339-1.485 0-0.194 0.035-0.414 0.104-0.672 0.151-0.63 0.281-1.283 0.387-1.944-0.229-0.348-0.346-0.69-0.346-1.021 0-0.171 0.029-0.33 0.087-0.475-0.195-0.051-0.39-0.133-0.58-0.245l-0.014-8e-3 -0.014-0.01c-0.713-0.484-0.966-0.782-0.966-1.139 0-0.364 0.266-0.758 0.845-0.758 0.134 0 0.284 0.032 0.469 0.097l0.893-0.279c-0.012-0.015-0.023-0.033-0.032-0.051-0.061-0.121-0.132-0.368 0.086-0.671l0.051-0.07 0.48-0.355c-0.318-0.24-0.684-0.589-0.684-1.045 0-0.487 0.335-0.828 0.815-0.828h0.029l0.62 0.066c0.488-0.105 0.952-0.24 1.383-0.397 0.164-0.079 0.31-0.116 0.45-0.116 0.203 0 0.395 0.018 0.574 0.057-0.252-0.271-0.363-0.51-0.363-0.758 0-0.276 0.116-0.925 1.209-1.058l0.033-4e-3h0.035c0.47 0 0.988 0.254 1.579 0.774l6e-3 6e-3 9e-3 8e-3c0.086 0.082 0.164 0.158 0.234 0.235 0.4-0.409 1.25-0.478 1.72-0.516l0.022-3e-3h0.023c0.392 0 0.776 0.118 1.144 0.344l0.023 0.014 0.02 0.018c0.548 0.415 0.825 0.91 0.825 1.464 0 0.34-0.098 0.644-0.293 0.902-0.066 0.095-0.164 0.197-0.307 0.275 0.081 0.178 0.123 0.374 0.123 0.584 0 0.616-0.381 1.053-1.02 1.167-0.611 0.111-1.206 0.234-1.777 0.369 0.25 2.061 0.949 3.677 2.087 4.82 0.128-0.511 0.192-1.035 0.192-1.564 0-0.484-0.033-1.026-0.1-1.61l-0.032-0.279 0.203-0.192c0.107-0.1 0.249-0.156 0.399-0.156 0.19 0 0.456 0.087 0.633 0.488 0.641 1.454 1.048 3.159 1.209 5.068 0.192 0.381 0.285 0.716 0.285 1.025 1e-3 0.584-0.355 1.205-1.349 1.205zm-9.038-6.514c6e-3 -0.158 0.01-0.312 0.012-0.463l-0.07-0.156c-0.164 0.059-0.323 0.109-0.475 0.151zm1.823-1.306c0.045 0.054 0.086 0.11 0.127 0.166 0.279-0.23 0.532-0.341 0.783-0.341h0.086l0.082 0.027c0.13 0.041 0.262 0.087 0.388 0.138-0.032-0.135-0.064-0.271-0.096-0.409-0.452 0.125-0.91 0.264-1.37 0.419zm3.66-3.872c0.095-0.077 0.181-0.133 0.266-0.174-0.078-0.038-0.152-0.074-0.222-0.112z"/>
   <path id="path886_18_" d="m784.5 377.92 5.788-1.804-0.333-2.526c-0.385-0.307-0.576-0.542-0.576-0.705 0-0.28 0.24-0.448 0.722-0.506 0.326 0 0.731 0.212 1.211 0.634 0.424 0.405 0.635 0.698 0.635 0.882l-0.187 1.227v0.606l0.533-0.23c0.337-0.404 0.563-0.606 0.678-0.606 1.136 0.056 1.702 0.402 1.702 1.038 0 0.346-0.187 0.553-0.561 0.621-0.8 0.143-1.559 0.308-2.282 0.491 0.242 2.819 1.228 4.893 2.959 6.219 0.318-0.816 0.477-1.662 0.477-2.539 0-0.509-0.034-1.066-0.105-1.674 0 0 0.055-0.051 0.144 0.151 0.63 1.43 1.022 3.097 1.172 5.001 0.183 0.337 0.275 0.626 0.275 0.866 0 0.432-0.265 0.649-0.794 0.649-0.885 0-1.688-0.4-2.41-1.199-1.338-1.538-2.343-3.931-3.017-7.172-0.915 0.231-1.843 0.519-2.786 0.866 0.433 0.385 0.746 0.774 0.938 1.168l0.362-0.173c0.249-0.25 0.452-0.376 0.606-0.376 0.607 0.193 0.914 0.386 0.924 0.578 0 0.5-0.649 0.837-1.949 1.009l-0.216 1.473c0.888-0.449 1.647-1.116 2.276-2 0.046-0.064 0.079 0.054 0.046 0.174-0.243 0.883-0.69 1.684-1.34 2.402-0.866 0.722-1.823 1.39-2.872 2.006-0.24 0.395-0.451 0.593-0.635 0.593-0.202 0-0.371-0.112-0.505-0.332-0.183-0.348-0.273-0.756-0.273-1.228 0-0.143 0.028-0.321 0.086-0.533 0.174-0.722 0.318-1.464 0.433-2.223-0.25-0.317-0.374-0.611-0.374-0.879 0-0.183 0.052-0.332 0.158-0.449 0.096-0.106 0.167-0.158 0.216-0.158 0.106 0 0.172 0.091 0.202 0.275l0.795 0.693c0.162 0.153 0.245 0.312 0.245 0.475 0 0.135-0.212 0.854-0.635 2.152 0.394-0.135 0.788-0.285 1.182-0.449-0.077-0.24-0.114-0.441-0.114-0.606 0.124-0.972 0.187-1.848 0.187-2.626l-0.332-0.751c-0.75 0.318-1.38 0.477-1.89 0.477-0.261 0-0.52-0.078-0.779-0.231-0.48-0.327-0.722-0.553-0.722-0.678 0-0.134 0.097-0.202 0.289-0.202 0.096-1e-3 0.244 0.042 0.446 0.129zm2.657-2.179c-0.337-0.066-0.583-0.141-0.737-0.217-0.364-0.261-0.547-0.482-0.547-0.664 0-0.183 0.086-0.273 0.259-0.273l0.679 0.072c0.557-0.115 1.082-0.263 1.573-0.446 0.095-0.049 0.173-0.073 0.23-0.073 0.308 0 0.572 0.054 0.795 0.158 0.268 0.164 0.402 0.36 0.402 0.593 0 0.202-0.124 0.355-0.374 0.46l-1.213 0.449c-0.774 0.382-1.55 0.699-2.324 0.949-0.061 0.02 0.02-0.092 0.02-0.092zm6.537-2.857c0.289 0 0.572 0.086 0.851 0.258 0.405 0.309 0.606 0.65 0.606 1.025 0 0.222-0.063 0.414-0.187 0.578-0.078 0.115-0.217 0.174-0.419 0.174s-0.409-0.087-0.62-0.261c-0.261-0.268-0.555-0.5-0.882-0.693-0.519-0.24-0.778-0.433-0.778-0.578 0-0.259 0.476-0.426 1.429-0.503z" fill="#fff"/>
   <path id="path888_18_" d="m794.49 399.28c-0.217 0-0.615-0.063-1.909-0.52-2.383-0.756-4.231-1.14-5.495-1.14-0.464 0-0.948 0.059-1.439 0.171-0.242 0.118-0.465 0.174-0.682 0.174-0.337 0-1.133-0.146-1.232-1.495l-1e-3 -0.02v-0.02c0-0.749 0.477-1.017 0.887-1.017h0.037l0.585 0.082c0.308-0.066 0.422-0.21 0.47-0.411-0.036-0.074-0.128-0.24-0.36-0.566-0.222-0.305-0.335-0.638-0.335-0.988v-0.445c-0.275-0.054-0.484-0.156-0.64-0.312-0.514-0.491-0.774-1.057-0.774-1.683v-0.015c0.017-0.558 0.215-0.808 0.413-0.919l-0.141-0.212c-0.172-0.268-0.05-0.542-0.01-0.631l0.029-0.066 0.5-0.616c-0.16-0.187-0.3-0.388-0.417-0.603-0.239-0.262-0.36-0.543-0.36-0.833 0-0.414 0.275-0.829 0.887-0.829h0.07l0.621 0.16c0.62 5e-3 1.021 0.086 1.293 0.258l0.037 0.023 0.032 0.027c0.575 0.502 0.855 0.974 0.855 1.445 0 0.243-0.033 0.443-0.088 0.608 0.124 0.015 0.248 0.046 0.369 0.093 0.579-0.183 1.119-0.364 1.615-0.548-0.07-0.054-0.142-0.112-0.212-0.176l-0.012-0.01c-0.333-0.317-0.503-0.672-0.503-1.05 0-0.285 0.106-0.633 0.331-1.094 0.119-0.245 0.396-0.818 0.932-0.818 0.166 0 0.686 0.065 0.74 0.866l5e-3 0.01c0.27-0.115 0.539-0.263 0.806-0.442 0.097-0.064 0.21-0.1 0.325-0.1 0.018 0 0.038 1e-3 0.056 3e-3 0.06-0.271 0.296-0.684 1.172-0.684 0.386 0 0.773 0.197 1.15 0.588l5e-3 6e-3c0.392 0.419 0.583 0.796 0.583 1.158 0 0.106-0.017 0.204-0.049 0.302 1.124 0.257 1.305 0.909 1.305 1.302 0 0.335-0.143 1.123-1.475 1.202-0.133 9e-3 -0.263 0.017-0.39 0.027 0.115 0.065 0.226 0.142 0.335 0.233 0.459 0.378 0.693 0.779 0.693 1.192 0 0.187-0.046 0.401-0.144 0.666-3e-3 2.526-0.082 3.216-0.142 3.514-0.061 0.305-0.143 0.551-0.239 0.749 0.634-0.098 0.836-0.115 0.937-0.115 0.493 0 0.989 0.162 1.475 0.482l0.023 0.015 0.022 0.018c0.507 0.414 0.753 0.828 0.753 1.268 0 0.539-0.487 0.87-0.647 0.979l-0.022 0.014-0.022 0.012c-0.88 0.485-1.757 0.731-2.608 0.731zm-2.597-3.415c0.204 0.027 0.386 0.051 0.546 0.072-0.031-0.047-0.057-0.095-0.082-0.139-0.148 0.025-0.302 0.048-0.464 0.067zm-3.916-0.376c0.289 9e-3 0.589 0.026 0.897 0.045-0.132-0.287-0.227-0.672-0.263-1.187l-4e-3 -0.065 0.248-1.49c-3e-3 -0.224-0.019-0.443-0.052-0.657-0.174-0.225-0.266-0.497-0.266-0.799 0-0.057 6e-3 -0.112 0.019-0.166-0.107 0.023-0.181 0.028-0.243 0.028-0.287 0-0.592-0.088-0.921-0.268 0.204 0.279 0.308 0.574 0.308 0.882 0 0.248-0.078 0.59-0.427 0.91-0.088 0.331-0.13 0.503-0.151 0.593 0.033 0.059 0.098 0.164 0.23 0.337 0.457 0.575 0.678 1.064 0.678 1.494 1e-3 0.107-0.016 0.222-0.053 0.343zm-3.321-5.354c0.118 0.049 0.233 0.125 0.345 0.23 0.569-0.169 0.786-0.204 0.932-0.204 0.238 0 0.465 0.046 0.678 0.138-0.13-0.184-0.194-0.383-0.194-0.593v-0.066h-0.277c-0.498 0.197-0.997 0.362-1.484 0.495z"/>
   <path id="path890_18_" d="m784.7 390.86c0.097 0.047 0.212 0.073 0.348 0.073 0.471-0.146 0.764-0.217 0.88-0.217 0.336 0 0.639 0.139 0.909 0.419 0.202 0.22 0.303 0.447 0.303 0.677 0 0.222-0.12 0.419-0.36 0.593-0.155 0.567-0.231 0.884-0.231 0.951 0 0.106 0.12 0.319 0.36 0.636 0.376 0.47 0.564 0.856 0.564 1.154 0 0.202-0.144 0.495-0.433 0.88 1.048 0 2.241 0.072 3.579 0.217 1.625 0.24 2.603 0.36 2.93 0.36 1.145-0.193 1.799-0.289 1.963-0.289 0.385 0 0.774 0.13 1.169 0.391 0.364 0.296 0.548 0.576 0.548 0.836 0 0.164-0.135 0.337-0.404 0.519-0.799 0.443-1.579 0.664-2.338 0.664-0.231 0-0.808-0.164-1.731-0.491-2.453-0.779-4.344-1.169-5.672-1.169-0.529 0-1.073 0.068-1.63 0.203-0.183 0.096-0.346 0.143-0.491 0.143-0.405 0-0.63-0.326-0.679-0.98 0-0.308 0.11-0.464 0.332-0.464l0.635 0.089c0.606-0.097 0.947-0.429 1.025-0.997 0-0.135-0.16-0.424-0.477-0.866-0.155-0.212-0.23-0.433-0.23-0.664v-0.952c-0.405 0-0.675-0.068-0.809-0.203-0.404-0.383-0.607-0.813-0.607-1.284 0.01-0.308 0.073-0.461 0.188-0.461 0.105 0 0.225 0.078 0.359 0.232zm-0.202-3.94 0.621 0.158c0.529 0 0.885 0.056 1.068 0.173 0.442 0.386 0.664 0.727 0.664 1.026 0 0.451-0.141 0.721-0.42 0.808h-0.404c-0.571 0.23-1.132 0.417-1.685 0.557-0.026 8e-3 0.024-0.101 0.024-0.101l0.767-0.947c-0.298-0.261-0.533-0.558-0.707-0.894-0.174-0.174-0.259-0.342-0.259-0.506 0-0.183 0.11-0.274 0.331-0.274zm3.147 2.656c0.961-0.298 1.812-0.597 2.554-0.896l0.837-0.475c0.615-0.684 1.133-1.343 1.558-1.978-0.192-0.162-0.289-0.307-0.289-0.433 0-0.201 0.212-0.302 0.636-0.302 0.231 0 0.48 0.138 0.75 0.419 0.289 0.307 0.433 0.566 0.433 0.777 0 0.299-0.362 0.621-1.084 0.967l-0.952 0.679 1.213-0.288c0.413-0.385 0.693-0.578 0.837-0.578 0.827 0.096 1.241 0.369 1.241 0.823 0 0.395-0.317 0.612-0.952 0.648-1.164 0.069-2.102 0.217-2.815 0.45l0.072 0.286c0 0.155-0.028 0.342-0.086 0.563l1.155-0.23c0.153-0.116 0.298-0.172 0.433-0.172 0.298 0 0.586 0.114 0.865 0.345 0.327 0.271 0.491 0.525 0.491 0.764 0 0.135-0.049 0.325-0.144 0.564 0 1.905-0.043 3.074-0.129 3.508-0.144 0.71-0.4 1.068-0.765 1.068-0.308 0-0.586-0.309-0.837-0.924-0.549 0.144-1.261 0.216-2.136 0.216-0.115 0.25-0.294 0.376-0.534 0.376-0.491 0-0.769-0.48-0.837-1.444l0.247-1.472c0-0.327-0.029-0.644-0.088-0.952-0.153-0.144-0.23-0.327-0.23-0.548 0-0.155 0.226-0.36 0.678-0.621 0.336-0.327 0.597-0.654 0.778-0.981-1.251 0.606-1.996 0.91-2.236 0.91s-0.524-0.107-0.851-0.318c-0.328-0.203-0.492-0.41-0.492-0.62 0-0.183 0.064-0.276 0.188-0.276 0.163-1e-3 0.326 0.047 0.491 0.145zm2.8-2.772c0.422-0.139 0.838-0.349 1.254-0.626 0.038-0.027 0.047 0.042 0.011 0.104-0.206 0.354-0.434 0.71-0.689 1.072-0.077 0.604-0.294 0.909-0.649 0.909-0.299 0-0.601-0.139-0.91-0.419-0.22-0.21-0.331-0.427-0.331-0.649 0-0.192 0.091-0.475 0.275-0.851 0.162-0.337 0.307-0.506 0.432-0.506s0.188 0.151 0.188 0.447c0.076 0.192 0.216 0.364 0.419 0.519zm-0.03 4.806c0.529-0.018 1.053-0.087 1.573-0.202l0.202-0.087c0.376 0.087 0.563 0.222 0.563 0.405 0 0.231-0.183 0.374-0.548 0.433-0.809 0.452-1.213 0.741-1.213 0.865l1.415-0.275c0.105 0 0.254 0.097 0.447 0.289l0.014-2.251c-0.818 0.155-1.275 0.231-1.371 0.231-0.144 0-0.395-0.068-0.75-0.203l-0.606 0.333zm0.895 2.136-0.823-0.158-0.028 0.808zm-0.115-1.341-0.708-0.102v0.751zm0.736 2.006c0.134-0.155 0.254-0.233 0.36-0.233 0.135 0 0.294 0.029 0.477 0.087l0.073-0.866-0.261 0.074c-0.732 0.355-1.39 0.731-1.977 1.124 0.434-0.01 0.876-0.073 1.328-0.186z" fill="#fff"/>
  </g>
 </g>
 <g transform="matrix(.25831 -.44741 .44741 .25831 -54.81 259.84)">
  <g id="ellipse831_20_">
   <path d="m405.98 41.669c3.366-0.269 6.402 2.738 6.781 6.716s-2.044 7.418-5.41 7.688c-3.366 0.269-6.402-2.738-6.781-6.716s2.043-7.42 5.41-7.688z" fill="#ff7f00"/>
   <path d="m407.37 56.236c-3.437 0.273-6.547-2.807-6.934-6.868s2.095-7.589 5.531-7.862c3.437-0.274 6.548 2.807 6.935 6.867 0.386 4.062-2.096 7.589-5.532 7.863zm-1.372-14.403c-3.285 0.262-5.657 3.632-5.287 7.513s3.343 6.826 6.627 6.563c3.285-0.262 5.657-3.633 5.288-7.515-0.37-3.88-3.343-6.824-6.628-6.561z"/>
  </g>
  <g id="g892_20_" transform="matrix(.76426 0 0 .76426 -170.91 -9.4679)">
   <path id="path884_20_" d="m763.76 76.136c-0.762 0.06-1.492-0.288-2.172-1.035l-6e-3 -6e-3c-0.691-0.79-1.321-1.868-1.882-3.223-0.151 0.584-0.389 1.132-0.71 1.646l-0.017 0.027-0.02 0.022c-0.563 0.667-1.201 1.303-1.898 1.894-0.137 0.312-0.35 0.672-0.693 0.698-0.167 0.015-0.489-0.028-0.763-0.463l-8e-3 -0.012-6e-3 -0.013c-0.2-0.357-0.324-0.783-0.369-1.269-0.017-0.169-0.01-0.36 0.02-0.589 0.057-0.556 0.099-1.13 0.121-1.708-0.196-0.289-0.31-0.58-0.337-0.866-0.015-0.149-6e-3 -0.286 0.023-0.418-0.146-0.032-0.294-0.092-0.443-0.179l-0.011-6e-3 -0.011-8e-3c-0.559-0.378-0.768-0.622-0.797-0.933-0.03-0.314 0.13-0.672 0.553-0.705 0.098-8e-3 0.209 0.012 0.351 0.057l0.627-0.294c-0.01-0.013-0.019-0.028-0.027-0.042-0.054-0.102-0.127-0.312 7e-3 -0.588l0.031-0.064 0.321-0.335c-0.252-0.192-0.547-0.473-0.585-0.868-0.041-0.423 0.175-0.739 0.526-0.768h0.021l0.457 0.02c0.348-0.118 0.675-0.263 0.976-0.424 0.112-0.079 0.217-0.119 0.318-0.128 0.148-0.011 0.289-8e-3 0.424 0.017-0.206-0.22-0.307-0.42-0.328-0.636-0.022-0.239 0.01-0.81 0.795-0.988l0.024-5e-3 0.026-3e-3c0.342-0.028 0.741 0.164 1.215 0.58l6e-3 5e-3 7e-3 6e-3c0.069 0.065 0.132 0.129 0.19 0.19 0.258-0.378 0.871-0.488 1.212-0.547l0.015-4e-3 0.015-1e-3c0.286-0.023 0.576 0.056 0.864 0.231l0.018 0.012 0.015 0.014c0.434 0.327 0.677 0.74 0.723 1.222 0.028 0.296-0.019 0.564-0.138 0.8-0.041 0.086-0.105 0.18-0.202 0.257 0.074 0.149 0.12 0.317 0.138 0.498 0.051 0.535-0.192 0.937-0.648 1.072-0.436 0.133-0.86 0.273-1.264 0.424 0.352 1.774 0.996 3.134 1.92 4.06 0.05-0.45 0.054-0.909 0.01-1.367-0.041-0.42-0.11-0.889-0.206-1.392l-0.046-0.24 0.132-0.178c0.069-0.092 0.169-0.149 0.277-0.157 0.139-0.011 0.34 0.049 0.502 0.385 0.588 1.225 1.025 2.681 1.299 4.328 0.171 0.319 0.267 0.604 0.293 0.873 0.046 0.507-0.161 1.065-0.885 1.124zm-7.127-5.128c-9e-3 -0.138-0.019-0.271-0.031-0.401l-0.063-0.132c-0.115 0.06-0.227 0.112-0.335 0.158zm1.22-1.238c0.036 0.043 0.071 0.091 0.107 0.137 0.183-0.216 0.359-0.327 0.542-0.342l0.063-5e-3 0.063 0.019c0.098 0.028 0.198 0.06 0.294 0.098-0.034-0.118-0.068-0.233-0.104-0.35-0.319 0.134-0.642 0.282-0.965 0.443zm2.35-3.573c0.061-0.073 0.12-0.127 0.178-0.165-0.059-0.031-0.117-0.057-0.171-0.086z"/>
   <path id="path886_20_" d="m754.72 69.559 4.07-1.903-0.452-2.174c-0.305-0.244-0.464-0.437-0.479-0.578-0.023-0.243 0.139-0.403 0.485-0.48 0.238-0.019 0.549 0.141 0.935 0.479 0.342 0.327 0.521 0.569 0.536 0.728l-0.035 1.075 0.05 0.525 0.369-0.23c0.213-0.371 0.361-0.558 0.445-0.565 0.833-0.018 1.275 0.249 1.327 0.8 0.028 0.302-0.091 0.492-0.358 0.571-0.571 0.171-1.112 0.359-1.623 0.56 0.409 2.432 1.299 4.174 2.671 5.224 0.164-0.726 0.211-1.469 0.138-2.23-0.042-0.441-0.114-0.924-0.215-1.446 0 0 0.034-0.047 0.118 0.121 0.578 1.204 1 2.63 1.268 4.273 0.161 0.281 0.252 0.526 0.271 0.735 0.036 0.374-0.139 0.579-0.524 0.609-0.645 0.051-1.264-0.249-1.857-0.9-1.101-1.257-2.033-3.274-2.791-6.048-0.648 0.254-1.302 0.558-1.96 0.914 0.348 0.309 0.607 0.629 0.78 0.96l0.249-0.171c0.161-0.231 0.299-0.354 0.411-0.362 0.458 0.132 0.698 0.281 0.721 0.447 0.042 0.433-0.404 0.764-1.337 0.989l-0.036 1.291c0.61-0.44 1.109-1.063 1.494-1.867 0.028-0.057 0.063 0.042 0.048 0.148-0.104 0.781-0.364 1.501-0.779 2.162-0.572 0.677-1.215 1.312-1.928 1.908-0.143 0.358-0.28 0.542-0.414 0.552-0.148 0.011-0.279-0.077-0.396-0.259-0.162-0.29-0.262-0.64-0.3-1.049-0.013-0.125-6e-3 -0.281 0.018-0.468 0.066-0.636 0.111-1.289 0.132-1.955-0.209-0.259-0.324-0.507-0.346-0.74-0.015-0.158 0.01-0.291 0.078-0.399 0.061-0.098 0.109-0.147 0.145-0.149 0.077-6e-3 0.133 0.068 0.169 0.226l0.636 0.555c0.132 0.124 0.204 0.257 0.219 0.397 0.011 0.119-0.084 0.754-0.286 1.905 0.277-0.141 0.552-0.293 0.825-0.459-0.076-0.203-0.12-0.374-0.134-0.519 0.01-0.851-0.017-1.614-0.081-2.29l-0.304-0.631c-0.521 0.319-0.967 0.493-1.339 0.523-0.19 0.015-0.385-0.037-0.588-0.156-0.377-0.254-0.572-0.438-0.582-0.547-0.011-0.116 0.054-0.18 0.194-0.19 0.075-5e-3 0.188 0.024 0.342 0.088zm1.756-2.046c-0.25-0.037-0.436-0.088-0.555-0.144-0.288-0.206-0.44-0.387-0.454-0.546-0.015-0.158 0.04-0.243 0.167-0.253l0.501 0.024c0.397-0.133 0.767-0.293 1.11-0.479 0.065-0.047 0.12-0.073 0.162-0.077 0.224-0.018 0.421 0.013 0.592 0.091 0.21 0.125 0.324 0.29 0.342 0.492 0.017 0.175-0.061 0.316-0.234 0.42l-0.847 0.459c-0.533 0.377-1.073 0.699-1.616 0.96-0.043 0.02 8e-3 -0.079 8e-3 -0.079zm4.529-2.859c0.211-0.017 0.425 0.042 0.643 0.175 0.321 0.245 0.496 0.529 0.526 0.855 0.018 0.193-0.012 0.363-0.088 0.512-0.047 0.103-0.144 0.162-0.291 0.175-0.148 0.011-0.305-0.052-0.474-0.19-0.212-0.217-0.445-0.401-0.698-0.551-0.399-0.178-0.604-0.331-0.616-0.455-0.022-0.225 0.311-0.398 0.998-0.521z" fill="#fff"/>
   <path id="path888_20_" d="m763.76 87.507c-0.16 0.013-0.454-0.019-1.435-0.34-1.799-0.519-3.179-0.744-4.1-0.67-0.338 0.027-0.686 0.106-1.035 0.231-0.166 0.116-0.325 0.178-0.483 0.19-0.246 0.019-0.838-0.06-1.022-1.225l-3e-3 -0.018-1e-3 -0.017c-0.063-0.65 0.263-0.911 0.562-0.934l0.027-3e-3 0.433 0.036c0.22-0.074 0.291-0.206 0.309-0.383-0.033-0.063-0.113-0.201-0.309-0.47-0.187-0.252-0.296-0.533-0.326-0.837l-0.036-0.386c-0.205-0.031-0.366-0.107-0.493-0.234-0.415-0.396-0.652-0.871-0.703-1.414l-1e-3 -0.014c-0.034-0.486 0.09-0.713 0.226-0.822l-0.12-0.176c-0.148-0.222-0.081-0.466-0.059-0.547l0.017-0.059 0.313-0.562c-0.133-0.153-0.251-0.321-0.355-0.501-0.195-0.212-0.307-0.45-0.331-0.701-0.034-0.359 0.132-0.735 0.578-0.771l0.051-5e-3 0.466 0.104c0.452-0.032 0.751 0.015 0.964 0.148l0.029 0.018 0.026 0.022c0.461 0.403 0.703 0.795 0.743 1.205 0.02 0.21 0.012 0.386-0.015 0.533 0.092 5e-3 0.185 0.023 0.277 0.059 0.408-0.192 0.786-0.381 1.133-0.57-0.057-0.041-0.114-0.088-0.17-0.141l-9e-3 -8e-3c-0.27-0.257-0.422-0.555-0.454-0.883-0.024-0.247 0.024-0.555 0.151-0.967 0.066-0.221 0.222-0.733 0.611-0.764 0.121-0.01 0.506 0.017 0.611 0.708l4e-3 0.01c0.187-0.118 0.372-0.261 0.551-0.431 0.066-0.061 0.144-0.1 0.228-0.106 0.014-1e-3 0.028-1e-3 0.042-1e-3 0.02-0.239 0.158-0.609 0.797-0.661 0.281-0.023 0.579 0.125 0.885 0.442l5e-3 5e-3c0.321 0.342 0.491 0.657 0.52 0.971 9e-3 0.092 5e-3 0.179-0.01 0.264 0.841 0.157 1.026 0.712 1.059 1.054 0.027 0.29-0.011 0.983-0.976 1.128-0.096 0.015-0.19 0.029-0.282 0.046 0.089 0.05 0.178 0.111 0.265 0.183 0.365 0.302 0.569 0.636 0.603 0.994 0.015 0.162 0 0.35-0.051 0.585 0.208 2.193 0.207 2.796 0.188 3.058-0.02 0.27-0.059 0.487-0.112 0.663 0.454-0.123 0.599-0.148 0.672-0.153 0.36-0.029 0.735 0.082 1.116 0.332l0.019 0.011 0.017 0.014c0.404 0.33 0.617 0.675 0.654 1.055 0.043 0.469-0.284 0.785-0.392 0.888l-0.014 0.013-0.015 0.012c-0.6 0.476-1.22 0.742-1.84 0.792zm-2.176-2.814c0.151 0.012 0.285 0.023 0.404 0.031-0.027-0.038-0.05-0.079-0.072-0.115-0.104 0.03-0.216 0.059-0.332 0.084zm-2.886-0.097c0.211-9e-3 0.432-0.011 0.659-0.014-0.12-0.242-0.222-0.57-0.29-1.015l-9e-3 -0.056 0.058-1.307c-0.02-0.194-0.051-0.383-0.093-0.567-0.145-0.184-0.234-0.417-0.259-0.677-4e-3 -0.05-4e-3 -0.097 0-0.146-0.076 0.027-0.13 0.036-0.174 0.038-0.21 0.018-0.439-0.041-0.694-0.179 0.172 0.23 0.272 0.48 0.297 0.747 0.02 0.216-8e-3 0.518-0.236 0.815-0.037 0.291-0.054 0.443-0.061 0.523 0.029 0.049 0.086 0.137 0.195 0.279 0.381 0.473 0.583 0.884 0.618 1.257 9e-3 0.094 7e-3 0.195-0.011 0.302zm-2.863-4.452c0.09 0.033 0.18 0.095 0.271 0.179 0.4-0.179 0.556-0.224 0.662-0.231 0.174-0.014 0.342 0.012 0.505 0.079-0.109-0.151-0.172-0.321-0.19-0.502-3e-3 -0.02-4e-3 -0.041-5e-3 -0.059l-0.203 0.017c-0.346 0.202-0.695 0.373-1.04 0.517z"/>
   <path id="path890_20_" d="m755.93 80.769c0.075 0.036 0.16 0.051 0.259 0.042 0.332-0.153 0.539-0.231 0.624-0.238 0.245-0.02 0.477 0.083 0.696 0.309 0.166 0.18 0.258 0.371 0.277 0.57 0.019 0.194-0.053 0.372-0.214 0.535-0.066 0.502-0.096 0.781-0.09 0.84 9e-3 0.092 0.114 0.271 0.316 0.53 0.312 0.387 0.481 0.71 0.506 0.97 0.017 0.174-0.065 0.436-0.243 0.788 0.763-0.061 1.639-0.069 2.627-0.019 1.205 0.112 1.927 0.161 2.165 0.142 0.819-0.234 1.288-0.355 1.407-0.364 0.281-0.023 0.575 0.066 0.885 0.271 0.29 0.235 0.447 0.468 0.469 0.693 0.013 0.142-0.072 0.3-0.252 0.474-0.546 0.431-1.096 0.668-1.65 0.712-0.169 0.014-0.603-0.095-1.303-0.325-1.853-0.534-3.263-0.763-4.231-0.685-0.386 0.031-0.777 0.121-1.172 0.271-0.126 0.095-0.241 0.146-0.346 0.153-0.295 0.023-0.486-0.247-0.576-0.81-0.026-0.268 0.042-0.41 0.203-0.423l0.47 0.041c0.434-0.119 0.656-0.428 0.665-0.924-0.012-0.118-0.151-0.36-0.419-0.724-0.13-0.175-0.204-0.363-0.223-0.562l-0.079-0.827c-0.295 0.023-0.497-0.02-0.607-0.129-0.326-0.309-0.509-0.671-0.547-1.08-0.019-0.267 0.014-0.404 0.098-0.411 0.08-5e-3 0.174 0.056 0.285 0.18zm-0.473-3.407 0.465 0.101c0.386-0.031 0.65-3e-3 0.793 0.088 0.355 0.309 0.544 0.593 0.569 0.852 0.038 0.391-0.043 0.633-0.24 0.724l-0.294 0.024c-0.397 0.233-0.792 0.427-1.184 0.58-0.017 9e-3 0.01-0.088 0.01-0.088l0.48-0.868c-0.238-0.207-0.434-0.452-0.589-0.733-0.141-0.141-0.217-0.284-0.231-0.424-0.012-0.157 0.06-0.242 0.221-0.256zm2.514 2.122c0.675-0.314 1.272-0.622 1.788-0.926l0.571-0.46c0.392-0.63 0.716-1.232 0.972-1.807-0.153-0.129-0.235-0.25-0.247-0.36-0.017-0.174 0.13-0.273 0.438-0.298 0.169-0.013 0.362 0.092 0.581 0.319 0.236 0.249 0.364 0.468 0.381 0.65 0.024 0.258-0.212 0.558-0.709 0.901l-0.639 0.645 0.86-0.322c0.27-0.357 0.457-0.541 0.563-0.548 0.609 0.034 0.934 0.248 0.972 0.641 0.032 0.342-0.181 0.548-0.641 0.617-0.842 0.128-1.514 0.312-2.015 0.555l0.077 0.244c0.013 0.134 8e-3 0.298-0.017 0.494l0.823-0.267c0.102-0.11 0.203-0.167 0.302-0.175 0.217-0.018 0.437 0.065 0.659 0.249 0.261 0.216 0.401 0.427 0.422 0.634 0.01 0.118-9e-3 0.284-0.06 0.497 0.157 1.653 0.224 2.669 0.197 3.051-0.047 0.625-0.204 0.949-0.47 0.971-0.225 0.018-0.454-0.235-0.686-0.751-0.388 0.156-0.902 0.259-1.54 0.311-0.063 0.224-0.183 0.342-0.358 0.357-0.358 0.029-0.601-0.372-0.73-1.204l0.058-1.291c-0.027-0.285-0.073-0.558-0.142-0.822-0.124-0.118-0.195-0.27-0.213-0.461-0.013-0.135 0.135-0.327 0.443-0.579 0.217-0.304 0.38-0.603 0.486-0.897-0.862 0.598-1.38 0.906-1.555 0.919-0.175 0.015-0.391-0.063-0.647-0.226-0.256-0.158-0.392-0.327-0.41-0.509-0.015-0.158 0.024-0.244 0.114-0.252 0.121-8e-3 0.243 0.025 0.372 0.1zm1.812-2.568c0.296-0.147 0.583-0.351 0.862-0.617 0.026-0.026 0.039 0.034 0.017 0.089-0.12 0.318-0.258 0.643-0.413 0.971-6e-3 0.528-0.139 0.805-0.398 0.827-0.219 0.017-0.45-0.087-0.698-0.313-0.178-0.169-0.277-0.351-0.295-0.543-0.016-0.166 0.027-0.418 0.13-0.754 0.091-0.303 0.182-0.457 0.273-0.465 0.091-6e-3 0.15 0.12 0.175 0.377 0.07 0.165 0.186 0.306 0.347 0.428zm0.375 4.171c0.385-0.046 0.76-0.137 1.13-0.266l0.141-0.087c0.281 0.052 0.429 0.16 0.443 0.318 0.019 0.201-0.101 0.336-0.364 0.408-0.551 0.44-0.822 0.713-0.812 0.82l1.009-0.321c0.077-6e-3 0.194 0.07 0.35 0.225l-0.176-1.955c-0.583 0.183-0.91 0.276-0.98 0.281-0.106 9e-3 -0.293-0.034-0.564-0.133l-0.414 0.326zm0.828 1.803-0.612-0.091 0.046 0.703zm-0.194-1.159-0.524-0.047 0.062 0.652zm0.703 1.7c0.084-0.143 0.166-0.217 0.243-0.224 0.098-9e-3 0.216 8e-3 0.354 0.047l-0.018-0.755-0.184 0.079c-0.503 0.35-0.953 0.716-1.348 1.09 0.314-0.033 0.631-0.115 0.953-0.237z" fill="#fff"/>
  </g>
 </g>
</svg>
