<?xml version="1.0" encoding="UTF-8"?>
<svg cursor="default" version="1.1" viewBox="0 0 256 256" xmlns="http://www.w3.org/2000/svg" xmlns:cc="http://creativecommons.org/ns#" xmlns:dc="http://purl.org/dc/elements/1.1/" xmlns:rdf="http://www.w3.org/1999/02/22-rdf-syntax-ns#" xmlns:xlink="http://www.w3.org/1999/xlink">
 <metadata>
  <rdf:RDF>
   <cc:Work rdf:about="">
    <dc:format>image/svg+xml</dc:format>
    <dc:type rdf:resource="http://purl.org/dc/dcmitype/StillImage"/>
    <dc:title/>
   </cc:Work>
  </rdf:RDF>
 </metadata>
 <defs>
  <radialGradient id="radialGradient1314" cx="455.48" cy="195.59" r="255.1" gradientTransform="matrix(0 .8001 -.89459 -6.1271e-6 305.28 -331.53)" gradientUnits="userSpaceOnUse">
   <stop stop-color="#ffd5d5" offset="0"/>
   <stop stop-color="#ff8080" offset=".15678"/>
   <stop stop-color="#ff2a2a" offset="1"/>
  </radialGradient>
 </defs>
 <g clip-rule="evenodd">
  <g fill-rule="evenodd">
   <path d="m218.57 228.98c-1.4969-0.50135-4.1128-1.3547-4.1128-1.3547s-2.8035 6.393-4.0308 8.6999c-1.1806 2.2187-3.835 2.0463-5.9812 2.3553-7.4716 1.0765-30.52-0.20535-30.52-0.20535l-22.98-11.472-0.48625-1.5769 0.82827-3.4762-3.811-28.33-17.469-44.889-8.2847 32.067-0.80148 14.766 2.2894 29.532-21.35 10.532-9.6834 0.60506s-5.8806 3.1335-7.5433 3.3498c-30.333 3.9432-31.192-10.136-37.223-11.092l-8.9969 0.0409 2.3801-13.621 1.068-21.149 2.1373-8.4966-0.34339-6.8679 2.7471-33.31 6.2765-37.028 5.5128-28.559s0.77435-13.243 1.5621-16.323c1.8351-7.1707 5.9122-21.406 5.9122-21.406l6.1471-15.726 1.3708-0.56591c19.92 0.8523 75.206 10.982 113.66 0.75753l0.99584 0.38357 2.4776 5.756 2.1946 9.4663s4.0582 7.2751 4.9765 9.2218c0.69022 1.4629 10.512 38.638 10.512 38.638l6.2261 60.368-0.0268 52.563c0-3.4e-4 4.1918 25.599 4.3656 26.348z" fill="#ff2a2a" stroke="#000" stroke-miterlimit="10" stroke-width="1.618"/>
   <path d="m74.761 239.9c-14.02 3.4e-4 -19.126-5.1176-22.505-8.5048-1.6679-1.6716-2.9855-2.9923-4.7852-3.2777l-0.0309-5e-3 -8.569 0.0388 2.3049-13.192 1.0673-21.135 2.1421-8.5155-0.34511-6.8998 2.7451-33.285 6.2724-36.996 5.5159-28.576 0.0014-0.02541c0.0076-0.13221 0.78088-13.242 1.5508-16.25 1.7839-6.9709 5.7405-20.806 5.9043-21.379l6.0808-15.556 1.1411-0.47148c4.5479 0.19986 11.029 0.88836 18.527 1.6854 14.322 1.5219 33.936 3.6063 53.263 3.6063 16.623 0 30.292-1.4783 41.785-4.5187l0.72903 0.2809 2.4 5.576 2.1988 9.4859 0.0264 0.04739c0.0405 0.07246 4.0623 7.2858 4.9648 9.1985 0.53364 1.1311 7.0846 25.689 10.481 38.543l6.2209 60.318-0.0268 52.544 0.25205 24.915c-0.31935 0.72593-2.8502 6.4651-3.9851 8.5982-0.87943 1.6528-2.7344 1.8402-4.5287 2.0216-0.3877 0.0391-0.78809 0.0797-1.1682 0.13461-1.9646 0.28295-5.2155 0.42649-9.6624 0.42649-8.8479 0-19.671-0.57484-20.703-0.63081l-22.762-11.364-0.40727-1.32 0.82071-3.4436-3.8268-28.446-17.918-46.04-8.592 33.257-0.80491 14.829 2.2712 29.298-21.048 10.383-9.6899 0.6054-0.0735 0.0392c-1.6184 0.86226-6.1055 3.1379-7.4122 3.3079-3.5301 0.4598-6.8349 0.69228-9.8217 0.69228z" fill="url(#radialGradient1314)" stroke="#000" stroke-width=".816"/>
   <polygon transform="matrix(.34339 0 0 .34339 -12.3 71.07)" points="545.31 485.51 478.39 452.1 476.97 447.51 479.38 437.39 468.29 354.89 432.99 264.2 470.95 227.72 494.45 244.22" fill="#ff2a2a"/>
   <path d="m65.665 41.772 6.1471-15.726 1.3708-0.56591c19.92 0.8523 75.206 10.982 113.66 0.75753l0.99584 0.38357 2.4776 5.756 2.1946 9.4663-2.5233 0.33756-36.624 4.9267-56.832-1.717-26.621-4.0139z" fill="#1a1a1a" stroke="#000" stroke-miterlimit="10" stroke-width=".816"/>
  </g>
  <path d="m73.437 27.612c4.5033 0.21119 10.877 0.88836 18.231 1.6699 14.345 1.5243 33.99 3.6125 53.374 3.6125 16.555 0 30.211-1.4615 41.724-4.4669" fill="none" stroke="#000" stroke-miterlimit="10" stroke-width=".236"/>
  <polyline transform="matrix(.34339 0 0 .34339 -12.3 71.07)" points="591.35 -92.635 482.23 -77.958 317.32 -82.94 239.54 -94.668 233.39 -94.095" fill="none" stroke="#000" stroke-miterlimit="10" stroke-width=".68726"/>
  <polygon transform="matrix(.34339 0 0 .34339 -12.3 71.07)" points="622.3 210.89 589.3 222.55 572.96 222.55 577.63 219.22 613.3 210.89" fill="#ff2a2a" fill-rule="evenodd"/>
  <polygon transform="matrix(.34339 0 0 .34339 -12.3 71.07)" points="540.95 227.72 550.95 233.22 550.95 235.22 537.29 233.22 517.29 235.22 488.95 235.22 471.61 226.55 482.28 216.72 487.61 219.55 499.58 231.27 517.62 232.22" fill="#ff2a2a" fill-rule="evenodd"/>
 </g>
 <g transform="matrix(.34339 0 0 .34339 -12.3 71.07)">
  <g id="ellipse831_1_">
   <path d="m588.8 436.75c10.383 0.096 20.205 7.818 21.936 17.247s-5.285 16.995-15.668 16.899c-10.383-0.097-20.203-7.818-21.934-17.246-1.731-9.43 5.283-16.996 15.666-16.9z" fill="#ff7f00"/>
   <path d="m595.14 471.29c-10.6-0.098-20.664-8.011-22.43-17.638-1.768-9.628 5.42-17.383 16.02-17.285 10.602 0.098 20.664 8.013 22.43 17.64 1.767 9.627-5.419 17.381-16.02 17.283zm-6.268-34.146c-10.133-0.094-17.002 7.315-15.313 16.516 1.688 9.199 11.305 16.759 21.438 16.853s17.002-7.313 15.314-16.514c-1.691-9.2-11.306-16.762-21.439-16.855z"/>
  </g>
  <g id="g892_1_" transform="matrix(.76426 0 0 .76426 -170.91 -9.4679)">
   <path id="path884_1_" d="m1023 607.47c-2.351-0.022-4.661-0.997-6.869-2.899l-0.018-0.015c-2.251-2.006-4.355-4.678-6.282-7.979-0.386 1.334-1.045 2.577-1.968 3.711l-0.046 0.06-0.056 0.05c-1.651 1.445-3.539 2.801-5.615 4.033-0.378 0.708-0.989 1.507-2.044 1.496-0.514-5e-3 -1.518-0.172-2.428-1.252l-0.026-0.029-0.023-0.031c-0.667-0.88-1.112-1.912-1.324-3.064-0.072-0.399-0.079-0.851-0.018-1.379 0.1-1.294 0.146-2.632 0.135-3.992-0.649-0.719-1.04-1.426-1.165-2.107-0.061-0.349-0.056-0.677 0.018-0.975-0.46-0.109-0.928-0.281-1.398-0.518l-0.036-0.017-0.036-0.022c-1.786-1.009-2.466-1.627-2.602-2.36-0.138-0.75 0.312-1.552 1.613-1.54 0.304 3e-3 0.649 0.068 1.094 0.208l1.901-0.555c-0.033-0.033-0.064-0.072-0.092-0.109-0.184-0.249-0.434-0.759-0.059-1.376l0.087-0.144 0.948-0.719c-0.808-0.5-1.761-1.227-1.935-2.165-0.184-1.004 0.442-1.699 1.523-1.689l0.064 1e-3 1.418 0.149c1.061-0.206 2.055-0.47 2.962-0.788 0.337-0.157 0.654-0.233 0.966-0.23 0.457 4e-3 0.897 0.049 1.311 0.132-0.667-0.561-1.007-1.058-1.104-1.568-0.102-0.563-0.084-1.901 2.323-2.148l0.074-8e-3h0.077c1.058 0.01 2.315 0.543 3.844 1.625l0.018 0.015 0.023 0.015c0.22 0.169 0.424 0.331 0.613 0.486 0.746-0.832 2.627-0.956 3.67-1.023l0.051-4e-3h0.051c0.882 9e-3 1.789 0.254 2.701 0.73l0.056 0.031 0.054 0.034c1.39 0.868 2.2 1.889 2.41 3.032 0.13 0.696 0.02 1.319-0.317 1.849-0.115 0.193-0.296 0.4-0.588 0.556 0.248 0.368 0.419 0.774 0.496 1.206 0.233 1.268-0.457 2.158-1.853 2.379-1.329 0.215-2.622 0.456-3.854 0.723 1.339 4.244 3.519 7.582 6.512 9.957 0.092-1.048 0.041-2.122-0.161-3.214-0.181-0.997-0.463-2.112-0.836-3.316l-0.174-0.571 0.386-0.387c0.202-0.204 0.501-0.317 0.836-0.313 0.429 4e-3 1.058 0.183 1.607 1.016 1.993 3.005 3.55 6.519 4.633 10.45 0.572 0.785 0.912 1.477 1.027 2.112 0.226 1.199-0.339 2.47-2.575 2.45zm-22.783-13.588c-0.049-0.325-0.097-0.641-0.148-0.949l-0.215-0.325c-0.35 0.119-0.687 0.217-1.015 0.303zm3.603-2.649c0.123 0.115 0.235 0.23 0.348 0.344 0.539-0.468 1.066-0.688 1.633-0.682l0.192 3e-3 0.197 0.055c0.307 0.088 0.621 0.184 0.925 0.29-0.125-0.277-0.248-0.558-0.371-0.843-0.969 0.246-1.947 0.525-2.924 0.833zm6.77-7.888c0.184-0.157 0.358-0.272 0.534-0.351-0.189-0.078-0.371-0.158-0.542-0.239z"/>
   <path id="path886_1_" d="m994.06 590.06 12.333-3.592-1.699-5.201c-0.986-0.641-1.503-1.13-1.567-1.467-0.105-0.574 0.373-0.915 1.434-1.025 0.733 6e-3 1.722 0.452 2.962 1.333 1.107 0.84 1.694 1.448 1.763 1.823l0.038 2.52 0.23 1.247 1.114-0.465c0.606-0.824 1.038-1.234 1.296-1.233 2.576 0.143 3.982 0.866 4.222 2.174 0.13 0.712-0.215 1.135-1.03 1.265-1.74 0.28-3.391 0.601-4.945 0.962 1.607 5.804 4.608 10.089 9.001 12.856 0.409-1.675 0.445-3.414 0.112-5.215-0.189-1.045-0.48-2.194-0.866-3.445 0 0 0.105-0.105 0.383 0.31 1.955 2.958 3.468 6.394 4.523 10.314 0.537 0.696 0.854 1.292 0.943 1.786 0.164 0.891-0.35 1.33-1.538 1.32-1.993-0.019-3.948-0.856-5.873-2.516-3.591-3.193-6.752-8.132-9.491-14.815-1.97 0.456-3.948 1.029-5.937 1.724 1.119 0.8 1.97 1.607 2.55 2.424l0.746-0.349c0.47-0.51 0.877-0.764 1.222-0.76 1.436 0.41 2.2 0.811 2.295 1.208 0.189 1.029-1.145 1.708-3.997 2.037l0.069 3.023c1.825-0.903 3.281-2.26 4.362-4.065 0.077-0.13 0.197 0.11 0.169 0.359-0.212 1.811-0.917 3.447-2.108 4.913-1.677 1.467-3.575 2.823-5.702 4.067-0.391 0.806-0.795 1.208-1.204 1.204-0.452-4e-3 -0.874-0.235-1.262-0.693-0.542-0.717-0.9-1.559-1.078-2.53-0.056-0.295-0.056-0.662-5e-3 -1.095 0.115-1.482 0.161-3.003 0.135-4.564-0.687-0.657-1.078-1.264-1.178-1.817-0.069-0.376-8e-3 -0.682 0.189-0.919 0.174-0.216 0.317-0.322 0.427-0.321 0.238 1e-3 0.422 0.192 0.557 0.569l2.047 1.441c0.422 0.319 0.667 0.648 0.731 0.984 0.051 0.279-0.153 1.748-0.616 4.41 0.836-0.268 1.666-0.567 2.489-0.894-0.263-0.497-0.424-0.914-0.486-1.25-0.087-1.997-0.279-3.796-0.572-5.399l-1.027-1.551c-1.567 0.638-2.929 0.951-4.074 0.94-0.585-6e-3 -1.196-0.17-1.837-0.491-1.206-0.684-1.832-1.154-1.878-1.411-0.051-0.277 0.141-0.413 0.572-0.409 0.218 4e-3 0.568 0.096 1.056 0.279zm5.15-4.429c-0.785-0.143-1.362-0.298-1.738-0.459-0.92-0.543-1.416-1.002-1.485-1.379-0.066-0.376 0.092-0.562 0.48-0.558l1.554 0.164c1.211-0.226 2.333-0.521 3.368-0.887 0.197-0.097 0.36-0.146 0.491-0.144 0.693 6e-3 1.308 0.121 1.845 0.342 0.667 0.342 1.043 0.75 1.13 1.225 0.077 0.417-0.143 0.73-0.664 0.942l-2.561 0.897c-1.595 0.769-3.217 1.407-4.868 1.908-0.13 0.04 0.013-0.193 0.013-0.193zm13.621-5.741c0.649 6e-3 1.319 0.19 2.011 0.551 1.025 0.644 1.607 1.349 1.751 2.122 0.082 0.455 0.013 0.848-0.202 1.182-0.13 0.235-0.422 0.351-0.877 0.348-0.455-4e-3 -0.953-0.187-1.495-0.547-0.685-0.558-1.434-1.039-2.241-1.443-1.257-0.505-1.914-0.906-1.968-1.204-0.1-0.534 0.907-0.87 3.021-1.009z" fill="#fff"/>
   <path id="path888_1_" d="m1024.6 634.19c-0.488-5e-3 -1.406-0.141-4.488-1.109-5.645-1.605-9.946-2.434-12.788-2.46-1.043-0.01-2.108 0.1-3.169 0.323-0.498 0.236-0.981 0.349-1.472 0.345-0.759-8e-3 -2.602-0.323-3.335-3.102l-0.01-0.042-8e-3 -0.042c-0.284-1.542 0.693-2.08 1.613-2.073l0.084 1e-3 1.344 0.176c0.67-0.129 0.871-0.418 0.902-0.837-0.107-0.153-0.376-0.497-1.025-1.169-0.611-0.631-0.992-1.319-1.124-2.038l-0.166-0.916c-0.644-0.118-1.147-0.332-1.559-0.654-1.339-1.02-2.142-2.19-2.377-3.477l-8e-3 -0.034c-0.171-1.145 0.179-1.655 0.585-1.878l-0.396-0.441c-0.491-0.556-0.317-1.114-0.261-1.297l0.038-0.137 0.894-1.256c-0.432-0.388-0.825-0.806-1.165-1.25-0.639-0.544-1.017-1.123-1.124-1.721-0.156-0.85 0.304-1.699 1.679-1.687l0.158 1e-3 1.459 0.34c1.393 0.024 2.326 0.198 3.003 0.558l0.092 0.047 0.082 0.057c1.482 1.041 2.29 2.018 2.469 2.989 0.089 0.498 0.089 0.912 0.028 1.25 0.286 0.033 0.578 0.1 0.869 0.201 1.232-0.362 2.379-0.727 3.427-1.094-0.181-0.112-0.365-0.235-0.547-0.367l-0.028-0.02c-0.871-0.662-1.385-1.394-1.526-2.172-0.11-0.586-0.01-1.299 0.327-2.246 0.174-0.498 0.583-1.673 1.786-1.661 0.373 3e-3 1.567 0.148 1.991 1.798 0 0 0.01 0.014 0.013 0.019 0.562-0.231 1.114-0.529 1.648-0.891 0.194-0.132 0.432-0.201 0.693-0.198 0.041 0 0.084 3e-3 0.128 6e-3 0.033-0.557 0.406-1.401 2.377-1.383 0.866 9e-3 1.812 0.423 2.806 1.234l0.015 0.013c1.04 0.869 1.61 1.651 1.748 2.396 0.038 0.216 0.038 0.42 0 0.616 2.622 0.552 3.274 1.898 3.424 2.706 0.125 0.689 0.1 2.306-2.862 2.444-0.296 0.013-0.585 0.027-0.866 0.045 0.281 0.135 0.562 0.298 0.843 0.486 1.173 0.787 1.85 1.619 2.006 2.469 0.069 0.385 0.046 0.822-0.074 1.367 0.948 5.197 1.03 6.611 1.009 7.222-0.026 0.626-0.118 1.132-0.256 1.537 1.388-0.188 1.837-0.22 2.062-0.217 1.109 0.01 2.285 0.354 3.496 1.02l0.061 0.033 0.054 0.037c1.296 0.861 2.004 1.72 2.17 2.623 0.204 1.109-0.767 1.78-1.086 2l-0.041 0.029-0.046 0.024c-1.786 0.984-3.664 1.475-5.581 1.457zm-7.133-7.082c0.47 0.061 0.887 0.115 1.257 0.161-0.087-0.097-0.166-0.194-0.24-0.29-0.319 0.051-0.659 0.095-1.017 0.129zm-8.947-0.853c0.657 0.027 1.334 0.064 2.037 0.111-0.404-0.592-0.764-1.386-1.038-2.447l-0.038-0.133v-3.06c-0.089-0.46-0.212-0.912-0.365-1.352-0.475-0.466-0.782-1.029-0.897-1.651-0.023-0.118-0.028-0.23-0.023-0.34-0.233 0.047-0.394 0.055-0.534 0.054-0.647-5e-3 -1.36-0.193-2.175-0.571 0.565 0.576 0.91 1.186 1.025 1.821 0.095 0.506 0.049 1.213-0.613 1.86-0.074 0.68-0.105 1.036-0.115 1.22 0.095 0.118 0.281 0.336 0.644 0.695 1.247 1.193 1.927 2.203 2.09 3.088 0.041 0.222 0.046 0.455 0 0.705zm-9.486-11.081c0.284 0.102 0.57 0.263 0.864 0.483 1.214-0.339 1.689-0.409 2.014-0.405 0.537 5e-3 1.063 0.104 1.579 0.3-0.36-0.385-0.583-0.792-0.662-1.228-0.01-0.045-0.015-0.091-0.02-0.133l-0.626-5e-3c-1.046 0.395-2.104 0.724-3.149 0.988z"/>
   <path id="path890_1_" d="m999.39 616.67c0.233 0.101 0.503 0.153 0.808 0.157 1.004-0.287 1.638-0.432 1.896-0.429 0.759 8e-3 1.492 0.303 2.2 0.882 0.542 0.46 0.854 0.925 0.94 1.402 0.084 0.456-0.112 0.857-0.588 1.21-0.13 1.164-0.187 1.816-0.158 1.954 0.038 0.217 0.391 0.656 1.05 1.314 1.02 0.977 1.59 1.774 1.702 2.387 0.074 0.417-0.138 1.016-0.641 1.803 2.356 0.022 5.068 0.194 8.132 0.518 3.744 0.529 5.985 0.797 6.721 0.805 2.505-0.373 3.938-0.558 4.306-0.555 0.864 8e-3 1.789 0.285 2.778 0.827 0.933 0.621 1.447 1.199 1.546 1.733 0.061 0.336-0.176 0.691-0.713 1.061-1.628 0.893-3.299 1.333-5.006 1.317-0.519-5e-3 -1.878-0.355-4.079-1.047-5.811-1.653-10.21-2.496-13.197-2.522-1.188-0.012-2.387 0.118-3.591 0.382-0.376 0.194-0.726 0.29-1.048 0.286-0.912-8e-3 -1.544-0.685-1.899-2.033-0.115-0.631 0.077-0.947 0.575-0.942l1.459 0.192c1.329-0.185 1.97-0.86 1.929-2.028-0.051-0.277-0.519-0.874-1.398-1.79-0.427-0.438-0.68-0.896-0.769-1.37l-0.358-1.96c-0.91-9e-3 -1.544-0.153-1.896-0.433-1.053-0.799-1.669-1.684-1.848-2.654-0.095-0.634-0.013-0.949 0.248-0.947 0.237 1e-3 0.539 0.164 0.899 0.48zm-1.942-8.106 1.457 0.339c1.191 0.011 2.011 0.137 2.466 0.378 1.14 0.801 1.768 1.508 1.881 2.122 0.171 0.929-0.043 1.481-0.636 1.652l-0.91-8e-3c-1.199 0.461-2.389 0.832-3.58 1.112-0.051 0.014 0.018-0.208 0.018-0.208l1.367-1.932c-0.769-0.541-1.411-1.158-1.929-1.854-0.452-0.36-0.71-0.708-0.774-1.044-0.071-0.377 0.144-0.562 0.64-0.557zm8.081 5.527c2.047-0.593 3.849-1.188 5.405-1.788l1.702-0.961c1.124-1.393 2.044-2.74 2.757-4.037-0.493-0.34-0.764-0.639-0.81-0.897-0.077-0.414 0.358-0.618 1.314-0.609 0.519 5e-3 1.132 0.298 1.845 0.878 0.764 0.639 1.188 1.177 1.268 1.611 0.112 0.612-0.578 1.268-2.07 1.966l-1.886 1.375 2.617-0.567c0.785-0.783 1.339-1.173 1.664-1.17 1.899 0.215 2.931 0.787 3.102 1.719 0.148 0.811-0.483 1.25-1.896 1.314-2.591 0.116-4.646 0.403-6.162 0.862l0.271 0.597c0.061 0.314 0.066 0.7 0.02 1.155l2.51-0.451c0.299-0.235 0.603-0.35 0.907-0.348 0.67 6e-3 1.362 0.249 2.078 0.73 0.836 0.562 1.301 1.091 1.393 1.584 0.051 0.277 0.01 0.663-0.112 1.155 0.718 3.92 1.063 6.323 1.03 7.211-0.054 1.463-0.496 2.19-1.316 2.182-0.693-6e-3 -1.434-0.647-2.231-1.917-1.178 0.285-2.752 0.418-4.723 0.399-0.164 0.514-0.516 0.767-1.058 0.762-1.101-0.01-1.909-1.004-2.425-2.986v-3.022c-0.123-0.675-0.307-1.326-0.555-1.961-0.399-0.302-0.641-0.677-0.726-1.135-0.056-0.316 0.371-0.737 1.293-1.261 0.631-0.666 1.091-1.334 1.38-2.002-2.584 1.22-4.145 1.829-4.687 1.823-0.542-5e-3 -1.219-0.229-2.037-0.671-0.813-0.422-1.255-0.851-1.334-1.285-0.072-0.376 0.036-0.563 0.317-0.561 0.367 1e-3 0.753 0.105 1.16 0.306zm5.249-5.642c0.894-0.281 1.753-0.702 2.581-1.263 0.077-0.054 0.125 0.089 0.066 0.215-0.327 0.723-0.71 1.452-1.142 2.189 0.056 1.245-0.319 1.863-1.119 1.857-0.672-6e-3 -1.403-0.3-2.203-0.88-0.578-0.44-0.907-0.888-0.992-1.342-0.072-0.397 0.026-0.979 0.296-1.745 0.24-0.691 0.501-1.034 0.782-1.031s0.48 0.31 0.59 0.924c0.249 0.398 0.627 0.755 1.141 1.076zm1.748 9.885c1.183-0.029 2.338-0.156 3.46-0.383l0.422-0.174c0.877 0.185 1.349 0.469 1.418 0.843 0.087 0.474-0.268 0.767-1.068 0.879-1.648 0.915-2.451 1.498-2.402 1.754l3.079-0.534c0.238 3e-3 0.611 0.204 1.114 0.604l-0.818-4.632c-1.779 0.3-2.781 0.449-2.995 0.447-0.325-4e-3 -0.912-0.147-1.766-0.432l-1.237 0.67zm2.816 4.411-1.909-0.342 0.24 1.661zm-0.764-2.761-1.63-0.224 0.284 1.544zm2.412 4.14c0.245-0.312 0.486-0.469 0.723-0.466 0.302 3e-3 0.67 0.066 1.104 0.188l-0.166-1.78-0.555 0.144c-1.513 0.714-2.852 1.473-4.02 2.273 0.97-0.01 1.941-0.13 2.914-0.359z" fill="#fff"/>
  </g>
 </g>
 <polyline transform="matrix(.34339 0 0 .34339 -12.3 71.07)" points="467.61 -58.779 473.95 28.219 469.28 36.886 467.61 58.886 455.61 82.552 429.28 95.552 419.95 97.721" clip-rule="evenodd" fill="none" stroke="#000" stroke-miterlimit="10" stroke-width="2.3763"/>
 <polyline transform="matrix(.34339 0 0 .34339 -12.3 71.07)" points="461.98 -58.779 467.95 23.219 463.28 31.886 461.61 53.886 449.61 77.552 419.95 91.327" clip-rule="evenodd" fill="none" stroke="#000" stroke-miterlimit="10" stroke-width=".68726"/>
 <path d="m41.415 202.6" stroke-width=".34339"/>
 <g clip-rule="evenodd" fill="#ff2a2a" fill-rule="evenodd">
  <polygon transform="matrix(.34339 0 0 .34339 -12.3 71.07)" points="527.28 134.89 550.95 133.89 555.95 126.89 533.61 114.89 493.95 113.22 471.61 116.72 450.45 131.72 438.95 130.22 431.99 133.55 434.28 137.89 431.99 204.89 446.95 186.89 451.95 145.89 497.95 131.89"/>
  <polygon transform="matrix(.34339 0 0 .34339 -12.3 71.07)" points="310.28 174.55 290.94 170.55 282.28 170.55 289.61 159.05 323.28 133.89 330.28 133.89 333.28 127.22 355.95 119.22 393.7 106.22 394.2 102.72 380.95 102.35 385.32 100.35 414.32 95.846 425.7 121.72 429.7 211.47 419.95 230.97 411.41 224.17 387.29 317.55 384.95 360.55 391.62 446.55 329.45 477.22 301.25 478.98 328.95 314.22 393.28 269.89 377.95 251.89 396.61 225.72 374.28 210.89 362.61 210.55 360.2 208.47 372.7 199.97 387.45 198.97 393.45 202.89 403.45 202.89 383.95 157.05 388.61 154.89 383.28 146.89 373.94 143.22 367.94 150.55 353.94 139.22 346.94 137.89 326.94 159 313.61 164.89"/>
  <polygon transform="matrix(.34339 0 0 .34339 -12.3 75.07)" points="382.3 11.219 346.57 5.303 339.88 -13.029 315.24 -16.568 311.21 -19.448 275.53 -39.355 260.72 -49.455 257.06 -53.778 337.23 -23.71 358.37 -9.524 378.47 -3.301 382.34 5.125 385.29 6.14 386.2 10.375"/>
  <polygon transform="matrix(.34339 0 0 .34339 -16.466 73.516)" points="312.2 9.721 359.95 29.721 407.57 36.221 403.95 32.721 372.7 26.595 313.32 0.721 291.28 -20.279 235.7 -34.779 241.2 -30.029 265.95 -22.029 270.2 -10.529 306.95 12.221"/>
 </g>
 <path d="m49.742 125.38 2.9364-17.323 0.0807 0.0285c1.194-3.617 2.752-7.5186 4.6908-11.747-2.7344 11.581-2.014 18.949 2.1493 21.924 1.8052 1.2894 3.6352 1.6394 5.439 1.0401 3.5864-1.1919 6.4792-5.6818 8.5996-13.346 0.44126-1.5961 0.80217-3.1572 1.0906-4.5537 3.0723 4.4445 7.4461 14.224 4.0146 31.32-1.8677 9.3115-4.7787 18.402-7.3462 26.422-4.8257 15.075-8.6367 26.981-2.094 30.52 1.4711 0.79564 3.061 0.91892 4.7251 0.36606 3.0033-0.99756 6.0283-4.1983 8.5186-9.012 2.1757-4.2073 3.9198-9.6772 4.5781-14.76 0.8966 2.9813 1.7692 7.3102 2.3581 13.584 0.91205 9.7359 1.3997 15.955-0.01374 20.936-1.2719 4.4813-4.1029 8.4746-11.218 15.825-5.3332 5.5101-10.137 13.028-14.311 22.39l1e-3 2e-3c-10.666-2.9154-11.676-10.532-15.845-11.193l-8.9969 0.0409 2.3801-13.621 1.068-21.149 2.1373-8.4966-0.68679-6.1811 1.7908-21.712-0.34374-3.4e-4c0.13598 0.18234 0.27094 0.36949 0.40486 0.56144 4.2155 6.0454 5.3381 13.754 3.3368 22.91-1.2039 5.507-2.4618 10.637-3.5713 15.163-3.094 12.616-5.1382 20.951-2.9051 24.435 0.80698 1.2589 2.094 1.809 3.8261 1.6342 0.25102-0.0254 0.50857-0.0814 0.76542-0.16621 1.5865-0.52745 3.0586-2.0755 4.3755-4.6022 3.0988-5.9452 5.8734-18.692 7.0677-32.473 1.3207-15.233 0.45946-28.133-2.3615-35.39-0.51578-1.3258-1.0374-2.6163-1.5415-3.8642-2.6132-6.4699-4.9325-12.21-5.0997-19.518z" fill="#ffb380" stroke-width=".34339"/>
 <path d="m84.575 139.55c0.16071 0.58034 0.45362 1.0862 0.80354 1.6181 0.67408 1.0254 1.3712 2.0861 1.011 5.0287-0.30013 2.4494-1.4927 4.9445-3.5469 7.4276 0.87188-2.5178 1.4666-5.5753 0.78225-8.4276-0.41276-1.7218-0.09306-3.6159 0.95017-5.6468" fill="#ffb380" stroke-width=".34339"/>
 <path d="m84.575 139.55c0.16071 0.58034 0.45362 1.0862 0.80354 1.6181 0.67408 1.0254 1.3712 2.0861 1.011 5.0287-0.30013 2.4494-1.4927 4.9445-3.5469 7.4276 0.87188-2.5178 1.4666-5.5753 0.78225-8.4276-0.41276-1.7218-0.09306-3.6159 0.95017-5.6468m1.9927-4.6911c-1.6215 1.718-5.4473 6.372-4.3309 11.025 1.0343 4.313-1.16 9.2208-2.3904 11.511l-0.01408 0.73693c1.9731-1.583 7.237-6.315 7.9636-12.248 0.8396-6.8569-3.6901-5.0472-1.1562-10.498z" fill="#ffe680" stroke="#000" stroke-miterlimit="10" stroke-width=".316"/>
 <path d="m48.097 227.81-8.9969 0.0409 2.3801-13.621 1.068-21.149 2.1373-8.4966 0.86776 10.996s-3.6252 22.419-2.6946 23.114c0.9306 0.69468 4.6344 1.4656 4.6344 1.4656z" clip-rule="evenodd" fill="#ff7f2a" fill-rule="evenodd" stroke-width=".34339"/>
 <path d="m45.445 156.69c0.13598 0.18234 0.27094 0.36949 0.40486 0.56144 4.2155 6.0454 5.3381 13.754 3.3368 22.91-1.2039 5.507-2.4618 10.637-3.5713 15.163-3.094 12.616-5.1382 20.951-2.9051 24.435 0.80698 1.2589 2.094 1.809 3.8261 1.6342 0.25102-0.0254 0.50857-0.0814 0.76542-0.16621 1.5865-0.52745 3.0586-2.0755 4.3755-4.6022 3.0988-5.9452 5.8734-18.692 7.0677-32.473 1.3207-15.233 0.45946-28.133-2.3615-35.39-0.51578-1.3258-1.0374-2.6163-1.5415-3.8642-2.6125-6.4682-4.9311-12.207-5.0997-19.513l-1.2726 7.5042c1.2005 6.0097 3.6551 11.251 6.0283 17.355 6.9287 17.821-0.16655 66.412-7.1326 68.726-0.11881 0.0395-0.23934 0.0656-0.3585 0.0776-7.076 0.71357-1.0824-15.196 4.1283-39.031 3.0356-13.887-1.2692-22.278-5.3916-26.864zm12.005-60.346c-2.7344 11.581-2.014 18.949 2.1493 21.924 1.8052 1.2894 3.6352 1.6394 5.439 1.0401 3.5864-1.1919 6.4792-5.6818 8.5996-13.346 0.44126-1.5961 0.80217-3.1572 1.0906-4.5537 3.0723 4.4445 7.4461 14.224 4.0146 31.32-1.8677 9.3115-4.7787 18.402-7.3462 26.422-4.8257 15.075-8.6367 26.981-2.094 30.52 1.4711 0.79564 3.061 0.91892 4.7251 0.36606 3.0033-0.99756 6.0283-4.1983 8.5186-9.012 2.1757-4.2073 3.9198-9.6772 4.5781-14.76 0.8966 2.9813 1.7692 7.3102 2.3581 13.584 0.91205 9.7359 1.3997 15.955-0.01374 20.936-1.2719 4.4813-4.1029 8.4746-11.218 15.825-5.3336 5.5104-14.311 22.391-14.311 22.391l1.7705 0.4258s7.747-15.259 13.577-21.281c14.018-14.482 14.135-18.614 12.2-39.257-1.137-12.118-3.3354-17.395-4.9579-19.686l-1.5308-0.23694c2.0356 8.8098-4.0799 26.546-10.907 28.814-1.1624 0.38632-2.3454 0.32382-3.5126-0.30699-8.4382-4.5647 4.8432-28.626 10.123-54.941 5.2807-26.317-7.042-36.14-7.042-36.14s-2.2935 18.578-8.5587 20.66c-1.2118 0.4028-2.5744 0.1875-4.096-0.89969-6.2398-4.4579-1.899-20.752 1.7122-31.176l-0.43851-2.1129c-3.1733 5.8075-5.7292 10.989-7.7593 15.655l-1.9402 10.123c1.2166-3.7705 2.833-7.8531 4.8707-12.297" fill="#ffe680" stroke="#000" stroke-miterlimit="10" stroke-width=".316"/>
 <g clip-rule="evenodd">
  <polygon transform="matrix(.32097 .12205 -.12205 .32097 14.335 22.946)" points="403.56 116.07 406.5 117.96 332.51 124.57 348 120.21 361.3 119.29 349.92 115.12 258.59 129.08 244.25 124.57 317.17 95.151 268.34 82.457 275.84 80.79 335.59 88.71 399.05 89.229 402.84 90.71 377.34 94.46 372.07 101.48 382.09 104.71 386.09 116.71" fill="#ff2a2a" fill-rule="evenodd"/>
  <polyline transform="matrix(.34339 0 0 .34339 -10.093 59.971)" points="409.16 -26.446 410.41 -17.446 409.16 -6.446 411.66 92.054 410.41 114.3 413.16 118.55 409.16 130.05" fill="none" stroke="#000" stroke-miterlimit="10" stroke-width="1.2143"/>
  <path d="m138.08 53.734c-6.8438 0-13.502-0.75718-13.967-0.8111h-0.0106c-0.57416 0-5.6986-0.24072-8.6923-8.5783l-0.0175-0.04911-1.1789-15.558 7.9664-0.60369 35.816 1.4859-0.35473 14.951-0.0127 0.04567c-0.0199 0.07246-2.1064 7.2631-11.076 8.5975-2.3182 0.34511-5.1688 0.5199-8.4726 0.5199z" fill="#ff8080" fill-rule="evenodd" stroke="#000" stroke-width=".816"/>
 </g>
 <path d="m41.291 202.61" stroke-width=".34339"/>
 <polygon transform="matrix(.34339 0 0 .34339 -10.093 59.971)" points="427.84 171.12 425.55 238.12 440.5 220.12 445.5 179.12 491.5 165.12 520.84 168.12 544.51 167.12 549.5 160.12 527.17 148.12 487.5 146.46 465.17 149.96 444 164.96 432.5 163.46 425.55 166.79" clip-rule="evenodd" fill="#ff2a2a" fill-rule="evenodd"/>
 <polygon transform="matrix(.34339 0 0 .34339 -10.093 59.971)" points="465.51 5.456 478.84 -3.877 484.07 -12.544 503.51 -12.544 530.26 -18.79 539.5 -14.79 514.5 -8.79 506.5 -2.29 469.5 6.71" clip-rule="evenodd" fill="#ff2a2a" fill-rule="evenodd"/>
 <g transform="matrix(.34339 0 0 .34339 -12.3 71.07)">
  <path d="m429.88-76.018c-2.547 0.016-4.869-1.104-6.9-3.325l-0.02-0.019c-2.061-2.345-3.828-5.481-5.287-9.373-0.676 1.594-1.629 3.083-2.848 4.447l-0.064 0.07-0.07 0.061c-2.07 1.746-4.38 3.391-6.871 4.892-0.546 0.846-1.362 1.805-2.507 1.812-0.559 3e-3 -1.616-0.18-2.396-1.446l-0.021-0.035-0.02-0.036c-0.553-1.034-0.838-2.251-0.846-3.617-4e-3 -0.472 0.076-1.008 0.242-1.639 0.359-1.538 0.666-3.132 0.915-4.747-0.565-0.842-0.854-1.674-0.858-2.482-3e-3 -0.415 0.066-0.804 0.203-1.158-0.478-0.121-0.951-0.319-1.415-0.59l-0.038-0.021-0.035-0.023c-1.742-1.169-2.362-1.891-2.367-2.759-6e-3 -0.889 0.633-1.85 2.046-1.858 0.327-2e-3 0.69 0.07 1.146 0.229l2.17-0.691c-0.027-0.042-0.053-0.085-0.076-0.13-0.152-0.292-0.327-0.893 0.199-1.633l0.123-0.171 1.165-0.873c-0.78-0.578-1.676-1.427-1.683-2.538-7e-3 -1.19 0.805-2.026 1.975-2.034h0.072l1.514 0.152c1.187-0.263 2.317-0.595 3.364-0.988 0.398-0.193 0.758-0.289 1.094-0.291 0.496-3e-3 0.965 0.042 1.4 0.133-0.617-0.654-0.895-1.238-0.898-1.843-4e-3 -0.668 0.275-2.257 2.936-2.593l0.08-0.01h0.082c1.148-7e-3 2.41 0.602 3.859 1.862l0.021 0.018 0.02 0.019c0.209 0.197 0.4 0.385 0.572 0.565 0.969-1.001 3.039-1.182 4.186-1.281l0.055-5e-3h0.055c0.955-5e-3 1.896 0.27 2.793 0.82l0.055 0.034 0.053 0.04c1.342 1.008 2.023 2.208 2.033 3.562 4e-3 0.827-0.23 1.568-0.699 2.203-0.16 0.232-0.398 0.482-0.744 0.673 0.199 0.432 0.305 0.911 0.309 1.422 8e-3 1.503-0.914 2.573-2.471 2.861-1.486 0.277-2.938 0.587-4.326 0.924 0.639 5.02 2.367 8.948 5.156 11.718 0.305-1.246 0.453-2.522 0.445-3.815-8e-3 -1.181-0.098-2.501-0.268-3.926l-0.082-0.675 0.492-0.468c0.26-0.248 0.605-0.385 0.969-0.387 0.467-3e-3 1.113 0.2 1.553 1.178 1.582 3.538 2.6 7.687 3.02 12.337 0.475 0.921 0.707 1.739 0.713 2.49 5e-3 1.421-0.851 2.943-3.275 2.958zm-22.128-15.75c0.013-0.385 0.018-0.76 0.019-1.125l-0.17-0.38c-0.4 0.145-0.787 0.271-1.159 0.376zm4.423-3.209c0.107 0.133 0.213 0.268 0.311 0.402 0.676-0.566 1.291-0.835 1.902-0.839l0.209-1e-3 0.201 0.062c0.32 0.099 0.641 0.207 0.951 0.329-0.082-0.329-0.162-0.661-0.24-0.997-1.101 0.314-2.215 0.661-3.334 1.044zm8.867-9.49c0.229-0.191 0.439-0.332 0.645-0.429-0.189-0.09-0.371-0.182-0.543-0.275z"/>
  <path d="m401.82-96.201 14.081-4.483-0.846-6.152c-0.943-0.744-1.414-1.316-1.416-1.715-6e-3 -0.68 0.578-1.094 1.75-1.242 0.797-5e-3 1.785 0.505 2.965 1.53 1.037 0.979 1.559 1.691 1.561 2.136l-0.439 2.994 8e-3 1.478 1.299-0.57c0.814-0.991 1.363-1.486 1.645-1.488 2.768 0.124 4.158 0.96 4.168 2.507 4e-3 0.845-0.451 1.352-1.363 1.522-1.945 0.363-3.795 0.773-5.551 1.229 0.625 6.869 3.061 11.908 7.303 15.119 0.762-1.998 1.137-4.064 1.123-6.199-6e-3 -1.238-0.1-2.598-0.279-4.079 0 0 0.135-0.127 0.354 0.363 1.559 3.48 2.537 7.538 2.932 12.176 0.451 0.818 0.678 1.521 0.682 2.106 6e-3 1.056-0.635 1.588-1.924 1.596-2.158 0.013-4.125-0.949-5.895-2.885-3.283-3.732-5.77-9.546-7.457-17.439-2.227 0.576-4.484 1.293-6.778 2.152 1.061 0.931 1.829 1.876 2.305 2.835l0.877-0.428c0.605-0.613 1.096-0.921 1.471-0.923 1.48 0.461 2.234 0.925 2.26 1.394 8e-3 1.219-1.57 2.05-4.734 2.492l-0.506 3.591c2.16-1.106 4-2.743 5.52-4.907 0.109-0.156 0.193 0.128 0.113 0.424-0.576 2.155-1.654 4.113-3.232 5.875-2.1 1.771-4.423 3.417-6.971 4.933-0.581 0.965-1.094 1.448-1.539 1.451-0.493 3e-3 -0.904-0.264-1.236-0.801-0.45-0.842-0.68-1.837-0.688-2.986-2e-3 -0.353 0.066-0.787 0.205-1.303 0.41-1.763 0.752-3.57 1.022-5.425-0.615-0.77-0.925-1.483-0.929-2.14-2e-3 -0.445 0.123-0.811 0.381-1.093 0.234-0.259 0.408-0.389 0.525-0.39 0.258-1e-3 0.424 0.22 0.496 0.665l1.945 1.677c0.4 0.374 0.603 0.759 0.605 1.157 2e-3 0.329-0.504 2.079-1.516 5.251 0.959-0.333 1.918-0.702 2.877-1.107-0.191-0.585-0.287-1.077-0.29-1.476 0.29-2.371 0.431-4.505 0.419-6.406l-0.819-1.824c-1.825 0.785-3.359 1.182-4.603 1.189-0.633 4e-3 -1.268-0.181-1.902-0.552-1.18-0.79-1.768-1.338-1.77-1.643-2e-3 -0.329 0.23-0.494 0.701-0.497 0.233 0 0.596 0.104 1.09 0.311zm6.442-5.351c-0.822-0.158-1.422-0.331-1.798-0.517-0.896-0.627-1.344-1.165-1.347-1.611-2e-3 -0.444 0.207-0.669 0.63-0.672l1.654 0.166c1.358-0.29 2.635-0.661 3.828-1.113 0.234-0.119 0.422-0.179 0.563-0.18 0.75-4e-3 1.395 0.121 1.938 0.376 0.658 0.394 0.99 0.873 0.994 1.436 2e-3 0.492-0.301 0.87-0.908 1.131l-2.949 1.108c-1.883 0.945-3.767 1.729-5.653 2.353-0.15 0.05 0.049-0.229 0.049-0.229zm15.895-7.063c0.703-4e-3 1.395 0.203 2.078 0.621 0.99 0.745 1.488 1.574 1.494 2.488 2e-3 0.541-0.146 1.01-0.449 1.41-0.186 0.282-0.525 0.426-1.018 0.429-0.494 3e-3 -0.998-0.206-1.518-0.625-0.637-0.652-1.357-1.21-2.156-1.675-1.27-0.578-1.906-1.044-1.908-1.396-4e-3 -0.632 1.154-1.049 3.477-1.252z" fill="#fff"/>
  <path d="m460.87-75.145c-0.531 3e-3 -1.5-0.142-4.66-1.238-5.822-1.81-10.334-2.718-13.412-2.699-1.131 7e-3 -2.309 0.155-3.504 0.44-0.586 0.29-1.133 0.432-1.662 0.436-0.822 5e-3 -2.766-0.339-3.025-3.629l-4e-3 -0.049-2e-3 -0.05c-0.01-1.83 1.15-2.486 2.148-2.492h0.092l1.426 0.186c0.754-0.164 1.027-0.511 1.139-1.009-0.086-0.18-0.313-0.585-0.883-1.372-0.545-0.738-0.828-1.549-0.832-2.402l-8e-3 -1.084c-0.67-0.129-1.18-0.376-1.564-0.75-1.26-1.189-1.902-2.565-1.912-4.089v-0.042c0.033-1.358 0.512-1.97 0.994-2.242l-0.346-0.519c-0.426-0.65-0.131-1.317-0.033-1.537l0.07-0.161 1.209-1.509c-0.395-0.456-0.738-0.945-1.025-1.466-0.588-0.635-0.887-1.315-0.891-2.024-6e-3 -1.007 0.656-2.027 2.15-2.036l0.172-1e-3 1.518 0.379c1.508 4e-3 2.486 0.194 3.156 0.611l0.088 0.054 0.078 0.068c1.408 1.211 2.098 2.358 2.105 3.507 2e-3 0.593-0.076 1.082-0.207 1.486 0.303 0.034 0.605 0.108 0.902 0.225 1.408-0.453 2.723-0.909 3.93-1.364-0.174-0.129-0.35-0.271-0.521-0.425l-0.025-0.023c-0.82-0.773-1.238-1.633-1.244-2.555-4e-3 -0.694 0.246-1.543 0.789-2.674 0.285-0.597 0.955-1.998 2.26-2.006 0.404-2e-3 1.674 0.148 1.814 2.102 4e-3 8e-3 0.01 0.015 0.014 0.023 0.654-0.285 1.311-0.649 1.959-1.088 0.236-0.161 0.508-0.246 0.789-0.248 0.047 0 0.094 1e-3 0.139 6e-3 0.143-0.663 0.711-1.671 2.844-1.685 0.943-5e-3 1.889 0.471 2.813 1.417l0.014 0.015c0.963 1.015 1.434 1.936 1.439 2.816 2e-3 0.257-0.041 0.5-0.115 0.732 2.742 0.61 3.193 2.197 3.199 3.155 4e-3 0.817-0.334 2.741-3.576 2.956-0.324 0.021-0.641 0.045-0.949 0.07 0.277 0.157 0.551 0.344 0.818 0.562 1.125 0.916 1.699 1.891 1.705 2.897 4e-3 0.456-0.105 0.978-0.342 1.626 0.031 6.157-0.15 7.837-0.291 8.564-0.146 0.745-0.344 1.346-0.574 1.83 1.545-0.247 2.037-0.292 2.281-0.293 1.203-7e-3 2.414 0.38 3.602 1.151l0.059 0.038 0.053 0.043c1.24 1 1.848 2.007 1.854 3.078 8e-3 1.314-1.174 2.128-1.564 2.396l-0.049 0.035-0.055 0.029c-2.138 1.201-4.272 1.816-6.347 1.828zm-6.384-8.29c0.5 0.065 0.941 0.122 1.332 0.169-0.072-0.114-0.141-0.228-0.203-0.339-0.358 0.066-0.733 0.123-1.129 0.17zm-9.551-0.858c0.707 0.021 1.438 0.053 2.189 0.097-0.324-0.695-0.564-1.633-0.658-2.887l-0.014-0.16 0.584-3.635c-8e-3 -0.545-0.055-1.082-0.137-1.601-0.428-0.545-0.654-1.208-0.658-1.944-2e-3 -0.14 0.016-0.274 0.043-0.404-0.262 0.058-0.439 0.072-0.592 0.073-0.699 4e-3 -1.441-0.206-2.25-0.641 0.502 0.674 0.76 1.394 0.764 2.146 4e-3 0.6-0.184 1.439-1.025 2.22-0.211 0.811-0.311 1.234-0.357 1.451 0.078 0.139 0.242 0.395 0.564 0.816 1.121 1.396 1.67 2.585 1.678 3.635 0 0.262-0.043 0.539-0.131 0.834zm-8.172-12.999c0.287 0.117 0.568 0.302 0.844 0.559 1.385-0.424 1.914-0.516 2.268-0.518 0.582-3e-3 1.135 0.106 1.656 0.33-0.318-0.448-0.48-0.932-0.484-1.446 0-0.054 0-0.107 4e-3 -0.159l-0.678 4e-3c-1.214 0.487-2.425 0.9-3.61 1.23z"/>
  <path d="m436.9-95.528c0.234 0.117 0.518 0.172 0.846 0.17 1.146-0.358 1.861-0.539 2.143-0.54 0.82-5e-3 1.561 0.331 2.223 1.006 0.496 0.537 0.746 1.087 0.75 1.649 2e-3 0.54-0.289 1.022-0.873 1.448-0.367 1.386-0.549 2.161-0.549 2.325 2e-3 0.258 0.299 0.772 0.889 1.543 0.922 1.143 1.385 2.08 1.391 2.806 2e-3 0.492-0.344 1.21-1.043 2.152 2.555-0.015 5.465 0.143 8.729 0.475 3.967 0.563 6.35 0.841 7.146 0.836 2.787-0.485 4.381-0.73 4.779-0.732 0.938-6e-3 1.889 0.306 2.855 0.933 0.896 0.722 1.348 1.399 1.352 2.033 2e-3 0.398-0.326 0.823-0.979 1.272-1.941 1.091-3.838 1.642-5.689 1.653-0.563 3e-3 -1.973-0.388-4.23-1.171-5.992-1.863-10.605-2.786-13.842-2.766-1.289 8e-3 -2.615 0.18-3.973 0.516-0.443 0.237-0.842 0.357-1.195 0.359-0.984 6e-3 -1.541-0.787-1.668-2.382-4e-3 -0.75 0.264-1.127 0.805-1.13l1.549 0.202c1.475-0.242 2.303-1.057 2.482-2.443-2e-3 -0.328-0.395-1.029-1.174-2.103-0.379-0.514-0.57-1.052-0.572-1.615l-0.016-2.322c-0.984 6e-3 -1.643-0.153-1.973-0.48-0.99-0.932-1.488-1.973-1.496-3.122 0.02-0.751 0.17-1.127 0.451-1.128 0.257-3e-3 0.552 0.184 0.882 0.556zm-0.551-9.601 1.516 0.378c1.289-8e-3 2.158 0.127 2.605 0.406 1.084 0.932 1.629 1.761 1.635 2.488 6e-3 1.103-0.332 1.761-1.01 1.976l-0.984 6e-3c-1.389 0.57-2.756 1.032-4.104 1.386-0.061 0.016 0.059-0.251 0.059-0.251l1.855-2.318c-0.732-0.629-1.309-1.352-1.736-2.171-0.426-0.419-0.639-0.827-0.641-1.227-2e-3 -0.445 0.266-0.669 0.805-0.673zm7.709 6.427c2.34-0.741 4.412-1.481 6.213-2.219l2.033-1.173c1.492-1.674 2.748-3.289 3.771-4.843-0.473-0.396-0.709-0.746-0.711-1.051-2e-3 -0.492 0.512-0.742 1.543-0.749 0.564-3e-3 1.176 0.333 1.836 1.01 0.709 0.747 1.064 1.378 1.068 1.894 4e-3 0.727-0.871 1.518-2.625 2.373l-2.313 1.667 2.951-0.721c1.002-0.944 1.682-1.417 2.031-1.419 2.018 0.222 3.033 0.884 3.039 1.987 6e-3 0.962-0.766 1.494-2.313 1.597-2.838 0.181-5.123 0.558-6.855 1.131l0.182 0.703c2e-3 0.375-0.066 0.833-0.203 1.374l2.811-0.58c0.373-0.284 0.725-0.426 1.055-0.428 0.725-4e-3 1.432 0.272 2.115 0.832 0.801 0.651 1.203 1.271 1.207 1.857 2e-3 0.329-0.113 0.788-0.344 1.375 0.029 4.644-0.061 7.494-0.264 8.55-0.342 1.738-0.959 2.609-1.85 2.614-0.75 5e-3 -1.436-0.741-2.055-2.238-1.334 0.359-3.068 0.546-5.203 0.559-0.277 0.612-0.711 0.918-1.297 0.922-1.195 7e-3 -1.883-1.161-2.061-3.505l0.576-3.591c-6e-3 -0.797-0.08-1.571-0.227-2.321-0.377-0.35-0.566-0.793-0.57-1.333-2e-3 -0.375 0.547-0.883 1.645-1.523 0.816-0.802 1.443-1.604 1.887-2.403-3.041 1.495-4.855 2.246-5.441 2.249s-1.279-0.25-2.08-0.762c-0.799-0.487-1.201-0.989-1.205-1.505-2e-3 -0.445 0.148-0.669 0.453-0.671 0.4-6e-3 0.799 0.109 1.201 0.341zm6.783-6.796c1.027-0.349 2.041-0.864 3.047-1.546 0.096-0.064 0.117 0.103 0.031 0.254-0.494 0.865-1.049 1.738-1.662 2.62-0.18 1.479-0.703 2.221-1.57 2.226-0.727 4e-3 -1.467-0.331-2.223-1.007-0.543-0.512-0.814-1.039-0.818-1.578-2e-3 -0.469 0.217-1.162 0.656-2.08 0.393-0.823 0.742-1.235 1.047-1.237s0.461 0.361 0.465 1.087c0.189 0.469 0.533 0.89 1.027 1.261zm2e-3 11.716c1.287-0.055 2.564-0.227 3.83-0.516l0.492-0.214c0.914 0.206 1.375 0.532 1.377 0.977 4e-3 0.563-0.439 0.917-1.33 1.064-1.965 1.114-2.943 1.823-2.941 2.127l3.443-0.688c0.258-2e-3 0.621 0.23 1.096 0.696l2e-3 -5.488c-1.992 0.386-3.107 0.581-3.34 0.583-0.354 2e-3 -0.963-0.158-1.832-0.481l-1.473 0.818zm2.213 5.193-2.008-0.375-0.061 1.971zm-0.303-3.27-1.725-0.236 0.012 1.83zm1.824 4.879c0.326-0.376 0.617-0.567 0.875-0.568 0.33-2e-3 0.715 0.066 1.162 0.204l0.164-2.113-0.633 0.18c-1.775 0.878-3.379 1.803-4.803 2.773 1.056-0.028 2.134-0.188 3.235-0.476z" fill="#fff"/>
 </g>
 <g clip-rule="evenodd">
  <polygon transform="matrix(.34339 0 0 .34339 -10.093 59.971)" points="518.13 19.96 538.5 11.96 574.76 -24.29 587.76 -33.04 581.25 -33.621 478.26 41.21 471 56.96 505.96 40.825" fill="#ff2a2a" fill-rule="evenodd"/>
  <path d="m156.14 29.927-0.30665 14.352c-0.32451 0.95498-2.3876 6.0743-9.5467 7.1395-2.23 0.33172-4.9905 0.49964-8.2047 0.49998-6.9544 0-13.711-0.79358-13.779-0.80148l-0.11057-0.01305-0.1116 0.0041c-0.15281-3.43e-4 -4.2732-0.08344-6.8954-7.1972l-1.023-14.935" fill="none" stroke="#000" stroke-miterlimit="10" stroke-width=".236"/>
  <g fill="#ff2a2a" fill-rule="evenodd">
   <polygon transform="matrix(.34339 0 0 .34339 -10.093 59.971)" points="582.51 129.08 596.84 124.57 522.51 95.458 569.18 85.375 566.52 81.125 513.51 71.792 517.57 65.031 566.52 37.96 567.26 33.96 479.5 71.46 463.76 89.71 463.76 94.46 484.07 92.21 480.76 97.71 459 104.71 455 116.71 419.26 136.21 419.26 141.46 491.18 115.12"/>
   <polygon transform="matrix(.34339 0 0 .34339 -18.47 59.561)" points="297.84 65.127 246 54.118 249.5 52.71 275 51.956 305.01 64.127"/>
   <polygon transform="matrix(.32606 .10772 -.10772 .32606 -3.3735 26.915)" points="363.18 -13.207 349.55 -9.207 299.17 -10.54 291.17 -15.873 340.84 -20.539"/>
  </g>
 </g>
 <path d="m98.735 200.79c1.2424 1.3811 2.5631 3.6657 2.8842 7.2824 0.33721 3.7993-0.76955 6.6728-1.6589 8.9815-0.92682 2.4062-1.7269 4.4844-0.3585 6.429 1.6335 2.3227 1.161 7.9891 0.84097 9.9766l-0.31111 1.9312-8.0358 0.47217-6.9259 3.5644s-3.3107-3.016-1.4584-10.405c1.6215-6.4709 5.4538-9.9237 8.8352-12.971 1.9446-1.752 3.7811-3.4065 5.0829-5.4644 2.197-3.4721 1.8255-7.2226 1.1054-9.7967" fill="#ffb380" stroke-width=".34339"/>
 <path d="m92.096 235.86 8.0358-0.47217 0.31111-1.9312c0.32004-1.9876 0.79256-7.6539-0.84097-9.9766-1.3684-1.9446-0.56832-4.0229 0.3585-6.429 0.88939-2.309 1.9962-5.1822 1.6589-8.9815-0.32142-3.6166-1.6418-5.9012-2.8842-7.2824 0.7201 2.5741 1.0916 6.3246-1.1057 9.7963-0.82381 1.3022-1.8619 2.4429-3.0057 3.549" fill="#ff7f2a" stroke-width=".34339"/>
 <path d="m98.735 200.79c1.2424 1.3811 2.5631 3.6657 2.8842 7.2824 0.33721 3.7993-0.76955 6.6728-1.6589 8.9815-0.92682 2.4062-1.7269 4.4844-0.3585 6.429 1.6335 2.3227 1.161 7.9891 0.84097 9.9766l-0.39387 2.2798 2.2372-0.37636 0.25205-1.5662c0.13187-0.819 1.2173-8.0966-1.2005-11.535-0.65177-0.92648-0.33481-2.0102 0.603-4.4449 0.91754-2.3818 2.1737-5.642 1.7929-9.9323-0.38392-4.3206-2.0717-7.0148-3.4206-8.5138l-6.0643-6.7432 2.4426 8.7339c0.59648 2.1321 0.93232 5.2663-0.85505 8.09-1.1459 1.8118-2.8773 3.3714-4.71 5.0232-3.4284 3.0895-7.6944 6.9338-9.4732 14.032-2.0078 8.01 0.6473 10.562 1.638 11.21 0.14114 0.0924 1.8794-0.28914 1.8794-0.28914-0.0268-0.012-3.3107-3.016-1.4584-10.405 1.6215-6.4709 5.4538-9.9237 8.8352-12.971 1.9446-1.752 3.7811-3.4065 5.0829-5.4644 2.1967-3.4721 1.8251-7.2226 1.105-9.7967" fill="#ffe680" stroke="#000" stroke-miterlimit="10" stroke-width=".316"/>
</svg>
