<?xml version="1.0" encoding="UTF-8"?>
<svg cursor="default" version="1.1" viewBox="0 0 256 256" xmlns="http://www.w3.org/2000/svg" xmlns:cc="http://creativecommons.org/ns#" xmlns:dc="http://purl.org/dc/elements/1.1/" xmlns:rdf="http://www.w3.org/1999/02/22-rdf-syntax-ns#">
 <metadata>
  <rdf:RDF>
   <cc:Work rdf:about="">
    <dc:format>image/svg+xml</dc:format>
    <dc:type rdf:resource="http://purl.org/dc/dcmitype/StillImage"/>
    <dc:title/>
   </cc:Work>
  </rdf:RDF>
 </metadata>
 <defs>
  <radialGradient id="radialGradient4649" cx="1422.3" cy="1348.4" r="378.17" gradientTransform="matrix(.0028178 -.10128 .19709 .0054844 -97.296 332.32)" gradientUnits="userSpaceOnUse">
   <stop stop-color="#faa" offset="0"/>
   <stop stop-color="#ff8080" offset="1"/>
  </radialGradient>
  <radialGradient id="radialGradient4657" cx="557.7" cy="1547.6" r="342.27" gradientTransform="matrix(0 -.13939 .16799 0 -77.304 280.27)" gradientUnits="userSpaceOnUse">
   <stop stop-color="#f55" offset="0"/>
   <stop stop-color="#ff8080" offset="1"/>
  </radialGradient>
 </defs>
 <path d="m44.428 171.5s24.361-10.943 30.613-14.851 21.234-21.234 29.05-47.809c7.8163-26.575 5.6016-10.682 9.119-9.2492 3.5172 1.433 4.2989 1.3026 4.2989 1.3026l-33.609 59.534-24.882 14.896z" fill="#ff2a2a" stroke="#000" stroke-width=".618"/>
 <path d="m41.563 171.37s28.659-4.5595 41.947-19.28c13.288-14.72 15.818-34.521 31.395-51.718 4.653-5.1366 7.6022-13.418 7.6022-13.418s16.237-3.5174 22.491 15.242c6.2536 18.759-39.964 83.656-39.964 83.656l-58.912-5.7072z" fill="#f55" stroke="#000" stroke-width=".618"/>
 <g fill="#fca" stroke="#000" stroke-width=".618">
  <path d="m84.803 158.83s-3.9353-3.1077-4.6495-3.0474c-0.71425 0.0602-6.7499 2.87-6.4895 4.2053-1.44e-4 0 5.5927-2.372 11.139-1.1578z"/>
  <path d="m91.341 151.19s-4.1532-3.2709-4.7488-2.8331c-0.59569 0.43751-3.1486 3.0042-3.0835 3.745 0 0 6.1538-1.9545 7.8323-0.9119z"/>
  <path d="m110.95 111.79-3.2951-1.9632s-4.6992 5.3445-4.862 8.3408c-1.5e-4 0 5.1414-6.0522 8.1571-6.3775z"/>
  <path d="m100.81 125.66-2.4947-1.4039s-3.5604 5.0192-2.7354 8.7102c-1.44e-4 -1.5e-4 1.4698-6.4246 5.2301-7.3063z"/>
  <path d="m93.749 141.19s-3.5782-2.0224-3.759-2.1455c-0.1808-0.12303-1.3353 5.7385-1.2512 6.2593 0 0 1.441-4.1339 5.0101-4.1138z"/>
 </g>
 <g fill="#ffe6d5" stroke="#000" stroke-width=".618">
  <path d="m132.87 123.17s-21.18-19.363-24.045-19.363c-2.8654 0-4.3424 4.4291-4.3424 4.4291s9.511 3.8105 25.247 18.324c0.76078 0.70157 3.1406-3.39 3.1406-3.39z"/>
  <path d="m124.51 140.76s-23.807-15.825-28.021-17.366c-1.7803-0.65129 2.2579-5.9925 2.6922-5.732 0.43434 0.2606 20.906 12.928 26.617 19.563 0.79133 0.91967-1.2151 1.798-1.2878 3.5348z"/>
  <path d="m117.14 152.66s-25.794-11.521-28.806-14.935c-1.1399-1.2918 2.6052-5.6451 3.3001-5.6451 0.6948 0 1.1616 4.1906 26.98 16.534 0.95238 0.45552-1.0655 4.0439-1.4732 4.0466z"/>
  <path d="m106.18 161.87s-17.444-14.21-21.625-13.353c-2.5402 0.52107 0.58618-6.3319 1.6914-5.2759 0.30281 0.28927 10.424 3.1265 22.865 15.177z"/>
  <path d="m96.042 168.55s-17.179-16.531-19.003-12.955c-1.8238 3.5756-1.526-5.1522 4.6216-4.0883 6.1476 1.0639 14.956 12.617 17.668 15.394z"/>
  <path d="m84.153 174.33s-11.63-13.439-18.035-11.507c-1.9784 0.59684 1.802-3.474 4.3206-4.0818 2.5187-0.60808 11.999 7.0344 16.986 13.548z"/>
 </g>
 <g stroke="#000">
  <path d="m163.88 154.84c-7.1647-13.288-5.2109-39.081-5.3412-44.422-0.13009-5.3412 2.0844-10.291-1.4328-8.4676-3.5172 1.8238-6.2529-0.13023-6.2529-0.13023-24.028-9.7255-23.58 2.4751-26.706 10.031-3.1265 7.5557-11.945 41.59-34.782 49.111-32.828 10.812-12.636 27.309-12.636 27.309l90.343-6.0742c0.39069-2.9964 3.9722-14.07-3.1927-27.357zm-74.584 22.136c-0.97154 1.1255-3.1278 0.85643-4.8162-0.60102-1.6884-1.4575-2.2692-3.5514-1.2978-4.6766 0.97168-1.1257 3.128-0.85673 4.8162 0.60073 1.6884 1.4576 2.2694 3.5515 1.2978 4.6769zm11.577-7.2877c-0.68645 1.0712-2.5458 1.1052-4.153 0.0753-1.6071-1.0297-2.3534-2.7335-1.6669-3.8049 0.68645-1.0712 2.5458-1.1049 4.153-0.0751 1.6073 1.0296 2.3534 2.7332 1.6669 3.8046zm11.006-7.5042c-0.65 1.4037-2.4206 1.9658-3.9549 1.2558-1.5342-0.7105-2.2512-2.4242-1.6012-3.828 0.64971-1.4037 2.4204-1.9657 3.9547-1.2555 1.5342 0.71008 2.2512 2.4238 1.6014 3.8277zm7.6214-7.7792c-1.4586 0.51545-3.0976-0.359-3.6609-1.9533-0.56313-1.5942 0.16236-3.3042 1.6208-3.8196 1.4585-0.51516 3.0974 0.35929 3.6609 1.9533 0.56327 1.5942-0.16236 3.3043-1.6208 3.8196zm7.4253-11.724c-1.4585 0.51544-3.1478-0.50133-3.7734-2.2712-0.62537-1.7701 0.0501-3.6224 1.5086-4.1377 1.4585-0.51544 3.1479 0.50148 3.7732 2.2714 0.62537 1.7698-0.0498 3.6221-1.5084 4.1376zm6.0706-14.792c-1.4876 0.42325-3.0689-0.55189-3.5316-2.178-0.46243-1.6263 0.36851-3.2876 1.8564-3.711 1.4877-0.42325 3.0689 0.55189 3.5318 2.178 0.46257 1.6263-0.36851 3.2877-1.8565 3.711zm3.8938-14.478c-1.5443 0.0869-2.8733-1.2111-2.9682-2.8992-0.0951-1.688 1.0799-3.127 2.6245-3.2138 1.5442-0.0869 2.8731 1.211 2.9684 2.8992 0.0948 1.6881-1.08 3.127-2.6246 3.2138z" fill="url(#radialGradient4657)" stroke-width=".618"/>
  <path d="m16.683 199.26s62.1 16.47 105.82 7.5611l-57.8-11.981-48.286-3.6162z" fill="#333" stroke-width=".816"/>
  <path d="m22.066 178.2s-0.0032-8.5214 28.355-8.5541c8.946-0.0104 22.797 2.6052 21.321 18.624-1.4608 15.841-49.676-10.07-49.676-10.07z" fill="#ffe6d5" stroke-width=".988"/>
 </g>
 <g fill="#fff6d5" stroke="#000" stroke-width=".417">
  <path d="m87.592 178.72c-1.2684 0-2.6514-0.56586-3.7944-1.5522-2.1615-1.866-2.7795-4.573-1.407-6.1633 0.59065-0.684 1.4814-1.0607 2.5084-1.0607 1.2684 0 2.6514 0.56587 3.7944 1.5528 0.97212 0.839 1.673 1.897 1.9732 2.9786 0.33739 1.2157 0.13095 2.3764-0.5663 3.1843-0.5905 0.68386-1.4814 1.0606-2.5082 1.0606zm-2.6931-6.6687c-0.28625 0-0.67708 0.0573-0.91276 0.33033-0.50536 0.58546-0.10444 2.0742 1.1886 3.1904 0.75459 0.6513 1.6583 1.0403 2.4172 1.0403 0.28625 0 0.67708-0.0573 0.91262-0.33033 0.31333-0.36303 0.21652-0.93466 0.13081-1.2434-0.18728-0.67507-0.66829-1.3846-1.3196-1.9468-0.75444-0.65158-1.658-1.0404-2.4169-1.0404z"/>
  <path d="m99.089 171.56c-0.96722 0-2.0082-0.32557-2.9315-0.91723-2.1295-1.3644-3.0016-3.675-1.9857-5.2605 0.53389-0.83339 1.5097-1.3115 2.6772-1.3115 0.96722 0 2.0083 0.32586 2.9316 0.91723 0.95037 0.60894 1.6928 1.4439 2.0905 2.3511 0.45407 1.0365 0.4159 2.0971-0.10474 2.9093-0.53403 0.83396-1.5099 1.3117-2.6774 1.3117zm-2.24-5.3814c-0.20572 0-0.7056 0.0331-0.90268 0.3407-0.31203 0.48678 0.20903 1.6187 1.3481 2.3489 0.57941 0.3711 1.2334 0.58417 1.7944 0.58417 0.20586 0 0.70546-0.0331 0.90268-0.34071 0.19002-0.29662 0.02751-0.7468-0.05114-0.92659-0.22906-0.52222-0.70172-1.0408-1.297-1.422-0.57955-0.37153-1.2336-0.58445-1.7944-0.58445z"/>
  <path d="m109.31 164.79c-0.6281 0-1.2411-0.13614-1.8215-0.40524-0.98148-0.45437-1.745-1.2369-2.1492-2.2034-0.41806-0.9992-0.40581-2.0729 0.0343-3.0235 0.62075-1.341 1.9743-2.1742 3.5324-2.1742 0.62825 0 1.2411 0.13642 1.8216 0.40524 0.98148 0.45436 1.7448 1.2369 2.1492 2.2037 0.41792 0.9992 0.40582 2.0729-0.0343 3.0232-0.6209 1.3409-1.9743 2.1742-3.5325 2.1742zm-0.40395-5.6983c-0.72736 0-1.3477 0.36461-1.6195 0.9518-0.18872 0.40711-0.18944 0.87761-3e-3 1.3243 0.20068 0.47944 0.58791 0.87171 1.0904 1.1041 0.3008 0.13931 0.61557 0.2099 0.93582 0.2099 0.72721 0 1.3478-0.36462 1.6197-0.95152 0.18872-0.4074 0.18944-0.87761 3e-3 -1.3243-0.20067-0.47972-0.58791-0.87171-1.0904-1.1044-0.30094-0.1393-0.61585-0.20989-0.93596-0.20989z"/>
  <path d="m118.64 155.6c-1.4e-4 0-1.4e-4 0 0 0-1.676 0-3.1997-1.1271-3.7924-2.8041-0.75588-2.1396 0.25974-4.4564 2.2635-5.1646 0.39098-0.13787 0.7991-0.20788 1.2134-0.20788 1.6756 0 3.1996 1.1268 3.7922 2.8038 0.36044 1.0202 0.33336 2.1128-0.0758 3.0773-0.42296 0.99689-1.1999 1.7382-2.1877 2.0871-0.39069 0.1383-0.7991 0.20831-1.2133 0.20831zm-0.31549-6.0688c-0.17446 0-0.34632 0.0295-0.51098 0.0877-0.9083 0.32082-1.3472 1.4311-0.97831 2.4747 0.29085 0.8233 1.0329 1.3984 1.8046 1.3984h1.4e-4c0.17446 0 0.34632-0.0292 0.51112-0.0874 0.42311-0.14939 0.76021-0.47741 0.94936-0.92313 0.20312-0.47857 0.21335-1.0295 0.029-1.5517-0.291-0.82345-1.0332-1.3985-1.8049-1.3985z"/>
  <path d="m132.3 129.03c-1.7503 0-3.3284-1.2512-3.838-3.0425-0.62076-2.1825 0.53734-4.4313 2.5817-5.0129 0.32428-0.0923 0.65922-0.13902 0.99575-0.13902 1.7498 0 3.3282 1.251 3.8379 3.0423 0.6209 2.1828-0.53734 4.4316-2.5816 5.013-0.32442 0.0922-0.65936 0.13916-0.99574 0.13916zm-0.2606-6.0868c-0.14133 0-0.28222 0.0197-0.41907 0.0586-0.92645 0.26363-1.4337 1.3442-1.131 2.4088 0.25326 0.89 0.99776 1.5115 1.8104 1.5116h1.5e-4c0.14118 0 0.28221-0.0197 0.41878-0.0586 0.92674-0.26363 1.434-1.3442 1.1313-2.409-0.25325-0.88986-0.99776-1.5115-1.8105-1.5115z"/>
  <path d="m136.75 114.46c-2.0497 0-3.7513-1.7123-3.8742-3.898-0.0608-1.0799 0.27069-2.1216 0.93337-2.9331 0.685-0.83901 1.6381-1.3333 2.6841-1.3922 2.137-0.11986 3.9527 1.6336 4.0799 3.8921 0.1272 2.2656-1.4956 4.206-3.6178 4.3254-0.0689 4e-3 -0.13743 6e-3 -0.20543 6e-3zm-0.0514-6.1212c-0.0288 0-0.0578 0-0.087 3e-3 -0.44803 0.0251-0.8635 0.24563-1.1699 0.62076-0.32846 0.4025-0.49255 0.92861-0.46143 1.4817 0.0622 1.1034 0.88323 1.9624 1.8571 1.906 0.9616-0.054 1.6936-0.99732 1.6315-2.1026-0.0604-1.0701-0.83785-1.9085-1.7702-1.9085z"/>
  <path d="m126.15 143.86h-2.9e-4c-1.7251 0-3.3252-1.2493-3.9824-3.108-0.81783-2.315 0.14723-4.7744 2.1511-5.4826 0.36462-0.12879 0.74695-0.1942 1.1359-0.1942 1.725 0 3.3252 1.2492 3.9822 3.1081 0.38363 1.0859 0.39213 2.2406 0.0238 3.2513-0.39473 1.0828-1.1672 1.8751-2.1749 2.2312-0.36461 0.12893-0.74666 0.19419-1.1355 0.19419zm-0.69566-6.6769c-0.14925 0-0.29504 0.0248-0.43363 0.0738-0.89274 0.31534-1.2893 1.5946-0.86608 2.7929 0.35438 1.0022 1.1748 1.7022 1.9952 1.7025h1.4e-4c0.14882 0 0.29475-0.0248 0.43319-0.0738 0.40322-0.14262 0.72174-0.48534 0.89677-0.96592 0.20125-0.55204 0.19031-1.2012-0.0308-1.8273-0.3541-1.0021-1.1745-1.7022-1.9948-1.7022z"/>
 </g>
 <g fill="#ffe6d5" stroke="#000">
  <g stroke-width=".618">
   <path d="m112.62 105.97 4.8058 3.7538s10.597-2.8182 18.618 2.2603c1.0666 0.67535 1.2725-3.5106 1.2725-3.5106s-8.4867-7.9073-24.696-2.5035z"/>
   <path d="m108.38 123.63-5.1421-3.3998s12.938-4.554 29.862 2.8207c1.6941 0.73816-1.3426 3.7444-1.7237 3.5982-7.5689-2.9034-16.047-3.4534-22.996-3.0191z"/>
   <path d="m100.63 139.05s-5.7912-3.3737-5.7559-3.972c0 0 11.158-5.2125 31.853 1.649 1.8568 0.61557-1.0646 4.723-1.8513 4.4621-0.78671-0.2609-6.6713-4.6037-24.247-2.1392z"/>
   <path d="m98.854 149.95s-5.6788-4.0174-6.3434-3.8699c-0.66455 0.14766 14.567-4.7926 26.952 2.6879 2.1376 1.2909-1.2795 4.6636-2.513 4.625-1.2334-0.0385-5.3684-4.9506-18.097-3.443z"/>
   <path d="m91.025 157.8s-3.5224-3.5407-4.102-3.6148c0 0 11.356-2.4281 23.423 4.6482 1.2336 0.72332-1.3353 3.8876-2.4751 3.7247-1.1398-0.16293-7.8161-5.7114-16.845-4.7582z"/>
   <path d="m80.002 164.5s-2.7249-2.597-3.2568-2.6406c-0.53187-0.0434 9.9818-4.408 22.396 4.299 2.1301 1.4938-0.11381 2.3554-1.593 3.1966-1.4033 0.79852-5.5718-6.019-17.547-4.855z"/>
   <path d="m85.562 176.33s-18.824-10.715-29.367-10.22c-4.0101 0.18829 4.1785-3.8764 6.3886-3.5218 2.2102 0.35454 13.74 1.2186 25.532 9.7037 1.8103 1.3027-0.83454 4.1141-2.5538 4.0382z"/>
  </g>
  <path d="m168.22 178.38s-8.2663 3.1592-19.065 2.7684c-10.799-0.39083-21.026 1.8891-26.107 3.778-3.0581 1.1371-28.7 3.2692-70.424-6.5946-8.6577-2.0467-30.382-4.6516-33.007-1.6122-2.7119 3.1412-5.7355 11.142-5.7355 11.142-1.7165 3.8212 0 8.6587 0 8.6587s-0.06512 1.1888 2.5404 2.418c2.6053 1.2296-7.5152-3.5109 14.74-0.74983 22.256 2.7608 60.508 11.564 85.416 9.4047 15.522-1.3458 8.413-4.5176 36.776-7.4253 12.704-1.3024 13.746-2.9527 14.615-6.8609 0-1.4e-4 1.9122-15.175 0.25038-14.928z" stroke-width="1.618"/>
 </g>
 <g transform="matrix(.14406 0 0 .14406 6.8733 -41.604)" fill="none" stroke="#000">
  <path d="m638.08 1730s32.174-67.33-12.4-154.04" stroke-width="3.2"/>
  <path d="m1119.4 1606.9s-56.595 24.348-126.22 25.252c-69.629 0.904-150.11 33.459-150.11 33.459s-55.162 22.605-192.61 0" stroke-width="16.18"/>
  <path d="m1121.4 1564.8s-55.898 22.662-125.53 21.701c-131.57-1.82-168.2 64.645-354.09 29.977" stroke-width="3.2"/>
 </g>
 <g transform="matrix(.14406 0 0 .14406 6.8733 -41.604)">
  <path d="m1123.5 1527.5s-0.237 0.092-0.704 0.271c-0.475 0.17-1.191 0.447-2.125 0.754-0.936 0.324-2.1 0.715-3.491 1.139-1.388 0.455-3.01 0.908-4.85 1.414-7.359 2.004-18.252 4.684-32.305 6.988-3.517 0.553-7.222 1.135-11.106 1.746-3.897 0.533-7.976 1.09-12.227 1.67-4.257 0.545-8.694 1.006-13.303 1.492-4.608 0.461-9.387 0.836-14.326 1.279-9.879 0.773-20.406 1.494-31.511 2.004-5.556 0.35-11.25 0.404-17.083 0.564-5.782 0.148-11.698 0.303-17.74 0.459-1.513 0.041-3.033 0.082-4.562 0.123-1.489 0.078-2.985 0.156-4.489 0.232-3.011 0.174-6.03 0.271-9.108 0.508-3.075 0.234-6.18 0.469-9.313 0.707-3.116 0.313-6.262 0.629-9.433 0.947-12.66 1.373-25.625 3.225-38.779 6.043-13.171 2.814-26.507 6.463-40.412 10.6-3.495 1.027-7.009 2.061-10.541 3.098-3.565 0.996-7.149 1.996-10.75 3.002-7.092 1.98-14.569 4.063-22.167 5.869-7.602 1.822-15.337 3.416-23.146 4.826-3.908 0.674-7.832 1.357-11.778 1.918-3.942 0.627-7.904 1.113-11.879 1.629-3.974 0.52-7.963 0.891-11.964 1.344-4 0.352-8.012 0.705-12.034 1.059-4.022 0.24-8.056 0.48-12.097 0.723-4.039 0.164-8.086 0.328-12.143 0.494-16.215 0.49-32.524 0.438-48.845-0.182-16.327-0.547-32.655-1.621-48.937-2.992l-12.197-1.131c-4.063-0.389-8.111-0.865-12.165-1.293-8.112-0.83-16.18-1.857-24.237-2.855-16.112-2.002-32.072-4.502-47.887-7.021-7.9-1.299-15.753-2.656-23.564-4.031-7.8-1.43-15.534-2.969-23.233-4.434-15.37-3.063-30.533-6.154-45.382-9.449-3.715-0.809-7.415-1.615-11.099-2.418-3.673-0.84-7.331-1.676-10.971-2.508-7.279-1.66-14.48-3.355-21.576-5.133-14.138-3.563-27.97-7.051-41.435-10.445-6.716-1.676-13.253-3.191-19.749-4.754-6.519-1.48-12.938-2.939-19.251-4.373-6.318-1.406-12.529-2.811-18.648-4.051-6.11-1.309-12.123-2.471-18.018-3.607-2.945-0.59-5.867-1.102-8.757-1.621-2.892-0.514-5.751-1.021-8.579-1.525-5.664-0.918-11.196-1.871-16.596-2.711-10.798-1.764-21.079-3.123-30.759-4.246-19.365-2.137-36.333-3.346-50.319-3.455-6.991-0.063-13.237 0.074-18.661 0.35-5.424 0.283-10.025 0.73-13.734 1.227-3.707 0.506-6.534 1.01-8.41 1.436-0.938 0.213-1.641 0.393-2.107 0.521-0.448 0.131-0.676 0.199-0.676 0.199l-0.629-1.49s0.25-0.096 0.741-0.283c0.48-0.172 1.197-0.414 2.144-0.705 1.896-0.574 4.729-1.318 8.461-2.068 7.459-1.502 18.527-3.031 32.675-3.652 14.144-0.678 31.351-0.504 51.008 0.801 19.656 1.307 41.767 3.719 65.713 7.436 23.948 3.717 49.76 8.51 76.87 14.523 13.526 3.041 27.422 6.166 41.625 9.361 7.102 1.58 14.305 3.07 21.563 4.633 3.632 0.77 7.281 1.543 10.947 2.32 3.673 0.74 7.363 1.482 11.068 2.229 59.255 11.977 122.98 22.576 187.21 28.115 4.011 0.383 8.027 0.682 12.043 0.979 4.016 0.287 8.028 0.633 12.044 0.875 4.017 0.234 8.031 0.469 12.042 0.703 4.011 0.26 8.025 0.357 12.032 0.545 16.03 0.627 32.014 0.869 47.858 0.512 31.672-0.719 62.843-3.719 92.265-10.326 7.359-1.631 14.59-3.521 21.783-5.404 7.193-1.863 14.286-3.756 21.327-5.641 14.063-3.787 27.955-7.201 41.638-9.742 27.395-5.063 53.782-6.496 78.025-6.334 6.052 0.061 11.978 0.121 17.77 0.178 5.784 0.07 11.436 0.15 16.943 0.094 11.019 0.018 21.467-0.205 31.282-0.506 19.629-0.648 36.714-1.912 50.72-3.465 14.008-1.543 24.933-3.377 32.31-4.904 1.845-0.381 3.472-0.723 4.864-1.064 1.4-0.316 2.567-0.615 3.504-0.863 0.945-0.236 1.633-0.449 2.104-0.578 0.472-0.143 0.712-0.215 0.712-0.215z"/>
 </g>
 <path d="m107 174.49s26.939-12.101 33.854-16.423 23.482-23.482 32.125-52.87 6.1946-11.813 10.084-10.228 4.754 1.4406 4.754 1.4406l-37.167 65.835-27.515 16.473z" fill="#ff2a2a" stroke="#000" stroke-width=".618"/>
 <path d="m103.83 174.34s31.693-5.0421 46.387-21.321 17.493-38.176 34.718-57.192c5.1455-5.6803 8.4069-14.838 8.4069-14.838s17.956-3.8896 24.871 16.855-44.193 92.511-44.193 92.511l-65.148-6.3114z" fill="#f55" stroke="#000" stroke-width=".618"/>
 <g fill="#fca" stroke="#000" stroke-width=".618">
  <path d="m151.64 160.47s-4.3518-3.4367-5.1416-3.3701c-0.78988 0.0666-7.4645 3.1738-7.1764 4.6504-1.4e-4 0 6.1846-2.6229 12.318-1.2803z"/>
  <path d="m158.87 152.01s-4.5929-3.6168-5.2516-3.1329c-0.65864 0.48389-3.4818 3.3222-3.4098 4.1416 0 0 6.8052-2.1615 8.6613-1.0087z"/>
  <path d="m180.55 108.45-3.6439-2.1713s-5.1967 5.9104-5.3768 9.2237c0 0 5.6859-6.6926 9.0206-7.0524z"/>
  <path d="m169.34 123.79-2.7588-1.5524s-3.9373 5.5505-3.025 9.6321c0 0 1.6254-7.1048 5.7837-8.0798z"/>
  <path d="m161.54 140.96s-3.957-2.2364-4.1569-2.3725c-0.19981-0.13613-1.4766 6.3458-1.3836 6.9221-1.4e-4 0 1.5934-4.572 5.5404-4.5496z"/>
 </g>
 <g fill="#ffe6d5" stroke="#000" stroke-width=".618">
  <path d="m204.8 121.04s-23.421-21.413-26.591-21.413-4.8021 4.898-4.8021 4.898 10.518 4.2139 27.919 20.263c0.84117 0.77591 3.473-3.7489 3.473-3.7489z"/>
  <path d="m195.56 140.49s-26.327-17.5-30.987-19.205c-1.9689-0.72015 2.4968-6.6268 2.9772-6.3386 0.48029 0.28812 23.119 14.297 29.433 21.635 0.87517 1.0166-1.3436 1.9882-1.4239 3.9089z"/>
  <path d="m187.39 153.64s-28.524-12.74-31.856-16.516c-1.2605-1.4284 2.881-6.2426 3.6495-6.2426s1.2846 4.6341 29.835 18.284c1.0532 0.50335-1.1783 4.4718-1.629 4.4746z"/>
  <path d="m175.28 163.83s-19.291-15.714-23.914-14.766c-2.8092 0.57624 0.64827-7.0022 1.8703-5.8344 0.3348 0.31996 11.527 3.4574 25.285 16.783z"/>
  <path d="m164.07 171.22s-18.997-18.281-21.014-14.327c-2.0168 3.9546-1.6875-5.6974 5.1108-4.521 6.7983 1.1764 16.54 13.953 19.537 17.024z"/>
  <path d="m150.92 177.61s-12.861-14.861-19.944-12.725c-2.188 0.66008 1.9928-3.8415 4.778-4.5138 2.7852-0.67233 13.27 7.7792 18.784 14.982z"/>
 </g>
 <g stroke="#000">
  <path d="m239.1 156.05c-7.9233-14.694-5.7624-43.218-5.9065-49.124s2.305-11.381-1.5847-9.3639-6.9149-0.14406-6.9149-0.14406c-26.57-10.755-26.075 2.7371-29.532 11.093s-13.209 45.993-38.464 54.311c-36.303 11.957-13.974 30.201-13.974 30.201l99.907-6.7172c0.43218-3.3134 4.3928-15.56-3.5305-30.254zm-82.479 24.479c-1.0744 1.2447-3.459 0.94719-5.326-0.66441-1.8672-1.6117-2.5095-3.9274-1.4353-5.1718 1.0745-1.2448 3.4592-0.94734 5.326 0.6644 1.8672 1.6116 2.5097 3.9271 1.4353 5.1718zm12.803-8.0592c-0.75919 1.1849-2.8154 1.2221-4.5926 0.0834-1.7773-1.1388-2.6024-3.0227-1.8434-4.2074 0.7592-1.1849 2.8154-1.2221 4.5925-0.0833 1.7776 1.1386 2.6026 3.0225 1.8435 4.2073zm12.171-8.2986c-0.71857 1.5522-2.6768 2.1739-4.3734 1.3884-1.6966-0.78556-2.4895-2.6807-1.7708-4.2331 0.71857-1.5522 2.6766-2.1739 4.3734-1.3884 1.6967 0.78556 2.4895 2.6808 1.7708 4.2331zm8.4281-8.6027c-1.6128 0.5699-3.4253-0.39717-4.0484-2.16-0.62277-1.7629 0.1795-3.6539 1.7924-4.2238 1.6128-0.5699 3.4252 0.39717 4.0484 2.16 0.62306 1.7629-0.1795 3.6539-1.7924 4.2238zm8.2114-12.965c-1.6128 0.5699-3.4809-0.55477-4.1727-2.5118-0.69149-1.9572 0.0553-4.0057 1.6682-4.5756 1.6128-0.5699 3.4809 0.55463 4.1726 2.5118s-0.0552 4.0057-1.6681 4.5756zm6.7133-16.358c-1.6452 0.46805-3.3939-0.61024-3.9053-2.4087-0.51156-1.7983 0.40725-3.6355 2.0527-4.1037 1.6452-0.46805 3.3938 0.61024 3.9055 2.4087 0.51142 1.7984-0.4074 3.6356-2.0528 4.1037zm4.3058-16.011c-1.7077 0.0961-3.1775-1.3393-3.2824-3.206-0.10502-1.8667 1.1941-3.4579 2.9022-3.554 1.7077-0.0961 3.1775 1.3392 3.2827 3.206 0.10487 1.8666-1.1944 3.4579-2.9025 3.554z" fill="url(#radialGradient4649)" stroke-width=".618"/>
  <path d="m76.313 205.17s68.673 18.214 117.03 8.3614l-63.918-13.249-53.399-3.9991z" fill="#333" stroke-width=".816"/>
  <path d="m82.264 181.88s-0.0036-9.4235 31.358-9.4597c9.8929-0.0114 25.212 2.8812 23.578 20.596-1.6153 17.518-54.934-11.136-54.934-11.136z" fill="#ffe6d5" stroke-width=".98"/>
 </g>
 <g fill="#fff6d5" stroke="#000" stroke-width=".417">
  <path d="m154.73 182.46c-1.4027 0-2.9322-0.6258-4.196-1.7168-2.3904-2.0634-3.0738-5.0571-1.556-6.8156 0.65302-0.75661 1.6381-1.1732 2.7739-1.1732 1.4027 0 2.9322 0.6258 4.196 1.717 1.0751 0.92789 1.8502 2.098 2.1819 3.2939 0.37326 1.3447 0.14493 2.6281-0.62622 3.5214-0.65288 0.7566-1.638 1.1732-2.7736 1.1732zm-2.9782-7.3747c-0.3165 0-0.74868 0.0634-1.0094 0.36534-0.55881 0.6474-0.11539 2.2937 1.3145 3.528 0.8344 0.7203 1.8337 1.1503 2.673 1.1503 0.3165 0 0.74868-0.0634 1.0093-0.3652 0.34647-0.40135 0.23943-1.0339 0.14464-1.375-0.20716-0.74666-0.73903-1.5314-1.4592-2.153-0.8344-0.7203-1.8336-1.1505-2.6729-1.1505z"/>
  <path d="m167.44 174.54c-1.0696 0-2.2208-0.36015-3.2418-1.0143-2.355-1.5089-3.3194-4.0642-2.1959-5.8174 0.5905-0.92169 1.6696-1.4502 2.9607-1.4502 1.0696 0 2.221 0.3603 3.2419 1.0145 1.0511 0.67334 1.8721 1.5968 2.3117 2.6 0.50205 1.1463 0.45984 2.3189-0.11582 3.2173-0.5905 0.92169-1.6697 1.4502-2.9609 1.4502zm-2.4771-5.9511c-0.22747 0-0.78023 0.0367-0.99819 0.37686-0.34502 0.53836 0.23107 1.7902 1.4909 2.5974 0.64078 0.41058 1.3641 0.64597 1.9843 0.64597 0.22761 0 0.78023-0.0367 0.99834-0.37686 0.21018-0.32803 0.0304-0.82575-0.0568-1.0244-0.25326-0.57783-0.77591-1.151-1.4343-1.5727-0.64063-0.41086-1.364-0.64626-1.9843-0.64626z"/>
  <path d="m178.74 167.06c-0.69466 0-1.3725-0.15069-2.0142-0.44774-1.0855-0.50262-1.9297-1.368-2.3767-2.4369-0.46229-1.1049-0.44875-2.2923 0.038-3.3435 0.68645-1.483 2.1832-2.4041 3.9062-2.4041 0.69465 0 1.3723 0.15069 2.0142 0.44774 1.0855 0.50263 1.9297 1.368 2.3767 2.4369 0.46228 1.1049 0.44874 2.2923-0.038 3.3435-0.68644 1.4827-2.1832 2.4041-3.9062 2.4041zm-0.44688-6.3015c-0.80428 0-1.4906 0.40337-1.7911 1.0526-0.20859 0.45047-0.2096 0.97053-3e-3 1.4646 0.22185 0.53029 0.65014 0.96391 1.2058 1.2213 0.33278 0.15386 0.68097 0.23208 1.0351 0.23208 0.80415 0 1.4906-0.40336 1.7911-1.0526 0.2086-0.45048 0.20961-0.97053 3e-3 -1.4647-0.22186-0.53028-0.65015-0.9639-1.2058-1.2213-0.33277-0.15386-0.68111-0.23208-1.0351-0.23208z"/>
  <path d="m189.07 156.89c-1.5e-4 0-1.5e-4 0 0 0-1.8532-1.4e-4 -3.5386-1.2463-4.1937-3.1007-0.83598-2.3662 0.28696-4.928 2.503-5.7111 0.43218-0.1527 0.88366-0.2302 1.3418-0.2302 1.8528 0 3.5381 1.246 4.1936 3.1006 0.39861 1.128 0.36879 2.3365-0.0838 3.403-0.46777 1.1025-1.3269 1.9223-2.4192 2.3081-0.43218 0.15285-0.88352 0.23035-1.3416 0.23035zm-0.34892-6.711c-0.19304 0-0.3832 0.0326-0.56529 0.0969-1.0044 0.35482-1.4896 1.5825-1.0819 2.7367 0.32169 0.91046 1.1425 1.5463 1.9958 1.5463h1.4e-4c0.1929 0 0.38291-0.0326 0.56515-0.097 0.46791-0.16524 0.84088-0.52798 1.05-1.021 0.22459-0.52913 0.23583-1.1384 0.0318-1.7158-0.32169-0.91046-1.1424-1.5463-1.9958-1.5463z"/>
  <path d="m204.16 127.52c-1.9356 0-3.6807-1.3836-4.2442-3.3645-0.68659-2.4136 0.5941-4.9003 2.8547-5.5434 0.35871-0.102 0.72923-0.15372 1.1013-0.15372 1.9352 0 3.6804 1.3836 4.2442 3.3644 0.68659 2.4137-0.59425 4.9006-2.8548 5.5437-0.35885 0.10185-0.72923 0.15357-1.1012 0.15357zm-0.28812-6.7311c-0.15631 0-0.31218 0.0217-0.46344 0.0648-1.0246 0.29144-1.5855 1.4864-1.2507 2.6638 0.27991 0.98407 1.1032 1.6714 2.002 1.6715h1.5e-4c0.15616 0 0.31203-0.0217 0.46329-0.0648 1.0246-0.29144 1.5857-1.4864 1.2509-2.664-0.28006-0.98393-1.1034-1.6714-2.0022-1.6714z"/>
  <path d="m209.09 111.4c-2.2665 0-4.1484-1.8935-4.2842-4.3107-0.0673-1.1942 0.29921-2.3462 1.032-3.2435 0.75747-0.9276 1.8116-1.4744 2.9682-1.5396 2.363-0.13253 4.3711 1.8067 4.5117 4.3041 0.1409 2.5055-1.6537 4.6513-4.0007 4.7832-0.0759 4e-3 -0.15155 6e-3 -0.22703 6e-3zm-0.0566-6.7691c-0.032 0-0.064 1e-3 -0.0964 3e-3 -0.49542 0.0278-0.95497 0.27169-1.2936 0.68659-0.36332 0.44514-0.5447 1.0269-0.51027 1.6384 0.0687 1.2203 0.97659 2.1701 2.0534 2.108 1.0636-0.0599 1.8729-1.1029 1.8042-2.3251-0.0667-1.1836-0.92645-2.1106-1.9573-2.1106z"/>
  <path d="m197.36 143.91c-1.9075 0-3.6771-1.3814-4.4038-3.4368-0.90441-2.5601 0.16279-5.28 2.3789-6.0629 0.40323-0.14248 0.82576-0.21465 1.2561-0.21465 1.9075 0 3.6771 1.3812 4.4036 3.437 0.42426 1.2009 0.43376 2.4778 0.0264 3.5954-0.4365 1.1974-1.2906 2.0736-2.4049 2.4673-0.40336 0.14247-0.82589 0.21465-1.2559 0.21465zm-0.76928-7.3836c-0.16509 0-0.3263 0.0274-0.47943 0.0815-0.98739 0.34877-1.4258 1.7633-0.95757 3.0885 0.39184 1.1084 1.2991 1.8826 2.2061 1.8827h1.4e-4c0.16481 0 0.32601-0.0274 0.47914-0.0815 0.44587-0.1576 0.79795-0.53677 0.99157-1.0679 0.22272-0.61067 0.21061-1.3284-0.034-2.0206-0.3917-1.1084-1.2988-1.8827-2.206-1.8827z"/>
 </g>
 <g fill="#ffe6d5" stroke="#000">
  <g stroke-width=".618">
   <path d="m182.4 102 5.3147 4.1511s11.718-3.1167 20.589 2.4997c1.1796 0.74681 1.4073-3.8823 1.4073-3.8823s-9.3855-8.7443-27.311-2.7686z"/>
   <path d="m177.71 121.53-5.6865-3.7598s14.308-5.036 33.023 3.1192c1.8735 0.81639-1.4848 4.1407-1.9061 3.9791-8.3702-3.2107-17.747-3.8187-25.429-3.3384z"/>
   <path d="m169.14 138.59s-6.4042-3.7309-6.3653-4.3924c0 0 12.339-5.7644 35.226 1.8236 2.0533 0.68083-1.1772 5.223-2.0472 4.9345s-7.3775-5.0912-26.812-2.3658z"/>
   <path d="m167.18 150.66s-6.28-4.4425-7.0149-4.2793 16.109-5.2998 29.806 2.9724c2.3639 1.4276-1.4148 5.1572-2.7789 5.1147-1.3641-0.0425-5.9367-5.4749-20.011-3.8078z"/>
   <path d="m158.53 159.33s-3.8952-3.9156-4.5362-3.9974c0 0 12.558-2.6853 25.902 5.1404 1.3641 0.79997-1.4766 4.2992-2.7371 4.1191-1.2605-0.18008-8.6438-6.316-18.628-5.2621z"/>
   <path d="m146.33 166.75s-3.0133-2.8717-3.6015-2.92c-0.58819-0.0483 11.038-4.8747 24.767 4.754 2.3555 1.6521-0.12576 2.6046-1.7616 3.5351-1.5518 0.8828-6.1617-6.6564-19.403-5.3691z"/>
   <path d="m152.49 179.82s-20.817-11.849-32.475-11.302c-4.4346 0.20802 4.6207-4.2869 7.0648-3.8948 2.4441 0.39214 15.195 1.3477 28.234 10.731 2.0017 1.4405-0.92314 4.5497-2.8243 4.4657z"/>
  </g>
  <path d="m243.88 182.09s-9.1413 3.4934-21.083 3.0613-23.251 2.0889-28.87 4.1777c-3.3818 1.2574-31.736 3.6153-77.879-7.2926-9.5741-2.2633-33.599-5.1441-36.5-1.7832-2.999 3.4737-6.3425 12.322-6.3425 12.322-1.898 4.226 0 9.5755 0 9.5755s-0.07189 1.3146 2.8093 2.6742c2.8812 1.3596-8.3105-3.8826 16.302-0.82935 24.612 3.0532 66.914 12.788 94.457 10.4 17.165-1.4883 9.3035-4.9958 40.668-8.2114 14.049-1.4403 15.201-3.2651 16.162-7.5869 0 0 2.1144-16.782 0.2766-16.506z" stroke-width="1.618"/>
 </g>
 <g fill="none" stroke="#000">
  <path d="m167.11 214.42s5.1256-10.726-1.9755-24.539" stroke-width=".417"/>
  <path d="m243.79 194.81s-9.0161 3.8787-20.109 4.0227-23.914 5.3302-23.914 5.3302-8.7877 3.6015-30.685 0" stroke-width="2.236"/>
  <path d="m244.11 188.1s-8.9049 3.6104-19.997 3.457c-20.961-0.28985-26.795 10.299-56.41 4.7757" stroke-width=".417"/>
 </g>
 <g transform="matrix(.14406 0 0 .14406 6.8733 -41.604)">
  <path d="m1649.1 1553.1s-0.263 0.1-0.78 0.295c-0.525 0.184-1.317 0.484-2.351 0.818-1.035 0.35-2.324 0.772-3.864 1.23-1.535 0.492-3.331 0.981-5.366 1.529-8.144 2.167-20.194 5.045-35.732 7.519-3.888 0.591-7.984 1.214-12.28 1.866-4.309 0.566-8.817 1.159-13.518 1.777-4.705 0.576-9.611 1.063-14.705 1.58-5.094 0.488-10.375 0.881-15.835 1.348-10.919 0.808-22.554 1.557-34.826 2.067-6.139 0.359-12.432 0.402-18.878 0.557-6.396 0.144-12.938 0.291-19.621 0.442-1.673 0.04-3.354 0.08-5.044 0.121-1.65 0.079-3.31 0.159-4.978 0.24-3.337 0.18-6.687 0.276-10.098 0.526-3.408 0.247-6.849 0.496-10.32 0.747-3.456 0.335-6.942 0.674-10.458 1.015-14.037 1.479-28.422 3.502-43.019 6.589-14.614 3.083-29.415 7.094-44.808 11.633-3.867 1.127-7.756 2.26-11.664 3.397-3.942 1.095-7.904 2.195-11.885 3.301-7.853 2.181-16.099 4.465-24.478 6.446-8.383 1.998-16.911 3.742-25.523 5.286-4.31 0.735-8.637 1.484-12.988 2.097-4.349 0.685-8.718 1.215-13.102 1.777-4.384 0.567-8.784 0.971-13.198 1.465-4.414 0.383-8.84 0.766-13.277 1.15-4.438 0.262-8.889 0.524-13.348 0.787-4.457 0.179-8.924 0.357-13.4 0.537-17.896 0.53-35.9 0.453-53.921-0.229-4.502-0.193-9.021-0.292-13.521-0.565-4.504-0.249-9.01-0.497-13.52-0.746-4.508-0.256-9.003-0.628-13.508-0.937-4.502-0.325-9.01-0.619-13.496-1.067l-13.474-1.248c-4.488-0.426-8.96-0.952-13.438-1.424-8.961-0.914-17.875-2.048-26.776-3.148-8.913-1.03-17.746-2.419-26.58-3.646-8.825-1.278-17.589-2.73-26.335-4.079-8.73-1.429-17.409-2.927-26.043-4.435-8.622-1.566-17.171-3.256-25.683-4.863-4.259-0.791-8.484-1.665-12.699-2.525-4.214-0.859-8.414-1.716-12.6-2.569-8.38-1.663-16.653-3.509-24.872-5.277-4.107-0.889-8.198-1.774-12.271-2.655-4.062-0.923-8.105-1.842-12.13-2.756-8.048-1.826-16.011-3.679-23.859-5.624-15.641-3.903-30.944-7.723-45.84-11.441-7.433-1.836-14.679-3.497-21.872-5.211-7.218-1.618-14.326-3.212-21.316-4.779-6.997-1.533-13.875-3.065-20.651-4.414-3.386-0.684-6.737-1.407-10.065-2.039-3.329-0.636-6.625-1.264-9.887-1.887-3.261-0.642-6.497-1.197-9.697-1.761-3.202-0.559-6.369-1.111-9.5-1.657-6.271-0.995-12.397-2.03-18.378-2.934-11.958-1.9-23.342-3.355-34.061-4.554-21.441-2.281-40.228-3.514-55.707-3.557-7.738-0.029-14.649 0.158-20.649 0.502-6 0.351-11.089 0.874-15.191 1.449-4.1 0.584-7.224 1.164-9.298 1.649-1.037 0.244-1.814 0.448-2.33 0.594-0.497 0.151-0.75 0.228-0.75 0.228l-0.629-1.49s0.29-0.118 0.815-0.312c0.529-0.189 1.32-0.455 2.367-0.775 2.094-0.634 5.224-1.457 9.349-2.285 8.245-1.657 20.479-3.344 36.121-4.025 15.637-0.745 34.662-0.548 56.395 0.902 10.864 0.746 22.415 1.725 34.548 3.126 6.076 0.627 12.28 1.487 18.642 2.289 3.174 0.448 6.385 0.902 9.632 1.361 3.246 0.465 6.529 0.92 9.834 1.46 26.479 4.112 55.021 9.415 84.996 16.068 14.958 3.365 30.325 6.822 46.032 10.355 7.854 1.75 15.819 3.397 23.847 5.128 4.017 0.852 8.052 1.707 12.106 2.566 4.063 0.818 8.143 1.641 12.24 2.466 65.53 13.252 136.01 24.981 207.05 31.115 4.436 0.423 8.878 0.752 13.319 1.079 4.442 0.318 8.88 0.701 13.321 0.967 4.442 0.26 8.883 0.519 13.32 0.778 4.436 0.285 8.875 0.394 13.307 0.6 17.73 0.692 35.41 0.959 52.935 0.561 35.032-0.797 69.515-4.121 102.06-11.435 8.141-1.804 16.14-3.896 24.094-5.98 7.954-2.061 15.799-4.155 23.584-6.239 15.551-4.19 30.908-7.966 46.034-10.775 30.283-5.6 59.455-7.188 86.259-7.01 6.691 0.066 13.245 0.131 19.649 0.194 6.397 0.076 12.647 0.166 18.739 0.102 12.186 0.014 23.742-0.235 34.597-0.571 21.71-0.723 40.604-2.127 56.096-3.849 15.493-1.711 27.577-3.743 35.737-5.435 2.04-0.422 3.841-0.802 5.382-1.18 1.549-0.351 2.84-0.681 3.876-0.957 1.046-0.262 1.808-0.496 2.329-0.641 0.522-0.158 0.788-0.238 0.788-0.238z"/>
 </g>
</svg>
