<?xml version="1.0" encoding="UTF-8"?>
<svg cursor="default" version="1.1" viewBox="0 0 256 256" xmlns="http://www.w3.org/2000/svg" xmlns:cc="http://creativecommons.org/ns#" xmlns:dc="http://purl.org/dc/elements/1.1/" xmlns:rdf="http://www.w3.org/1999/02/22-rdf-syntax-ns#">
 <metadata>
  <rdf:RDF>
   <cc:Work rdf:about="">
    <dc:format>image/svg+xml</dc:format>
    <dc:type rdf:resource="http://purl.org/dc/dcmitype/StillImage"/>
    <dc:title/>
   </cc:Work>
  </rdf:RDF>
 </metadata>
 <defs>
  <radialGradient id="radialGradient967" cx="884.69" cy="1563.9" r="693.82" gradientTransform="matrix(0 -.17766 .12072 0 -56.747 287.83)" gradientUnits="userSpaceOnUse">
   <stop stop-color="#f55" offset="0"/>
   <stop stop-color="#ff2a2a" offset=".32763"/>
   <stop stop-color="#ff2a2a" offset=".57973"/>
   <stop stop-color="#f55" offset=".791"/>
   <stop stop-color="#ff8080" offset=".88577"/>
   <stop stop-color="#ffd5d5" offset=".97086"/>
   <stop stop-color="#ffd5d5" offset="1"/>
  </radialGradient>
  <linearGradient id="linearGradient1316" x1="878.21" x2="878.21" y1="1304.2" y2="364.91" gradientTransform="matrix(.11966 0 0 .11966 27.579 -34.549)" gradientUnits="userSpaceOnUse">
   <stop stop-color="#f55" offset="0"/>
   <stop stop-color="#ff2a2a" offset=".24731"/>
   <stop stop-color="#ff2a2a" offset=".50364"/>
   <stop stop-color="#f55" offset=".69615"/>
   <stop stop-color="#ffd5d5" offset=".87253"/>
   <stop stop-color="#ffd5d5" offset=".95366"/>
   <stop stop-color="#faa" offset="1"/>
  </linearGradient>
 </defs>
 <g stroke="#000" stroke-miterlimit="10">
  <path d="m193.51 187.7s5.9508-14.527 6.0628-15.316c0.13964-0.9848 0.14479-2.2695 0.065-2.9874-0.0798-0.71796-0.82267-0.82266-1.765-1.1218-0.59961-0.19038-1.7246 0.35288-4.0437 4.5081-0.30645 0.549-3.1509 8.3754-4.0684 14.918-0.0944 0.67297 0.0616 0.99067 0.77791 1.1572 1.7152 0.39883 2.0144 0.67812 2.9714-1.1572z" fill="#ffd42a" stroke-width=".316"/>
  <path d="m75.562 190.29s-1.9137-17.41-2.6923-19.983c-0.17028-0.56252-0.40337-0.77635-0.74787-0.89745-0.56755-0.19935-2.3624-0.43831-2.163 0.85808 0.11619 0.75482 1.2954 5.3642 1.8339 6.9796 0.53847 1.6154-2.0001 1.9606 0.5983 5.0257 0.67895 0.80088 2.0821 6.6124 2.2155 7.3791 0.19852 1.1414 0.71437 1.2364 0.95548 0.63814z" fill="#fd5" stroke-width=".316"/>
  <g stroke-width=".417">
   <path d="m166.62 226.79c-0.3214 0.19277-2.5249 4.4966-2.7151 4.8114-0.19636 0.32487-0.39619 0.70779 8e-3 0.96206 0.21347 0.13438 4.9783 2.7619 5.3 2.7622 0.4437 0 1.062-0.0872 1.4006-0.41115 0.1948-0.18631 9.9172-16.8 8.7306-20.091-0.22998-0.63778-3.5101-2.3532-4.0286-2.2336-0.51849 0.11966-4.098 3.8861-4.3781 4.8892-0.0977 0.34965-0.12421 0.75541-0.129 1.0538-0.01 0.60547-3.0913 7.599-4.1881 8.2572z" fill="#ffd42a"/>
   <path d="m173.05 228.64c0.8576-0.51801 2.2197-3.2455 2.3135-3.7892 0.37884-2.1932-0.16513-2.5266-0.29915-2.7123-0.16704-0.23154-1.1767-1.4759-2.852 0.75781-1.6752 2.2337-1.9641 4.1432-2.094 4.5077-0.0806 0.22628 0.10386 0.68278 0.33911 0.81775 1.1121 0.63815 1.9057 0.8332 2.5926 0.41822z" fill="#fd5"/>
   <path d="m169.73 236c0.95465 1.1197-6.0465 9.4548-7.4202 10.294-0.95907 0.58609-1.578 0.3086-2.0758-0.27976-0.70959-0.83846-2.5259-4.8122-2.424-5.7619 0.0719-0.66902 0.42132-1.7416 0.50939-2.016 0.21383-0.66686 4.6911-4.387 6.0845-4.6263 1.3933-0.23932 4.7805 1.7498 5.3262 2.3897z" fill="#ffd42a"/>
  </g>
 </g>
 <g fill="#f95" stroke="#000" stroke-miterlimit="10">
  <g stroke-width=".417">
   <path d="m129.17 243.6s2.8718 1.3162 3.7094 1.3761c0.83762 0.0598 6.2821-1.0769 10.71-0.68804 4.4274 0.38889 3.2671-1.8186 5.4445-3.0579 0.30178-0.17183-0.27917 1.0728 2.5128 1.0728 1.6757 0 6.8804-5.5965 9.9916-1.0728l3.53-1.1274-3.151-4.9786-31.691 4.594z"/>
   <path d="m129.79 241.93s12.002 0.47864 13.737 0.35898c1.7351-0.11966 4.4274 0.40313 8.1369-1.4736 3.7094-1.8768 8.7749-3.9266 12.016 0l0.9075-2.7074-17.769-0.52148-16.704 2.8958z"/>
   <path d="m129.79 241.09s16.01 0.46296 18.164-0.27701c2.1539-0.73998 5.3847-2.176 6.2821-2.3555 0.89744-0.17949 7.8973-2.0012 9.5798 1.2635l2.087-1.6154-9.2138-3.896-26.398 5.9332z"/>
   <path d="m73.13 178.92s4.9963-2.9418 5.7437-3.4296c1.8347-1.1973 2.6485-7.3418 2.7123-8.2971 1.0371-15.556-0.03662-23.203-0.51526-24.16-0.47864-0.95728-1.16-4.0788 0.19612-4.9564 1.3561-0.87759-7.4189 0-7.4189 0s2.5527 2.4729 2.792 4.9459c0.23932 2.473-1.755 11.966-1.0769 16.433s-2.433 18.268-2.433 18.268z"/>
  </g>
  <path d="m194.65 181.8s-5.2034 1.4212-5.3468 4.7066c-0.58107 13.322-2.2564 16.752-2.8148 18.188-0.55833 1.4359-6.9401 10.211-7.9772 10.45-1.0371 0.23932-1.8348-2.473 0-4.3078 1.8347-1.8347 6.7305-11.029 6.6211-12.778s0-10.355 1.9146-12.35c1.9146-1.9947 3.8187-5.5779 7.8826-5.584 2.3352-3e-3 -0.27952 1.6752-0.27952 1.6752z" stroke-width=".38722"/>
  <g stroke-width=".417">
   <path d="m195.74 149.61c-0.83881 7.0883-11.207 19.982-1.0921 25.405l1.2522-1.6426s-3.5101-4.2595-1.4759-9.1257c0 0-1.0774-4.5456-0.0798-6.4226 0.51059-0.96039 6.3275-10.492-0.0395-17.468-5.4254-5.9447-6.4449-12.226-6.9969-12.319-9.0316-1.534-5.1301 5.3366-5.1301 5.3366s14.539 7.9783 13.562 16.237z"/>
   <path d="m196.87 174.38s-5.6714-4.0269-1.4458-11.767c4.9433-9.0543 8.3762-24.293 9.134-25.29 0.7578-0.99676 0.71796-7.3246 1.3163-8.0302 0.59829-0.70563 1.8347-1.7826 2.433-2.2612s0.49754-4.1652 0.25822-4.8832 2.9362-4.2702 2.9915-2.3932c0.22197 7.5386-1.4359 12.026-2.3334 14.658-0.89745 2.6325-10.771 25.884-12.354 29.556-0.92844 2.1539-0.50963 6.8505 0.32799 7.6582 0.83761 0.8077-0.32799 2.7523-0.32799 2.7523z"/>
   <path d="m195.7 178.7s-8.3164 3.5781-8.9745 4.296c-0.65813 0.71795-1.4405 1.4427-2.8718 4.9659-1.5556 3.8291-3.0559 11.288-3.4103 12.445-2.0342 6.6411-5.5868 10.076-7.8411 12.185-2.2009 2.0589 0.18284 4.5077 1.9179 4.8069 1.7351 0.29915-2.8653-3.2285 0.57939-5.3249 7.0788-4.3078 9.4122-10.889 9.3524-12.684-0.1199-3.5958 3.2316-7.5883 4.0086-12.445 0.47864-2.9915 2.0342-4.906 6.1871-5.8035 1.9679-0.42527 1.0523-2.4413 1.0523-2.4413z"/>
   <path d="m194.92 180.6s3.4053-1.4958 4.0036-2.5727c0.5983-1.0769 0.89171-1.6864 0.41881-2.6924s-1.1966-1.5556-1.1966-1.5556z"/>
   <path d="m51.032 123.88c0.39883 7.6604 19.465 39.33 20.748 42.598 0.5417 1.3796 0.97319 3.1143-0.26792 4.4702-0.32548 0.35575 1.6173 4.5471 1.6173 4.5471s7.738-6.2406 2.9197-16.992c-2.7129-6.0534-8.0252-5.0267-14.566-16.274-2.1873-3.7608-7.4189-10.451-7.3061-14.494 0.04248-1.5235-0.9903-6.0073-2.3465-5.9275-1.3562 0.0798-0.87184 0.65071-0.79777 2.0722z"/>
   <path d="m70.976 172.14s-2.3932 1.0371-2.3932 2.9516c0 1.9146-0.11368 2.9481 0.9373 5.5642 1.406 3.5 3.6098 3.3721 2.4829 0.80771 0 0-2.9317-3.53-0.05983-5.7138z"/>
   <path d="m73.648 182.75s3.0513 2.453 3.53 4.4274c0.47864 1.9744 3.5856 9.2736 4.8441 10.889 1.2585 1.6154 3.5639 11.101 4.1304 13.163 6.6411 24.171 39.726 28.906 43.64 28.24 0.87327-0.14861 1.5374 0.71796 0 1.0171-11.324 2.2034-27.665-7.4787-33.708-12.265-6.0428-4.7864-9.2736-12.026-9.7523-13.641-0.47864-1.6154-3.7693-12.145-4.4872-12.983-0.71796-0.83762-6.5253-13.482-6.6353-14.433-0.10997-0.9513-1.9204-3.2762-1.5614-4.4129z"/>
   <path d="m73.13 179.95s3.3903 0.28658 5.0656 5.1328c1.6752 4.8462 5.5642 10.71 6.7009 12.744 1.1368 2.0342 1.348 3.5002 1.7351 4.8462 5.265 18.308 21.479 28.599 22.975 30.094 1.6624 1.6624 20.342 6.1625 20.581 6.0428s0 1.1368 0 1.1368-44.214-1.2564-46.548-39.129c-0.43472-7.0557-2.094-5.624-3.1112-7.1198-1.0171-1.4958-3.8291-7.9343-3.7693-8.933s-1.1368-2.7937-2.5129-2.674c-1.3761 0.11966-1.1168-2.1413-1.1168-2.1413z"/>
   <path d="m129.79 240.11s13.258 1.0583 17.865-0.38471c4.6069-1.443 10.211-4.0614 16.025-1.6154l1.3861-1.6098-11.248-1.8075s-17.002 5.265-24.028 4.5471z"/>
   <path d="m130.67 238.69s9.3135-0.88021 10.949-1.4957c3.2333-1.2169 10.827-3.0595 11.248-3.171 0.84204-0.22304 5.3847-2.3932 13.043 1.7949v1.0769s-7.8377-2.812-18.487 1.2037c-6.612 2.4931-16.346 1.353-16.752 1.369-0.40684 0.016 0-0.77779 0-0.77779z"/>
   <path d="m129.5 240.97c-0.23932 0.17949-4.5172 0.38889-4.906 0.38889s-4.0385 0-4.4274 0.56839c-0.38889 0.56838-1.5556 1.1368-2.4829 1.1966-0.92736 0.0598-0.47864-0.56839-2.812 1.406-2.3334 1.9744 1.6154 3.1411 2.8718 2.8718 1.2564-0.26923 4.6966-2.453 5.3847-2.9317 0.68804-0.47864 1.1068 0 2.9018-0.47864 1.7949-0.47864 2.7522 0.26923 2.7522 0.26923s0.95728-3.4701 0.71796-3.2906zm-0.47864 1.3354c-5.5642-0.16034-7.8676 0.54924-8.3164 0.75865-0.44873 0.2094-3.5898 2.1539-4.0684 2.3633-0.47864 0.2094-0.77779-0.11966-0.44873-0.44633 0.32907-0.32668 4.218-2.2161 5.0556-2.5152s7.9275-0.62822 7.9275-0.62822z"/>
  </g>
 </g>
 <path d="m164.41 233.61c0.8576-0.63815 4.7805 1.7498 5.3262 2.3897 0.95465 1.1197-6.0465 9.4548-7.4202 10.294-0.95907 0.58609-1.578 0.3086-2.0759-0.27976-0.70958-0.83846-2.5259-4.8122-2.424-5.7619 0 0 1.1306-1.6338 2.1065-0.1479 0.31914 0.48594 5.5246-4.8487 4.4377-5.4171-0.28073-0.14694-0.26589-0.84252 0.0497-1.0773z" fill="#fd5" stroke="#000" stroke-miterlimit="10" stroke-width=".236"/>
 <path d="m175.32 212.58h0.1382c-0.0567-7e-3 -0.10386-8e-3 -0.1382 0z" fill="#ff0" stroke="#000" stroke-linejoin="round" stroke-miterlimit="10" stroke-width=".236"/>
 <g fill="#fd5" stroke="#000" stroke-miterlimit="10">
  <path d="m179.34 214.82c-0.21467-0.59542-3.0859-2.129-3.8892-2.2333-1.0966 0.48917-2.1798 6.0537-2.6657 5.7938-0.33564-0.17949-3.8955 5.8334-4.1648 6.8453-0.26923 1.0118 0.0598 1.3514-0.0299 1.5608-0.0898 0.2094-2.5727 4.4872-3.0214 5.2052s-1.6603 0.56838-1.6603 0.56838c0.21347 0.13438 4.9783 2.7619 5.3 2.7622 0.4437 0 1.062-0.0872 1.4006-0.41115 0.1948-0.1862 9.9172-16.8 8.7306-20.091zm-3.9886 10.035c-0.0938 0.54361-1.4559 3.2711-2.3135 3.7892-0.68684 0.41498-1.4804 0.21993-2.5926-0.41822-0.23525-0.13497-0.41976-0.59147-0.33911-0.81775 0.12995-0.36448 0.41881-2.274 2.094-4.5077 1.6752-2.2337 2.6849-0.98935 2.852-0.75781 0.13401 0.18571 0.67799 0.51909 0.29914 2.7123z" stroke-linejoin="round" stroke-width=".236"/>
  <path d="m196.42 168.94c0.65083-0.66973 1.1405-0.76546 1.4469-0.6683 0.94232 0.29915 1.6852 0.40385 1.765 1.1218 0.0798 0.71796 0.0747 2.0025-0.065 2.9874-0.112 0.78987-6.0628 15.316-6.0628 15.316-0.95704 1.8353-1.2562 1.556-2.9714 1.1572 0 0-3.1959-0.45016 2.2935-4.6682 0.38064-0.29245 1.1967-5.3647 1.755-6.0827 0 0-0.51358-0.39392-3.2811 2.3786-0.19217 0.19253 0.49156-2.5607 0.95764-3.2673 4.1782-6.3354 4.6829-5.7794 4.7246-5.894 0.32225-1.9082-0.11379-2.1517-0.52387-2.0464z" stroke-width=".236"/>
  <path d="m66.977 179.16s1.5855 8.107 5.5343 11.491c0.66112 0.56659 1.7949 0.53476 2.6026 0.32536 0.8077-0.20941 1.1925-2.2258 0.74787-3.5599-0.53847-1.6154-2.7632-1.2414-3.1084-1.7052-3.6524-4.906-3.2336-6.5813-3.772-6.9403s-2.0641-0.71796-2.0043 0.38889z" stroke-width=".316"/>
  <path d="m200.37 179.49s-0.45698 2.6728-7.6366 9.8125c-0.46045 0.45781-2.723-0.4035-3.1739-0.97499-0.18751-0.23765-0.47577-3.0535 7.1011-6.4442 2.9909-1.3388 3.3902-3.7096 3.7093-2.3933z" stroke-width=".417"/>
 </g>
 <g stroke="#000" stroke-miterlimit="10">
  <path d="m170.66 228.28c-0.0465 0.26708-0.619-0.64234-0.53835-0.86861 0.12995-0.36449 0.4188-2.274 2.094-4.5077s2.6849-0.98934 2.852-0.7578c0 0 0.28623 0.43711-0.65837 2.7646-0.27737 0.68349-1.8149 1.6998-2.1539 0.84228-0.339-0.85748-1.037-0.67799-1.5954 2.5272z" fill="#ffd42a" stroke-width=".236"/>
  <path d="m131.29 238.73s-1.3163 5.3847-2.2137 6.2821-0.92736-0.53847-0.71796-1.3163c0.20941-0.77779 1.1406-3.3769 1.1966-4.9659 0.0299-0.84874 2.0641-0.8077 1.7351 0z" fill="#fd5" stroke-width=".316"/>
  <path d="m50.394 112.63v8.7751c5.8235 4.6268 14.025 4.6301 14.518 5.7437 3.9886 9.0143 7.0044 12.662 7.4987 12.764 3.1506 0.6415 10.559 1.3925 14.2 2e-3 30.074-11.489 61.448-14.174 84.4-1.1983 3.5097 1.9841 4.2599-1.5426 6.9401-1.029 4.0812 0.78222 5.9832 0.86035 6.701 0.78963 1.7747-0.17506 6.0234-0.35897 9.206-11.009 0.98947-3.3109 18.156-8.6952 18.554-8.775 0.39847-0.0798 0.63815-9.5728 0.63815-9.5728-7.4895-4.1958-162.65 3.51-162.65 3.51z" fill="#4d4d4d" stroke-width="1.618"/>
  <path d="m73.608 108.24s120.98-8.7457 119.1 1.5157c-4.9808 27.327-13.057 28.236-13.057 28.236-0.51969-0.0878-1.0854-0.18978-1.7007-0.30765-2.6803-0.5137-3.4304 3.013-6.9401 1.029-22.952-12.975-54.326-10.291-84.4 1.1983 0 0-9.0357 5.1037-13.003-31.672z" fill="#1a1a1a" stroke-width=".417"/>
  <path d="m66.976 107.25s-1.0464 14.558-0.98552 25.966c0.0024 0.4492 0.01903 0.9002 0.47864 1.0769 1.5556 0.59794 11.792 1.8375 12.086 1.3163 0.71796-1.2768 2.6679-12.696 3.151-13.243 0.31698-0.35898 0.66196-0.77624 3.191-0.55917 36.257 3.1124 90.38 2.076 94.33-6.8394 3.8684-8.7312 5.346 0.77779 5.346 0.77779s2.2963 11.917 3.2695 12.069c0.97319 0.15233 11.044-1.4192 11.845-2.0175s4.3872-20.581 0.67943-22.975c-3.7078-2.3932-133.4 4.4274-133.4 4.4274z" fill="#4d4d4d" stroke-width=".618"/>
  <g transform="matrix(.11966 0 0 .11966 27.579 -34.549)" fill="#1a1a1a" stroke-width="5.1646">
   <path d="m1438.3 1340c4.961 6.72 36.664-172 5.678-192s-1114.8 37-1114.8 37-8.745 121.66-8.236 217c0.02 3.754 0.159 7.523 4 9 0 0 20.799 2.002 20-79.5-0.5-51 84-48.105 104.5-48.105 17.72 0 972.5-77.895 972.5-77.895s4.499 118.51 16.308 134.5z"/>
   <path d="m1418 1057.1-201.43 15s95.995-109.5 4.5-106.5c-56.353 1.848-157.49 12-167.99 12l-2.143-448.48s-53.141-53.998 0-124.49c0 0 210.63 26.999 248.13 116.99z"/>
   <path d="m271.48 1068.9 205.8 31.54s2.729-75.737 16.472-102.94c16.185-32.041 160.26-27.459 172.92 11.208l-6.358-464.65s43.36-62.125-20.822-122.74c0 0-203.15 61.848-225.07 156.85z"/>
  </g>
  <path d="m197.27 110.96s2.0666 15.157 3.9812 15.476c1.9146 0.31829 10.61 0.63814 11.408-1.9944 0.79777-2.6325 0-16.194 0-16.194z" fill="#4d4d4d" stroke-width="1.618"/>
  <path d="m212.66 108.24s0.79777 13.561 0 16.194c-0.25691 0.84779-1.3329 1.3895-2.7375 1.7236 0 0 2.4997-2.6809-2.694-16.961-1.9862-5.461 5.4315-0.95715 5.4315-0.95715z" fill="#1a1a1a" stroke-width=".618"/>
  <path d="m66.11 113.67s-0.03362 14.758-1.8516 16.115c-1.818 1.3569-10.12 0.95943-10.753 0.63814-0.63288-0.32128-2.4442-8.0572-2.618-17.311-0.17386-9.254 15.222 0.55845 15.222 0.55845z" fill="#4d4d4d" stroke-width="1.618"/>
  <path d="m50.887 113.11c0.17398 9.2536 1.9852 16.989 2.618 17.311 0 0 1.8349 0.54099 0.55845-16.115-0.28132-3.6726-3.1765-1.1966-3.1765-1.1966z" fill="#1a1a1a" stroke-width=".618"/>
  <path d="m147.42 10.683c-0.42922-0.07394-0.44872-0.73292-0.47864-0.89745-0.03-0.16453-0.12038-0.3921-0.59829-0.41881-11.786-0.65813-18.906-0.5983-33.565 0.71796-0.34869 0.03118-0.67799 0.23871-0.71796 0.65813-0.0515 0.53931 0.21693 0.72873-0.95728 0.95907-63.225 12.399-60.18 72.894-61.754 116.04-0.1693 4.6386 2.4832 3.4399 2.6427 1.5521 0.05276-0.62463 0.82828-9.5589 0.83762-9.8007 0.03968-1.0335 0.30776-1.0547 1.0171-0.9933 16.573 1.4359 56.7 1.1682 57.975 1.1152 1.0215-0.0424 1.1155 0.13687 1.4363 0.38052 0.91958 0.69845 37.663-0.32905 38.142-0.56838 0.47864-0.23932 0.53835-0.53536 1.4958-0.56839 2.6026-0.0897 14.049 0.35647 56.875-3.8889 0.60847-0.0603 1.4064-0.39882 1.429 1.0171 0.0967 6.048 0.2903 6.8383 0.31925 8.2572 0.0599 2.931 2.8923 2.3925 2.8916-0.50077-0.01782-74.16-13.075-103.77-66.989-113.06zm-49.799 80.282c-0.99605 0.32979-15.922 1.0922-18.587 0.60763-6.1425-1.1168-6.9449-14.983 1.5157-18.029 1.9944-0.71796 13.227-1.1442 17.151-0.95728 8.3763 0.39895 10.131 14.997-0.07981 18.379zm6.8421-72.191c-9.3682 2.7792-16.683 6.342-23.623 11.487-1.1938 0.885-2.4165-0.05361-1.7351-0.71796 7.1198-6.9403 17.379-10.457 24.341-12.265 2.9533-0.76714 2.896 0.93825 1.0171 1.4957zm51.572-2.348c4.0086 0 16.992 3.8291 24.111 10.769 0.68146 0.66435-0.54122 1.603-1.7351 0.71796-6.9403-5.1454-15.197-8.9745-23.393-9.9916-1.945-0.24134-2.0342-1.4957 1.0171-1.4957zm28.456 72.661c-0.33132 0.17003-1.4131 1.0675-19.063 0.51083-8.5219-0.26876-9.0946-17.148-0.71796-18.368 0.71796-0.10448 15.203 0.24807 17.111 0.35898 5.1454 0.29913 10.65 13.402 2.6695 17.498z" fill="url(#radialGradient967)" stroke-width="1.162"/>
  <path d="m151.4 119.43c-1e-3 0.2337-38.118 1.0765-38.142 0.56839-2.0342-43.257-4.5351-67.175-1.1966-109.25 0.0242-0.3043 0.57557-0.64174 0.71796-0.65813 14.918-1.7144 21.858-1.1286 33.565-0.71796 0.38734 0.013641 0.5709 0.18655 0.5983 0.41881 4.7043 40.026 4.7266 59.172 4.4573 109.64z" fill="url(#linearGradient1316)" stroke-width="1.162" style="paint-order:normal"/>
 </g>
</svg>
