<?xml version="1.0" encoding="UTF-8"?>
<svg version="1.1" viewBox="0 0 256 256" xmlns="http://www.w3.org/2000/svg" xmlns:cc="http://creativecommons.org/ns#" xmlns:dc="http://purl.org/dc/elements/1.1/" xmlns:rdf="http://www.w3.org/1999/02/22-rdf-syntax-ns#">
 <metadata>
  <rdf:RDF>
   <cc:Work rdf:about="">
    <dc:format>image/svg+xml</dc:format>
    <dc:type rdf:resource="http://purl.org/dc/dcmitype/StillImage"/>
    <dc:title/>
   </cc:Work>
  </rdf:RDF>
 </metadata>
 <defs>
  <linearGradient id="linearGradient1090" x1="94.113" x2="1648.9" y1="1195.6" y2="1195.6" gradientTransform="matrix(.13712 0 0 .13712 11.437 -46.405)" gradientUnits="userSpaceOnUse">
   <stop stop-color="#fff" stop-opacity=".2" offset="0"/>
   <stop stop-color="#fff" stop-opacity=".2" offset=".015775"/>
   <stop stop-color="#f55" stop-opacity=".2" offset=".046692"/>
   <stop stop-color="#faa" stop-opacity=".2" offset=".15564"/>
   <stop stop-color="#fff" stop-opacity=".2" offset=".33555"/>
   <stop stop-color="gray" stop-opacity=".2" offset=".42274"/>
   <stop stop-color="#fff" stop-opacity=".2" offset=".48131"/>
   <stop stop-color="#fff" stop-opacity=".2" offset=".49797"/>
   <stop stop-color="gray" stop-opacity=".2" offset=".55995"/>
   <stop stop-color="#fff" stop-opacity=".2" offset=".67849"/>
   <stop stop-color="#faa" stop-opacity=".2" offset=".84795"/>
   <stop stop-color="#f55" stop-opacity=".2" offset=".96093"/>
   <stop stop-color="#fff" stop-opacity=".2" offset=".98735"/>
   <stop stop-color="#fff" stop-opacity=".2" offset="1"/>
  </linearGradient>
 </defs>
 <path d="m27.983 72.341-0.74881-27.476s0.67271-5.9644 2.9359-6.1701c2.2632-0.20568 51.746 2.1092 78.978 15.015 11.589 5.4918 35.709 4.3027 42.123 1.3286 6.4145-2.9741 56.34-19.286 80.627-12.435 1.6283 0.45935 1.8088 2.8008 2.0383 6.0628 0.11642 1.6541-2.0383 28.078-2.0383 28.078s0.26148 4.1135-2.9367 5.1419c-3.1982 1.0284-33.601 4.9903-45.302 2.7051-6.1094-1.1932-33.548-2.2855-36.382 21.025-2.9318 24.115 5.3935 34.188 20.487 33.446 3.5502-0.17442 32.676 0.98493 49.535-8.0334 4.0948-2.1905 14.079-6.6744 18.1-6.5818 1.7364 0.04 1.9675 4.5695 0.41383 10.961-1.278 5.2572-13.321 38.398-21.978 42.115-9.8806 4.2411-40.184 0.7447-48.731 7.0757-4.7966 3.5529-16.683 8.6837-29.839 11.229-7.3826 1.4282-15.903-0.11792-19.945-1.2339-11.371-3.1395-31.666-15.039-36.603-15.131-4.2938-0.0795-24.154-1.127-30.53-4.0064-6.3761-2.8794-21.573-25.048-23.155-51.819-0.30125-5.0937 5.4821-2.3199 9.5359 0.26135 21.391 13.621 53.013 15.035 58.42 14.923 18.641-0.3875 24.278-29.012 14.162-46.094-5.5763-9.4155-21.418-9.2641-33.823-9.5069-11.216-0.21967-31.527-3.3891-40.217-3.3843-4.3008 0.0025-4.5924-4.8731-5.1235-7.4935z" fill="url(#linearGradient1090)" stroke="#000" stroke-miterlimit="10" stroke-width="1.618"/>
 <g transform="matrix(.13712 0 0 .13712 11.437 -46.405)">
  <path d="m922.09 1326.1s5.999-73.497 37.498-91.496 22.498 26.998 32.998 62.997 128.99 289.48 148.49 295.48c32.695 10.061 27.054 107.96-212.99 158.99 0 0 17.245-182.07-6-425.98z" fill="#333" opacity=".25"/>
  <path d="m790.59 1752.2s-6.594-228.84 0-290.09c13.707-127.32 25.665-152.69-6.667-231.59s-42.831 4.417-45.831 19.006-56.038 191.87-179.99 337.07c-52.497 61.497 43.498 26.999 59.997 44.998s62.997 128.7 172.49 120.6z" fill="#333" opacity=".25"/>
  <g fill="#fff">
   <path d="m1065 962s20-70-72-84 6-38 50-41 43-48.863 160-46.932 126 43.94 67 85.936 22 43.996 50 61.996-110 7-125 7-103-11-130 17z" opacity=".3"/>
   <path d="m501 932s143 6 158 0 92-33.991 62-55.996-106-46.004-150-54.004-50-9-83-15-80 27-91 35 57.101 88.394 104 90z" opacity=".3"/>
   <path d="m1245 1563s-89-132-95-172 18-28 35-30 220 4 303-49 7 197-243 251z" opacity=".5"/>
   <path d="m458 1553s8-73 23-101 23-41-23-61 1.732-29 17.366-28 23.634-16-65.366-16-140-38-140-38 17 59 56 76 52 38 21 53 44 101 111 115z" opacity=".4"/>
  </g>
 </g>
 <g transform="matrix(.13712 0 0 .13712 11.437 -46.405)" fill="#ff2a2a" stroke="#000" stroke-miterlimit="10" stroke-width="5.951">
  <path d="m146.67 859-4.667-180.33s-13-20-17 0l4 177.33s8.334 20.912 17.667 2.998z"/>
  <path d="m1582.3 880.35 14.586-179.8s14.085-19.42 16.978 0.77l-13.754 176.84c-1e-3 0-9.478 20.587-17.81 2.187z"/>
  <path d="m1519.7 1548s62.666-124.67 71.333-158 13.668-19.334 14.334 0-64.001 152.67-69.334 158-20.333 22-16.333 0z"/>
  <path d="m204.67 1515.3s-48.021-80.621-71.333-167.33c-8.333-30.997-13.989-14.059-14.204-6.069-0.406 15.072 51.87 159.07 72.537 173.4 18.089 12.543 18.41 10.67 13 0z"/>
 </g>
</svg>
