<?xml version="1.0" encoding="UTF-8" standalone="no"?>
<svg
   xmlns:dc="http://purl.org/dc/elements/1.1/"
   xmlns:cc="http://creativecommons.org/ns#"
   xmlns:rdf="http://www.w3.org/1999/02/22-rdf-syntax-ns#"
   xmlns:svg="http://www.w3.org/2000/svg"
   xmlns="http://www.w3.org/2000/svg"
   xmlns:sodipodi="http://sodipodi.sourceforge.net/DTD/sodipodi-0.dtd"
   xmlns:inkscape="http://www.inkscape.org/namespaces/inkscape"
   version="1.1"
   viewBox="0 0 256 256"
   id="svg4598"
   sodipodi:docname="power_kick.svg"
   inkscape:version="0.92.4 (5da689c313, 2019-01-14)">
  <metadata
     id="metadata4602">
    <rdf:RDF>
      <cc:Work
         rdf:about="">
        <dc:format>image/svg+xml</dc:format>
        <dc:type
           rdf:resource="http://purl.org/dc/dcmitype/StillImage" />
      </cc:Work>
    </rdf:RDF>
  </metadata>
  <sodipodi:namedview
     pagecolor="#ffffff"
     bordercolor="#666666"
     borderopacity="1"
     objecttolerance="10"
     gridtolerance="10"
     guidetolerance="10"
     inkscape:pageopacity="0"
     inkscape:pageshadow="2"
     inkscape:window-width="1920"
     inkscape:window-height="1057"
     id="namedview4600"
     showgrid="false"
     inkscape:zoom="3.4687499"
     inkscape:cx="10.203708"
     inkscape:cy="69.171009"
     inkscape:window-x="-8"
     inkscape:window-y="-8"
     inkscape:window-maximized="1"
     inkscape:current-layer="svg4598" />
  <defs
     id="defs4568">
    <radialGradient
       id="radialGradient4215"
       cx="130.89"
       cy="135.36"
       r="74.165"
       gradientTransform="matrix(.75762 0 0 .7456 8.9332 26.214)"
       gradientUnits="userSpaceOnUse">
      <stop
         stop-color="#fff6d4"
         offset="0"
         id="stop4561" />
      <stop
         stop-color="#ffefb4"
         stop-opacity=".773"
         offset=".455"
         id="stop4563" />
      <stop
         stop-color="#ffdb47"
         stop-opacity="0"
         offset="1"
         id="stop4565" />
    </radialGradient>
  </defs>
  <g
     id="g851"
     transform="matrix(0.67386678,0,0,0.67386678,-157.09176,12.572404)">
    <path
       id="path839"
       d="m 327.515,352.828 c -3.155,0 -11.39,0.001 -12.033,-5.87 -0.444,-1.959 0.077,-4.605 4.288,-7.017 2.024,-1.159 4.792,-2.274 7.725,-3.456 5.158,-2.078 12.798,-5.156 14.898,-8.541 l -1.263,-20.519 -2.917,0.022 -0.423,-3.306 c -1.21,-9.471 -2.007,-18.52 -2.435,-27.652 -0.43,-2.105 -2.636,-13.677 -1.148,-22.448 0.739,-4.356 -0.228,-13.151 -0.977,-18.384 -1.818,-0.2 -4.638,-0.707 -6.209,-2.553 -0.218,0.338 -0.674,1.045 -0.674,1.045 1.087,3.354 1.385,7.799 0.913,13.477 l -0.232,2.79 -2.74,0.575 c -7.73,1.623 -14.673,2.445 -20.635,2.445 -23.179,0 -30.432,-12.229 -34.162,-22.882 -0.354,-1.013 -0.732,-2.028 -1.11,-3.048 -3.003,-8.092 -6.707,-18.072 1.035,-28.182 -0.478,-3.249 -0.228,-6.28 0.76,-9.159 -10.631,-6.75 -15.453,-16.441 -12.967,-26.438 2.346,-9.429 10.736,-16.54 19.519,-16.54 3.923,0 16.11,1.816 19.938,23.489 7.593,-4.652 17.879,-7.065 29.401,-9.768 13.151,-3.084 28.05,-6.578 41.491,-14.199 l 0.122,-0.074 3.005,-1.986 1.154,1.779 6.215,-4.604 c 2.429,-9.782 9.171,-10.574 11.259,-10.574 4.774,0 9.411,3.197 11.427,7.359 13.359,-12.267 17.199,-15.413 20.171,-15.735 2.795,-1.999 5.763,-3.979 8.646,-5.901 4.266,-2.845 8.294,-5.532 11.339,-7.986 5.854,-4.715 16.36,-12.569 17.613,-13.505 3.059,-2.619 6.897,-4.001 11.114,-4.001 7.523,0 15.537,4.55 16.813,9.547 0.654,2.562 -0.459,5.056 -2.836,6.354 -3.665,2.002 -8.085,3.688 -12.766,5.472 -7.249,2.764 -15.457,5.893 -18.644,9.846 l -0.099,0.128 c -6.097,7.856 -10.279,12.844 -16.374,18.509 0.118,1.07 0.179,2.168 0.183,3.314 l 0.005,1.292 -0.791,1.023 c -7.185,9.277 -13.576,14.604 -18.712,18.884 -4.672,3.894 -8.047,6.706 -10.137,10.857 -1.095,2.174 -2.145,4.41 -3.255,6.777 -4.401,9.377 -9.863,21.011 -22.641,37.865 -0.377,3.713 -0.798,7.441 -1.205,11.057 -2.209,19.6 -4.296,38.111 -0.819,59.329 l 0.452,2.76 -2.513,1.225 c -1.76,0.857 -3.445,1.704 -5.08,2.525 -1.779,0.895 -3.486,1.752 -5.177,2.568 -0.553,3.156 -1.359,6.462 -2.204,9.927 -1.308,5.364 -2.66,10.912 -3.201,16.453 -0.429,4.405 -0.375,8.906 -0.332,12.522 0.071,5.854 0.103,8.525 -1.642,10.29 -0.797,0.806 -1.853,1.25 -2.974,1.25 0,0 -10e-4,0 -0.003,0 -0.107,0 -0.214,-0.004 -0.322,-0.013 -0.404,-0.012 -0.82,-0.018 -1.251,-0.018 -3.667,0 -8.4,0.4 -12.977,0.786 -4.731,0.405 -9.624,0.818 -13.606,0.818 z"
       inkscape:connector-curvature="0"
       style="fill:#ffffff" />
    <path
       id="path841"
       d="m 460.861,98.416 c 0,0 -11.496,8.575 -17.61,13.499 -5.624,4.532 -14.29,9.71 -21.385,14.906 -0.096,-0.165 -0.271,-0.235 -0.52,-0.212 -3.71,0.301 -24.016,21.062 -43.821,37.959 -10e-4,0.003 -0.002,0.007 -0.002,0.009 -16.899,14.417 -28.563,18.849 -34.833,29.126 l -0.124,-0.259 -2.928,-6.469 c 0.001,0.121 0.003,0.255 0.004,0.378 l -1.649,-3.434 c 14.73,-2.95 27.104,-11.837 38.855,-19.253 -0.728,-1.589 -1.385,-3.166 -2.071,-4.766 l 11.731,-9.242 c 26.778,-3.259 -0.938,-28.911 -5.086,-6.652 l -10.566,7.827 -1.09,-1.678 c -0.061,-0.096 -0.111,-0.184 -0.173,-0.279 -0.002,0.001 -0.003,0.003 -0.005,0.003 l -0.003,-0.003 c -0.007,0.004 -0.015,0.01 -0.021,0.017 -28.515,16.243 -62.283,14.189 -75.792,27.767 0.002,0.007 0.005,0.014 0.008,0.023 -0.003,-0.009 -0.011,-0.015 -0.015,-0.023 -4.59,-55.741 -58.821,-10.27 -18.784,10.958 0.001,0.001 0.003,0.004 0.005,0.005 -2.238,3.913 -2.444,7.822 -1.562,11.733 -8.783,10.03 -3.65,19.649 -0.391,28.958 5.128,14.648 15.642,25.315 50.48,18.002 0.619,-7.435 -0.223,-11.548 -1.576,-13.949 0.265,-0.163 0.527,-0.334 0.785,-0.53 3.304,-5.115 5.708,-9.058 11.247,-13.428 9.713,-3.256 6.416,-10.957 1.115,-13.256 -4.71,-2.042 -11.061,0.438 -10.407,10.248 l -9.392,11.74 v 0.002 l -8.251,1.03 c -0.31,-0.267 -0.623,-0.542 -0.936,-0.825 l 7.304,-2.98 8.366,-10.142 c -1.22,-11.164 8.998,-12.901 13.84,-11.771 0.881,0.207 2.121,0.954 3.313,2.065 -0.006,0.046 -0.011,0.093 -0.017,0.139 2.958,2.432 4.82,8.512 0.851,13.001 0.029,0.659 -3.642,1.792 -3.61,2.45 -3.285,2.428 -5.292,5.492 -6.526,8.491 -0.094,2.675 4.833,2.146 6.886,2.677 0,0 2.601,15.339 1.403,22.393 -1.506,8.876 1.183,21.348 1.183,21.348 0.409,8.91 1.187,17.979 2.423,27.647 1.076,-0.008 2.115,-0.068 3.136,-0.15 l 1.552,25.196 c -3.771,9.358 -28.596,12.862 -27.003,17.61 0.183,5.648 24.263,0.782 36.394,1.174 1.849,0.315 0.268,-10.204 1.288,-20.664 0.997,-10.21 4.582,-20.273 5.744,-28.559 3.79,-1.767 7.675,-3.814 12.011,-5.927 -4.301,-26.247 -0.231,-48.97 2.099,-72.425 16.21,-21.194 20.529,-33.691 26.173,-44.9 4.982,-9.895 15.64,-12.798 29.234,-30.352 -0.008,-1.8 -0.171,-3.355 -0.433,-4.753 6.855,-6.188 11.012,-11.139 17.411,-19.387 v -0.003 c 5.826,-7.51 22.979,-11.139 32.677,-16.437 5.417,-2.959 -11.054,-14.293 -20.936,-5.673 z"
       inkscape:connector-curvature="0"
       style="fill:#162d50" />
    <g
       id="g849">
      <path
         id="path843"
         d="m 517.375,114.383 c 16.996,27.376 24.52,50.697 17.147,56.575 -10.185,8.119 -44.784,-18.347 -77.282,-59.109 -32.497,-40.766 -50.584,-80.392 -40.399,-88.512 7.874,-6.277 31.581,9.021 56.388,34.71 C 440.422,22.47 409.721,1.793 399.415,10.008 c -12.481,9.95 9.685,58.513 49.51,108.469 39.825,49.956 82.228,82.388 94.708,72.438 9.772,-7.79 -1.698,-39.258 -26.258,-76.532 z"
         inkscape:connector-curvature="0"
         style="fill:#d40055" />
      <path
         id="path845"
         d="m 532.724,95.619 c 13.015,21.443 18.646,39.697 12.807,44.35 -8.311,6.625 -36.545,-14.968 -63.062,-48.232 -26.518,-33.263 -41.277,-65.6 -32.966,-72.224 7.098,-5.66 28.938,9.354 51.622,34.557 C 472.312,21.268 444.276,1.467 435.282,8.637 c -10.185,8.12 7.903,47.747 40.4,88.511 32.496,40.764 67.097,67.228 77.281,59.109 7.817,-6.233 -1.019,-31.022 -20.239,-60.638 z"
         inkscape:connector-curvature="0"
         style="fill:#ff0066" />
      <path
         id="path847"
         d="m 546.737,75.616 c 9.071,15.393 13.175,28.988 8.919,32.38 -6.295,5.016 -27.678,-11.338 -47.759,-36.531 -20.085,-25.191 -31.263,-49.682 -24.968,-54.699 4.864,-3.877 18.836,4.842 34.155,20.701 C 497.07,15.941 478.454,3.51 472.159,8.529 c -7.714,6.149 5.984,36.162 30.597,67.034 24.61,30.874 50.815,50.917 58.529,44.766 5.814,-4.633 -0.533,-22.819 -14.548,-44.713 z"
         inkscape:connector-curvature="0"
         style="fill:#ff2a7f" />
    </g>
  </g>
</svg>
