<?xml version="1.0" encoding="UTF-8"?>
<svg cursor="default" version="1.1" viewBox="0 0 256 256" xmlns="http://www.w3.org/2000/svg" xmlns:cc="http://creativecommons.org/ns#" xmlns:dc="http://purl.org/dc/elements/1.1/" xmlns:rdf="http://www.w3.org/1999/02/22-rdf-syntax-ns#" xmlns:xlink="http://www.w3.org/1999/xlink">
 <metadata>
  <rdf:RDF>
   <cc:Work rdf:about="">
    <dc:format>image/svg+xml</dc:format>
    <dc:type rdf:resource="http://purl.org/dc/dcmitype/StillImage"/>
    <dc:title/>
   </cc:Work>
  </rdf:RDF>
 </metadata>
 <defs>
  <radialGradient id="radialGradient915" cx="405.12" cy="167.43" r="96.642" gradientTransform="matrix(0 .80577 -.85788 0 275.69 -202.8)" gradientUnits="userSpaceOnUse">
   <stop stop-color="#ff2a2a" offset="0"/>
   <stop stop-color="#ff2a2a" offset=".29122"/>
   <stop stop-color="#ff8080" offset=".46798"/>
   <stop stop-color="#ff2a2a" offset=".54823"/>
   <stop stop-color="#ff2a2a" offset="1"/>
  </radialGradient>
  <radialGradient id="radialGradient949" cx="388.65" cy="160.54" r="34.92" gradientTransform="matrix(-8.5065e-8 .65332 -.7281 -9.4802e-8 248.93 -146.38)" gradientUnits="userSpaceOnUse">
   <stop stop-color="#ffd5d5" offset="0"/>
   <stop stop-color="#ffd5d5" offset=".39891"/>
   <stop stop-color="#ff8080" offset=".82266"/>
   <stop stop-color="#faa" offset="1"/>
  </radialGradient>
  <radialGradient id="radialGradient959" cx="178.22" cy="116.81" r="23.648" gradientTransform="matrix(1.2226 0 -2.7157e-6 1.2246 -39.68 -32.387)" gradientUnits="userSpaceOnUse">
   <stop stop-color="#ffd5d5" offset="0"/>
   <stop stop-color="#faa" offset=".5"/>
   <stop stop-color="#f55" offset="1"/>
  </radialGradient>
  <radialGradient id="radialGradient969" cx="86.924" cy="116.93" r="24.311" gradientTransform="matrix(0 -1.2273 1.2581 1.1167e-6 -60.192 218.54)" gradientUnits="userSpaceOnUse">
   <stop stop-color="#ffd5d5" offset="0"/>
   <stop stop-color="#ff8080" offset=".5"/>
   <stop stop-color="#f55" offset="1"/>
  </radialGradient>
  <radialGradient id="radialGradient989" cx="182.88" cy="132.13" r="15.866" gradientTransform="matrix(0 2.499 -2.4406 0 501.87 -324.75)" gradientUnits="userSpaceOnUse">
   <stop stop-color="#ffd5d5" offset="0"/>
   <stop stop-color="#f55" offset="1"/>
  </radialGradient>
  <radialGradient id="radialGradient997" cx="85.774" cy="128.04" r="17.153" gradientTransform="matrix(0 2.2984 -2.7765 3.8582e-6 440.2 -63.449)" gradientUnits="userSpaceOnUse">
   <stop stop-color="#ffd5d5" offset="0"/>
   <stop stop-color="#f55" offset="1"/>
  </radialGradient>
  <radialGradient id="radialGradient1005" cx="144.46" cy="99.437" r="32.834" gradientTransform="matrix(0 .59706 -.64874 0 239.21 -13.888)" gradientUnits="userSpaceOnUse">
   <stop stop-color="#ff8080" offset="0"/>
   <stop stop-color="#ff2a2a" offset="1"/>
  </radialGradient>
  <radialGradient id="radialGradient1013" cx="52.191" cy="82.17" r="32.46" gradientTransform="matrix(0 .61282 -.65463 8.9038e-7 144.31 40.377)" gradientUnits="userSpaceOnUse">
   <stop stop-color="#ff8080" offset="0"/>
   <stop stop-color="#ff2a2a" offset="1"/>
  </radialGradient>
  <radialGradient id="radialGradient1029" cx="170.37" cy="73.511" r="33.328" gradientTransform="matrix(-6.6239e-8 .84233 -.91661 0 198.84 -47.216)" gradientUnits="userSpaceOnUse">
   <stop stop-color="#f55" offset="0"/>
   <stop stop-color="#ff2a2a" offset="1"/>
  </radialGradient>
  <linearGradient id="linearGradient1041" x1="209.31" x2="203.24" y1="81.459" y2="97.153" gradientUnits="userSpaceOnUse">
   <stop stop-color="#ffd5d5" offset="0"/>
   <stop stop-color="#ff8080" offset="1"/>
  </linearGradient>
  <linearGradient id="linearGradient1057" x1="54.457" x2="59.82" y1="81.449" y2="99.604" gradientUnits="userSpaceOnUse">
   <stop stop-color="#ffd5d5" offset="0"/>
   <stop stop-color="#ff8080" offset="1"/>
  </linearGradient>
  <linearGradient id="linearGradient1067" x1="353.18" x2="465.09" y1="254.65" y2="254.65" gradientTransform="matrix(.84608 0 0 .84608 -214.73 -15.918)" gradientUnits="userSpaceOnUse">
   <stop stop-color="#faa" offset="0"/>
   <stop stop-color="#ffd5d5" offset=".125"/>
   <stop stop-color="#ffd5d5" offset=".25"/>
   <stop stop-color="#ff8080" offset=".375"/>
   <stop stop-color="#f55" offset=".5"/>
   <stop stop-color="#ff8080" offset=".625"/>
   <stop stop-color="#ffd5d5" offset=".75"/>
   <stop stop-color="#ffd5d5" offset=".875"/>
   <stop stop-color="#faa" offset="1"/>
  </linearGradient>
 </defs>
 <g stroke-miterlimit="10">
  <g transform="matrix(.84608 0 0 .84608 -214.73 -15.918)" stroke-width=".73043">
   <path d="m386.49 190.7c1.845 0.615 4.079 0.317 5.354-0.607 0.028-1.798 0.6-3.05 0.609-4.865-1.802-0.513-3.501-1.124-5.354-1.582-1.76-0.471-3.976-1.217-5.719-1.704-1.215 4.896 1.718 7.763 5.11 8.758z" fill="#ffb380" stroke="#000" stroke-miterlimit="10" stroke-width=".73043"/>
  </g>
  <g transform="matrix(.84608 0 0 .84608 -214.73 -15.918)" stroke-width=".73043">
   <path d="m401.21 193.86c2.693 1.14 7.42-1.703 7.42-1.703s0.107-1.083-0.121-1.217c-2.03-1.011-4.345-1.737-6.691-2.435-2.749-0.899-5.601-2.184-8.517-2.918-0.677 5.91 4.175 6.777 7.909 8.273z" fill="#ffb380" stroke="#000" stroke-miterlimit="10" stroke-width=".73043"/>
  </g>
  <path d="m145.42 141.1h-0.20645c-2.2675 0.75217-4.9665 1.6888-7.2061 2.4689-1.8182 0.68702-3.8057 1.2048-5.4555 2.0602v1.132c1.3664 1.1329 3.9487 2.3157 6.1764 1.3385-0.0558-0.41289-0.0939-0.84608-0.12945-1.2801 0.0626 0.41627 0.11169 0.84101 0.12945 1.2801 3.166-1.2598 7.2704-1.9951 6.6917-6.9996z" fill="#ffb380" stroke="#000" stroke-width=".618"/>
  <path d="m155.4 138.02c-1.3918 0.46196-3.4867 1.0432-4.9411 1.4417-1.413 0.47465-2.8708 0.90277-4.3235 1.3385 0.0338 1.5086 0.50003 2.5873 0.51442 4.1162 1.0889 0.77163 2.9613 1.0415 4.5299 0.51358 2.8572-0.74117 5.4902-3.4892 4.2202-7.41z" fill="#ffb380" stroke="#000" stroke-width=".618"/>
 </g>
 <g fill="#ff7f2a" stroke="#000" stroke-miterlimit="10" stroke-width=".236">
  <path d="m131.01 146.66s0.0905-0.91631-0.10238-1.0297c-1.7175-0.85539-3.6762-1.4696-5.6611-2.0602-0.13115 1.55-0.4112 2.9511-0.51357 4.5299 2.2785 0.96538 6.2771-1.44 6.2771-1.44z"/>
  <path d="m116.8 144.91c0.0237-1.5212 0.50765-2.5805 0.51526-4.1162-1.5246-0.43404-2.9621-0.95099-4.5299-1.3385-0.12352 2.0374-0.41711 3.9055-0.51441 5.9691 1.561 0.52034 3.4512 0.26821 4.5291-0.51442z"/>
  <path d="m132.55 145.63v1.1321c1.3664 1.1329 3.9487 2.3157 6.1764 1.3385-0.20729-1.5416-0.16076-3.3378-0.72171-4.5299-1.8182 0.68617-3.8057 1.2048-5.4547 2.0594z"/>
  <path d="m146.14 140.8c0.0338 1.5086 0.50003 2.5873 0.51442 4.1162 1.0889 0.77163 2.9613 1.0415 4.5299 0.51358-0.2056-2.0247-0.15229-4.3082-0.72086-5.9691-1.413 0.47465-2.8708 0.90361-4.3235 1.3393z"/>
 </g>
 <g fill="#fca" stroke="#000" stroke-width=".618">
  <path d="m110.83 169.53c-0.34012-1.7539-0.42219-4.0011-0.20898-5.7263l8e-3 -0.0643 0.0431-0.0491c0.83762-0.92562 2.8166-1.9578 4.3006-2.5247 0.54826-0.14722 1.1524-0.22167 1.7683-0.22167 1.1261 0 2.1609 0.23606 2.8386 0.64979l0.0778 0.0474 0.0178 0.0897c0.12775 0.66925 0.1176 1.4764 0.10745 2.2565-4e-3 0.36212-9e-3 0.72255 0 1.072l4e-3 0.16837-0.16499 0.0381c-1.1854 0.26736-2.226 0.71578-3.232 1.149-0.38496 0.16498-0.76993 0.33166-1.1634 0.48819-0.63794 0.36635-1.369 0.89261-2.0754 1.4011-0.67518 0.48649-1.374 0.98906-2.0145 1.3639l-0.25129 0.14637z"/>
  <path d="m120.41 164.73c0.40697-2.7193 1.4003-5.8396 5.497-5.8396l0.11169 2e-3c0.35873-0.1836 0.78262-0.27667 1.2615-0.27667 0.97046 0 2.1533 0.36804 3.617 1.1244l0.11168 0.0575v4.8557s-0.47973 9e-3 -0.61679 9e-3c-0.64472 0-1.2581-0.0305-1.8707-0.0618-0.60579-0.0313-1.2124-0.0618-1.8487-0.0618-0.26144 0-0.52711 5e-3 -0.8004 0.0178-2.2277 0.0541-3.9351 0.18867-5.2237 0.40696l-0.2809 0.0482z"/>
  <path d="m142.81 164.96c-1.5712-0.28005-3.5205-0.36381-5.2195-0.40696-0.27328-0.0229-0.53472-0.0322-0.79362-0.0322-0.50765 0-1.0085 0.0338-1.501 0.066-0.4848 0.0322-0.96199 0.0635-1.4282 0.0635-0.47212 0-0.87993-0.033-1.2497-0.10069l-0.16921-0.0313v-4.5968l0.0795-0.0618c1.0923-0.85201 2.6482-1.2708 4.7584-1.2801 0.077-3e-3 0.15906-4e-3 0.24028-4e-3 4.2566 0 5.2812 4.304 5.5241 6.1535l0.0364 0.28006z"/>
  <path d="m152.31 169.67c-0.86808-0.53218-1.9426-1.2776-2.8911-1.9341-0.43827-0.30374-0.85792-0.59479-1.2344-0.84946-1.402-0.6168-2.886-1.2031-4.3802-1.7268l-0.14552-0.0516 8e-3 -0.15483c0.0152-0.27328 0.0118-0.61933 8e-3 -0.99584-6e-3 -0.73355-0.0127-1.5661 0.0998-2.2193l0.0161-0.0922 0.0804-0.0491c0.67687-0.41289 1.7108-0.64979 2.8378-0.64979 0.61594 0 1.22 0.0744 1.7472 0.2149 1.6913 0.44927 3.4876 1.6397 4.3201 2.5289l0.0457 0.0491 8e-3 0.066c0.23267 1.8132 0.16076 3.7921-0.20898 5.7263l-0.055 0.29359z"/>
 </g>
 <g transform="matrix(.84608 0 0 .84608 -214.73 -15.918)">
  <path d="m412.01 213.33c-0.552 0-1.03-0.039-1.461-0.118l-0.13-0.023v-5.319l0.061-0.048c1.275-0.995 3.097-1.483 5.571-1.494h0.129l0.026 0.126c0.28 1.344 0.301 2.963 0.32 4.528 9e-3 0.696 0.018 1.394 0.049 2.068l8e-3 0.18-0.18-0.016c-0.312-0.026-0.623-0.037-0.932-0.037-0.602 0-1.196 0.04-1.78 0.078-0.571 0.038-1.132 0.075-1.681 0.075z" fill="#ff7f2a"/>
  <path d="m416.05 206.49c0.399 1.914 0.265 4.359 0.365 6.571-0.316-0.027-0.632-0.037-0.945-0.037-1.188 0-2.353 0.152-3.462 0.152-0.489 0-0.968-0.029-1.433-0.115v-5.11c1.298-1.012 3.17-1.451 5.475-1.461m0.257-0.317-0.258 1e-3c-2.51 0.011-4.364 0.511-5.668 1.528l-0.122 0.095v5.527l0.258 0.048c0.441 0.081 0.929 0.121 1.49 0.121 0.556 0 1.133-0.038 1.691-0.075 0.578-0.038 1.176-0.078 1.771-0.078 0.33 0 0.63 0.012 0.919 0.036l0.358 0.031-0.017-0.36c-0.03-0.671-0.039-1.378-0.048-2.063-0.02-1.573-0.04-3.2-0.323-4.559z"/>
 </g>
 <g fill="#ff7f2a" stroke="#000" stroke-width=".236">
  <path d="m115.02 166.73c-0.13114-1.4637-0.12184-2.6905-0.10999-4.1094 3e-3 -0.40358 6e-3 -1.3571 6e-3 -1.3571l0.0998-0.0262c0.52203-0.13876 1.1202-0.21237 1.7294-0.21237 1.0965 0 2.144 0.2386 2.8005 0.6388l0.0508 0.0305 0.011 0.0584c0.12606 0.66164 0.11676 1.4646 0.1066 2.2413-4e-3 0.36297-9e-3 0.72509 0 1.0745l2e-3 0.11-0.1066 0.0237c-1.1921 0.26905-2.2354 0.71916-3.2447 1.1532-0.38497 0.16499-0.76909 0.33167-1.1625 0.48735l-0.16668 0.0668z"/>
  <path d="m130.39 164.59c-0.64302 0-1.2556-0.0304-1.8673-0.0618-0.60748-0.0313-1.215-0.0618-1.8521-0.0618-0.26228 0-0.52964 5e-3 -0.80377 0.0178l-0.14384 7e-3 0.0381-1.3563c0.0364-1.3461 0.0736-2.7379 0.17176-4.046l6e-3 -0.0728 0.0643-0.0347c0.35789-0.19375 0.78685-0.29359 1.275-0.29359 0.95861 0 2.1313 0.36551 3.584 1.116l0.0719 0.0381v4.7406s-0.40697 8e-3 -0.54403 8e-3z"/>
  <path d="m148.25 166.84c-1.4358-0.63456-2.9224-1.2226-4.4182-1.7463l-0.0939-0.033 5e-3 -0.0998c0.0152-0.27498 0.0119-0.62272 9e-3 -1.0001-7e-3 -0.73101-0.0135-1.5602 0.0981-2.2066l0.0102-0.0601 0.0524-0.0313c0.65572-0.4002 1.7023-0.6388 2.7997-0.6388 0.61002 0 1.2074 0.0736 1.7294 0.21237l0.0905 0.0237 8e-3 0.0939c0.15483 1.9832 0.0347 3.8302-0.10237 5.376l-0.0169 0.18614z"/>
 </g>
 <g stroke="#000">
  <path d="m154.68 209.3c-0.49918 0-1.0246-0.0178-1.583-0.0558-1.5204-0.10492-5.2728-1.138-6.2085-2.1389-4.035-4.3142-8.2273-8.1867-15.13-8.1867-6.1476 0-11.909 3.4097-16.223 9.6013-0.42473 0.61003-1.44 0.61257-2.7261 0.6151-0.4645 8.5e-4 -0.96623 2e-3 -1.4798 0.0322-0.40189 0.0228-0.80293 0.0347-1.2031 0.0347-4.7499 0-10.009-1.5796-15.63-4.6957-4.5773-2.5366-9.5167-10.444-10.571-16.922l-0.0118-0.0728 0.0195-0.0719c1.3952-5.222 2.8555-12.148 1.7421-19.417-0.7987-5.2228-2.9537-9.8509-4.8548-13.934-0.33674-0.72425-0.66841-1.4358-0.98569-2.1364-3.6432-7.4836-9.1994-15.423-14.573-23.101-2.3318-3.3319-4.5342-6.4793-6.5047-9.4837l-3.7219-7.1333c-2.9147-6.7407-2.7794-23.687 0.20137-31.048-0.20475-0.12945-0.41796-0.2606-0.63456-0.39512-1.2717-0.78686-2.7142-1.6786-3.3919-2.6356-0.09645-0.19375-1.6296-3.5315-0.23352-5.7254 0.75555-1.1862 2.1998-1.7878 4.2939-1.7878 2.1617 0 5.0672 0.64809 8.6359 1.9257l0.10407 8.4e-4c1.1558 0 2.3614-0.2589 3.6365-0.53218 1.4434-0.30967 2.935-0.62949 4.5553-0.62949 0.27243 0 0.5491 9e-3 0.82831 0.0296 3.5662 0.25552 6.882 1.501 10.393 2.8191 3.5095 1.3182 7.1392 2.6804 11.017 2.9452 0.61679 0.0415 1.2869 0.0635 1.99 0.0635 0.70732 0 1.4578-0.0203 2.292-0.0635 1.9544-0.10068 3.7828-0.58802 5.5511-1.0601 1.5974-0.42642 3.249-0.86723 4.9403-0.99837 0.20475-0.0161 0.40527-0.0237 0.60071-0.0237 2.1854 0 3.8158 0.97807 5.0173 1.902 4.5443-4.6441 8.9405-9.0683 10.61-10.309l0.30966-0.23098c1.6126-1.2057 4.0502-3.0281 5.97-3.0281 1.9934 0 4.5722 1.8986 6.2779 3.155 1.6727 1.2319 6.371 5.981 10.805 10.529 1.3224-1.0694 2.8741-2.0111 5.1289-2.0111 0.16837 0 0.34097 5e-3 0.5178 0.0169 1.7209 0.10745 3.3539 0.54403 5.0833 1.006 1.7378 0.46365 3.5341 0.94422 5.4158 1.0534 0.64641 0.0372 1.2734 0.055 1.8851 0.055 5.1839 0 9.2087-1.2835 13.214-2.7134 0.72255-0.25806 1.4417-0.5305 2.1592-0.80293 2.6914-1.0212 5.4741-2.0763 8.4304-2.3039 0.32066-0.0245 0.6354-0.0355 0.94676-0.0355 1.7243 0 3.304 0.34604 4.8311 0.68109 1.193 0.26229 2.3208 0.50934 3.4647 0.58464 4.0561-1.4104 7.2754-2.1254 9.57-2.1254 2.0695 0 3.4418 0.57872 4.0806 1.7184 1.2497 2.2311-0.86385 5.7288-0.95522 5.8769-0.70648 0.98653-2.0611 1.8233-3.3691 2.6322-0.23351 0.14468-0.46449 0.28683-0.68701 0.42812 2.8301 6.9108 2.8538 23.821 5e-3 31.005l-3.8243 7.2399c-2.1524 3.3539-4.6611 6.8507-7.3161 10.551-5.1958 7.2424-10.568 14.73-13.881 21.96-0.33674 0.79362-0.70901 1.6296-1.0957 2.4968-1.759 3.9504-3.7541 8.4287-4.5375 13.572-0.90362 5.9319-0.35366 12.462 1.6363 19.411l0.0228 0.0829-0.0178 0.0854c-2.5653 11.951-9.8881 18.092-15.885 19.853-0.55165 0.1616-1.0737 0.32405-1.5779 0.47973-2.3673 0.7327-4.4115 1.3656-7.3702 1.3656zm-73.058-100.36c-0.69717 0-1.2192 0.21575-1.5982 0.65909-0.77162 0.90446-0.94338 2.7405-0.51018 5.4572 0.76401 4.7947 20.429 52.609 22.982 58.243 2.0847-0.56941 4.3116-1.9214 6.4683-3.2312l0.55333-0.33505c0.72848-0.44081 1.4866-0.95861 2.2886-1.506 2.6093-1.7802 5.5672-3.7989 8.7798-3.9994 2.5416-0.15822 8.658-0.40866 11.112-0.40866 2.4418 0 8.6554 0.2699 11.164 0.40866 3.7862 0.20983 6.6045 2.1059 9.3297 3.9402 2.875 1.9341 5.8456 3.9326 10.029 4.0358 2.0162-4.9902 19.669-49.459 20.65-54.737 0.55756-2.9909 0.40273-5.0342-0.46027-6.0732-0.4535-0.54488-1.0974-0.81055-1.9697-0.81055-3.1796 0-7.9007 3.5815-7.9481 3.6178-2.2464 2.0179-2.6804 6.3287-3.1 10.498-0.39174 3.8945-0.79616 7.9219-2.7108 10.242l-0.033 0.0406-0.044 0.0288c-3.0611 2.0044-6.5673 2.7058-10.278 3.4495-1.8664 0.37312-3.7964 0.75978-5.7703 1.3284-4.3159 1.2429-8.498 2.6245-12.431 4.1069-0.35112 0.13283-0.94338 0.3985-1.6304 0.70563-2.2311 0.99922-3.9994 1.7632-4.7702 1.7632-0.78432 0-2.7675-0.82831-5.0875-1.8292-0.63709-0.27497-1.182-0.51103-1.5212-0.64048-3.8607-1.473-8.273-2.9308-12.426-4.106-1.9231-0.54488-3.793-0.92392-5.6002-1.2911-3.727-0.75724-7.2467-1.4722-10.347-3.4867l-0.0448-0.0296-0.0338-0.0415c-1.9071-2.3242-2.287-6.3482-2.6542-10.241-0.39342-4.1712-0.80039-8.4845-3.0738-10.515-0.0601-0.0516-5.8887-5.2423-9.3136-5.2423z" fill="url(#radialGradient915)" stroke-width="1.618" style="paint-order:markers fill stroke"/>
  <g stroke-miterlimit="10">
   <path d="m179.18 187.53c-2.6973 3.7244-5.8253 7.6384-10.497 10.191-4.2372 2.314-10.386 4.5908-16.574 4.0155-1.4874-0.13876-3.5392-2.6136-4.4267-3.5011-3.54-3.54-8.7206-5.3523-15.955-5.3515-6.8981 0-12.344 1.7395-15.955 5.3515-0.90276 0.90362-2.8098 3.3945-4.6331 3.5011-6.2339 0.36296-12.178-1.7396-16.469-4.1187-4.5798-2.5382-7.7966-6.4497-10.397-10.088 1.0297 6.327 5.8177 14.138 10.397 16.676 4.2913 2.3792 10.409 4.9809 16.645 4.6179 1.8199-0.10745 3.4909 0.14807 3.9419-0.50003 3.8869-5.5782 9.6072-9.7485 16.506-9.7485 7.234 0 11.574 4.2236 15.383 8.2967 0.85708 0.91715 4.491 1.9274 5.9801 2.0297 4.4978 0.30882 6.8355-0.72678 10.409-1.7776 5.1086-1.5001 12.91-6.8499 15.646-19.594z" fill="url(#linearGradient1067)" stroke-width=".417"/>
   <path d="m208.11 81.09c-1.2285 0.62272-3.5789 3.386-4.7271 4.0908 3.6661 5.2719 5.9403 18.45 4.8294 26.894 2.7954-7.0462 2.8792-24.119-0.10237-30.984z" fill="url(#linearGradient1041)" stroke-width=".236"/>
   <path d="m60.188 85.171c-1.006-0.87992-3.3268-3.4004-4.5325-4.0806-2.9249 6.882-3.2963 24.074-0.30967 30.984-1.319-8.5962 1.2141-21.654 4.8421-26.904z" fill="url(#linearGradient1057)" stroke-width=".236"/>
  </g>
 </g>
 <g fill="#faa" stroke="#000" stroke-miterlimit="10" stroke-width=".236">
  <path d="m95.801 117.53c1.957 3.8404 2.204 8.4913 4.8379 11.425 2.6973 3.0053 6.4336 4.0637 10.705 5.5588-4.8844-1.2734-11.133-1.2404-12.764-5.4564-1.182-3.051-1.6126-8.3762-2.7794-11.528z"/>
  <path d="m167.45 117.63c-0.80716 2.5839-1.7488 10.786-3.2946 12.764-2.408 3.0823-7.844 2.9867-12.043 4.0155 4.2981-1.3926 8.1283-2.3936 10.706-5.4572 2.4993-2.9689 3.1263-7.5073 4.6314-11.322z"/>
  <path d="m175.79 177.13c0.51188 1.3791 0.51526 5.057 1.1329 6.8964 0.28175 0.84101 1.248 2.204 1.2353 2.7785-0.0254 1.0568-3.1237 4.2532-3.809 4.942-4.2296 4.2287-10.634 7.5986-17.81 8.0285 4.7381-1.2674 18.057-17.765 19.251-22.645z"/>
  <path d="m85.302 186.91c1.6109-2.1694 1.8749-6.2635 2.2641-9.5717 0.28513-0.21829 0.45096 0.91546 0.61764 1.3368 1.4942 3.7566 13.901 19.898 18.736 21-10.344-0.70563-17.103-5.887-21.617-12.765z"/>
  <path d="m139.96 138.63c-2.4333 1.0694-5.3235 3.375-8.0293 3.5019-2.5205 0.11591-5.816-2.2573-8.2358-3.2955-3.0459-1.3064-5.5841-2.6795-8.4414-3.3979 2.3386 0.27413 5.5249 1.336 8.4414 2.3673 2.4807 0.87739 5.7956 2.677 8.0293 2.677 2.5678 0 5.612-1.9274 8.0302-2.7794 2.8141-0.9916 5.5046-1.6346 8.4414-2.3665-2.8581 1.0601-5.3845 2.0424-8.2358 3.2929z"/>
 </g>
 <g stroke="#000" stroke-miterlimit="10">
  <path d="m51.177 78.012s-5.3474-11.439 12.402-5.0637c2.7812 0.05861 5.7569-1.3829 9.1972-1.1366 7.2069 0.51648 13.767 5.2608 21.498 5.7874 1.4891 0.10109 2.9995 0.06881 4.34 0 3.8005-0.19538 7.0268-1.7949 10.543-2.0676 2.404-0.18688 4.7511 1.0058 5.6447 2.0048 2.1373 2.3896-6.4296 9.2083-9.6916 9.8836-3.262 0.67533-4.4725 1.332-6.3906 2.4779-0.66683 0.3984-1.3362 0.81379-1.9996 1.2411 1.6836-0.82314 3.657-1.4152 5.8648-1.298-2.6988 0.8843-3.8116 3.9951-3.5143 7.8551 0.1546 2.0175 0.97689 3.8498 2.195 5.4867l-3e-3 -8.5e-4c-5.7348 0.0909-8.9084 4.8981-10.254 6.7091-0.89535 1.2054-2.4592 3.6136-4.3391 3.4106-3.4438-0.37206-6.5902-4.7468-8.3724-7.0277-6.6386-8.5015-15.014-18.616-22.777-25.058-3e-3 0-3.9959-2.28-4.3425-3.2042z" fill="url(#radialGradient1013)" stroke-width=".316"/>
  <path d="m68.248 93.669c-1.6118 7.7831 33.083 78.027 34.059 80.037-2.0103-4.2693-22.33-53.571-23.13-58.594-1.2598-7.9024 2.7667-7.2222 6.4877-5.1535z" fill="url(#radialGradient997)" stroke-width=".236"/>
  <path d="m200.21 73.051c-2.9647-0.17839-5.8495-1.5061-9.3009-1.2402-3.6901 0.28457-7.0574 1.8561-10.542 3.0997-4.6959 1.676-9.2006 3.0411-15.296 2.6877-3.7555-0.21831-7.0693-1.8501-10.543-2.0676-2.5484-0.1597-4.3493 0.6388-5.6736 2.1262-2.2868 2.5696 5.7084 8.1252 9.3561 9.5948 3.6476 1.4696 4.8352 1.343 6.7558 2.5416 2.0854 1.3014 7.8406 5.4511 6.3456 4.283-2.0362-1.5894-7.3946-5.2489-10.437-4.2372 2.7081 0.89959 3.8065 3.9815 3.5126 7.8551-0.13422 1.7754-0.78491 3.4081-1.7686 4.8921h0.0102c3.7742 0.32449 5.903 2.7378 6.411 3.273 1.941 2.0498 4.7171 7.7701 7.7514 7.4414 3.5618-0.3865 6.3345-4.475 8.3707-7.0277 6.563-8.2331 14.957-18.054 22.208-24.471 0.31006-0.20048 0.61247-0.39585 0.90384-0.58614 1.4874-0.97604 3.493-2.0243 4.3399-3.2042-2e-3 0 7.24-11.812-12.404-4.9609z" fill="url(#radialGradient1005)" stroke-width=".316"/>
  <path d="m178.22 110.65c3.249-1.0737 6.3608-0.47127 4.9902 6.8778-0.99668 5.3557-19.082 50.9-20.759 55.023 1.0018-1.9849 33.51-69.834 31.442-77.211z" fill="url(#radialGradient989)" stroke-width=".236"/>
 </g>
 <g stroke="#000">
  <g>
   <path d="m100.68 174.01c-1.7556-3.7549-6.5859-12.891-13.511-16.613l-0.08292-0.0448-0.04146-0.1836 0.06346-0.14553c0.0753-0.10322 0.1946-0.11253 0.24536-0.11676 2.232 0.19122 4.3522 0.58972 6.3371 1.1862l0.01861-0.0465c6.0427 1.8614 12.65 6.5605 16.443 11.69l0.13453 0.18191-1.0271 0.62441c-2.287 1.3893-4.6526 2.8251-6.8964 3.3666-0.52711 0.12522-1.0136 0.19714-1.4866 0.21829l-0.13792 6e-3z" fill="#ffe6d5" stroke-width=".816"/>
   <path d="m105.91 171.07c-3.4097-4.8032-6.9362-9.7705-12.326-12.714l-1.1634-0.63541 1.2666 0.39004c6.0283 1.858 12.621 6.5453 16.406 11.665l0.0871 0.11761-0.97891 0.59479c-0.83001 0.50427-1.6685 1.0119-2.5061 1.4815l-0.10492 0.0584z" fill="#ff7f2a" stroke-width=".236"/>
   <path d="m162.26 172.76c-3.9233-0.0812-6.8321-1.7869-9.2502-3.3801l-0.18698-0.12353 0.13706-0.17599c2.0822-2.6812 4.6458-5.035 7.6206-6.9979 2.0932-1.4256 4.2837-2.5865 6.5089-3.4469 0.5618-0.23691 1.1354-0.46704 1.7218-0.68787l0.0355 0.0753c2.1753-0.68109 4.3311-1.0559 6.4133-1.1168l0.83-0.0237-0.72255 0.4095c-5.4107 3.0704-9.625 8.0225-12.885 15.141-2e-3 0.0203-0.0102 0.0728-0.0127 0.1303l-0.011 0.19967z" fill="#ffe6d5" stroke-width=".816"/>
   <path d="m156.37 171.24c-1.2446-0.59225-2.3775-1.3063-3.3217-1.9265l-0.12099-0.0795 0.088-0.11422c3.7566-4.8362 9.0801-8.5742 15.823-11.108l0.11337 0.24113c-5.178 2.9478-9.3543 8.465-12.414 12.942l-0.0651 0.0948z" fill="#ff7f2a" stroke-width=".236"/>
  </g>
  <path d="m129.84 172.54c-8.3077-0.41627-10.674 2.6711-15.008 5.2-4.3345 2.5272-8.086 3.7862-11.97 3.0941-4.6661-0.82832-8.0039-4.4783-9.7773-8.6884-0.01438-0.0372-0.0753-0.0228-0.06007 0.0169 2.3673 6.5326 7.1866 11.651 14.642 10.083 4.029-0.84608 7.2551-3.0882 10.458-5.5494 5.5334-4.2473 11.887-4.1466 11.715-4.156z" fill="#ffd5d5" stroke-miterlimit="10" stroke-width=".236"/>
  <path d="m133.9 172.54c8.3094-0.41627 10.674 2.6711 15.009 5.2 4.3336 2.5272 8.0852 3.7862 11.97 3.0941 4.6661-0.82832 8.0048-4.4783 9.7756-8.6884 0.0161-0.0372 0.0778-0.0228 0.0626 0.0169-2.3673 6.5326-7.1874 11.651-14.644 10.083-4.0299-0.84608-7.2535-3.0882-10.458-5.5494-5.5334-4.2473-11.886-4.1466-11.716-4.156z" fill="#ffd5d5" stroke-miterlimit="10" stroke-width=".236"/>
 </g>
 <g stroke="#000" stroke-miterlimit="10">
  <path d="m160.76 89.737s4.0857-1.165 10.396 4.2202c1.8275 1.5593 4.3446 3.7684 7.1028 3.8082 5.8464 0.0863 13.025-4.6636 16.059-7.6173 3.859-3.2769 8.9702-6.0969 13.485-9.059-7.3846 6.3634-16.094 16.535-22.853 25.014-2.0272 2.5425-4.7888 6.6147-8.3373 6.9996-3.0222 0.32744-5.7872-5.3701-7.7205-7.4117-0.50595-0.53303-2.6262-2.9368-6.3854-3.26h-0.0102c0.97976-1.4781 1.6279-3.1043 1.7615-4.8726 0.29444-3.8564-0.79955-6.926-3.4968-7.822" fill="url(#radialGradient959)" stroke-width=".417"/>
  <path d="m101.38 103.02c-5.7119 0.0905-8.8729 4.8785-10.213 6.6824-0.89177 1.2006-2.4494 3.5992-4.3218 3.397-3.43-0.37058-6.5639-4.7279-8.339-6.9996-6.6121-8.4676-15.119-18.599-22.852-25.014 4.6424 3.045 9.6479 5.761 13.485 9.059 4.2913 3.6957 10.234 7.7882 16.162 7.6173 2.6838-0.0761 5.1772-2.2963 7.0005-3.705 2.0018-1.55 5.6603-4.5739 10.397-4.3235-2.688 0.88077-3.7964 3.9791-3.5002 7.8237 0.15399 2.0094 0.973 3.8344 2.1863 5.4648z" fill="url(#radialGradient969)" stroke-width=".417"/>
  <path d="m101.26 103.18c-0.53856-0.98284-2.037-3.4684-2.1916-5.4859-0.29817-3.86 0.81549-6.9708 3.5143-7.8551 6.9351-2.2757 9.9634 2.4643 13.745 5.3738-7.4201-9.6492 9.3009-28.213 9.3009-28.213 1.4687-1.0907 4.1556-3.2034 6.0984-3.2034 1.8281 0 4.2304 1.7244 6.0975 3.0997 0 0 16.183 15.968 9.1981 28.317 3.928-2.7863 6.8442-7.7005 13.851-5.3738 0 0 7.9689 3.2093 1.744 12.747-1.6607 2.545-3.7232 3.9721-3.7232 3.9721-3.3095 3.1362-13.111 6.71-13.008 6.4314 3.8787-0.63371 12.85-8.0674 7.6486-7.545-2.2604 0.2268-4.4054 2.1007-5.8919 3.4106-3.2025 2.8245-6.3693 6.2453-9.819 8.7852-1.8671 1.3762-4.2694 3.1006-6.0975 3.1006-1.9427 0-4.6288-2.1135-6.0984-3.2042-3.5083-2.6045-6.4381-5.745-9.8182-8.6816-1.3524-1.174-4.0172-3.8957-7.0277-3.4106-3.465 0.5581 4.9201 6.896 8.7852 7.545 0.0994 0.237-7.3836-1.9716-12.869-6.3413 0 0-2.9001-2.4864-3.4387-3.4684z" fill="url(#radialGradient1029)" stroke-width=".816"/>
  <path d="m104.81 106.48c5.4632 4.3531 12.917 6.5529 12.817 6.316-3.8497-0.6464-12.201-6.959-8.7502-7.5149 2.9994-0.48311 5.6535 2.2277 6.9996 3.397 3.3666 2.9249 6.2847 6.052 9.779 8.6469 1.4629 1.0872 4.139 3.1914 6.074 3.1914 1.8208 0 4.2135-1.7184 6.0732-3.0882 3.4359-2.5298 6.5901-5.937 9.7798-8.7502 1.4806-1.3047 3.6162-3.1711 5.8684-3.397 5.1806-0.52034-3.7549 6.8837-7.6181 7.5149-0.10238 0.27752 9.6597-3.2811 12.956-6.4057 0.74709-0.70901 4.1052-3.5806 1.3537-5.4318-7.1993-4.8421-18.114 4.5621-25.221 6.69 3.194-2.5002-9.3264-2.3394-6.382 0-7.0631-2.2074-18.294-11.996-25.222-6.69-2.2049 1.6879 0.86047 5.6002 1.4916 5.5215z" fill="url(#radialGradient949)" stroke-width=".417"/>
 </g>
 <path d="m127.7 84.76c1.1194 0.98568 6.5529 0.93069 8.1325 0 1.5805-0.93069 1.8554-0.4095 2.6753 0.4112 0.82154 0.82154-3.4732 3.6788-5.2491 4.9411-2.2032 1.5686-4.101-1.2556-5.5588-2.4706-0.95015-0.79108-3.095-1.7666-2.4706-2.5738 0.62441-0.80632 1.3504-1.2937 2.4706-0.30797z" fill="#ffd5d5" stroke="#000" stroke-miterlimit="10" stroke-width=".236"/>
</svg>
