<?xml version="1.0" encoding="UTF-8"?>
<svg version="1.1" viewBox="0 0 256 256" xmlns="http://www.w3.org/2000/svg" xmlns:cc="http://creativecommons.org/ns#" xmlns:dc="http://purl.org/dc/elements/1.1/" xmlns:rdf="http://www.w3.org/1999/02/22-rdf-syntax-ns#">
 <metadata>
  <rdf:RDF>
   <cc:Work rdf:about="">
    <dc:format>image/svg+xml</dc:format>
    <dc:type rdf:resource="http://purl.org/dc/dcmitype/StillImage"/>
    <dc:title/>
   </cc:Work>
  </rdf:RDF>
 </metadata>
 <defs>
  <linearGradient id="linearGradient4316" x1="131.82" x2="778.59" y1="753.38" y2="753.38" gradientTransform="matrix(.1378 -.0037 .0037 .1378 .11109 -28.382)" gradientUnits="userSpaceOnUse">
   <stop stop-color="#ffe6d5" offset="0"/>
   <stop stop-color="#ffe6d5" offset=".32178"/>
   <stop stop-color="#ff7f2a" offset=".44496"/>
   <stop stop-color="#ff7f2a" offset=".93769"/>
   <stop stop-color="#ffe6d5" offset="1"/>
  </linearGradient>
  <linearGradient id="linearGradient5325" x1="131.82" x2="778.59" y1="753.38" y2="753.38" gradientTransform="matrix(-.13715 -.013921 -.013921 .13715 268.2 -22.706)" gradientUnits="userSpaceOnUse">
   <stop stop-color="#ffe6d5" offset="0"/>
   <stop stop-color="#ffe6d5" offset=".26698"/>
   <stop stop-color="#ff7f2a" offset=".44496"/>
   <stop stop-color="#ff7f2a" offset=".93769"/>
   <stop stop-color="#ffe6d5" offset="1"/>
  </linearGradient>
  <linearGradient id="linearGradient4802" x1="226.66" x2="245.85" y1="1618.9" y2="903.95" gradientUnits="userSpaceOnUse">
   <stop stop-color="#ff2a2a" offset="0"/>
   <stop stop-color="#ff2a2a" offset=".088709"/>
   <stop stop-color="#ff8080" offset=".44354"/>
   <stop stop-color="#ff2a2a" offset=".94435"/>
   <stop stop-color="#ff2a2a" offset="1"/>
  </linearGradient>
  <linearGradient id="linearGradient4858" x1="286.96" x2="357.92" y1="1611.4" y2="912.34" gradientUnits="userSpaceOnUse">
   <stop stop-color="#ff2a2a" offset="0"/>
   <stop stop-color="#ff2a2a" offset=".15295"/>
   <stop stop-color="#ff8080" offset=".2663"/>
   <stop stop-color="#ff2a2a" offset=".55978"/>
   <stop stop-color="#ff2a2a" offset="1"/>
  </linearGradient>
  <radialGradient id="radialGradient4324" cx="245.12" cy="1037.5" r="251.29" gradientTransform="matrix(6.844e-6 .49031 -.41193 6.592e-6 476.07 -32.04)" gradientUnits="userSpaceOnUse">
   <stop stop-color="#ffd5d5" offset="0"/>
   <stop stop-color="#faa" offset=".20404"/>
   <stop stop-color="#ff2a2a" offset=".44283"/>
   <stop stop-color="#ff2a2a" offset="1"/>
  </radialGradient>
  <radialGradient id="radialGradient5327" cx="241.29" cy="1023.5" r="251.29" gradientTransform="matrix(7.2916e-6 .47705 .36652 -4.1591e-6 -160.08 -30.238)" gradientUnits="userSpaceOnUse">
   <stop stop-color="#ffd5d5" offset="0"/>
   <stop stop-color="#faa" offset=".25"/>
   <stop stop-color="#ff2a2a" offset=".5"/>
   <stop stop-color="#ff2a2a" offset="1"/>
  </radialGradient>
 </defs>
 <g stroke="#000" stroke-miterlimit="10">
  <g transform="matrix(.1378 -.0037 .0037 .1378 .11109 -28.382)" fill="#ff7f2a" stroke-linecap="round" stroke-linejoin="round" stroke-width="11.737">
   <path d="m803.33 846.67c10 29.333 8.667 142 2.667 172.67-2.305 11.78-199.33 100-234.67 92-21.059-4.768-100.24-240.77-40-249.33 204.74-29.111 269.44-22.835 272-15.334z"/>
   <path d="m718 1639s46.86-17.084 73 41c4.5 9.999 19.674 9.352 31-6 8.269-11.208 10.828-132.96 6-157-3.236-16.111-2.704-23.048-17.326-35-34.255-28-61.674-46-92.674-32s0 189 0 189z"/>
  </g>
  <path d="m54.449 199.07c-2.0534-3.6389-30.824-60.469-31.328-68.97s4.4854-28.757 20.367-52.914c0.81083-1.2332 1.8179-2.2107 3.1345-3.1168 31.89-21.948 55.226-0.93234 60.133 7.2099 1.5538 2.5784 2.5951 1.97 3.0374 3.5351 1.6697 5.9061-0.84734 22.43-1.332 23.92-0.18955 0.58248-0.53392 1.1156-1.2902 1.6773-4.2366 3.1463-12.726 7.2477-14.489 8.2022-13.649 7.3876-13.019 18.085-6.1004 27.882 6.0207 8.526 18.198 15.232 23.119 23.878 0.86967 1.5284 1.5548 1.6826 2.0328 3.8066 0.67848 3.0154 0.6067 15.75 0.0378 18.109-0.25971 1.0768-0.57828 1.6101-1.4293 1.969-3.727 1.5723-7.9573 5.4012-11.263 6.7849-15.137 6.3354-37.093 2.178-39.806 1.7569-2.458-0.38149-4.1717-2.5763-4.8232-3.731z" fill="url(#linearGradient4316)" stroke-width=".988"/>
  <g transform="matrix(.1378 -.0037 .0037 .1378 .11109 -28.382)" stroke-width="3.025">
   <path d="m368.11 1107c8.177-15.121 9.389-133.5-59.111-173.5-39.068-22.813-89 16-89 16s88.724 267.32 148.11 157.5z" fill="#f2f2f2"/>
   <path d="m456 1470c0.834 6 0 67.5-51 108s-91-217-91-217l78-13.5s57.354 74.689 64 122.5z" fill="#e6e6e6"/>
   <path d="m271 907s97.111 113 79.5 202.5c-3.947 20.059 21.5-18 27.5-30.5s-43.276 145.75 47.5 284c54.5 83-36.119 23.077-57.389 19.5-24.777-4.167 71.791 36.081 47.889 161-6.667 34.842 48-36.167 48-36.167s-74.166 186.69-120.5 81.167c-9.92-22.592-201.06-547.14-147.5-647 23.334-43.505 63.5-34 75-34.5z" fill="url(#linearGradient4802)"/>
  </g>
  <path d="m68.464 154.84c-11.722-9.1853-13.825-17.148-5.6835-26.783 3.8236-4.5259 14.021-12.98 19.475-19.37 13.436-15.737 3.228-28.676-9.6973-33.529-13.356-5.0148-33.193 5.9983-33.911 6.6611s0.37698 2.0118 0.06167 2.2967c-0.51928 0.46929-3.3759 3.4757-12.156 16.323-9.3766 13.719-5.957 29.786-2.6659 37.671 7.0006 16.774 25.438 52.31 24.596 53.213-0.73724 0.78996 0.29191 2.2794 0.89649 2.5733 1.2287 0.59735 16.178 3.0848 19.117 3.2327 2.8308 0.14256 9.5461 0.63865 13.331-3.3917 3.6422-3.8784 5.5369-15.311 5.0686-20.086-0.56972-5.8107-9.8393-12.078-18.432-18.811zm-8.6089 32.465c-2.5093 1.0339-1.6839-0.42047-1.384-2.7553 0.34218-2.6638 0.71154-11.14-9.111-21.738-9.7391-10.507-13.013-16.028-8.71-30.394 3.5556-11.87 4.3845-20.734-4.5135-33.892-0.70637-1.0445-0.43358-1.8293 1.1727-1.5051 2.0143 0.40664 25.955 7.1614 15.003 28.948-9.5562 19.011-6.8915 23.959 3.9601 33.977 11.298 10.43 17.903 21.458 3.5819 27.358z" fill="url(#radialGradient4324)" stroke-width=".417"/>
  <path d="m41.55 80.201c-1.6919 0.84773-2.7459 1.478-2.9014 1.6216-0.71762 0.66284 0.37698 2.0118 0.06167 2.2967-0.51928 0.46929-3.3759 3.4757-12.156 16.323-9.3766 13.719-5.957 29.786-2.6659 37.671 7.0006 16.774 25.437 52.311 24.596 53.212-0.73724 0.78997 0.29191 2.2794 0.89649 2.5733 0.28294 0.13761 1.2938 0.37537 2.7178 0.66175" fill="none" stroke-width="1.618"/>
 </g>
 <g transform="matrix(.1378 -.0037 .0037 .1378 .11109 -28.382)">
  <path d="m272.42 830.3s1.944-0.962 4.86-2.404c3.036-1.465 7.084-3.418 11.132-5.372 7.951-3.818 16.095-7.286 16.095-7.286l-9.58-22.301s-8.553 3.642-16.96 7.678c-4.122 1.989-8.243 3.978-11.334 5.47-1.561 0.768-2.86 1.407-3.771 1.854-0.976 0.491-1.533 0.771-1.533 0.771z" fill="none"/>
  <path d="m269.4 820.04 8.671-4.227-1.406-2.915-8.701 4.242z" fill="#1d1d1b"/>
  <path d="m281.69 814.07 4.352-2.074-1.38-2.927-4.372 2.083z" fill="#1d1d1b"/>
  <path d="m289.68 810.3 4.386-1.986c2.203-0.97 4.407-1.941 4.407-1.941l-1.29-2.968-4.436 1.954c-2.208 1-4.417 2-4.417 2z" fill="#1d1d1b"/>
  <path d="m304.51 815.23s8.128-3.509 16.393-6.694c8.251-3.219 16.617-6.1 16.617-6.1l-7.946-22.934s-8.792 3.028-17.445 6.404c-8.667 3.34-17.198 7.024-17.198 7.024z" fill="none"/>
  <path d="m302.21 804.77s2.221-0.931 4.442-1.861c2.229-0.909 4.459-1.819 4.459-1.819l-1.208-3.002s-2.244 0.916-4.488 1.831c-2.235 0.937-4.471 1.874-4.471 1.874z" fill="#1d1d1b"/>
  <path d="m314.84 799.61 4.49-1.741-1.155-3.023-4.519 1.753z" fill="#1d1d1b"/>
  <path d="m323.08 796.45 4.52-1.662 4.536-1.618-1.072-3.053s-2.283 0.814-4.565 1.628c-2.275 0.836-4.549 1.673-4.549 1.673z" fill="#1d1d1b"/>
  <path d="m337.52 802.44s8.354-2.917 16.806-5.465c8.442-2.587 16.968-4.767 16.968-4.767l-6.057-23.503s-9.055 2.316-17.963 5.046c-8.922 2.69-17.7 5.756-17.7 5.756z" fill="none"/>
  <path d="m335.98 791.84s2.282-0.768 4.564-1.535c2.29-0.744 4.579-1.488 4.579-1.488l-0.984-3.083s-2.306 0.749-4.611 1.498c-2.298 0.772-4.595 1.545-4.595 1.545z" fill="#1d1d1b"/>
  <path d="m348.95 787.61 4.606-1.398-0.924-3.102-4.639 1.409z" fill="#1d1d1b"/>
  <path d="m357.4 785.09s2.316-0.652 4.633-1.305c2.324-0.626 4.647-1.252 4.647-1.252l-0.823-3.129-4.684 1.262-4.668 1.314z" fill="#1d1d1b"/>
  <path d="m371.29 792.21s8.52-2.224 17.104-3.984c4.29-0.892 8.59-1.684 11.818-2.228 3.228-0.546 5.383-0.862 5.383-0.862l-3.619-24s-2.333 0.342-5.813 0.931c-3.481 0.586-8.103 1.438-12.695 2.392-9.193 1.886-18.234 4.247-18.234 4.247z" fill="none"/>
  <path d="m370.62 781.52s2.336-0.574 4.673-1.148l4.686-1.09-0.713-3.156s-2.363 0.549-4.726 1.099c-2.355 0.579-4.711 1.158-4.711 1.158z" fill="#1d1d1b"/>
  <path d="m383.89 778.42 4.709-0.976-0.635-3.173-4.753 0.985z" fill="#1d1d1b"/>
  <path d="m392.53 776.68s2.366-0.427 4.731-0.854c2.372-0.392 4.743-0.784 4.743-0.784l-0.504-3.197s-2.395 0.396-4.791 0.792c-2.389 0.432-4.778 0.863-4.778 0.863z" fill="#1d1d1b"/>
  <path d="m405.6 785.13s8.622-1.34 17.245-2.057c4.311-0.375 8.617-0.617 11.84-0.727 3.224-0.115 5.366-0.126 5.366-0.126l-0.263-24.27s-2.394 0.013-5.97 0.14c-3.576 0.123-8.331 0.39-13.057 0.802-9.463 0.788-18.78 2.238-18.78 2.238z" fill="none"/>
  <path d="m406.02 774.43s2.381-0.323 4.762-0.647l4.77-0.568-0.354-3.217s-2.413 0.288-4.825 0.575l-4.814 0.654z" fill="#1d1d1b"/>
  <path d="m419.53 772.81 4.784-0.413-0.248-3.227-4.843 0.419z" fill="#1d1d1b"/>
  <path d="m428.3 772.12s2.396-0.148 4.793-0.245c2.397-0.104 4.795-0.147 4.795-0.147l-0.065-3.235s-2.433 0.044-4.863 0.149c-2.431 0.098-4.857 0.248-4.857 0.248z" fill="#1d1d1b"/>
  <path d="m440.05 782.22s8.581-0.148 17.005 0.572c4.213 0.342 8.382 0.87 11.477 1.366 3.099 0.484 5.13 0.909 5.13 0.909l4.696-23.813s-2.41-0.502-6.034-1.07c-3.623-0.58-8.459-1.191-13.289-1.583-9.666-0.823-19.248-0.651-19.248-0.651z" fill="none"/>
  <path d="m441.94 771.69s2.397-4e-3 4.793 0.049c2.396 0.046 4.789 0.164 4.789 0.164l0.151-3.232s-2.434-0.12-4.869-0.167c-2.435-0.053-4.869-0.05-4.869-0.05z" fill="#1d1d1b"/>
  <path d="m455.51 772.13s1.194 0.089 2.388 0.177c1.192 0.107 2.384 0.213 2.384 0.213l0.308-3.221s-1.214-0.109-2.428-0.217c-1.216-0.09-2.431-0.181-2.431-0.181z" fill="#1d1d1b"/>
  <path d="m464.24 772.94s2.376 0.278 4.74 0.637c2.366 0.349 4.715 0.786 4.715 0.786l0.582-3.183s-2.401-0.447-4.816-0.803c-2.414-0.366-4.836-0.649-4.836-0.649z" fill="#1d1d1b"/>
  <path d="m473.66 785.07s2.045 0.387 5.061 1.103c3.013 0.72 6.981 1.811 10.823 3.15 1.94 0.671 3.778 1.375 5.602 2.123 1.867 0.765 3.598 1.503 5.074 2.151 2.952 1.298 4.891 2.219 4.891 2.219l10.3-21.978s-2.159-1.025-5.436-2.466c-1.638-0.72-3.558-1.539-5.626-2.386-2.109-0.867-4.509-1.786-6.856-2.597-4.726-1.646-9.516-2.96-13.119-3.821-3.604-0.855-6.018-1.312-6.018-1.312z" fill="none"/>
  <path d="m477.65 775.15s2.337 0.491 4.652 1.072c2.318 0.571 4.608 1.237 4.608 1.237l0.897-3.109s-2.35-0.684-4.724-1.269c-2.372-0.596-4.764-1.098-4.763-1.098z" fill="#1d1d1b"/>
  <path d="m490.72 778.62s1.129 0.379 2.259 0.759c1.122 0.401 2.243 0.802 2.243 0.802l1.123-3.035s-1.153-0.412-2.306-0.825c-1.161-0.39-2.321-0.78-2.321-0.78z" fill="#1d1d1b"/>
  <path d="m498.92 781.62s2.222 0.906 4.423 1.86c2.203 0.951 4.383 1.952 4.383 1.952l1.347-2.942s-2.211-1.014-4.444-1.979c-2.232-0.967-4.484-1.886-4.484-1.886z" fill="#1d1d1b"/>
  <path d="m505.11 795.82s7.806 3.609 15.207 7.897c3.711 2.124 7.331 4.384 9.998 6.142 2.668 1.756 4.4 2.986 4.4 2.986l13.917-19.885s-1.966-1.397-4.982-3.38c-3.013-1.987-7.092-4.533-11.255-6.916-8.307-4.812-16.985-8.822-16.985-8.823z" fill="none"/>
  <path d="m511.39 787.15s2.164 1.034 4.302 2.121c2.141 1.08 4.255 2.213 4.255 2.213l1.525-2.854s-2.146-1.15-4.318-2.246c-2.169-1.103-4.365-2.151-4.365-2.151z" fill="#1d1d1b"/>
  <path d="m523.45 793.4s1.043 0.59 2.086 1.181c1.037 0.602 2.073 1.204 2.073 1.204l1.643-2.788s-1.053-0.612-2.105-1.223c-1.059-0.6-2.119-1.199-2.119-1.199z" fill="#1d1d1b"/>
  <path d="m531.03 797.84s2.043 1.254 4.052 2.561c2.012 1.302 3.988 2.657 3.988 2.657l1.827-2.671s-2.009-1.377-4.054-2.701c-2.042-1.328-4.117-2.602-4.117-2.602z" fill="#1d1d1b"/>
  <path d="m534.71 812.84s7.009 4.841 13.384 10.372c3.203 2.746 6.264 5.628 8.482 7.853 2.222 2.222 3.631 3.761 3.631 3.761l17.768-16.535s-1.655-1.807-4.244-4.396c-2.585-2.593-6.134-5.933-9.819-9.092-7.341-6.367-15.285-11.848-15.285-11.848z" fill="none"/>
  <path d="m542.39 805.38s1.95 1.391 3.859 2.837c1.913 1.44 3.783 2.936 3.783 2.936l2.018-2.53s-1.904-1.523-3.851-2.989c-1.942-1.472-3.926-2.886-3.926-2.886z" fill="#1d1d1b"/>
  <path d="m553.12 813.68s0.913 0.773 1.826 1.547l1.804 1.572 2.143-2.425-1.838-1.602c-0.931-0.788-1.861-1.576-1.861-1.576z" fill="#1d1d1b"/>
  <path d="m559.7 819.47s1.758 1.622 3.459 3.304c1.709 1.674 3.357 3.405 3.357 3.405l2.339-2.235s-1.683-1.769-3.427-3.476c-1.735-1.716-3.528-3.371-3.528-3.371z" fill="#1d1d1b"/>
  <path d="m560.21 834.83s1.437 1.518 3.477 3.88c2.043 2.359 4.652 5.587 7.051 8.94 2.408 3.347 4.597 6.815 6.119 9.468 1.53 2.649 2.438 4.463 2.438 4.463l21.578-11.114s-1.125-2.244-2.997-5.488c-1.865-3.248-4.524-7.459-7.416-11.476-2.88-4.026-5.98-7.859-8.391-10.643-2.408-2.788-4.09-4.564-4.09-4.564z" fill="none"/>
  <path d="m569.27 829.13s1.609 1.768 3.15 3.593c1.549 1.819 3.029 3.694 3.029 3.693l2.537-2.008s-1.514-1.918-3.098-3.778c-1.577-1.867-3.22-3.672-3.22-3.672z" fill="#1d1d1b"/>
  <path d="m577.87 839.58 1.41 1.926c0.686 0.976 1.373 1.952 1.373 1.952l2.663-1.838s-0.703-1-1.407-2c-0.722-0.987-1.443-1.973-1.443-1.973z" fill="#1d1d1b"/>
  <path d="m582.86 846.76s1.298 2.001 2.505 4.057c1.218 2.05 2.342 4.151 2.342 4.151l2.85-1.532s-1.156-2.16-2.407-4.265c-1.24-2.111-2.571-4.165-2.571-4.165z" fill="#1d1d1b"/>
  <path d="m579.3 861.58s0.951 1.796 2.203 4.554c1.256 2.755 2.761 6.49 3.962 10.296 1.213 3.803 2.115 7.667 2.64 10.612 0.536 2.936 0.753 4.91 0.753 4.91l24.087-2.983s-0.279-2.538-0.965-6.296c-0.669-3.752-1.833-8.739-3.379-13.581-1.529-4.847-3.423-9.54-4.989-12.974-1.561-3.438-2.734-5.653-2.734-5.653z" fill="none"/>
  <path d="m589.55 858.54s1.06 2.134 2.012 4.315c0.963 2.177 1.818 4.397 1.818 4.397l3.018-1.169s-0.882-2.29-1.875-4.532c-0.981-2.247-2.071-4.442-2.071-4.442z" fill="#1d1d1b"/>
  <path d="m594.74 870.98s0.373 1.128 0.747 2.257c0.346 1.137 0.691 2.274 0.691 2.274l3.107-0.904s-0.356-1.174-0.713-2.349c-0.385-1.165-0.771-2.33-0.771-2.33z" fill="#1d1d1b"/>
  <path d="m597.21 879.33s0.574 2.306 1.024 4.64c0.46 2.332 0.797 4.685 0.797 4.685l3.202-0.465s-0.348-2.432-0.824-4.841c-0.465-2.411-1.059-4.795-1.059-4.795z" fill="#1d1d1b"/>
  <path d="m588.85 891.95s0.268 1.969 0.467 4.941c0.205 2.971 0.271 6.949 0.015 10.93-0.238 3.98-0.788 7.956-1.345 10.924-0.553 2.968-1.041 4.936-1.041 4.936l23.614 5.613s0.606-2.438 1.298-6.159c0.697-3.718 1.396-8.744 1.699-13.821 0.326-5.075 0.242-10.184-0.021-14-0.255-3.818-0.6-6.346-0.6-6.346z" fill="none"/>
  <path d="m599.52 892.64s0.246 2.363 0.369 4.736c0.133 2.373 0.137 4.75 0.137 4.75l3.236-0.011s-4e-3 -2.457-0.142-4.909c-0.127-2.453-0.381-4.896-0.381-4.896z" fill="#1d1d1b"/>
  <path d="m599.96 906.08s-0.037 1.188-0.119 2.374c-0.064 1.187-0.171 2.371-0.172 2.371l3.224 0.276s0.111-1.223 0.178-2.448c0.084-1.225 0.123-2.452 0.123-2.452z" fill="#1d1d1b"/>
  <path d="m599.25 914.77s-0.29 2.361-0.703 4.705c-0.403 2.345-0.912 4.671-0.912 4.671l3.162 0.69s0.524-2.396 0.939-4.813c0.425-2.416 0.724-4.852 0.725-4.852z" fill="#1d1d1b"/>
  <path d="m586.95 923.68s-0.44 1.973-1.295 4.904c-0.847 2.932-2.135 6.818-3.686 10.643-3.027 7.676-7.173 15.014-7.172 15.014l21.243 11.741s4.809-8.489 8.453-17.709c1.857-4.584 3.432-9.318 4.472-12.921 1.049-3.602 1.6-6.058 1.6-6.058z" fill="none"/>
  <path d="m596.71 928.05s-0.581 2.31-1.277 4.59c-0.686 2.282-1.468 4.536-1.468 4.536l3.059 1.055s0.802-2.312 1.507-4.658c0.716-2.342 1.313-4.719 1.313-4.719z" fill="#1d1d1b"/>
  <path d="m592.61 940.91s-0.434 1.111-0.869 2.223l-0.908 2.208 2.981 1.259s0.465-1.131 0.93-2.261c0.445-1.139 0.891-2.277 0.891-2.277z" fill="#1d1d1b"/>
  <path d="m589.23 948.99s-0.994 2.172-2.056 4.313c-1.058 2.144-2.196 4.247-2.196 4.247l2.852 1.529s1.162-2.146 2.242-4.336c1.085-2.187 2.102-4.409 2.102-4.409z" fill="#1d1d1b"/>
  <path d="m574.8 954.24s-0.998 1.845-2.621 4.563c-1.626 2.715-3.888 6.299-6.323 9.799-4.823 7.028-10.343 13.674-10.343 13.674l18.764 15.396s6.088-7.322 11.539-15.26c2.746-3.947 5.331-8.038 7.199-11.159 1.866-3.125 3.027-5.271 3.027-5.271z" fill="none"/>
  <path d="m583.03 961.08s-1.177 2.083-2.425 4.125c-1.236 2.05-2.538 4.061-2.538 4.061l2.721 1.751s1.324-2.046 2.583-4.134c1.271-2.08 2.471-4.204 2.472-4.204z" fill="#1d1d1b"/>
  <path d="m575.87 972.6s-0.675 0.989-1.351 1.979c-0.688 0.981-1.375 1.963-1.375 1.963l2.639 1.873s0.699-0.997 1.397-1.995c0.687-1.005 1.373-2.011 1.373-2.011z" fill="#1d1d1b"/>
  <path d="m570.8 979.78s-1.421 1.931-2.892 3.826c-1.462 1.901-2.973 3.766-2.973 3.766l2.519 2.031s1.531-1.889 3.015-3.818c1.492-1.922 2.935-3.883 2.935-3.883z" fill="#1d1d1b"/>
  <path d="m555.51 982.28s-1.358 1.672-3.472 4.133c-2.108 2.461-4.991 5.692-7.998 8.91-5.988 6.43-12.327 12.694-12.327 12.694l17.124 17.201s6.571-6.489 12.95-13.338c3.188-3.41 6.346-6.948 8.664-9.654 2.32-2.701 3.822-4.55 3.822-4.549z" fill="none"/>
  <path d="m562.37 990.5s-1.556 1.828-3.111 3.657c-1.589 1.8-3.179 3.6-3.179 3.6l2.407 2.163s1.608-1.822 3.217-3.644c1.575-1.852 3.15-3.703 3.15-3.703z" fill="#1d1d1b"/>
  <path d="m553.38 1000.7-3.281 3.518 2.353 2.222 3.309-3.548z" fill="#1d1d1b"/>
  <path d="m547.33 1007.1s-1.678 1.727-3.355 3.454c-1.694 1.712-3.389 3.424-3.389 3.424l2.291 2.286 3.408-3.444c1.689-1.738 3.378-3.477 3.378-3.477z" fill="#1d1d1b"/>
  <path d="m531.72 1008s-6.305 6.278-12.813 12.438c-6.49 6.17-13.121 12.253-13.121 12.254l16.437 17.859s6.739-6.182 13.398-12.513c6.67-6.312 13.223-12.836 13.223-12.836z" fill="none"/>
  <path d="m537.71 1016.9-3.438 3.378-3.462 3.356 2.245 2.33s1.738-1.685 3.477-3.37c1.727-1.697 3.455-3.394 3.455-3.394z" fill="#1d1d1b"/>
  <path d="m527.91 1026.4-3.497 3.321 2.222 2.353 3.51-3.333z" fill="#1d1d1b"/>
  <path d="m521.48 1032.5-7.066 6.573 2.194 2.378 7.085-6.59z" fill="#1d1d1b"/>
  <path d="m505.78 1032.7s-6.618 6.09-13.325 12.128c-6.731 6.028-13.462 12.057-13.462 12.057l16.145 18.123s6.785-6.076 13.569-12.152c6.777-6.1 13.51-12.296 13.51-12.296z" fill="none"/>
  <path d="m511.42 1041.8-7.131 6.506 2.174 2.397 7.145-6.519z" fill="#1d1d1b"/>
  <path d="m501.31 1051-3.586 3.233 2.164 2.406 3.591-3.238z" fill="#1d1d1b"/>
  <path d="m494.73 1056.9-7.2 6.438 2.154 2.415 7.207-6.444z" fill="#1d1d1b"/>
  <path d="m478.99 1056.9-27.129 24.12 16.167 18.103 27.107-24.101z" fill="none"/>
  <path transform="rotate(-41.634,481.93,1070.5)" d="m477.12 1068.9h9.661v3.236h-9.661z" fill="#1d1d1b"/>
  <path transform="rotate(-41.6,473.43,1077.9)" d="m471.1 1076.4h4.832v3.236h-4.832z" fill="#1d1d1b"/>
  <path transform="rotate(-41.669,465.13,1085.6)" d="m460.26 1083.9h9.666v3.236h-9.666z" fill="#1d1d1b"/>
  <path d="m451.86 1081-13.566 12.21c-6.774 6.141-13.487 12.466-13.487 12.466l16.655 17.656s6.492-6.119 13.161-12.164c6.702-6.032 13.405-12.064 13.405-12.064z" fill="none"/>
  <path d="m457.37 1090.2-7.196 6.459 2.167 2.403 7.185-6.45z" fill="#1d1d1b"/>
  <path d="m447.18 1099.4-3.579 3.254 2.181 2.391 3.571-3.247z" fill="#1d1d1b"/>
  <path d="m440.63 1105.3-7.096 6.583 2.215 2.36 7.071-6.561z" fill="#1d1d1b"/>
  <path d="m424.81 1105.7s-6.725 6.279-13.314 12.975c-3.293 3.339-6.566 6.824-8.965 9.54-2.361 2.658-3.894 4.477-3.894 4.477l18.489 15.725s1.391-1.649 3.548-4.079c2.105-2.383 5.043-5.515 8.119-8.635 6.137-6.238 12.673-12.347 12.673-12.347z" fill="none"/>
  <path d="m430.56 1114.7s-1.751 1.674-3.501 3.348l-3.474 3.38 2.268 2.308 3.452-3.358 3.482-3.33z" fill="#1d1d1b"/>
  <path d="m420.72 1124.3-3.405 3.459 2.323 2.253 3.373-3.427z" fill="#1d1d1b"/>
  <path d="m414.51 1130.7s-1.67 1.768-3.298 3.581c-1.607 1.825-3.214 3.649-3.214 3.649l2.448 2.116 3.172-3.602c1.6-1.782 3.249-3.526 3.248-3.526z" fill="#1d1d1b"/>
  <path d="m398.64 1132.7s-6.208 7.204-11.811 15.039c-2.811 3.905-5.486 7.939-7.402 11.041-1.925 3.095-3.125 5.225-3.125 5.225l21.046 12.091s1.026-1.823 2.695-4.506c1.659-2.688 4-6.217 6.488-9.676 4.955-6.933 10.598-13.489 10.598-13.49z" fill="none"/>
  <path d="m405.34 1141.1s-1.56 1.865-3.083 3.763c-1.527 1.894-3.005 3.828-3.005 3.828l2.567 1.971s1.456-1.906 2.961-3.773c1.501-1.871 3.041-3.711 3.041-3.711z" fill="#1d1d1b"/>
  <path d="m396.81 1151.9s-0.718 0.983-1.436 1.967l-1.41 1.986 2.649 1.858s0.693-0.977 1.387-1.954l1.412-1.936z" fill="#1d1d1b"/>
  <path d="m391.67 1159.2s-1.362 2.021-2.66 4.086c-1.304 2.06-2.543 4.162-2.543 4.162l2.785 1.648s1.214-2.061 2.495-4.083c1.272-2.027 2.611-4.012 2.611-4.012z" fill="#1d1d1b"/>
  <path d="m376.3 1164s-1.23 2.106-2.951 5.36c-1.716 3.255-3.884 7.688-5.781 12.279-1.911 4.583-3.547 9.316-4.61 12.93-1.072 3.611-1.644 6.071-1.643 6.071l23.584 5.735s0.455-1.961 1.319-4.873c0.857-2.913 2.187-6.765 3.767-10.556 3.105-7.605 7.363-14.855 7.362-14.855z" fill="none"/>
  <path d="m384.42 1171s-1.19 2.131-2.309 4.303c-1.123 2.169-2.167 4.379-2.167 4.379l2.925 1.385s1.021-2.158 2.118-4.28c1.095-2.124 2.26-4.211 2.26-4.211z" fill="#1d1d1b"/>
  <path d="m378.25 1183.4-0.96 2.25c-0.458 1.134-0.916 2.269-0.916 2.269l3.012 1.184s0.446-1.106 0.892-2.211c0.468-1.097 0.937-2.194 0.937-2.194z" fill="#1d1d1b"/>
  <path d="m374.94 1191.7s-0.827 2.305-1.546 4.647c-0.731 2.338-1.349 4.711-1.35 4.711l3.129 0.823s0.601-2.304 1.312-4.577c0.7-2.276 1.504-4.521 1.504-4.521z" fill="#1d1d1b"/>
  <path d="m361.32 1200.6s-0.625 2.443-1.331 6.173c-0.706 3.729-1.421 8.763-1.733 13.841-0.33 5.077-0.25 10.173-9e-3 13.975 0.248 3.8 0.566 6.313 0.567 6.313l24.106-2.825s-0.251-1.989-0.448-4.979c-0.188-2.988-0.251-6.977 7e-3 -10.956 0.245-3.979 0.808-7.942 1.366-10.897 0.561-2.956 1.059-4.91 1.059-4.91z" fill="none"/>
  <path d="m371.07 1205.1s-0.539 2.393-0.96 4.81c-0.434 2.415-0.736 4.851-0.736 4.851l3.21 0.41s0.293-2.36 0.714-4.701c0.408-2.343 0.931-4.665 0.931-4.665z" fill="#1d1d1b"/>
  <path d="m368.94 1218.8s-0.094 1.224-0.187 2.448c-0.076 1.225-0.123 2.451-0.123 2.451l3.234 0.126s0.045-1.188 0.119-2.374c0.091-1.185 0.181-2.37 0.181-2.37z" fill="#1d1d1b"/>
  <path d="m368.55 1227.8s-6e-3 2.456 0.125 4.907c0.12 2.452 0.359 4.894 0.359 4.894l3.221-0.313s-0.231-2.367-0.348-4.741c-0.128-2.374-0.121-4.751-0.122-4.751z" fill="#1d1d1b"/>
  <path d="m358.81 1240.9s0.259 2.524 0.909 6.266c0.633 3.744 1.729 8.688 3.159 13.511 1.423 4.826 3.168 9.521 4.61 12.962 1.437 3.447 2.509 5.678 2.509 5.678l21.979-10.297s-0.893-1.859-2.074-4.693c-1.188-2.832-2.605-6.653-3.748-10.53-1.147-3.876-2.019-7.803-2.519-10.767-0.516-2.962-0.719-4.954-0.719-4.954z" fill="none"/>
  <path d="m369.52 1241.7s0.324 2.433 0.776 4.844c0.437 2.415 1.004 4.801 1.004 4.801l3.152-0.731s-0.55-2.316-0.974-4.657c-0.438-2.338-0.752-4.696-0.752-4.696z" fill="#1d1d1b"/>
  <path d="m372.3 1255.3s0.333 1.18 0.667 2.359c0.351 1.174 0.722 2.341 0.722 2.341l3.083-0.983-0.702-2.274c-0.324-1.146-0.647-2.291-0.647-2.291z" fill="#1d1d1b"/>
  <path d="m374.99 1263.9s0.815 2.31 1.741 4.576c0.917 2.27 1.922 4.499 1.922 4.499l2.952-1.326s-0.981-2.175-1.874-4.385c-0.902-2.208-1.694-4.455-1.694-4.455z" fill="#1d1d1b"/>
  <path d="m370 1279.3s1.026 2.259 2.735 5.535c1.699 3.282 4.111 7.556 6.71 11.675 2.593 4.123 5.356 8.095 7.494 11.008 2.137 2.914 3.615 4.802 3.615 4.801l19.181-14.873s-5.303-6.732-9.749-13.865c-2.242-3.555-4.291-7.188-5.72-9.947-1.438-2.757-2.288-4.63-2.288-4.63z" fill="none"/>
  <path d="m380.41 1276.7c0-1e-3 1.063 2.202 2.217 4.355 1.144 2.159 2.359 4.276 2.359 4.276l2.807-1.61s-1.189-2.073-2.308-4.184c-1.128-2.105-2.165-4.255-2.166-4.255z" fill="#1d1d1b"/>
  <path d="m387.05 1288.9 1.284 2.074c0.657 1.027 1.315 2.054 1.315 2.054l2.714-1.763s-0.645-1.007-1.29-2.015c-0.629-1.017-1.259-2.033-1.259-2.033z" fill="#1d1d1b"/>
  <path d="m391.9 1296.4s1.376 2.012 2.802 3.987c1.425 1.976 2.9 3.913 2.9 3.913l2.577-1.957s-1.452-1.907-2.853-3.851c-1.402-1.941-2.753-3.918-2.753-3.918z" fill="#1d1d1b"/>
  <path d="m390.55 1312.4s1.462 1.905 3.731 4.68c2.266 2.777 5.357 6.404 8.547 9.912 6.354 7.048 13.107 13.58 13.107 13.58l16.966-17.356s-6.293-6.091-12.089-12.523c-2.914-3.204-5.708-6.484-7.743-8.979-2.039-2.492-3.338-4.187-3.338-4.187z" fill="none"/>
  <path d="m400.12 1307.5s1.53 1.892 3.06 3.783c1.569 1.858 3.138 3.717 3.138 3.717l2.452-2.112-3.096-3.666c-1.508-1.864-3.016-3.729-3.016-3.729z" fill="#1d1d1b"/>
  <path d="m408.99 1318.1 3.263 3.602 2.379-2.193-3.225-3.559z" fill="#1d1d1b"/>
  <path d="m415.02 1324.6 3.374 3.494c1.713 1.721 3.426 3.44 3.426 3.44l2.276-2.3s-1.696-1.703-3.392-3.405c-1.668-1.729-3.337-3.458-3.337-3.458z" fill="#1d1d1b"/>
  <path d="m415.94 1340.5s1.674 1.65 4.229 4.066c2.552 2.419 5.994 5.59 9.485 8.686 3.488 3.102 7.027 6.127 9.699 8.366 2.662 2.211 4.437 3.685 4.437 3.685l15.452-18.718s-1.715-1.424-4.287-3.56c-2.542-2.13-5.899-5.001-9.191-7.928-3.296-2.923-6.526-5.899-8.913-8.161-2.389-2.259-3.945-3.793-3.945-3.793z" fill="none"/>
  <path d="m424.75 1334.4s1.757 1.675 3.514 3.349c1.779 1.649 3.557 3.299 3.557 3.299l2.187-2.386s-1.764-1.636-3.527-3.271c-1.741-1.658-3.482-3.317-3.482-3.317z" fill="#1d1d1b"/>
  <path d="m434.81 1343.8 3.628 3.218 2.134-2.433-3.6-3.193z" fill="#1d1d1b"/>
  <path d="m441.49 1349.7s1.845 1.572 3.691 3.144c1.859 1.554 3.719 3.108 3.719 3.108l2.063-2.493s-1.848-1.545-3.695-3.089c-1.833-1.561-3.666-3.121-3.666-3.121z" fill="#1d1d1b"/>
  <path d="m443.78 1365.3s7.052 5.774 14.104 11.549c7.047 5.723 14.094 11.445 14.094 11.445l15.301-18.842s-7.037-5.715-14.075-11.43c-6.986-5.72-13.971-11.44-13.971-11.44z" fill="none"/>
  <path d="m452.04 1358.5 7.477 6.13 2.048-2.506-7.467-6.122z" fill="#1d1d1b"/>
  <path transform="rotate(219.14 465.52 1367.5)" d="m463.12 1365.8h4.833v3.236h-4.833z" fill="#1d1d1b"/>
  <path transform="matrix(-.7764 -.6302 .6302 -.7764 -23.708 2740.7)" d="m469.46 1372.9h9.663v3.236h-9.663z" fill="#1d1d1b"/>
  <path d="m471.98 1388.3s7.002 5.712 14.004 11.425c6.975 5.718 13.827 11.499 13.827 11.499l15.655-18.549s-7.016-5.919-14.073-11.703l-14.112-11.514z" fill="none"/>
  <path d="m480.18 1381.4 7.489 6.099 2.047-2.506-7.495-6.105z" fill="#1d1d1b"/>
  <path d="m490.79 1390.1 3.73 3.065 2.057-2.498-3.736-3.07z" fill="#1d1d1b"/>
  <path d="m497.62 1395.7 7.412 6.182 2.082-2.478-7.43-6.196z" fill="#1d1d1b"/>
  <path d="m499.81 1411.3s6.871 5.771 13.537 11.666c3.337 2.945 6.624 5.921 9.056 8.172 2.415 2.261 4.024 3.768 4.024 3.768l16.705-17.608s-1.701-1.593-4.253-3.981c-2.561-2.371-6-5.484-9.464-8.542-6.926-6.124-13.949-12.022-13.949-12.022z" fill="none"/>
  <path d="m508.14 1404.5 7.324 6.274 2.119-2.445-7.352-6.298z" fill="#1d1d1b"/>
  <path d="m518.49 1413.4 3.612 3.19 2.152-2.417-3.631-3.207z" fill="#1d1d1b"/>
  <path d="m525.1 1419.3s1.78 1.622 3.561 3.243c1.763 1.639 3.527 3.277 3.527 3.277l2.215-2.358s-1.776-1.65-3.552-3.301c-1.792-1.632-3.583-3.264-3.583-3.264z" fill="#1d1d1b"/>
  <path d="m526.43 1434.9s6.438 6.039 12.341 12.336c2.961 3.142 5.781 6.342 7.793 8.771 2.02 2.428 3.266 4.07 3.266 4.07l19.223-14.818s-1.497-1.972-3.829-4.774c-2.328-2.81-5.51-6.418-8.771-9.877-6.511-6.941-13.317-13.316-13.317-13.316z" fill="none"/>
  <path d="m535.13 1428.6s1.726 1.675 3.452 3.351c1.7 1.698 3.401 3.396 3.401 3.396l2.305-2.271-3.436-3.432-3.482-3.38z" fill="#1d1d1b"/>
  <path d="m544.77 1438.2s0.827 0.87 1.653 1.741c0.818 0.878 1.635 1.756 1.635 1.756l2.379-2.193s-0.829-0.89-1.657-1.78c-0.837-0.881-1.674-1.763-1.674-1.763z" fill="#1d1d1b"/>
  <path d="m550.74 1444.7s1.595 1.79 3.137 3.621c1.548 1.825 3.032 3.699 3.032 3.699l2.534-2.012s-1.516-1.915-3.093-3.774c-1.57-1.865-3.19-3.684-3.19-3.684z" fill="#1d1d1b"/>
  <path d="m549.83 1460s1.291 1.636 3.032 4.118c1.742 2.478 3.891 5.824 5.523 9.115 1.663 3.296 2.704 6.463 3.084 8.58 0.101 0.533 0.168 1.005 0.217 1.414 0.048 0.427 0.067 0.685 0.099 1.177 0.047 0.851 0.074 1.337 0.074 1.337l24.246-1.124s-0.036-0.646-0.098-1.777c-0.031-0.497-0.097-1.442-0.208-2.389-0.112-0.963-0.269-2.035-0.485-3.174-0.837-4.583-2.775-10.063-5.204-14.867-2.41-4.837-5.204-9.128-7.368-12.216-2.167-3.087-3.69-5.014-3.69-5.013z" fill="none"/>
  <path d="m559.37 1455.2s1.434 1.907 2.774 3.873c1.351 1.96 2.585 3.984 2.585 3.984l2.76-1.69s-1.283-2.102-2.675-4.121c-1.381-2.027-2.852-3.982-2.852-3.982z" fill="#1d1d1b"/>
  <path d="m566.7 1466.5s0.568 1.036 1.091 2.091c0.529 1.052 1.006 2.124 1.006 2.124l2.952-1.326s-0.506-1.136-1.062-2.242c-0.55-1.11-1.145-2.192-1.145-2.192z" fill="#1d1d1b"/>
  <path d="m570.26 1474.3s0.808 2.194 1.306 4.448c0.535 2.25 0.685 4.529 0.685 4.529l3.228-0.229s-0.17-2.558-0.757-5.018c-0.547-2.47-1.415-4.819-1.414-4.819z" fill="#1d1d1b"/>
  <path d="m561.86 1485.8s0.11 1.952 0.094 5.036c-0.011 3.08-0.187 7.295-0.532 11.563-0.662 8.539-2.01 17.182-2.01 17.182l24.003 3.6s1.457-9.295 2.201-18.852c0.387-4.775 0.595-9.629 0.609-13.354 0.021-3.72-0.12-6.299-0.12-6.299z" fill="none"/>
  <path d="m572.44 1487.3s0.063 2.378 0.021 4.767c-0.032 2.387-0.147 4.778-0.147 4.778l3.232 0.148s0.118-2.436 0.15-4.88c0.043-2.443-0.022-4.896-0.021-4.896z" fill="#1d1d1b"/>
  <path d="m572.09 1500.8s-0.088 1.195-0.176 2.391c-0.102 1.194-0.204 2.389-0.204 2.389l3.223 0.293s0.103-1.213 0.207-2.425c0.09-1.214 0.18-2.429 0.18-2.429z" fill="#1d1d1b"/>
  <path d="m571.31 1509.6s-0.279 2.385-0.558 4.769c-0.321 2.381-0.641 4.762-0.641 4.762l3.203 0.459s0.324-2.408 0.648-4.815l0.564-4.828z" fill="#1d1d1b"/>
  <path d="m559.41 1519.6s-0.314 2.155-0.857 5.385c-0.541 3.23-1.328 7.533-2.217 11.818-1.745 8.583-3.991 17.026-3.991 17.026l23.471 6.181s2.419-9.097 4.29-18.297c0.953-4.598 1.799-9.22 2.381-12.7 0.585-3.479 0.926-5.813 0.926-5.813z" fill="none"/>
  <path d="m569.51 1523.1s-0.39 2.372-0.779 4.743l-0.85 4.732 3.181 0.595s0.429-2.389 0.857-4.778c0.394-2.396 0.788-4.791 0.788-4.791z" fill="#1d1d1b"/>
  <path d="m567.12 1536.5-0.972 4.71 3.164 0.676 0.982-4.754z" fill="#1d1d1b"/>
  <path d="m565.29 1545.1s-0.546 2.342-1.093 4.683c-0.58 2.333-1.161 4.666-1.161 4.666l3.135 0.805 1.172-4.712 1.104-4.728z" fill="#1d1d1b"/>
  <path d="m552.34 1553.8s-2.187 8.471-4.93 16.662c-1.355 4.101-2.836 8.122-4.012 11.079-1.174 2.961-2.021 4.873-2.021 4.873l22.263 9.669s0.989-2.236 2.323-5.602c1.337-3.364 2.991-7.86 4.482-12.373 3.018-9.02 5.365-18.128 5.365-18.128z" fill="none"/>
  <path d="m562 1558.4-1.29 4.63c-0.682 2.304-1.364 4.607-1.364 4.607l3.095 0.944s0.689-2.329 1.379-4.658c0.651-2.34 1.303-4.679 1.303-4.679z" fill="#1d1d1b"/>
  <path d="m558.15 1571.5s-0.373 1.141-0.746 2.281c-0.383 1.138-0.767 2.274-0.767 2.274l3.061 1.05s0.389-1.152 0.777-2.305c0.377-1.155 0.755-2.311 0.755-2.311z" fill="#1d1d1b"/>
  <path d="m555.31 1579.8s-0.815 2.256-1.684 4.488c-0.867 2.234-1.794 4.44-1.794 4.44l2.984 1.252s0.945-2.248 1.826-4.519c0.884-2.271 1.711-4.559 1.711-4.559z" fill="#1d1d1b"/>
  <path d="m541.38 1586.4s-0.821 1.94-2.159 4.725c-1.333 2.779-3.222 6.39-5.285 9.552-1.026 1.581-2.091 3.045-3.09 4.247-0.499 0.602-0.98 1.138-1.427 1.601-0.451 0.465-0.974 0.974-1.43 1.387-1.868 1.698-3.307 2.68-3.307 2.68l14.183 19.696s0.573-0.404 1.553-1.154c0.979-0.752 2.361-1.86 3.943-3.304 0.802-0.731 1.604-1.504 2.511-2.438 0.907-0.939 1.796-1.937 2.654-2.972 1.718-2.07 3.313-4.29 4.757-6.512 2.89-4.444 5.191-8.902 6.805-12.251 1.608-3.349 2.554-5.588 2.554-5.588z" fill="none"/>
  <path d="m550.23 1592.4s-0.974 2.183-2.034 4.319c-1.05 2.142-2.194 4.226-2.194 4.226l2.838 1.555s1.181-2.152 2.258-4.35c1.087-2.192 2.082-4.423 2.082-4.423z" fill="#1d1d1b"/>
  <path d="m544.03 1604.4s-0.613 1.014-1.257 2.003c-0.642 0.991-1.319 1.954-1.319 1.954l2.648 1.86s0.712-1.015 1.384-2.051c0.673-1.035 1.311-2.089 1.311-2.089z" fill="#1d1d1b"/>
  <path d="m539.1 1611.5s-1.456 1.815-3.148 3.409c-1.673 1.626-3.522 3.06-3.522 3.06l1.997 2.546s1.976-1.53 3.77-3.274c1.83-1.725 3.404-3.687 3.404-3.688z" fill="#1d1d1b"/>
  <path d="m524.69 1610.6s-1.372 1.037-3.693 2.367c-2.313 1.336-5.65 2.893-9.271 4.111-3.609 1.232-7.459 2.141-10.412 2.69-2.953 0.554-4.981 0.806-4.981 0.806l3.274 24.05s2.476-0.306 6.211-1.005c3.733-0.698 8.737-1.861 13.718-3.561 4.982-1.673 9.909-3.943 13.488-6.011 1.794-1.021 3.255-1.968 4.268-2.65 1.013-0.685 1.58-1.102 1.58-1.102z" fill="none"/>
  <path d="m529.22 1620.2s-1.949 1.302-4.021 2.413c-2.06 1.131-4.219 2.08-4.219 2.08l1.318 2.956c0-1e-3 2.268-0.998 4.446-2.193 2.189-1.174 4.263-2.559 4.263-2.559z" fill="#1d1d1b"/>
  <path d="m517.35 1626.2s-1.104 0.42-2.224 0.798c-1.119 0.381-2.252 0.726-2.252 0.726l0.947 3.094s1.179-0.357 2.347-0.756c1.168-0.395 2.323-0.834 2.323-0.834z" fill="#1d1d1b"/>
  <path d="m509.07 1628.8s-2.298 0.59-4.63 1.054c-2.329 0.475-4.685 0.83-4.685 0.83l0.494 3.198s2.423-0.366 4.83-0.856c2.408-0.478 4.791-1.09 4.791-1.09z" fill="#1d1d1b"/>
  <path d="m496.33 1620.6s-2.009 0.293-5.09 0.573c-3.078 0.286-7.243 0.515-11.463 0.544-4.222 0.036-8.513-0.107-11.75-0.274-3.239-0.169-5.435-0.331-5.435-0.331l-1.686 24.213s2.328 0.173 5.884 0.358c3.557 0.183 8.336 0.347 13.187 0.305 4.852-0.033 9.752-0.298 13.449-0.642 3.695-0.335 6.177-0.696 6.177-0.696z" fill="none"/>
  <path d="m495.77 1631.2s-2.367 0.288-4.748 0.475c-2.379 0.2-4.768 0.308-4.768 0.308l0.155 3.232s2.439-0.11 4.875-0.314c2.437-0.191 4.867-0.487 4.867-0.487z" fill="#1d1d1b"/>
  <path d="m482.27 1632.2s-1.196 0.019-2.393 0.037c-1.197 1e-3 -2.394 0-2.394 0l-0.016 3.235s1.218-1e-3 2.437 0c1.22-0.02 2.439-0.038 2.439-0.038z" fill="#1d1d1b"/>
  <path d="m473.49 1632.1s-2.396-0.056-4.794-0.173l-4.796-0.266-0.206 3.229s2.426 0.135 4.852 0.269c2.429 0.118 4.863 0.175 4.863 0.175z" fill="#1d1d1b"/>
  <path d="m462.59 1621.1s-2.217-0.167-5.544-0.418c-0.85-0.067-1.771-0.14-2.746-0.216-0.645-0.048-1.486-0.146-2.443-0.268-1.904-0.246-4.08-0.573-6.254-0.915-4.363-0.688-8.793-1.447-12.11-2.023-3.323-0.584-5.539-0.974-5.539-0.974l-4.248 23.896s2.252 0.396 5.629 0.99c3.386 0.588 7.897 1.362 12.495 2.087 2.307 0.362 4.617 0.712 6.93 1.012 1.151 0.146 2.353 0.292 3.651 0.392 0.968 0.076 1.884 0.148 2.729 0.215 3.458 0.261 5.764 0.435 5.764 0.435z" fill="none"/>
  <path d="m459.85 1631.4s-2.405-0.187-4.81-0.373c-0.601-0.047-1.202-0.095-1.765-0.139-0.544-0.055-1.052-0.105-1.487-0.149-0.884-0.109-1.474-0.182-1.474-0.182l-0.418 3.209s0.609 0.075 1.523 0.188c0.46 0.053 1 0.111 1.593 0.16 0.565 0.044 1.169 0.092 1.772 0.14 2.412 0.187 4.824 0.373 4.824 0.373z" fill="#1d1d1b"/>
  <path d="m446.36 1630-4.756-0.747-0.517 3.195 4.79 0.753z" fill="#1d1d1b"/>
  <path d="m437.64 1628.6-9.509-1.642-0.562 3.187 9.535 1.646z" fill="#1d1d1b"/>
  <path d="m427.96 1616.3s-8.878-1.617-17.757-3.234c-8.885-1.675-17.77-3.349-17.77-3.349l-4.552 23.841s8.945 1.686 17.889 3.371c8.971 1.634 17.941 3.268 17.941 3.268z" fill="none"/>
  <path d="m424.12 1626.3-9.5-1.723-0.584 3.183 9.515 1.725z" fill="#1d1d1b"/>
  <path transform="rotate(10.517,407.92,1625.2)" d="m405.58 1623.4h4.829v3.236h-4.829z" fill="#1d1d1b"/>
  <path d="m401.96 1622.2-9.491-1.795-0.605 3.18 9.499 1.796z" fill="#1d1d1b"/>
  <path d="m392.43 1609.7s-8.882-1.715-17.765-3.431c-8.875-1.751-17.75-3.503-17.75-3.503l-4.751 23.802s8.925 1.762 17.85 3.523c8.932 1.725 17.863 3.449 17.863 3.449z" fill="none"/>
  <path d="m388.47 1619.6-9.485-1.827-0.615 3.177 9.492 1.827z" fill="#1d1d1b"/>
  <path transform="matrix(.9815 .1917 -.1917 .9815 317.08 -41.368)" d="m369.94 1616.6h4.83v3.236h-4.83z" fill="#1d1d1b"/>
  <path d="m366.34 1615.3-9.476-1.875-0.632 3.174 9.483 1.876z" fill="#1d1d1b"/>
  <path d="m356.92 1602.7s-8.859-1.792-17.719-3.583c-8.854-1.81-17.636-3.699-17.636-3.698l-5.12 23.725s8.956 1.927 17.877 3.749c8.924 1.805 17.848 3.609 17.848 3.609z" fill="none"/>
  <path d="m352.87 1612.7-9.468-1.908-0.644 3.172 9.477 1.909z" fill="#1d1d1b"/>
  <path d="m339.46 1610-4.73-0.971-0.653 3.169 4.736 0.973z" fill="#1d1d1b"/>
  <path d="m330.79 1608.2-9.446-1.991-0.678 3.164 9.465 1.995z" fill="#1d1d1b"/>
 </g>
 <g stroke="#000" stroke-miterlimit="10">
  <circle transform="rotate(-1.5381)" cx="73.619" cy="189.45" r="1.2408" fill="#fea" stroke-width=".417"/>
  <circle transform="rotate(-1.5381)" cx="70.637" cy="193.1" r="1.281" fill="#fea" stroke-width=".417"/>
  <circle transform="rotate(-1.5381)" cx="77.728" cy="94.81" r="2.2753" fill="#fff6d5" stroke-width=".417"/>
  <g transform="matrix(-.13715 -.013921 -.013921 .13715 268.2 -22.706)" fill="#ff7f2a" stroke-linecap="round" stroke-linejoin="round" stroke-width="11.737">
   <path d="m803.33 846.67c10 29.333 8.667 142 2.667 172.67-2.305 11.78-199.33 100-234.67 92-21.059-4.768-100.24-240.77-40-249.33 204.74-29.111 269.44-22.835 272-15.334z"/>
   <path d="m718 1639s46.86-17.084 73 41c4.5 9.999 19.674 9.352 31-6 8.269-11.208 10.828-132.96 6-157-3.236-16.111-2.704-23.048-17.326-35-34.255-28-61.674-46-92.674-32s0 189 0 189z"/>
  </g>
  <path d="m197.12 200.1c2.318-3.4766 35.23-58.017 36.364-66.458 1.1339-8.4413-2.3382-29.012-16.384-54.283-0.71708-1.2901-1.6488-2.3396-2.8946-3.3411-30.174-24.256-55.007-5.0301-60.506 2.7257-1.7411 2.456-2.7343 1.772-3.2917 3.3001-2.1037 5.7661-0.82029 22.432-0.44752 23.954 0.1458 0.59497 0.44964 1.1522 1.1622 1.7686 3.9915 3.4523 12.153 8.1729 13.841 9.2558 13.064 8.3811 11.641 19.002 4.0138 28.259-6.6374 8.0559-19.28 13.84-24.829 22.097-0.98081 1.4597-1.6755 1.5626-2.3099 3.6454-0.90053 2.9569-1.7744 15.662-1.3822 18.058 0.17906 1.0932 0.45718 1.6486 1.2792 2.0698 3.6002 1.8448 7.5347 5.9773 10.729 7.6029 14.625 7.4421 36.831 4.9262 39.568 4.7076 2.4796-0.19796 4.3517-2.2596 5.0872-3.3628z" fill="url(#linearGradient5325)" stroke-linecap="round" stroke-linejoin="round" stroke-width=".988"/>
  <g transform="matrix(-.13715 -.013921 -.013921 .13715 268.2 -22.706)" stroke-width="3.0249">
   <path d="m368.11 1107c8.177-15.121 9.389-133.5-59.111-173.5-39.068-22.813-89 16-89 16s88.724 267.32 148.11 157.5z" fill="#f2f2f2"/>
   <path d="m456 1470c0.834 6 0 67.5-51 108s-91-217-91-217l78-13.5s57.354 74.689 64 122.5z" fill="#e6e6e6"/>
   <path d="m271 907s97.111 113 79.5 202.5c-3.947 20.059 21.5-18 27.5-30.5s-43.276 145.75 47.5 284c54.5 83-36.119 23.077-57.389 19.5-24.777-4.167 71.791 36.081 47.889 161-6.667 34.842 48-36.167 48-36.167s-74.166 186.69-120.5 81.167c-9.92-22.592-201.06-547.14-147.5-647 23.334-43.505 63.5-34 75-34.5z" fill="url(#linearGradient4858)"/>
  </g>
  <path d="m186.43 154.95c12.373-8.2901 15.061-16.075 7.6567-26.289-3.4773-4.7976-13.019-13.986-17.985-20.763-12.232-16.692-1.0902-28.838 12.16-32.718 13.692-4.0096 32.658 8.4465 33.325 9.1608s-0.52533 1.9783-0.23203 2.2859c0.48303 0.50657 3.1088 3.7169 10.912 17.181 8.3326 14.378 3.7294 30.148-0.13828 37.767-8.227 16.209-29.253 50.28-28.48 51.243 0.67659 0.84256-0.46035 2.2515-1.0851 2.4997-1.2698 0.5045-16.364 1.8753-19.305 1.8046-2.8337-0.068-9.5677-0.0718-13.043-4.3723-3.3444-4.1384-4.3852-15.68-3.5636-20.408 0.9996-5.7527 10.709-11.314 19.779-17.392zm6.1752 33.017c2.4258 1.2174 1.7105-0.29432 1.5848-2.6451-0.14348-2.682 0.1175-11.163 10.7-21.003 10.493-9.7558 14.168-15.018 10.943-29.665-2.6647-12.102-2.8332-21.003 7.0176-33.465 0.78201-0.98924 0.56823-1.7922-1.0578-1.5881-2.0391 0.25598-26.416 5.215-17.112 27.755 8.1189 19.669 5.094 24.406-6.4721 33.591-12.042 9.5634-19.448 20.07-5.6035 27.018z" fill="url(#radialGradient5327)" stroke-width=".417"/>
  <path d="m218.81 82.507c1.6244 0.97105 2.6287 1.6778 2.7732 1.8326 0.66647 0.71433-0.52532 1.9783-0.23202 2.2859 0.48303 0.50657 3.1088 3.7169 10.912 17.181 8.3326 14.378 3.7294 30.147-0.1383 37.767-8.227 16.209-29.252 50.281-28.48 51.242 0.67659 0.84256-0.46035 2.2515-1.0851 2.4997-0.2924 0.11623-1.3182 0.2783-2.7596 0.45818" fill="none" stroke-width="1.618"/>
 </g>
 <g transform="matrix(-.13715 -.013921 -.013921 .13715 268.2 -22.706)">
  <path d="m272.42 830.3s1.944-0.962 4.86-2.404c3.036-1.465 7.084-3.418 11.132-5.372 7.951-3.818 16.095-7.286 16.095-7.286l-9.58-22.301s-8.553 3.642-16.96 7.678c-4.122 1.989-8.243 3.978-11.334 5.47-1.561 0.768-2.86 1.407-3.771 1.854-0.976 0.491-1.533 0.771-1.533 0.771z" fill="none"/>
  <path d="m278.07 815.81-1.406-2.915-8.701 4.242 1.436 2.9z" fill="#1d1d1b"/>
  <path d="m286.05 811.99-1.38-2.927-4.372 2.083 1.4 2.918z" fill="#1d1d1b"/>
  <path d="m289.68 810.3 4.386-1.986c2.203-0.97 4.407-1.941 4.407-1.941l-1.29-2.968-4.436 1.954c-2.208 1-4.417 2-4.417 2z" fill="#1d1d1b"/>
  <path d="m304.51 815.23s8.128-3.509 16.393-6.694c8.251-3.219 16.617-6.1 16.617-6.1l-7.946-22.934s-8.792 3.028-17.445 6.404c-8.667 3.34-17.198 7.024-17.198 7.024z" fill="none"/>
  <path d="m302.21 804.77s2.221-0.931 4.442-1.861c2.229-0.909 4.459-1.819 4.459-1.819l-1.208-3.002s-2.244 0.916-4.488 1.831c-2.235 0.937-4.471 1.874-4.471 1.874z" fill="#1d1d1b"/>
  <path d="m319.33 797.87-1.155-3.023-4.519 1.753 1.184 3.011z" fill="#1d1d1b"/>
  <path d="m323.08 796.45 4.52-1.662 4.536-1.618-1.072-3.053s-2.283 0.814-4.565 1.628c-2.275 0.836-4.549 1.673-4.549 1.673z" fill="#1d1d1b"/>
  <path d="m337.52 802.44s8.354-2.917 16.806-5.465c8.442-2.587 16.968-4.767 16.968-4.767l-6.057-23.503s-9.055 2.316-17.963 5.046c-8.922 2.69-17.7 5.756-17.7 5.756z" fill="none"/>
  <path d="m335.98 791.84s2.282-0.768 4.564-1.535c2.29-0.744 4.579-1.488 4.579-1.488l-0.984-3.083s-2.306 0.749-4.611 1.498c-2.298 0.772-4.595 1.545-4.595 1.545z" fill="#1d1d1b"/>
  <path d="m353.56 786.22-0.924-3.102-4.639 1.409 0.957 3.091z" fill="#1d1d1b"/>
  <path d="m357.4 785.09s2.316-0.652 4.633-1.305c2.324-0.626 4.647-1.252 4.647-1.252l-0.823-3.129-4.684 1.262-4.668 1.314z" fill="#1d1d1b"/>
  <path d="m371.29 792.21s8.52-2.224 17.104-3.984c4.29-0.892 8.59-1.684 11.818-2.228 3.228-0.546 5.383-0.862 5.383-0.862l-3.619-24s-2.333 0.342-5.813 0.931c-3.481 0.586-8.103 1.438-12.695 2.392-9.193 1.886-18.234 4.247-18.234 4.247z" fill="none"/>
  <path d="m370.62 781.52s2.336-0.574 4.673-1.148l4.686-1.09-0.713-3.156s-2.363 0.549-4.726 1.099c-2.355 0.579-4.711 1.158-4.711 1.158z" fill="#1d1d1b"/>
  <path d="m388.6 777.44-0.635-3.173-4.753 0.985 0.679 3.164z" fill="#1d1d1b"/>
  <path d="m392.53 776.68s2.366-0.427 4.731-0.854c2.372-0.392 4.743-0.784 4.743-0.784l-0.504-3.197s-2.395 0.396-4.791 0.792c-2.389 0.432-4.778 0.863-4.778 0.863z" fill="#1d1d1b"/>
  <path d="m405.6 785.13s8.622-1.34 17.245-2.057c4.311-0.375 8.617-0.617 11.84-0.727 3.224-0.115 5.366-0.126 5.366-0.126l-0.263-24.27s-2.394 0.013-5.97 0.14c-3.576 0.123-8.331 0.39-13.057 0.802-9.463 0.788-18.78 2.238-18.78 2.238z" fill="none"/>
  <path d="m406.02 774.43s2.381-0.323 4.762-0.647l4.77-0.568-0.354-3.217s-2.413 0.288-4.825 0.575l-4.814 0.654z" fill="#1d1d1b"/>
  <path d="m424.31 772.4-0.248-3.227-4.843 0.419 0.307 3.221z" fill="#1d1d1b"/>
  <path d="m428.3 772.12s2.396-0.148 4.793-0.245c2.397-0.104 4.795-0.147 4.795-0.147l-0.065-3.235s-2.433 0.044-4.863 0.149c-2.431 0.098-4.857 0.248-4.857 0.248z" fill="#1d1d1b"/>
  <path d="m440.05 782.22s8.581-0.148 17.005 0.572c4.213 0.342 8.382 0.87 11.477 1.366 3.099 0.484 5.13 0.909 5.13 0.909l4.696-23.813s-2.41-0.502-6.034-1.07c-3.623-0.58-8.459-1.191-13.289-1.583-9.666-0.823-19.248-0.651-19.248-0.651z" fill="none"/>
  <path d="m441.94 771.69s2.397-4e-3 4.793 0.049c2.396 0.046 4.789 0.164 4.789 0.164l0.151-3.232s-2.434-0.12-4.869-0.167c-2.435-0.053-4.869-0.05-4.869-0.05z" fill="#1d1d1b"/>
  <path d="m455.51 772.13s1.194 0.089 2.388 0.177c1.192 0.107 2.384 0.213 2.384 0.213l0.308-3.221s-1.214-0.109-2.428-0.217c-1.216-0.09-2.431-0.181-2.431-0.181z" fill="#1d1d1b"/>
  <path d="m464.24 772.94s2.376 0.278 4.74 0.637c2.366 0.349 4.715 0.786 4.715 0.786l0.582-3.183s-2.401-0.447-4.816-0.803c-2.414-0.366-4.836-0.649-4.836-0.649z" fill="#1d1d1b"/>
  <path d="m473.66 785.07s2.045 0.387 5.061 1.103c3.013 0.72 6.981 1.811 10.823 3.15 1.94 0.671 3.778 1.375 5.602 2.123 1.867 0.765 3.598 1.503 5.074 2.151 2.952 1.298 4.891 2.219 4.891 2.219l10.3-21.978s-2.159-1.025-5.436-2.466c-1.638-0.72-3.558-1.539-5.626-2.386-2.109-0.867-4.509-1.786-6.856-2.597-4.726-1.646-9.516-2.96-13.119-3.821-3.604-0.855-6.018-1.312-6.018-1.312z" fill="none"/>
  <path d="m477.65 775.15s2.337 0.491 4.652 1.072c2.318 0.571 4.608 1.237 4.608 1.237l0.897-3.109s-2.35-0.684-4.724-1.269c-2.372-0.596-4.764-1.098-4.763-1.098z" fill="#1d1d1b"/>
  <path d="m490.72 778.62s1.129 0.379 2.259 0.759c1.122 0.401 2.243 0.802 2.243 0.802l1.123-3.035s-1.153-0.412-2.306-0.825c-1.161-0.39-2.321-0.78-2.321-0.78z" fill="#1d1d1b"/>
  <path d="m498.92 781.62s2.222 0.906 4.423 1.86c2.203 0.951 4.383 1.952 4.383 1.952l1.347-2.942s-2.211-1.014-4.444-1.979c-2.232-0.967-4.484-1.886-4.484-1.886z" fill="#1d1d1b"/>
  <path d="m505.11 795.82s7.806 3.609 15.207 7.897c3.711 2.124 7.331 4.384 9.998 6.142 2.668 1.756 4.4 2.986 4.4 2.986l13.917-19.885s-1.966-1.397-4.982-3.38c-3.013-1.987-7.092-4.533-11.255-6.916-8.307-4.812-16.985-8.822-16.985-8.823z" fill="none"/>
  <path d="m511.39 787.15s2.164 1.034 4.302 2.121c2.141 1.08 4.255 2.213 4.255 2.213l1.525-2.854s-2.146-1.15-4.318-2.246c-2.169-1.103-4.365-2.151-4.365-2.151z" fill="#1d1d1b"/>
  <path d="m523.45 793.4s1.043 0.59 2.086 1.181c1.037 0.602 2.073 1.204 2.073 1.204l1.643-2.788s-1.053-0.612-2.105-1.223c-1.059-0.6-2.119-1.199-2.119-1.199z" fill="#1d1d1b"/>
  <path d="m531.03 797.84s2.043 1.254 4.052 2.561c2.012 1.302 3.988 2.657 3.988 2.657l1.827-2.671s-2.009-1.377-4.054-2.701c-2.042-1.328-4.117-2.602-4.117-2.602z" fill="#1d1d1b"/>
  <path d="m534.71 812.84s7.009 4.841 13.384 10.372c3.203 2.746 6.264 5.628 8.482 7.853 2.222 2.222 3.631 3.761 3.631 3.761l17.768-16.535s-1.655-1.807-4.244-4.396c-2.585-2.593-6.134-5.933-9.819-9.092-7.341-6.367-15.285-11.848-15.285-11.848z" fill="none"/>
  <path d="m542.39 805.38s1.95 1.391 3.859 2.837c1.913 1.44 3.783 2.936 3.783 2.936l2.018-2.53s-1.904-1.523-3.851-2.989c-1.942-1.472-3.926-2.886-3.926-2.886z" fill="#1d1d1b"/>
  <path d="m553.12 813.68s0.913 0.773 1.826 1.547l1.804 1.572 2.143-2.425-1.838-1.602c-0.931-0.788-1.861-1.576-1.861-1.576z" fill="#1d1d1b"/>
  <path d="m559.7 819.47s1.758 1.622 3.459 3.304c1.709 1.674 3.357 3.405 3.357 3.405l2.339-2.235s-1.683-1.769-3.427-3.476c-1.735-1.716-3.528-3.371-3.528-3.371z" fill="#1d1d1b"/>
  <path d="m560.21 834.83s1.437 1.518 3.477 3.88c2.043 2.359 4.652 5.587 7.051 8.94 2.408 3.347 4.597 6.815 6.119 9.468 1.53 2.649 2.438 4.463 2.438 4.463l21.578-11.114s-1.125-2.244-2.997-5.488c-1.865-3.248-4.524-7.459-7.416-11.476-2.88-4.026-5.98-7.859-8.391-10.643-2.408-2.788-4.09-4.564-4.09-4.564z" fill="none"/>
  <path d="m569.27 829.13s1.609 1.768 3.15 3.593c1.549 1.819 3.029 3.694 3.029 3.693l2.537-2.008s-1.514-1.918-3.098-3.778c-1.577-1.867-3.22-3.672-3.22-3.672z" fill="#1d1d1b"/>
  <path d="m577.87 839.58 1.41 1.926c0.686 0.976 1.373 1.952 1.373 1.952l2.663-1.838s-0.703-1-1.407-2c-0.722-0.987-1.443-1.973-1.443-1.973z" fill="#1d1d1b"/>
  <path d="m582.86 846.76s1.298 2.001 2.505 4.057c1.218 2.05 2.342 4.151 2.342 4.151l2.85-1.532s-1.156-2.16-2.407-4.265c-1.24-2.111-2.571-4.165-2.571-4.165z" fill="#1d1d1b"/>
  <path d="m579.3 861.58s0.951 1.796 2.203 4.554c1.256 2.755 2.761 6.49 3.962 10.296 1.213 3.803 2.115 7.667 2.64 10.612 0.536 2.936 0.753 4.91 0.753 4.91l24.087-2.983s-0.279-2.538-0.965-6.296c-0.669-3.752-1.833-8.739-3.379-13.581-1.529-4.847-3.423-9.54-4.989-12.974-1.561-3.438-2.734-5.653-2.734-5.653z" fill="none"/>
  <path d="m589.55 858.54s1.06 2.134 2.012 4.315c0.963 2.177 1.818 4.397 1.818 4.397l3.018-1.169s-0.882-2.29-1.875-4.532c-0.981-2.247-2.071-4.442-2.071-4.442z" fill="#1d1d1b"/>
  <path d="m594.74 870.98s0.373 1.128 0.747 2.257c0.346 1.137 0.691 2.274 0.691 2.274l3.107-0.904s-0.356-1.174-0.713-2.349c-0.385-1.165-0.771-2.33-0.771-2.33z" fill="#1d1d1b"/>
  <path d="m597.21 879.33s0.574 2.306 1.024 4.64c0.46 2.332 0.797 4.685 0.797 4.685l3.202-0.465s-0.348-2.432-0.824-4.841c-0.465-2.411-1.059-4.795-1.059-4.795z" fill="#1d1d1b"/>
  <path d="m588.85 891.95s0.268 1.969 0.467 4.941c0.205 2.971 0.271 6.949 0.015 10.93-0.238 3.98-0.788 7.956-1.345 10.924-0.553 2.968-1.041 4.936-1.041 4.936l23.614 5.613s0.606-2.438 1.298-6.159c0.697-3.718 1.396-8.744 1.699-13.821 0.326-5.075 0.242-10.184-0.021-14-0.255-3.818-0.6-6.346-0.6-6.346z" fill="none"/>
  <path d="m599.52 892.64s0.246 2.363 0.369 4.736c0.133 2.373 0.137 4.75 0.137 4.75l3.236-0.011s-4e-3 -2.457-0.142-4.909c-0.127-2.453-0.381-4.896-0.381-4.896z" fill="#1d1d1b"/>
  <path d="m599.96 906.08s-0.037 1.188-0.119 2.374c-0.064 1.187-0.171 2.371-0.172 2.371l3.224 0.276s0.111-1.223 0.178-2.448c0.084-1.225 0.123-2.452 0.123-2.452z" fill="#1d1d1b"/>
  <path d="m599.25 914.77s-0.29 2.361-0.703 4.705c-0.403 2.345-0.912 4.671-0.912 4.671l3.162 0.69s0.524-2.396 0.939-4.813c0.425-2.416 0.724-4.852 0.725-4.852z" fill="#1d1d1b"/>
  <path d="m586.95 923.68s-0.44 1.973-1.295 4.904c-0.847 2.932-2.135 6.818-3.686 10.643-3.027 7.676-7.173 15.014-7.172 15.014l21.243 11.741s4.809-8.489 8.453-17.709c1.857-4.584 3.432-9.318 4.472-12.921 1.049-3.602 1.6-6.058 1.6-6.058z" fill="none"/>
  <path d="m596.71 928.05s-0.581 2.31-1.277 4.59c-0.686 2.282-1.468 4.536-1.468 4.536l3.059 1.055s0.802-2.312 1.507-4.658c0.716-2.342 1.313-4.719 1.313-4.719z" fill="#1d1d1b"/>
  <path d="m592.61 940.91s-0.434 1.111-0.869 2.223l-0.908 2.208 2.981 1.259s0.465-1.131 0.93-2.261c0.445-1.139 0.891-2.277 0.891-2.277z" fill="#1d1d1b"/>
  <path d="m589.23 948.99s-0.994 2.172-2.056 4.313c-1.058 2.144-2.196 4.247-2.196 4.247l2.852 1.529s1.162-2.146 2.242-4.336c1.085-2.187 2.102-4.409 2.102-4.409z" fill="#1d1d1b"/>
  <path d="m574.8 954.24s-0.998 1.845-2.621 4.563c-1.626 2.715-3.888 6.299-6.323 9.799-4.823 7.028-10.343 13.674-10.343 13.674l18.764 15.396s6.088-7.322 11.539-15.26c2.746-3.947 5.331-8.038 7.199-11.159 1.866-3.125 3.027-5.271 3.027-5.271z" fill="none"/>
  <path d="m583.03 961.08s-1.177 2.083-2.425 4.125c-1.236 2.05-2.538 4.061-2.538 4.061l2.721 1.751s1.324-2.046 2.583-4.134c1.271-2.08 2.471-4.204 2.472-4.204z" fill="#1d1d1b"/>
  <path d="m575.87 972.6s-0.675 0.989-1.351 1.979c-0.688 0.981-1.375 1.963-1.375 1.963l2.639 1.873s0.699-0.997 1.397-1.995c0.687-1.005 1.373-2.011 1.373-2.011z" fill="#1d1d1b"/>
  <path d="m570.8 979.78s-1.421 1.931-2.892 3.826c-1.462 1.901-2.973 3.766-2.973 3.766l2.519 2.031s1.531-1.889 3.015-3.818c1.492-1.922 2.935-3.883 2.935-3.883z" fill="#1d1d1b"/>
  <path d="m555.51 982.28s-1.358 1.672-3.472 4.133c-2.108 2.461-4.991 5.692-7.998 8.91-5.988 6.43-12.327 12.694-12.327 12.694l17.124 17.201s6.571-6.489 12.95-13.338c3.188-3.41 6.346-6.948 8.664-9.654 2.32-2.701 3.822-4.55 3.822-4.549z" fill="none"/>
  <path d="m562.37 990.5s-1.556 1.828-3.111 3.657c-1.589 1.8-3.179 3.6-3.179 3.6l2.407 2.163s1.608-1.822 3.217-3.644c1.575-1.852 3.15-3.703 3.15-3.703z" fill="#1d1d1b"/>
  <path d="m550.1 1004.2 2.353 2.222 3.309-3.548-2.381-2.192z" fill="#1d1d1b"/>
  <path d="m547.33 1007.1s-1.678 1.727-3.355 3.454c-1.694 1.712-3.389 3.424-3.389 3.424l2.291 2.286 3.408-3.444c1.689-1.738 3.378-3.477 3.378-3.477z" fill="#1d1d1b"/>
  <path d="m531.72 1008s-6.305 6.278-12.813 12.438c-6.49 6.17-13.121 12.253-13.121 12.254l16.437 17.859s6.739-6.182 13.398-12.513c6.67-6.312 13.223-12.836 13.223-12.836z" fill="none"/>
  <path d="m537.71 1016.9-3.438 3.378-3.462 3.356 2.245 2.33s1.738-1.685 3.477-3.37c1.727-1.697 3.455-3.394 3.455-3.394z" fill="#1d1d1b"/>
  <path d="m524.41 1029.7 2.222 2.353 3.51-3.333-2.235-2.341z" fill="#1d1d1b"/>
  <path d="m514.42 1039.1 2.194 2.378 7.085-6.59-2.213-2.361z" fill="#1d1d1b"/>
  <path d="m505.78 1032.7s-6.618 6.09-13.325 12.128c-6.731 6.028-13.462 12.057-13.462 12.057l16.145 18.123s6.785-6.076 13.569-12.152c6.777-6.1 13.51-12.296 13.51-12.296z" fill="none"/>
  <path d="m504.29 1048.3 2.174 2.397 7.145-6.519-2.188-2.384z" fill="#1d1d1b"/>
  <path d="m497.72 1054.3 2.164 2.406 3.591-3.238-2.169-2.401z" fill="#1d1d1b"/>
  <path d="m487.53 1063.4 2.154 2.415 7.207-6.444-2.161-2.409z" fill="#1d1d1b"/>
  <path d="m451.86 1081 16.167 18.103 27.107-24.101-16.145-18.122z" fill="none"/>
  <path transform="rotate(-41.634,481.93,1070.5)" d="m477.12 1068.9h9.661v3.236h-9.661z" fill="#1d1d1b"/>
  <path transform="rotate(-41.6,473.43,1077.9)" d="m471.1 1076.4h4.832v3.236h-4.832z" fill="#1d1d1b"/>
  <path transform="rotate(-41.669,465.13,1085.6)" d="m460.26 1083.9h9.666v3.236h-9.666z" fill="#1d1d1b"/>
  <path d="m451.86 1081-13.566 12.21c-6.774 6.141-13.487 12.466-13.487 12.466l16.655 17.656s6.492-6.119 13.161-12.164c6.702-6.032 13.405-12.064 13.405-12.064z" fill="none"/>
  <path d="m450.17 1096.7 2.167 2.403 7.185-6.45-2.156-2.412z" fill="#1d1d1b"/>
  <path d="m443.6 1102.6 2.181 2.391 3.571-3.247-2.173-2.398z" fill="#1d1d1b"/>
  <path d="m433.53 1111.9 2.215 2.36 7.071-6.561-2.19-2.382z" fill="#1d1d1b"/>
  <path d="m424.81 1105.7s-6.725 6.279-13.314 12.975c-3.293 3.339-6.566 6.824-8.965 9.54-2.361 2.658-3.894 4.477-3.894 4.477l18.489 15.725s1.391-1.649 3.548-4.079c2.105-2.383 5.043-5.515 8.119-8.635 6.137-6.238 12.673-12.347 12.673-12.347z" fill="none"/>
  <path d="m430.56 1114.7s-1.751 1.674-3.501 3.348l-3.474 3.38 2.268 2.308 3.452-3.358 3.482-3.33z" fill="#1d1d1b"/>
  <path d="m417.31 1127.8 2.323 2.253 3.373-3.427-2.291-2.285z" fill="#1d1d1b"/>
  <path d="m414.51 1130.7s-1.67 1.768-3.298 3.581c-1.607 1.825-3.214 3.649-3.214 3.649l2.448 2.116 3.172-3.602c1.6-1.782 3.249-3.526 3.248-3.526z" fill="#1d1d1b"/>
  <path d="m398.64 1132.7s-6.208 7.204-11.811 15.039c-2.811 3.905-5.486 7.939-7.402 11.041-1.925 3.095-3.125 5.225-3.125 5.225l21.046 12.091s1.026-1.823 2.695-4.506c1.659-2.688 4-6.217 6.488-9.676 4.955-6.933 10.598-13.489 10.598-13.49z" fill="none"/>
  <path d="m405.34 1141.1s-1.56 1.865-3.083 3.763c-1.527 1.894-3.005 3.828-3.005 3.828l2.567 1.971s1.456-1.906 2.961-3.773c1.501-1.871 3.041-3.711 3.041-3.711z" fill="#1d1d1b"/>
  <path d="m396.81 1151.9s-0.718 0.983-1.436 1.967l-1.41 1.986 2.649 1.858s0.693-0.977 1.387-1.954l1.412-1.936z" fill="#1d1d1b"/>
  <path d="m391.67 1159.2s-1.362 2.021-2.66 4.086c-1.304 2.06-2.543 4.162-2.543 4.162l2.785 1.648s1.214-2.061 2.495-4.083c1.272-2.027 2.611-4.012 2.611-4.012z" fill="#1d1d1b"/>
  <path d="m376.3 1164s-1.23 2.106-2.951 5.36c-1.716 3.255-3.884 7.688-5.781 12.279-1.911 4.583-3.547 9.316-4.61 12.93-1.072 3.611-1.644 6.071-1.643 6.071l23.584 5.735s0.455-1.961 1.319-4.873c0.857-2.913 2.187-6.765 3.767-10.556 3.105-7.605 7.363-14.855 7.362-14.855z" fill="none"/>
  <path d="m384.42 1171s-1.19 2.131-2.309 4.303c-1.123 2.169-2.167 4.379-2.167 4.379l2.925 1.385s1.021-2.158 2.118-4.28c1.095-2.124 2.26-4.211 2.26-4.211z" fill="#1d1d1b"/>
  <path d="m378.25 1183.4-0.96 2.25c-0.458 1.134-0.916 2.269-0.916 2.269l3.012 1.184s0.446-1.106 0.892-2.211c0.468-1.097 0.937-2.194 0.937-2.194z" fill="#1d1d1b"/>
  <path d="m374.94 1191.7s-0.827 2.305-1.546 4.647c-0.731 2.338-1.349 4.711-1.35 4.711l3.129 0.823s0.601-2.304 1.312-4.577c0.7-2.276 1.504-4.521 1.504-4.521z" fill="#1d1d1b"/>
  <path d="m361.32 1200.6s-0.625 2.443-1.331 6.173c-0.706 3.729-1.421 8.763-1.733 13.841-0.33 5.077-0.25 10.173-9e-3 13.975 0.248 3.8 0.566 6.313 0.567 6.313l24.106-2.825s-0.251-1.989-0.448-4.979c-0.188-2.988-0.251-6.977 7e-3 -10.956 0.245-3.979 0.808-7.942 1.366-10.897 0.561-2.956 1.059-4.91 1.059-4.91z" fill="none"/>
  <path d="m371.07 1205.1s-0.539 2.393-0.96 4.81c-0.434 2.415-0.736 4.851-0.736 4.851l3.21 0.41s0.293-2.36 0.714-4.701c0.408-2.343 0.931-4.665 0.931-4.665z" fill="#1d1d1b"/>
  <path d="m368.94 1218.8s-0.094 1.224-0.187 2.448c-0.076 1.225-0.123 2.451-0.123 2.451l3.234 0.126s0.045-1.188 0.119-2.374c0.091-1.185 0.181-2.37 0.181-2.37z" fill="#1d1d1b"/>
  <path d="m368.55 1227.8s-6e-3 2.456 0.125 4.907c0.12 2.452 0.359 4.894 0.359 4.894l3.221-0.313s-0.231-2.367-0.348-4.741c-0.128-2.374-0.121-4.751-0.122-4.751z" fill="#1d1d1b"/>
  <path d="m358.81 1240.9s0.259 2.524 0.909 6.266c0.633 3.744 1.729 8.688 3.159 13.511 1.423 4.826 3.168 9.521 4.61 12.962 1.437 3.447 2.509 5.678 2.509 5.678l21.979-10.297s-0.893-1.859-2.074-4.693c-1.188-2.832-2.605-6.653-3.748-10.53-1.147-3.876-2.019-7.803-2.519-10.767-0.516-2.962-0.719-4.954-0.719-4.954z" fill="none"/>
  <path d="m369.52 1241.7s0.324 2.433 0.776 4.844c0.437 2.415 1.004 4.801 1.004 4.801l3.152-0.731s-0.55-2.316-0.974-4.657c-0.438-2.338-0.752-4.696-0.752-4.696z" fill="#1d1d1b"/>
  <path d="m372.3 1255.3s0.333 1.18 0.667 2.359c0.351 1.174 0.722 2.341 0.722 2.341l3.083-0.983-0.702-2.274c-0.324-1.146-0.647-2.291-0.647-2.291z" fill="#1d1d1b"/>
  <path d="m374.99 1263.9s0.815 2.31 1.741 4.576c0.917 2.27 1.922 4.499 1.922 4.499l2.952-1.326s-0.981-2.175-1.874-4.385c-0.902-2.208-1.694-4.455-1.694-4.455z" fill="#1d1d1b"/>
  <path d="m370 1279.3s1.026 2.259 2.735 5.535c1.699 3.282 4.111 7.556 6.71 11.675 2.593 4.123 5.356 8.095 7.494 11.008 2.137 2.914 3.615 4.802 3.615 4.801l19.181-14.873s-5.303-6.732-9.749-13.865c-2.242-3.555-4.291-7.188-5.72-9.947-1.438-2.757-2.288-4.63-2.288-4.63z" fill="none"/>
  <path d="m380.41 1276.7c0-1e-3 1.063 2.202 2.217 4.355 1.144 2.159 2.359 4.276 2.359 4.276l2.807-1.61s-1.189-2.073-2.308-4.184c-1.128-2.105-2.165-4.255-2.166-4.255z" fill="#1d1d1b"/>
  <path d="m387.05 1288.9 1.284 2.074c0.657 1.027 1.315 2.054 1.315 2.054l2.714-1.763s-0.645-1.007-1.29-2.015c-0.629-1.017-1.259-2.033-1.259-2.033z" fill="#1d1d1b"/>
  <path d="m391.9 1296.4s1.376 2.012 2.802 3.987c1.425 1.976 2.9 3.913 2.9 3.913l2.577-1.957s-1.452-1.907-2.853-3.851c-1.402-1.941-2.753-3.918-2.753-3.918z" fill="#1d1d1b"/>
  <path d="m390.55 1312.4s1.462 1.905 3.731 4.68c2.266 2.777 5.357 6.404 8.547 9.912 6.354 7.048 13.107 13.58 13.107 13.58l16.966-17.356s-6.293-6.091-12.089-12.523c-2.914-3.204-5.708-6.484-7.743-8.979-2.039-2.492-3.338-4.187-3.338-4.187z" fill="none"/>
  <path d="m400.12 1307.5s1.53 1.892 3.06 3.783c1.569 1.858 3.138 3.717 3.138 3.717l2.452-2.112-3.096-3.666c-1.508-1.864-3.016-3.729-3.016-3.729z" fill="#1d1d1b"/>
  <path d="m412.25 1321.7 2.379-2.193-3.225-3.559-2.417 2.15z" fill="#1d1d1b"/>
  <path d="m415.02 1324.6 3.374 3.494c1.713 1.721 3.426 3.44 3.426 3.44l2.276-2.3s-1.696-1.703-3.392-3.405c-1.668-1.729-3.337-3.458-3.337-3.458z" fill="#1d1d1b"/>
  <path d="m415.94 1340.5s1.674 1.65 4.229 4.066c2.552 2.419 5.994 5.59 9.485 8.686 3.488 3.102 7.027 6.127 9.699 8.366 2.662 2.211 4.437 3.685 4.437 3.685l15.452-18.718s-1.715-1.424-4.287-3.56c-2.542-2.13-5.899-5.001-9.191-7.928-3.296-2.923-6.526-5.899-8.913-8.161-2.389-2.259-3.945-3.793-3.945-3.793z" fill="none"/>
  <path d="m424.75 1334.4s1.757 1.675 3.514 3.349c1.779 1.649 3.557 3.299 3.557 3.299l2.187-2.386s-1.764-1.636-3.527-3.271c-1.741-1.658-3.482-3.317-3.482-3.317z" fill="#1d1d1b"/>
  <path d="m438.44 1347 2.134-2.433-3.6-3.193-2.162 2.408z" fill="#1d1d1b"/>
  <path d="m441.49 1349.7s1.845 1.572 3.691 3.144c1.859 1.554 3.719 3.108 3.719 3.108l2.063-2.493s-1.848-1.545-3.695-3.089c-1.833-1.561-3.666-3.121-3.666-3.121z" fill="#1d1d1b"/>
  <path d="m443.78 1365.3s7.052 5.774 14.104 11.549c7.047 5.723 14.094 11.445 14.094 11.445l15.301-18.842s-7.037-5.715-14.075-11.43c-6.986-5.72-13.971-11.44-13.971-11.44z" fill="none"/>
  <path d="m459.52 1364.6 2.048-2.506-7.467-6.122-2.058 2.498z" fill="#1d1d1b"/>
  <path transform="rotate(219.14 465.52 1367.5)" d="m463.12 1365.8h4.833v3.236h-4.833z" fill="#1d1d1b"/>
  <path transform="matrix(-.7764 -.6302 .6302 -.7764 -23.708 2740.7)" d="m469.46 1372.9h9.663v3.236h-9.663z" fill="#1d1d1b"/>
  <path d="m471.98 1388.3s7.002 5.712 14.004 11.425c6.975 5.718 13.827 11.499 13.827 11.499l15.655-18.549s-7.016-5.919-14.073-11.703l-14.112-11.514z" fill="none"/>
  <path d="m487.67 1387.5 2.047-2.506-7.495-6.105-2.041 2.512z" fill="#1d1d1b"/>
  <path d="m494.52 1393.1 2.057-2.498-3.736-3.07-2.051 2.503z" fill="#1d1d1b"/>
  <path d="m505.03 1401.9 2.082-2.478-7.43-6.196-2.064 2.492z" fill="#1d1d1b"/>
  <path d="m499.81 1411.3s6.871 5.771 13.537 11.666c3.337 2.945 6.624 5.921 9.056 8.172 2.415 2.261 4.024 3.768 4.024 3.768l16.705-17.608s-1.701-1.593-4.253-3.981c-2.561-2.371-6-5.484-9.464-8.542-6.926-6.124-13.949-12.022-13.949-12.022z" fill="none"/>
  <path d="m515.47 1410.8 2.119-2.445-7.352-6.298-2.091 2.469z" fill="#1d1d1b"/>
  <path d="m522.11 1416.6 2.152-2.417-3.631-3.207-2.133 2.434z" fill="#1d1d1b"/>
  <path d="m525.1 1419.3s1.78 1.622 3.561 3.243c1.763 1.639 3.527 3.277 3.527 3.277l2.215-2.358s-1.776-1.65-3.552-3.301c-1.792-1.632-3.583-3.264-3.583-3.264z" fill="#1d1d1b"/>
  <path d="m526.43 1434.9s6.438 6.039 12.341 12.336c2.961 3.142 5.781 6.342 7.793 8.771 2.02 2.428 3.266 4.07 3.266 4.07l19.223-14.818s-1.497-1.972-3.829-4.774c-2.328-2.81-5.51-6.418-8.771-9.877-6.511-6.941-13.317-13.316-13.317-13.316z" fill="none"/>
  <path d="m535.13 1428.6s1.726 1.675 3.452 3.351c1.7 1.698 3.401 3.396 3.401 3.396l2.305-2.271-3.436-3.432-3.482-3.38z" fill="#1d1d1b"/>
  <path d="m544.77 1438.2s0.827 0.87 1.653 1.741c0.818 0.878 1.635 1.756 1.635 1.756l2.379-2.193s-0.829-0.89-1.657-1.78c-0.837-0.881-1.674-1.763-1.674-1.763z" fill="#1d1d1b"/>
  <path d="m550.74 1444.7s1.595 1.79 3.137 3.621c1.548 1.825 3.032 3.699 3.032 3.699l2.534-2.012s-1.516-1.915-3.093-3.774c-1.57-1.865-3.19-3.684-3.19-3.684z" fill="#1d1d1b"/>
  <path d="m549.83 1460s1.291 1.636 3.032 4.118c1.742 2.478 3.891 5.824 5.523 9.115 1.663 3.296 2.704 6.463 3.084 8.58 0.101 0.533 0.168 1.005 0.217 1.414 0.048 0.427 0.067 0.685 0.099 1.177 0.047 0.851 0.074 1.337 0.074 1.337l24.246-1.124s-0.036-0.646-0.098-1.777c-0.031-0.497-0.097-1.442-0.208-2.389-0.112-0.963-0.269-2.035-0.485-3.174-0.837-4.583-2.775-10.063-5.204-14.867-2.41-4.837-5.204-9.128-7.368-12.216-2.167-3.087-3.69-5.014-3.69-5.013z" fill="none"/>
  <path d="m559.37 1455.2s1.434 1.907 2.774 3.873c1.351 1.96 2.585 3.984 2.585 3.984l2.76-1.69s-1.283-2.102-2.675-4.121c-1.381-2.027-2.852-3.982-2.852-3.982z" fill="#1d1d1b"/>
  <path d="m566.7 1466.5s0.568 1.036 1.091 2.091c0.529 1.052 1.006 2.124 1.006 2.124l2.952-1.326s-0.506-1.136-1.062-2.242c-0.55-1.11-1.145-2.192-1.145-2.192z" fill="#1d1d1b"/>
  <path d="m570.26 1474.3s0.808 2.194 1.306 4.448c0.535 2.25 0.685 4.529 0.685 4.529l3.228-0.229s-0.17-2.558-0.757-5.018c-0.547-2.47-1.415-4.819-1.414-4.819z" fill="#1d1d1b"/>
  <path d="m561.86 1485.8s0.11 1.952 0.094 5.036c-0.011 3.08-0.187 7.295-0.532 11.563-0.662 8.539-2.01 17.182-2.01 17.182l24.003 3.6s1.457-9.295 2.201-18.852c0.387-4.775 0.595-9.629 0.609-13.354 0.021-3.72-0.12-6.299-0.12-6.299z" fill="none"/>
  <path d="m572.44 1487.3s0.063 2.378 0.021 4.767c-0.032 2.387-0.147 4.778-0.147 4.778l3.232 0.148s0.118-2.436 0.15-4.88c0.043-2.443-0.022-4.896-0.021-4.896z" fill="#1d1d1b"/>
  <path d="m572.09 1500.8s-0.088 1.195-0.176 2.391c-0.102 1.194-0.204 2.389-0.204 2.389l3.223 0.293s0.103-1.213 0.207-2.425c0.09-1.214 0.18-2.429 0.18-2.429z" fill="#1d1d1b"/>
  <path d="m571.31 1509.6s-0.279 2.385-0.558 4.769c-0.321 2.381-0.641 4.762-0.641 4.762l3.203 0.459s0.324-2.408 0.648-4.815l0.564-4.828z" fill="#1d1d1b"/>
  <path d="m559.41 1519.6s-0.314 2.155-0.857 5.385c-0.541 3.23-1.328 7.533-2.217 11.818-1.745 8.583-3.991 17.026-3.991 17.026l23.471 6.181s2.419-9.097 4.29-18.297c0.953-4.598 1.799-9.22 2.381-12.7 0.585-3.479 0.926-5.813 0.926-5.813z" fill="none"/>
  <path d="m569.51 1523.1s-0.39 2.372-0.779 4.743l-0.85 4.732 3.181 0.595s0.429-2.389 0.857-4.778c0.394-2.396 0.788-4.791 0.788-4.791z" fill="#1d1d1b"/>
  <path d="m566.15 1541.2 3.164 0.676 0.982-4.754-3.174-0.632z" fill="#1d1d1b"/>
  <path d="m565.29 1545.1s-0.546 2.342-1.093 4.683c-0.58 2.333-1.161 4.666-1.161 4.666l3.135 0.805 1.172-4.712 1.104-4.728z" fill="#1d1d1b"/>
  <path d="m552.34 1553.8s-2.187 8.471-4.93 16.662c-1.355 4.101-2.836 8.122-4.012 11.079-1.174 2.961-2.021 4.873-2.021 4.873l22.263 9.669s0.989-2.236 2.323-5.602c1.337-3.364 2.991-7.86 4.482-12.373 3.018-9.02 5.365-18.128 5.365-18.128z" fill="none"/>
  <path d="m562 1558.4-1.29 4.63c-0.682 2.304-1.364 4.607-1.364 4.607l3.095 0.944s0.689-2.329 1.379-4.658c0.651-2.34 1.303-4.679 1.303-4.679z" fill="#1d1d1b"/>
  <path d="m558.15 1571.5s-0.373 1.141-0.746 2.281c-0.383 1.138-0.767 2.274-0.767 2.274l3.061 1.05s0.389-1.152 0.777-2.305c0.377-1.155 0.755-2.311 0.755-2.311z" fill="#1d1d1b"/>
  <path d="m555.31 1579.8s-0.815 2.256-1.684 4.488c-0.867 2.234-1.794 4.44-1.794 4.44l2.984 1.252s0.945-2.248 1.826-4.519c0.884-2.271 1.711-4.559 1.711-4.559z" fill="#1d1d1b"/>
  <path d="m541.38 1586.4s-0.821 1.94-2.159 4.725c-1.333 2.779-3.222 6.39-5.285 9.552-1.026 1.581-2.091 3.045-3.09 4.247-0.499 0.602-0.98 1.138-1.427 1.601-0.451 0.465-0.974 0.974-1.43 1.387-1.868 1.698-3.307 2.68-3.307 2.68l14.183 19.696s0.573-0.404 1.553-1.154c0.979-0.752 2.361-1.86 3.943-3.304 0.802-0.731 1.604-1.504 2.511-2.438 0.907-0.939 1.796-1.937 2.654-2.972 1.718-2.07 3.313-4.29 4.757-6.512 2.89-4.444 5.191-8.902 6.805-12.251 1.608-3.349 2.554-5.588 2.554-5.588z" fill="none"/>
  <path d="m550.23 1592.4s-0.974 2.183-2.034 4.319c-1.05 2.142-2.194 4.226-2.194 4.226l2.838 1.555s1.181-2.152 2.258-4.35c1.087-2.192 2.082-4.423 2.082-4.423z" fill="#1d1d1b"/>
  <path d="m544.03 1604.4s-0.613 1.014-1.257 2.003c-0.642 0.991-1.319 1.954-1.319 1.954l2.648 1.86s0.712-1.015 1.384-2.051c0.673-1.035 1.311-2.089 1.311-2.089z" fill="#1d1d1b"/>
  <path d="m539.1 1611.5s-1.456 1.815-3.148 3.409c-1.673 1.626-3.522 3.06-3.522 3.06l1.997 2.546s1.976-1.53 3.77-3.274c1.83-1.725 3.404-3.687 3.404-3.688z" fill="#1d1d1b"/>
  <path d="m524.69 1610.6s-1.372 1.037-3.693 2.367c-2.313 1.336-5.65 2.893-9.271 4.111-3.609 1.232-7.459 2.141-10.412 2.69-2.953 0.554-4.981 0.806-4.981 0.806l3.274 24.05s2.476-0.306 6.211-1.005c3.733-0.698 8.737-1.861 13.718-3.561 4.982-1.673 9.909-3.943 13.488-6.011 1.794-1.021 3.255-1.968 4.268-2.65 1.013-0.685 1.58-1.102 1.58-1.102z" fill="none"/>
  <path d="m529.22 1620.2s-1.949 1.302-4.021 2.413c-2.06 1.131-4.219 2.08-4.219 2.08l1.318 2.956c0-1e-3 2.268-0.998 4.446-2.193 2.189-1.174 4.263-2.559 4.263-2.559z" fill="#1d1d1b"/>
  <path d="m517.35 1626.2s-1.104 0.42-2.224 0.798c-1.119 0.381-2.252 0.726-2.252 0.726l0.947 3.094s1.179-0.357 2.347-0.756c1.168-0.395 2.323-0.834 2.323-0.834z" fill="#1d1d1b"/>
  <path d="m509.07 1628.8s-2.298 0.59-4.63 1.054c-2.329 0.475-4.685 0.83-4.685 0.83l0.494 3.198s2.423-0.366 4.83-0.856c2.408-0.478 4.791-1.09 4.791-1.09z" fill="#1d1d1b"/>
  <path d="m496.33 1620.6s-2.009 0.293-5.09 0.573c-3.078 0.286-7.243 0.515-11.463 0.544-4.222 0.036-8.513-0.107-11.75-0.274-3.239-0.169-5.435-0.331-5.435-0.331l-1.686 24.213s2.328 0.173 5.884 0.358c3.557 0.183 8.336 0.347 13.187 0.305 4.852-0.033 9.752-0.298 13.449-0.642 3.695-0.335 6.177-0.696 6.177-0.696z" fill="none"/>
  <path d="m495.77 1631.2s-2.367 0.288-4.748 0.475c-2.379 0.2-4.768 0.308-4.768 0.308l0.155 3.232s2.439-0.11 4.875-0.314c2.437-0.191 4.867-0.487 4.867-0.487z" fill="#1d1d1b"/>
  <path d="m482.27 1632.2s-1.196 0.019-2.393 0.037c-1.197 1e-3 -2.394 0-2.394 0l-0.016 3.235s1.218-1e-3 2.437 0c1.22-0.02 2.439-0.038 2.439-0.038z" fill="#1d1d1b"/>
  <path d="m473.49 1632.1s-2.396-0.056-4.794-0.173l-4.796-0.266-0.206 3.229s2.426 0.135 4.852 0.269c2.429 0.118 4.863 0.175 4.863 0.175z" fill="#1d1d1b"/>
  <path d="m462.59 1621.1s-2.217-0.167-5.544-0.418c-0.85-0.067-1.771-0.14-2.746-0.216-0.645-0.048-1.486-0.146-2.443-0.268-1.904-0.246-4.08-0.573-6.254-0.915-4.363-0.688-8.793-1.447-12.11-2.023-3.323-0.584-5.539-0.974-5.539-0.974l-4.248 23.896s2.252 0.396 5.629 0.99c3.386 0.588 7.897 1.362 12.495 2.087 2.307 0.362 4.617 0.712 6.93 1.012 1.151 0.146 2.353 0.292 3.651 0.392 0.968 0.076 1.884 0.148 2.729 0.215 3.458 0.261 5.764 0.435 5.764 0.435z" fill="none"/>
  <path d="m459.85 1631.4s-2.405-0.187-4.81-0.373c-0.601-0.047-1.202-0.095-1.765-0.139-0.544-0.055-1.052-0.105-1.487-0.149-0.884-0.109-1.474-0.182-1.474-0.182l-0.418 3.209s0.609 0.075 1.523 0.188c0.46 0.053 1 0.111 1.593 0.16 0.565 0.044 1.169 0.092 1.772 0.14 2.412 0.187 4.824 0.373 4.824 0.373z" fill="#1d1d1b"/>
  <path d="m441.61 1629.3-0.517 3.195 4.79 0.753 0.483-3.201z" fill="#1d1d1b"/>
  <path d="m428.14 1627-0.562 3.187 9.535 1.646 0.536-3.191z" fill="#1d1d1b"/>
  <path d="m427.96 1616.3s-8.878-1.617-17.757-3.234c-8.885-1.675-17.77-3.349-17.77-3.349l-4.552 23.841s8.945 1.686 17.889 3.371c8.971 1.634 17.941 3.268 17.941 3.268z" fill="none"/>
  <path d="m414.62 1624.5-0.584 3.183 9.515 1.725 0.569-3.185z" fill="#1d1d1b"/>
  <path transform="rotate(10.517,407.92,1625.2)" d="m405.58 1623.4h4.829v3.236h-4.829z" fill="#1d1d1b"/>
  <path d="m392.47 1620.4-0.605 3.18 9.499 1.796 0.597-3.181z" fill="#1d1d1b"/>
  <path d="m392.43 1609.7s-8.882-1.715-17.765-3.431c-8.875-1.751-17.75-3.503-17.75-3.503l-4.751 23.802s8.925 1.762 17.85 3.523c8.932 1.725 17.863 3.449 17.863 3.449z" fill="none"/>
  <path d="m378.98 1617.8-0.615 3.177 9.492 1.827 0.608-3.177z" fill="#1d1d1b"/>
  <path transform="matrix(.9815 .1917 -.1917 .9815 317.08 -41.368)" d="m369.94 1616.6h4.83v3.236h-4.83z" fill="#1d1d1b"/>
  <path d="m356.87 1613.5-0.632 3.174 9.483 1.876 0.625-3.175z" fill="#1d1d1b"/>
  <path d="m356.92 1602.7s-8.859-1.792-17.719-3.583c-8.854-1.81-17.636-3.699-17.636-3.698l-5.12 23.725s8.956 1.927 17.877 3.749c8.924 1.805 17.848 3.609 17.848 3.609z" fill="none"/>
  <path d="m343.4 1610.8-0.644 3.172 9.477 1.909 0.635-3.173z" fill="#1d1d1b"/>
  <path d="m334.73 1609-0.653 3.169 4.736 0.973 0.647-3.171z" fill="#1d1d1b"/>
  <path d="m321.35 1606.2-0.678 3.164 9.465 1.995 0.659-3.168z" fill="#1d1d1b"/>
 </g>
 <g stroke="#000" stroke-miterlimit="10" stroke-width=".417">
  <circle transform="matrix(-.99489 -.10098 -.10098 .99489 0 0)" cx="-192.63" cy="168.47" r="1.2408" fill="#fea"/>
  <circle transform="matrix(-.99489 -.10098 -.10098 .99489 0 0)" cx="-195.59" cy="171.81" r="1.2408" fill="#fea"/>
  <circle transform="matrix(-.99489 -.10098 -.10098 .99489 0 0)" cx="-188.83" cy="73.945" r="2.2309" fill="#fff6d5"/>
 </g>
</svg>
